<svg width="77" height="77" viewBox="0 0 77 77" fill="none" xmlns="http://www.w3.org/2000/svg">
<g clip-path="url(#clip0_219_1891)">
<path d="M10.7504 69.2126L4.60742 0.104004H72.3339L66.1909 69.2126L38.3939 76.8913" fill="url(#paint0_linear_219_1891)"/>
<path d="M38.4707 70.9787V5.70947H66.1141L60.8158 64.6821" fill="url(#paint1_linear_219_1891)"/>
<path d="M17.2002 14.2329H38.4703V22.6795H26.4915L27.2593 31.3565H38.4703V39.8031H19.5038L17.2002 14.2329ZM19.8878 44.1032H28.4111L29.0254 50.8605L38.4703 53.3945V62.225L21.0396 57.3874" fill="#2E2E2E"/>
<path d="M59.6636 14.2329H38.3936V22.6795H58.819L59.6636 14.2329ZM58.1279 31.3565H38.3936V39.8031H48.8366L47.8384 50.7837L38.3936 53.3945V62.225L55.7475 57.3874" fill="#2E2E2E"/>
</g>
<defs>
<linearGradient id="paint0_linear_219_1891" x1="38.4706" y1="0.104004" x2="38.4706" y2="76.8913" gradientUnits="userSpaceOnUse">
<stop stop-color="white" stop-opacity="0.3"/>
<stop offset="1" stop-color="white" stop-opacity="0.6"/>
</linearGradient>
<linearGradient id="paint1_linear_219_1891" x1="52.2924" y1="5.70947" x2="52.2924" y2="70.9787" gradientUnits="userSpaceOnUse">
<stop stop-color="white" stop-opacity="0.3"/>
<stop offset="1" stop-color="white" stop-opacity="0.6"/>
</linearGradient>
<clipPath id="clip0_219_1891">
<rect width="76.7873" height="76.7873" fill="white" transform="translate(0 0.104004)"/>
</clipPath>
</defs>
</svg>
