<svg width="1385" height="1165" viewBox="0 0 1385 1165" fill="none" xmlns="http://www.w3.org/2000/svg">
<g opacity="0.4">
<path d="M61.3894 577.88C55.7276 557.558 67.7348 536.485 94.6931 515.771C121.621 495.08 163.327 474.858 216.677 456.22C323.37 418.945 476.527 388.037 650.857 372.341C825.187 356.645 987.65 359.135 1109.38 375.843C1170.25 384.197 1220.91 396.103 1257.77 411.05C1294.67 426.015 1317.54 443.948 1323.2 464.269C1328.87 484.591 1316.86 505.664 1289.9 526.379C1262.97 547.069 1221.27 567.291 1167.92 585.929C1061.22 623.204 908.066 654.112 733.736 669.808C559.406 685.504 396.943 683.014 275.21 666.306C214.34 657.952 163.682 646.046 126.825 631.099C89.9262 616.134 67.0513 598.201 61.3894 577.88Z" stroke="url(#paint0_linear_281_920)"/>
<path d="M59.7408 571.611C54.7046 551.24 67.3554 530.289 94.9467 509.845C122.506 489.424 164.827 469.62 218.741 451.514C326.562 415.303 480.645 385.919 655.43 371.954C830.216 357.99 992.578 362.093 1113.78 380.006C1174.38 388.963 1224.67 401.368 1261.06 416.679C1297.5 432.008 1319.82 450.166 1324.85 470.537C1329.89 490.908 1317.24 511.859 1289.65 532.304C1262.09 552.724 1219.77 572.529 1165.85 590.636C1058.03 626.846 903.948 656.23 729.163 670.194C554.377 684.158 392.016 680.057 270.814 662.144C210.209 653.187 159.925 640.78 123.532 625.469C87.0964 610.14 64.7771 591.983 59.7408 571.611Z" stroke="url(#paint1_linear_281_920)"/>
<path d="M58.2831 565.328C53.8737 544.913 67.1642 524.091 95.3799 503.923C123.562 483.779 166.484 464.396 220.946 446.828C329.863 411.692 484.825 383.841 660.013 371.613C835.201 359.385 997.412 365.098 1118.05 384.21C1178.37 393.767 1228.26 406.671 1264.18 422.341C1300.14 438.03 1321.9 456.405 1326.31 476.82C1330.72 497.236 1317.43 518.057 1289.21 538.225C1261.03 558.369 1218.11 577.752 1163.64 595.321C1054.73 630.456 899.765 658.307 724.577 670.535C549.389 682.763 387.178 677.051 266.544 657.938C206.223 648.381 156.327 635.477 120.41 619.807C84.4491 604.118 62.6927 585.744 58.2831 565.328Z" stroke="url(#paint2_linear_281_920)"/>
<path d="M57.0208 559.032C53.2392 538.578 67.1646 517.892 95.9962 498.006C124.792 478.144 168.304 459.191 223.297 442.165C333.276 408.116 489.07 381.807 664.607 371.319C840.144 360.831 1002.16 368.151 1122.18 388.458C1182.2 398.612 1231.7 412.008 1267.13 428.032C1302.6 444.075 1323.79 462.664 1327.57 483.118C1331.35 503.571 1317.43 524.257 1288.59 544.143C1259.8 564.004 1216.29 582.958 1161.29 599.984C1051.31 634.034 895.52 660.342 719.983 670.831C544.447 681.319 382.435 673.998 262.406 653.692C202.387 643.538 152.895 630.141 117.464 614.117C81.9895 598.073 60.8026 579.485 57.0208 559.032Z" stroke="url(#paint3_linear_281_920)"/>
<path d="M55.9524 552.723C52.7997 532.237 67.3566 511.692 96.7949 492.095C126.197 472.522 170.284 454.003 225.792 437.526C336.8 404.573 493.378 379.813 669.21 371.068C845.042 362.323 1006.8 371.25 1126.19 392.744C1185.89 403.492 1234.96 417.378 1269.9 433.751C1304.88 450.145 1325.49 468.94 1328.64 489.426C1331.79 509.912 1317.24 530.456 1287.8 550.053C1258.4 569.626 1214.31 588.145 1158.8 604.623C1047.79 637.576 891.214 662.336 715.382 671.081C539.55 679.826 377.788 670.899 258.401 649.404C198.703 638.656 149.628 624.771 114.694 608.398C79.7167 592.004 59.1052 573.209 55.9524 552.723Z" stroke="url(#paint4_linear_281_920)"/>
<path d="M55.0767 546.405C52.5535 525.893 67.7378 505.496 97.774 486.193C127.772 466.915 172.422 448.836 228.427 432.911C340.43 401.064 497.744 377.862 673.818 370.863C849.892 363.864 1011.36 374.394 1130.07 397.07C1189.42 408.408 1238.07 422.779 1272.49 439.496C1306.96 456.235 1326.99 475.232 1329.51 495.744C1332.04 516.257 1316.85 536.653 1286.82 555.956C1256.82 575.234 1212.17 593.313 1156.16 609.237C1044.16 641.084 886.846 664.286 710.772 671.286C534.699 678.285 373.235 667.755 254.525 645.079C195.167 633.74 146.525 619.37 112.099 602.652C77.6301 585.914 57.6001 566.917 55.0767 546.405Z" stroke="url(#paint5_linear_281_920)"/>
<path d="M54.3959 540.079C52.5029 519.546 68.3106 499.303 98.9354 480.301C129.521 461.323 174.719 443.69 231.205 428.324C344.168 397.593 502.171 375.955 678.433 370.704C854.695 365.453 1015.81 377.583 1133.81 401.433C1192.81 413.359 1241 428.21 1274.91 445.266C1308.86 462.344 1328.3 481.537 1330.2 502.07C1332.09 522.603 1316.28 542.845 1285.66 561.847C1255.07 580.825 1209.87 598.458 1153.39 613.824C1040.42 644.555 882.42 666.193 706.158 671.445C529.896 676.696 368.781 664.565 250.785 640.715C191.783 628.789 143.591 613.938 109.683 596.882C75.7321 579.804 56.2889 560.612 54.3959 540.079Z" stroke="url(#paint6_linear_281_920)"/>
<path d="M53.9088 533.747C52.6465 513.199 69.0725 493.117 100.276 474.421C131.44 455.75 177.172 438.567 234.121 423.764C348.011 394.158 506.654 374.091 683.051 370.589C859.447 367.087 1020.17 380.815 1137.41 405.832C1196.04 418.341 1243.77 433.668 1277.15 451.058C1310.57 468.471 1329.42 487.854 1330.68 508.401C1331.94 528.949 1315.52 549.031 1284.31 567.726C1253.15 586.398 1207.42 603.58 1150.47 618.384C1036.58 647.989 877.936 668.056 701.539 671.558C525.142 675.06 364.423 661.332 247.178 636.315C188.551 623.806 140.822 608.479 107.443 591.089C74.0214 573.676 55.1711 554.295 53.9088 533.747Z" stroke="url(#paint7_linear_281_920)"/>
<path d="M53.6178 527.412C52.9866 506.855 70.0266 486.939 101.8 468.556C133.532 450.196 179.784 433.471 237.179 419.234C351.961 390.763 511.196 372.272 687.674 370.521C864.151 368.77 1024.42 384.09 1140.88 410.267C1199.12 423.356 1246.37 439.154 1279.21 456.873C1312.09 474.614 1330.34 494.181 1330.98 514.737C1331.61 535.293 1314.57 555.209 1282.79 573.592C1251.06 591.952 1204.81 608.677 1147.41 622.914C1032.63 651.385 873.396 669.875 696.919 671.627C520.442 673.378 360.168 658.058 243.708 631.881C185.474 618.792 138.224 602.994 105.384 585.275C72.5014 567.534 54.2492 547.968 53.6178 527.412Z" stroke="url(#paint8_linear_281_920)"/>
<path d="M53.5195 521.074C53.5195 500.515 71.168 480.77 103.501 462.705C135.792 444.663 182.551 428.399 240.374 414.734C356.013 387.406 515.791 370.499 692.295 370.499C868.799 370.499 1028.58 387.406 1144.22 414.734C1202.04 428.399 1248.8 444.663 1281.09 462.705C1313.42 480.77 1331.07 500.515 1331.07 521.074C1331.07 541.633 1313.42 561.378 1281.09 579.443C1248.8 597.485 1202.04 613.749 1144.22 627.414C1028.58 654.742 868.799 671.649 692.295 671.649C515.791 671.649 356.013 654.742 240.374 627.414C182.551 613.749 135.792 597.485 103.501 579.443C71.1681 561.378 53.5196 541.633 53.5195 521.074Z" stroke="url(#paint9_linear_281_920)"/>
<path d="M53.6166 514.737C54.2477 494.181 72.5 474.615 105.383 456.873C138.223 439.154 185.473 423.356 243.707 410.267C360.167 384.091 520.441 368.77 696.918 370.522C873.395 372.273 1032.63 390.763 1147.41 419.234C1204.81 433.471 1251.06 450.197 1282.79 468.556C1314.56 486.939 1331.61 506.856 1330.97 527.412C1330.34 547.968 1312.09 567.534 1279.21 585.275C1246.37 602.994 1199.12 618.792 1140.88 631.881C1024.42 658.058 864.15 673.378 687.673 671.627C511.195 669.876 351.96 651.385 237.178 622.914C179.783 608.678 133.531 591.952 101.799 573.592C70.0256 555.209 52.9856 535.293 53.6166 514.737Z" stroke="url(#paint10_linear_281_920)"/>
<path d="M53.9094 508.401C55.1716 487.854 74.0219 468.471 107.444 451.058C140.823 433.668 188.552 418.341 247.178 405.832C364.424 380.815 525.143 367.087 701.54 370.589C877.936 374.091 1036.58 394.158 1150.47 423.764C1207.42 438.568 1253.15 455.75 1284.31 474.421C1315.52 493.117 1331.94 513.2 1330.68 533.747C1329.42 554.295 1310.57 573.676 1277.15 591.089C1243.77 608.479 1196.04 623.806 1137.41 636.315C1020.17 661.332 859.448 675.06 683.051 671.558C506.655 668.056 348.012 647.989 234.122 618.384C177.173 603.58 131.441 586.398 100.277 567.726C69.0735 549.031 52.6474 528.949 53.9094 508.401Z" stroke="url(#paint11_linear_281_920)"/>
<path d="M54.3947 502.069C56.2876 481.536 75.7309 462.344 109.682 445.266C143.59 428.209 191.782 413.358 250.784 401.432C368.78 377.582 529.895 365.453 706.157 370.704C882.419 375.955 1040.42 397.592 1153.39 428.323C1209.87 443.69 1255.07 461.323 1285.65 480.301C1316.28 499.303 1332.09 519.546 1330.19 540.079C1328.3 560.611 1308.86 579.803 1274.91 596.881C1241 613.938 1192.81 628.789 1133.81 640.715C1015.81 664.565 854.694 676.695 678.432 671.444C502.17 666.193 344.167 644.555 231.203 613.824C174.718 598.457 129.52 580.824 98.9343 561.846C68.3097 542.844 52.5019 522.602 54.3947 502.069Z" stroke="url(#paint12_linear_281_920)"/>
<path d="M55.0768 495.744C57.6 475.231 77.6301 456.234 112.1 439.496C146.526 422.778 195.167 408.408 254.526 397.069C373.235 374.393 534.699 363.863 710.773 370.862C886.847 377.862 1044.16 401.064 1156.16 432.911C1212.17 448.835 1256.82 466.914 1286.82 486.192C1316.85 505.495 1332.04 525.892 1329.52 546.404C1326.99 566.917 1306.96 585.913 1272.49 602.652C1238.07 619.369 1189.43 633.739 1130.07 645.078C1011.36 667.754 849.892 678.284 673.818 671.285C497.745 664.285 340.43 641.083 228.427 609.237C172.422 593.312 127.772 575.233 97.7742 555.955C67.7383 536.652 52.5539 516.256 55.0768 495.744Z" stroke="url(#paint13_linear_281_920)"/>
<path d="M55.9526 489.425C59.1055 468.939 79.7168 450.144 114.694 433.75C149.628 417.377 198.703 403.492 258.401 392.744C377.788 371.25 539.55 362.323 715.382 371.068C891.214 379.813 1047.79 404.572 1158.8 437.525C1214.31 454.003 1258.4 472.522 1287.8 492.095C1317.24 511.692 1331.79 532.237 1328.64 552.723C1325.49 573.209 1304.88 592.004 1269.9 608.397C1234.96 624.771 1185.89 638.656 1126.19 649.404C1006.8 670.898 845.042 679.825 669.21 671.08C493.378 662.335 336.8 637.576 225.792 604.623C170.285 588.145 126.197 569.626 96.795 550.053C67.3568 530.456 52.7998 509.911 55.9526 489.425Z" stroke="url(#paint14_linear_281_920)"/>
<path d="M57.0203 483.117C60.802 462.664 81.9889 444.075 117.463 428.031C152.894 412.007 202.387 398.611 262.405 388.457C382.435 368.151 544.446 360.83 719.983 371.318C895.52 381.806 1051.31 408.115 1161.29 442.165C1216.29 459.191 1259.8 478.144 1288.59 498.005C1317.43 517.891 1331.35 538.578 1327.57 559.031C1323.79 579.485 1302.6 598.073 1267.13 614.116C1231.7 630.14 1182.2 643.537 1122.18 653.691C1002.15 673.998 840.143 681.318 664.607 670.83C489.07 660.342 333.276 634.033 223.297 599.984C168.303 582.958 124.792 564.004 95.9958 544.142C67.1645 524.257 53.2388 503.571 57.0203 483.117Z" stroke="url(#paint15_linear_281_920)"/>
<path d="M58.2828 476.82C62.6925 456.404 84.449 438.029 120.409 422.34C156.327 406.671 206.223 393.767 266.544 384.21C387.178 365.097 549.389 359.385 724.577 371.613C899.765 383.841 1054.73 411.692 1163.64 446.827C1218.11 464.396 1261.03 483.778 1289.21 503.923C1317.43 524.091 1330.72 544.912 1326.31 565.328C1321.9 585.743 1300.14 604.118 1264.18 619.807C1228.26 635.477 1178.37 648.38 1118.05 657.938C997.412 677.05 835.201 682.762 660.013 670.534C484.825 658.306 329.863 630.455 220.946 595.32C166.484 577.751 123.561 558.369 95.3796 538.225C67.1638 518.056 53.8733 497.235 58.2828 476.82Z" stroke="url(#paint16_linear_281_920)"/>
<path d="M59.7404 470.537C64.7768 450.165 87.0961 432.008 123.532 416.679C159.924 401.368 210.208 388.962 270.813 380.005C392.015 362.092 554.377 357.99 729.162 371.954C903.948 385.918 1058.03 415.303 1165.85 451.513C1219.77 469.62 1262.09 489.424 1289.65 509.844C1317.24 530.289 1329.89 551.24 1324.85 571.611C1319.82 591.983 1297.5 610.14 1261.06 625.469C1224.67 640.78 1174.38 653.186 1113.78 662.144C992.577 680.056 830.216 684.158 655.43 670.194C480.645 656.229 326.562 626.846 218.74 590.635C164.826 572.529 122.505 552.724 94.9463 532.303C67.3549 511.859 54.7041 490.908 59.7404 470.537Z" stroke="url(#paint17_linear_281_920)"/>
<path d="M61.3878 464.269C67.0496 443.947 89.9245 426.015 126.823 411.05C163.68 396.102 214.338 384.197 275.208 375.842C396.942 359.135 559.404 356.644 733.734 372.34C908.064 388.037 1061.22 418.945 1167.91 456.219C1221.26 474.858 1262.97 495.079 1289.9 515.77C1316.86 536.484 1328.86 557.558 1323.2 577.879C1317.54 598.201 1294.67 616.133 1257.77 631.098C1220.91 646.046 1170.25 657.951 1109.38 666.306C987.648 683.013 825.185 685.504 650.856 669.808C476.526 654.111 323.368 623.203 216.676 585.929C163.326 567.29 121.619 547.069 94.6914 526.378C67.7332 505.664 55.726 484.59 61.3878 464.269Z" stroke="url(#paint18_linear_281_920)"/>
<path d="M63.2295 458.018C69.5153 437.753 92.94 420.049 130.291 405.453C167.601 390.873 218.616 379.472 279.734 371.723C401.961 356.226 564.475 355.348 738.296 372.771C912.117 390.194 1064.3 422.617 1169.83 460.944C1222.6 480.109 1263.68 500.742 1289.97 521.696C1316.29 542.674 1327.65 563.864 1321.36 584.13C1315.08 604.395 1291.65 622.099 1254.3 636.694C1216.99 651.274 1165.98 662.675 1104.86 670.424C982.631 685.921 820.117 686.8 646.296 669.377C472.475 651.953 320.29 619.53 214.758 581.203C161.989 562.038 120.91 541.406 94.6217 520.451C68.3045 499.474 56.9438 478.284 63.2295 458.018Z" stroke="url(#paint19_linear_281_920)"/>
<path d="M65.2623 451.787C72.1706 431.583 96.1382 414.115 133.93 399.892C171.682 385.685 223.038 374.793 284.383 367.651C407.067 353.369 569.583 354.103 742.842 373.248C916.102 392.393 1067.27 426.321 1171.61 465.689C1223.78 485.375 1264.22 506.41 1289.86 527.622C1315.53 548.857 1326.24 570.158 1319.33 590.362C1312.42 610.565 1288.45 628.034 1250.66 642.257C1212.91 656.464 1161.55 667.356 1100.21 674.498C977.524 688.78 815.008 688.046 641.749 668.901C468.489 649.756 317.323 615.828 212.985 576.459C160.812 556.774 120.374 535.738 94.7331 514.526C69.065 493.292 58.3539 471.991 65.2623 451.787Z" stroke="url(#paint20_linear_281_920)"/>
<path d="M67.4864 445.577C75.0154 425.441 99.5181 408.212 137.739 394.368C175.921 380.537 227.604 370.155 289.159 363.623C412.262 350.56 574.73 352.907 747.375 373.768C920.02 394.629 1070.12 430.051 1173.23 470.448C1224.8 490.648 1264.58 512.083 1289.57 533.546C1314.58 555.031 1324.64 576.436 1317.11 596.572C1309.58 616.708 1285.07 633.936 1246.85 647.781C1208.67 661.611 1156.99 671.993 1095.43 678.524C972.331 691.587 809.863 689.241 637.218 668.379C464.573 647.518 314.472 612.096 211.358 571.699C159.798 551.499 120.011 530.065 95.0261 508.602C70.0151 487.117 59.9577 465.713 67.4864 445.577Z" stroke="url(#paint21_linear_281_920)"/>
<path d="M69.9011 439.389C78.0488 419.327 103.079 402.344 141.717 388.882C180.317 375.433 232.311 365.565 294.057 359.645C417.542 347.806 579.912 351.763 751.89 374.334C923.868 396.905 1072.86 433.811 1174.72 475.225C1225.65 495.933 1264.77 517.759 1289.09 539.466C1313.44 561.195 1322.84 582.696 1314.69 602.759C1306.54 622.821 1281.51 639.804 1242.87 653.266C1204.28 666.716 1152.28 676.583 1090.54 682.503C967.051 694.343 804.68 690.385 632.702 667.814C460.724 645.243 311.735 608.337 209.878 566.924C158.946 546.215 119.823 524.389 95.5009 502.682C71.1545 480.953 61.7534 459.451 69.9011 439.389Z" stroke="url(#paint22_linear_281_920)"/>
<path d="M72.5042 433.226C81.2686 413.244 106.82 396.512 145.864 383.435C184.87 370.371 237.158 361.022 299.076 355.715C422.905 345.103 585.129 350.671 756.387 374.944C927.646 399.218 1075.48 437.596 1176.05 480.014C1226.34 501.224 1264.78 523.434 1288.43 545.379C1312.11 567.345 1320.85 588.938 1312.09 608.92C1303.32 628.903 1277.77 645.636 1238.73 658.713C1199.72 671.777 1147.43 681.126 1085.51 686.433C961.686 697.045 799.463 691.477 628.205 667.204C456.946 642.93 309.112 604.552 208.542 562.134C158.254 540.923 119.809 518.714 96.1569 496.769C72.4824 474.803 63.74 453.209 72.5042 433.226Z" stroke="url(#paint23_linear_281_920)"/>
<path d="M75.2965 427.092C84.6749 407.195 110.74 390.717 150.177 378.031C189.578 365.356 242.144 356.526 304.216 351.835C428.35 342.453 590.378 349.629 760.865 375.598C931.352 401.567 1077.98 441.406 1177.24 484.815C1226.86 506.521 1264.62 529.109 1287.6 551.285C1310.59 573.481 1318.67 595.16 1309.29 615.057C1299.92 634.953 1273.85 651.43 1234.41 664.116C1195.01 676.791 1142.45 685.621 1080.38 690.312C956.24 699.695 794.212 692.518 623.726 666.549C453.239 640.58 306.607 600.741 207.355 557.332C157.726 535.626 119.968 513.038 96.9939 490.862C73.9988 468.666 65.9182 446.988 75.2965 427.092Z" stroke="url(#paint24_linear_281_920)"/>
<path d="M78.2769 420.985C88.267 401.18 114.837 384.963 154.656 372.671C194.439 360.389 247.268 352.083 309.474 348.008C433.877 339.859 595.659 348.641 765.322 376.297C934.985 403.954 1080.37 445.242 1178.27 489.629C1227.23 511.823 1264.29 534.782 1286.58 557.182C1308.89 579.602 1316.3 601.358 1306.31 621.164C1296.32 640.969 1269.75 657.185 1229.93 669.477C1190.15 681.759 1137.32 690.066 1075.12 694.141C950.713 702.29 788.931 693.507 619.268 665.851C449.605 638.194 304.219 596.907 206.315 552.52C157.36 530.325 120.302 507.366 98.0126 484.966C75.7037 462.546 68.287 440.79 78.2769 420.985Z" stroke="url(#paint25_linear_281_920)"/>
<path d="M81.4463 414.908C92.0455 395.2 119.113 379.25 159.3 367.355C199.454 355.47 252.529 347.689 314.85 344.232C439.484 337.318 600.971 347.705 769.759 377.04C938.546 406.376 1082.64 449.099 1179.17 494.45C1227.43 517.127 1263.78 540.45 1285.38 563.067C1306.99 585.704 1313.74 607.531 1303.15 627.239C1292.55 646.947 1265.48 662.897 1225.29 674.792C1185.14 686.677 1132.06 694.459 1069.74 697.916C945.108 704.83 783.621 694.443 614.833 665.108C446.046 635.772 301.95 593.049 205.425 547.698C157.159 525.021 120.812 501.698 99.2136 479.08C77.5977 456.444 70.8472 434.616 81.4463 414.908Z" stroke="url(#paint26_linear_281_920)"/>
<path d="M84.8006 408.864C96.006 389.26 123.563 373.581 164.107 362.087C204.619 350.602 257.924 343.349 320.341 340.51C445.168 334.834 606.31 346.822 774.171 377.827C942.032 408.832 1084.79 452.979 1179.91 499.28C1227.47 522.432 1263.1 546.112 1284 568.94C1304.92 591.786 1311 613.679 1299.79 633.283C1288.59 652.887 1261.03 668.567 1220.49 680.061C1179.97 691.546 1126.67 698.799 1064.25 701.638C939.424 707.314 778.282 695.326 610.421 664.321C442.56 633.316 299.798 589.169 204.681 542.868C157.119 519.716 121.494 496.036 100.594 473.208C79.6775 450.362 73.5954 428.469 84.8006 408.864Z" stroke="url(#paint27_linear_281_920)"/>
<path d="M88.3387 402.855C100.147 383.36 128.185 367.956 169.074 356.867C209.932 345.786 263.451 339.063 325.945 336.844C450.926 332.407 611.675 345.991 778.558 378.657C945.441 411.323 1086.82 456.879 1180.51 504.117C1227.35 527.737 1262.24 551.766 1282.44 574.798C1302.65 597.846 1308.06 619.798 1296.25 639.293C1284.44 658.788 1256.41 674.192 1215.52 685.281C1174.66 696.362 1121.14 703.085 1058.65 705.304C933.665 709.74 772.915 696.157 606.033 663.491C439.15 630.825 297.766 585.269 204.085 538.031C157.242 514.41 122.349 490.382 102.153 467.35C81.9425 444.301 76.5304 422.35 88.3387 402.855Z" stroke="url(#paint28_linear_281_920)"/>
<path d="M92.0633 396.881C104.471 377.502 132.982 362.378 174.202 351.697C215.394 341.024 269.11 334.832 331.662 333.234C456.759 330.038 617.067 345.214 782.921 379.531C948.775 413.847 1088.74 460.799 1180.95 508.959C1227.06 533.04 1261.21 557.411 1280.7 580.64C1300.2 603.884 1304.94 625.887 1292.53 645.267C1280.12 664.647 1251.61 679.77 1210.39 690.451C1169.2 701.125 1115.48 707.317 1052.93 708.915C927.833 712.111 767.526 696.934 601.672 662.618C435.818 628.301 295.855 581.35 203.639 533.19C157.528 509.109 123.38 484.737 103.895 461.509C84.3958 438.264 79.6553 416.261 92.0633 396.881Z" stroke="url(#paint29_linear_281_920)"/>
<path d="M95.969 390.946C108.973 371.687 137.948 356.849 179.487 346.579C220.999 336.316 274.898 330.658 337.489 329.681C462.664 327.726 622.48 344.491 787.255 380.447C952.029 416.404 1090.53 464.737 1181.25 513.804C1226.62 538.339 1260.01 563.045 1278.78 586.462C1297.56 609.895 1301.63 631.944 1288.62 651.203C1275.62 670.461 1246.64 685.3 1205.1 695.569C1163.59 705.833 1109.69 711.49 1047.1 712.467C921.929 714.421 762.112 697.657 597.337 661.7C432.562 625.744 294.063 577.411 203.341 528.344C157.977 503.809 124.581 479.103 105.812 455.686C87.0311 432.253 82.9649 410.204 95.969 390.946Z" stroke="url(#paint30_linear_281_920)"/>
<path d="M100.057 385.049C113.654 365.918 143.085 351.369 184.93 341.513C226.751 331.664 280.813 326.542 343.424 326.186C468.639 325.473 627.916 343.821 791.561 381.407C955.206 418.992 1092.2 468.692 1181.4 518.651C1226 543.632 1258.64 568.665 1276.68 592.265C1294.74 615.879 1298.13 637.967 1284.53 657.098C1270.94 676.229 1241.51 690.779 1199.66 700.634C1157.84 710.484 1103.78 715.606 1041.17 715.962C915.953 716.674 756.677 698.327 593.032 660.741C429.387 623.155 292.393 573.456 203.191 523.497C158.588 498.516 125.957 473.482 107.91 449.883C89.8522 426.268 86.46 404.181 100.057 385.049Z" stroke="url(#paint31_linear_281_920)"/>
<path d="M104.325 379.195C118.511 360.197 148.388 345.942 190.527 336.504C232.643 327.071 286.854 322.486 349.466 322.751C474.682 323.281 633.37 343.206 795.835 382.409C958.301 421.613 1093.75 472.663 1181.4 523.499C1225.23 548.918 1257.09 574.272 1274.41 598.047C1291.74 621.835 1294.45 643.955 1280.27 662.953C1266.08 681.951 1236.2 696.206 1194.06 705.645C1151.95 715.078 1097.74 719.662 1035.13 719.397C909.909 718.867 751.221 698.942 588.755 659.739C426.29 620.536 290.844 569.485 203.19 518.649C159.361 493.229 127.504 467.877 110.184 444.102C92.8551 420.313 90.1396 398.193 104.325 379.195Z" stroke="url(#paint32_linear_281_920)"/>
<path d="M108.773 373.384C123.544 354.524 153.858 340.568 196.278 331.55C238.676 322.536 293.019 318.489 355.612 319.376C480.792 321.148 638.843 342.644 800.08 383.454C961.316 424.263 1095.17 476.648 1181.25 528.346C1224.29 554.196 1255.37 579.862 1271.95 603.804C1288.55 627.759 1290.59 649.904 1275.82 668.764C1261.05 687.623 1230.73 701.58 1188.31 710.598C1145.92 719.612 1091.57 723.658 1028.98 722.771C903.798 720.999 745.748 699.504 584.511 658.695C423.274 617.885 289.417 565.499 203.338 513.801C160.296 487.951 129.223 462.286 112.637 438.344C96.0414 414.389 94.0023 392.243 108.773 373.384Z" stroke="url(#paint33_linear_281_920)"/>
<path d="M113.398 367.618C128.749 348.903 159.492 335.249 202.18 326.653C244.848 318.062 299.305 314.556 361.862 316.063C486.967 319.077 644.333 342.138 804.292 384.54C964.25 426.942 1096.48 480.648 1180.96 533.191C1223.2 559.464 1253.48 585.433 1269.33 609.536C1285.18 633.651 1286.54 655.815 1271.19 674.53C1255.84 693.245 1225.1 706.899 1182.41 715.494C1139.74 724.086 1085.29 727.592 1022.73 726.085C897.624 723.071 740.258 700.01 580.3 657.608C420.341 615.206 288.113 561.499 203.635 508.956C161.394 482.683 131.114 456.715 115.265 432.611C99.4085 408.497 98.047 386.332 113.398 367.618Z" stroke="url(#paint34_linear_281_920)"/>
<path d="M118.2 361.899C134.128 343.334 165.289 329.987 208.232 321.817C251.156 313.65 305.713 310.685 368.213 312.812C493.206 317.067 649.839 341.685 808.47 385.668C967.102 429.651 1097.66 484.66 1180.51 538.032C1221.94 564.72 1251.42 590.986 1266.52 615.242C1281.64 639.509 1282.32 661.685 1266.39 680.25C1250.46 698.814 1219.3 712.161 1176.36 720.331C1133.44 728.498 1078.88 731.463 1016.38 729.335C891.387 725.081 734.754 700.463 576.122 656.48C417.49 612.498 286.932 557.488 204.081 504.115C162.653 477.427 133.175 451.163 118.069 426.906C102.956 402.639 102.273 380.463 118.2 361.899Z" stroke="url(#paint35_linear_281_920)"/>
<path d="M123.176 356.228C139.675 337.82 171.246 324.785 214.43 317.042C257.598 309.303 312.236 306.879 374.661 309.626C499.503 315.12 655.355 341.288 812.612 386.837C969.868 432.387 1098.72 488.683 1179.92 542.869C1220.52 569.964 1249.18 596.517 1263.54 620.919C1277.91 645.331 1277.91 667.513 1261.41 685.92C1244.91 704.328 1213.34 717.364 1170.16 725.106C1126.99 732.846 1072.35 735.27 1009.93 732.523C885.086 727.029 729.234 700.861 571.978 655.311C414.721 609.761 285.872 553.466 204.673 499.28C164.072 472.185 135.406 445.632 121.047 421.229C106.683 396.817 106.677 374.636 123.176 356.228Z" stroke="url(#paint36_linear_281_920)"/>
<path d="M128.328 350.607C145.394 332.361 177.364 319.641 220.778 312.328C264.176 305.018 318.879 303.137 381.209 306.503C505.861 313.235 660.886 340.945 816.719 388.048C972.553 435.15 1099.65 492.716 1179.17 547.699C1218.94 575.192 1246.78 602.024 1260.39 626.565C1274 651.114 1273.33 673.295 1256.26 691.54C1239.2 709.786 1207.23 722.508 1163.81 729.82C1120.42 737.13 1065.71 739.011 1003.38 735.645C878.73 728.913 723.706 701.203 567.872 654.1C412.039 606.998 284.939 549.432 205.417 494.449C165.654 466.957 137.808 440.124 124.2 415.583C110.588 391.034 111.262 368.853 128.328 350.607Z" stroke="url(#paint37_linear_281_920)"/>
<path d="M133.65 345.039C151.278 326.961 183.639 314.559 227.268 307.679C270.883 300.8 325.635 299.462 387.851 303.446C512.277 311.413 666.426 340.657 820.789 389.298C975.152 437.939 1100.46 496.757 1178.28 552.52C1217.2 580.402 1244.22 607.507 1257.07 632.179C1269.92 656.858 1268.57 679.031 1250.94 697.109C1233.32 715.187 1200.95 727.588 1157.33 734.469C1113.71 741.347 1058.96 742.685 996.742 738.701C872.316 730.734 718.167 701.491 563.805 652.849C409.442 604.208 284.13 545.391 206.309 489.628C167.396 461.745 140.378 434.64 127.526 409.969C114.67 385.289 116.023 363.117 133.65 345.039Z" stroke="url(#paint38_linear_281_920)"/>
<path d="M139.142 339.524C157.326 321.62 190.067 309.541 233.898 303.095C277.718 296.65 332.502 295.856 394.586 300.456C518.747 309.656 671.974 340.425 824.819 390.59C977.663 440.755 1101.15 500.806 1177.25 557.332C1215.3 585.596 1241.48 612.964 1253.57 637.759C1265.67 662.561 1263.63 684.719 1245.45 702.624C1227.27 720.529 1194.53 732.607 1150.69 739.053C1106.87 745.498 1052.09 746.293 990.007 741.692C865.846 732.492 712.62 701.723 559.775 651.558C406.93 601.393 283.444 541.342 207.347 484.817C169.297 456.552 143.115 429.184 131.023 404.389C118.927 379.587 120.958 357.429 139.142 339.524Z" stroke="url(#paint39_linear_281_920)"/>
<path d="M144.802 334.065C163.538 316.339 196.649 304.587 240.67 298.577C284.679 292.568 339.479 292.317 401.411 297.533C525.269 307.963 677.527 340.247 828.807 391.92C980.088 443.594 1101.71 504.861 1176.06 562.132C1213.24 590.769 1238.57 618.393 1249.9 643.304C1261.23 668.221 1258.52 690.357 1239.79 708.083C1221.05 725.809 1187.94 737.561 1143.92 743.571C1099.91 749.58 1045.11 749.83 983.181 744.615C859.323 734.184 707.066 701.901 555.785 650.227C404.504 598.553 282.881 537.287 208.532 480.015C171.356 451.378 146.019 423.755 134.69 398.844C123.358 373.928 126.067 351.791 144.802 334.065Z" stroke="url(#paint40_linear_281_920)"/>
<path d="M150.631 328.662C169.912 311.121 203.383 299.699 247.579 294.127C291.765 288.556 346.564 288.849 408.326 294.678C531.844 306.336 683.086 340.125 832.756 393.291C982.427 446.457 1102.15 508.92 1174.73 566.92C1211.02 595.921 1235.5 623.792 1246.06 648.811C1256.63 673.835 1253.24 695.944 1233.96 713.485C1214.68 731.026 1181.21 742.448 1137.01 748.02C1092.83 753.591 1038.03 753.298 976.266 747.469C852.749 735.811 701.507 702.023 551.837 648.856C402.166 595.69 282.444 533.226 209.866 475.227C173.575 446.225 149.089 418.355 138.527 393.336C127.963 368.312 131.349 346.203 150.631 328.662Z" stroke="url(#paint41_linear_281_920)"/>
<path d="M156.623 323.319C176.444 305.968 210.265 294.88 254.623 289.748C298.974 284.616 353.753 285.452 415.326 291.893C538.465 304.774 688.645 340.058 836.66 394.701C984.674 449.344 1102.46 512.985 1173.25 571.695C1208.64 601.052 1232.26 629.16 1242.06 654.28C1251.85 679.404 1247.79 701.478 1227.97 718.829C1208.15 736.18 1174.33 747.268 1129.97 752.401C1085.62 757.532 1030.84 756.696 969.264 750.255C846.125 737.374 695.945 702.09 547.93 647.447C399.915 592.804 282.13 529.163 211.344 470.453C175.949 441.097 152.325 412.988 142.533 387.869C132.739 362.744 136.801 340.67 156.623 323.319Z" stroke="url(#paint42_linear_281_920)"/>
<path d="M162.779 318.036C183.134 300.88 217.295 290.129 261.802 285.438C306.303 280.747 361.048 282.127 422.413 289.178C545.136 303.278 694.208 340.046 840.522 396.149C986.835 452.251 1102.65 517.051 1171.62 576.454C1206.11 606.157 1228.87 634.495 1237.89 659.707C1246.91 684.923 1242.17 706.956 1221.81 724.112C1201.46 741.268 1167.3 752.019 1122.79 756.71C1078.29 761.401 1023.54 760.021 962.179 752.97C839.455 738.869 690.382 702.101 544.069 645.999C397.755 589.896 281.943 525.097 212.972 465.694C178.484 435.991 155.726 407.653 146.706 382.441C137.685 357.224 142.423 335.191 162.779 318.036Z" stroke="url(#paint43_linear_281_920)"/>
<path d="M169.098 312.814C189.981 295.859 224.471 285.449 269.114 281.2C313.751 276.952 368.444 278.874 429.582 286.533C551.852 301.849 699.772 340.09 844.34 397.635C988.908 455.18 1102.71 521.118 1169.85 581.196C1203.42 611.236 1225.3 639.795 1233.55 665.092C1241.79 690.393 1236.38 712.378 1215.5 729.333C1194.61 746.288 1160.12 756.698 1115.48 760.947C1070.84 765.196 1016.15 763.273 955.011 755.615C832.741 740.298 684.822 702.057 540.254 644.512C395.686 586.967 281.881 521.029 214.744 460.951C181.174 430.912 159.29 402.353 151.046 377.055C142.801 351.754 148.214 329.769 169.098 312.814Z" stroke="url(#paint44_linear_281_920)"/>
<path d="M175.572 307.657C196.978 290.909 231.786 280.842 276.551 277.037C321.311 273.232 375.936 275.696 436.829 283.96C558.609 300.487 705.33 340.189 848.108 399.16C990.886 458.13 1102.65 525.186 1167.93 585.92C1200.57 616.288 1221.58 645.059 1229.04 670.435C1236.51 695.812 1230.42 717.743 1209.02 734.491C1187.61 751.24 1152.8 761.306 1108.04 765.112C1063.28 768.917 1008.65 766.451 947.762 758.188C825.982 741.661 679.259 701.959 536.481 642.988C393.703 584.018 281.941 516.961 216.66 456.228C184.018 425.86 163.014 397.089 155.548 371.714C148.081 346.336 154.166 324.406 175.572 307.657Z" stroke="url(#paint45_linear_281_920)"/>
<path d="M182.206 302.565C204.127 286.028 239.244 276.308 284.116 272.948C328.986 269.587 383.526 272.593 444.155 281.46C565.408 299.192 710.887 340.344 851.832 400.721C992.777 461.099 1102.46 529.253 1165.87 590.624C1197.57 621.31 1217.69 650.286 1224.37 675.731C1231.06 701.178 1224.3 723.047 1202.38 739.584C1180.46 756.121 1145.35 765.84 1100.47 769.201C1055.6 772.561 1001.06 769.554 940.435 760.688C819.182 742.956 673.703 701.805 532.758 641.427C391.813 581.05 282.128 512.895 218.723 451.524C187.018 420.837 166.901 391.863 160.215 366.417C153.529 340.97 160.285 319.102 182.206 302.565Z" stroke="url(#paint46_linear_281_920)"/>
<path d="M188.996 297.539C211.426 281.218 246.841 271.849 291.808 268.934C336.774 266.02 391.212 269.566 451.558 279.033C572.246 297.965 716.439 340.553 855.508 402.319C994.577 464.085 1102.15 533.317 1163.66 595.307C1194.42 626.303 1213.64 655.472 1219.55 680.98C1225.45 706.489 1218.03 728.289 1195.6 744.61C1173.17 760.93 1137.75 770.299 1092.78 773.214C1047.82 776.128 993.38 772.582 933.034 763.115C812.346 744.183 668.154 701.595 529.084 639.829C390.015 578.063 282.441 508.831 220.93 446.841C190.173 415.845 170.949 386.676 165.046 361.168C159.142 335.659 166.566 313.859 188.996 297.539Z" stroke="url(#paint47_linear_281_920)"/>
<path d="M195.94 292.581C218.872 276.482 254.573 267.465 299.621 264.997C344.669 262.529 398.989 266.616 459.035 276.68C579.121 296.806 721.982 340.818 859.133 403.954C996.283 467.09 1101.71 537.377 1161.31 599.967C1191.11 631.263 1209.44 660.618 1214.56 686.18C1219.68 711.743 1211.58 733.469 1188.65 749.567C1165.72 765.665 1130.02 774.682 1084.97 777.15C1039.92 779.618 985.603 775.532 925.558 765.468C805.471 745.342 662.611 701.33 525.46 638.194C388.31 575.058 282.878 504.771 223.28 442.181C193.48 410.885 175.155 381.529 170.035 355.967C164.916 330.405 173.008 308.679 195.94 292.581Z" stroke="url(#paint48_linear_281_920)"/>
<path d="M203.034 287.693C226.461 271.822 262.437 263.161 307.553 261.14C352.669 259.12 406.855 263.744 466.581 274.402C586.03 295.716 727.517 341.138 862.707 405.625C997.897 470.111 1101.15 541.433 1158.82 604.604C1187.65 636.19 1205.07 665.723 1209.41 691.331C1213.74 716.94 1204.99 738.584 1181.56 754.456C1158.13 770.327 1122.16 778.988 1077.04 781.009C1031.92 783.029 977.737 778.405 918.011 767.747C798.562 746.433 657.076 701.011 521.886 636.524C386.695 572.038 283.438 500.716 225.772 437.545C196.938 405.959 179.518 376.427 175.184 350.818C170.85 325.21 179.606 303.565 203.034 287.693Z" stroke="url(#paint49_linear_281_920)"/>
<path d="M210.276 282.876C234.192 267.237 270.432 258.934 315.602 257.362C360.773 255.789 414.808 260.95 474.197 272.198C592.971 294.694 733.04 341.512 866.229 407.33C999.417 473.147 1100.47 545.482 1156.18 609.214C1184.04 641.081 1200.56 670.782 1204.1 696.429C1207.65 722.076 1198.23 743.632 1174.31 759.272C1150.4 774.912 1114.16 783.214 1068.99 784.787C1023.82 786.359 969.784 781.198 910.394 769.95C791.62 747.454 651.551 700.636 518.362 634.819C385.174 569.001 284.124 496.666 228.406 432.934C200.547 401.067 184.036 371.367 180.489 345.719C176.942 320.073 186.361 298.516 210.276 282.876Z" stroke="url(#paint50_linear_281_920)"/>
<path d="M217.666 278.132C242.062 262.729 278.555 254.788 323.766 253.664C368.977 252.54 422.844 258.236 481.878 270.071C599.942 293.742 738.551 341.942 869.698 409.07C1000.84 476.199 1099.66 549.524 1153.41 613.798C1180.28 645.936 1195.88 675.795 1198.64 701.474C1201.4 727.151 1191.32 748.613 1166.92 764.016C1142.53 779.419 1106.03 787.36 1060.82 788.484C1015.61 789.609 961.745 783.912 902.711 772.077C784.647 748.406 646.039 700.206 514.892 633.078C383.745 565.95 284.932 492.624 231.181 428.35C204.304 396.212 188.708 366.353 185.949 340.675C183.19 314.997 193.269 293.535 217.666 278.132Z" stroke="url(#paint51_linear_281_920)"/>
<path d="M225.201 273.462C250.071 258.301 286.806 250.723 332.043 250.048C377.282 249.372 430.965 255.602 489.625 268.022C606.943 292.859 744.049 342.426 873.114 410.845C1002.18 479.263 1098.72 553.558 1150.49 618.354C1176.38 650.754 1191.06 680.762 1193.03 706.464C1195 732.164 1184.26 753.525 1159.39 768.686C1134.52 783.847 1097.79 791.425 1052.55 792.101C1007.31 792.776 953.626 786.546 894.966 774.127C777.649 749.289 640.542 699.722 511.477 631.303C382.412 562.885 285.867 488.591 234.098 423.794C208.213 391.395 193.536 361.387 191.565 335.685C189.595 309.984 200.331 288.623 225.201 273.462Z" stroke="url(#paint52_linear_281_920)"/>
<path d="M232.878 268.868C258.214 253.953 295.18 246.741 340.43 246.515C385.682 246.288 439.166 253.049 497.435 266.049C613.97 292.046 749.532 342.965 876.476 412.653C1003.42 482.341 1097.67 557.581 1147.44 622.88C1172.32 655.531 1186.08 685.68 1187.26 711.397C1188.44 737.112 1177.05 758.365 1151.71 773.28C1126.38 788.195 1089.41 795.407 1044.16 795.634C998.91 795.86 945.428 789.099 887.159 776.1C770.624 750.102 635.061 699.183 508.118 629.495C381.174 559.807 286.926 484.567 237.155 419.268C212.269 386.617 198.514 356.469 197.333 330.752C196.152 305.036 207.542 283.782 232.878 268.868Z" stroke="url(#paint53_linear_281_920)"/>
<path d="M240.695 264.35C266.489 249.687 303.676 242.843 348.924 243.065C394.176 243.288 447.442 250.579 505.302 264.154C621.019 291.303 754.996 343.559 879.779 414.495C1004.56 485.431 1096.49 561.593 1144.24 627.376C1168.12 660.267 1180.95 690.547 1181.34 716.272C1181.73 741.995 1169.69 763.134 1143.9 777.798C1118.1 792.461 1080.92 799.305 1035.67 799.083C990.416 798.861 937.15 791.569 879.29 777.994C763.573 750.845 629.596 698.59 504.813 627.654C380.029 556.717 288.107 480.555 240.348 414.773C216.469 381.881 203.643 351.601 203.252 325.877C202.861 300.154 214.901 279.014 240.695 264.35Z" stroke="url(#paint54_linear_281_920)"/>
<path d="M248.649 259.911C274.894 245.504 312.288 239.03 357.523 239.701C402.761 240.373 455.793 248.191 513.227 262.338C628.091 290.631 760.441 344.207 883.027 416.369C1005.61 488.532 1095.18 565.593 1140.91 631.838C1163.78 664.961 1175.67 695.364 1175.27 721.088C1174.87 746.81 1162.19 767.829 1135.94 782.237C1109.7 796.644 1072.3 803.119 1027.07 802.447C981.832 801.776 928.799 793.957 871.366 779.811C756.501 751.518 624.151 697.942 501.565 625.779C378.98 553.617 289.411 476.555 243.681 410.31C220.815 377.187 208.92 346.785 209.319 321.061C209.717 295.338 222.404 274.319 248.649 259.911Z" stroke="url(#paint55_linear_281_920)"/>
<path d="M256.738 255.552C283.425 241.405 321.016 235.303 366.222 236.423C411.432 237.543 464.216 245.886 521.205 260.6C635.182 290.028 765.866 344.908 886.216 418.275C1006.57 491.642 1093.75 569.58 1137.44 636.267C1159.29 669.612 1170.25 700.127 1169.06 725.844C1167.87 751.558 1154.54 772.449 1127.85 786.596C1101.17 800.743 1063.58 806.845 1018.37 805.725C973.16 804.605 920.375 796.262 863.386 781.548C749.41 752.12 618.726 697.24 498.376 623.873C378.026 550.506 290.837 472.568 247.148 405.881C225.303 372.537 214.345 342.021 215.533 316.305C216.721 290.591 230.051 269.699 256.738 255.552Z" stroke="url(#paint56_linear_281_920)"/>
<path d="M264.959 251.274C292.08 237.391 329.857 231.663 375.021 233.231C420.19 234.8 472.708 243.666 529.236 258.943C642.289 289.496 771.268 345.664 889.346 420.213C1007.42 494.762 1092.2 573.552 1133.84 640.661C1154.66 674.216 1164.68 704.835 1162.7 730.535C1160.72 756.233 1146.75 776.992 1119.63 790.874C1092.51 804.756 1054.73 810.484 1009.57 808.916C964.401 807.348 911.882 798.482 855.355 783.205C742.301 752.652 613.323 696.484 495.245 621.935C377.167 547.386 292.386 468.596 250.751 401.487C229.934 367.931 219.913 337.312 221.891 311.612C223.869 285.914 237.838 265.156 264.959 251.274Z" stroke="url(#paint57_linear_281_920)"/>
<path d="M273.311 247.078C300.859 233.465 338.809 228.112 383.918 230.128C429.031 232.145 481.268 241.53 537.317 257.365C649.414 289.035 776.646 346.473 892.416 422.181C1008.19 497.89 1090.53 577.508 1130.1 645.019C1149.88 678.775 1158.96 709.488 1156.2 735.165C1153.43 760.839 1138.83 781.457 1111.28 795.07C1083.73 808.684 1045.78 814.035 1000.67 812.019C955.56 810.003 903.322 800.618 847.273 784.783C735.177 753.113 607.945 695.675 492.175 619.967C376.405 544.259 294.057 464.641 254.489 397.129C234.706 363.373 225.627 332.66 228.393 306.983C231.159 281.309 245.764 260.691 273.311 247.078Z" stroke="url(#paint58_linear_281_920)"/>
<path d="M281.79 242.965C337.721 216.285 434.284 223.075 545.445 255.868C656.55 288.645 781.997 347.335 895.424 424.18C1008.85 501.024 1088.74 581.446 1126.23 649.338C1163.74 717.265 1158.73 772.503 1102.8 799.183C1046.87 825.863 950.305 819.073 839.144 786.28C728.038 753.503 602.591 694.812 489.164 617.968C375.738 541.123 295.847 460.702 258.36 392.81C220.853 324.883 225.858 269.645 281.79 242.965Z" stroke="url(#paint59_linear_281_920)"/>
<path d="M290.396 238.938C347.145 212.814 443.487 220.564 553.619 254.453C663.699 288.326 787.323 348.251 898.372 426.208C1009.42 504.166 1086.83 585.366 1122.23 653.619C1157.64 721.904 1150.94 777.087 1094.2 803.211C1037.45 829.334 941.103 821.585 830.971 787.695C720.892 753.822 597.267 693.897 486.218 615.94C375.169 537.983 297.761 456.782 262.364 388.529C226.95 320.244 233.647 265.061 290.396 238.938Z" stroke="url(#paint60_linear_281_920)"/>
<path d="M299.122 234.996C356.67 209.437 452.764 218.144 561.833 253.119C670.855 288.078 792.619 349.22 901.257 428.266C1009.89 507.312 1084.8 589.267 1118.09 657.859C1151.4 726.482 1143.02 781.593 1085.47 807.152C1027.92 832.712 931.826 824.005 822.756 789.03C713.735 754.07 591.971 692.929 483.333 613.883C374.696 534.837 299.794 452.881 266.498 384.289C233.187 315.666 241.573 260.556 299.122 234.996Z" stroke="url(#paint61_linear_281_920)"/>
<path d="M307.97 231.142C366.301 206.154 462.116 215.816 570.09 251.866C678.02 287.901 797.887 350.241 904.08 430.352C1010.27 510.462 1082.64 593.147 1113.83 662.057C1145.03 730.997 1134.95 786.019 1076.62 811.006C1018.29 835.994 922.477 826.332 814.502 790.282C706.573 754.247 586.707 691.908 480.514 611.797C374.321 531.686 301.948 449.001 270.763 380.091C239.566 311.151 249.639 256.129 307.97 231.142Z" stroke="url(#paint62_linear_281_920)"/>
<path d="M316.932 227.377C376.027 202.969 471.534 213.582 578.381 250.696C685.185 287.796 803.119 351.314 906.834 432.465C1010.55 513.616 1080.37 597.005 1109.44 666.213C1138.51 735.449 1126.75 790.364 1067.66 814.772C1008.56 839.18 913.055 828.566 806.209 791.452C699.404 754.352 581.472 690.834 477.756 609.683C374.04 528.532 304.217 445.144 275.154 375.935C246.079 306.7 257.837 251.784 316.932 227.377Z" stroke="url(#paint63_linear_281_920)"/>
<path d="M326.01 223.7C385.852 199.88 481.022 211.442 586.708 249.609C692.356 287.762 808.319 352.439 909.526 434.606C1010.73 516.772 1077.98 600.84 1104.92 670.325C1131.86 739.835 1118.42 794.628 1058.58 818.448C998.739 842.268 903.57 830.706 797.884 792.54C692.236 754.387 576.273 689.709 475.066 607.543C373.858 525.376 306.608 441.308 279.674 371.823C252.731 302.313 266.169 247.52 326.01 223.7Z" stroke="url(#paint64_linear_281_920)"/>
<path d="M335.2 220.115C395.77 196.89 490.574 209.396 595.068 248.604C699.526 287.799 813.483 353.616 912.151 436.773C1010.82 519.93 1075.48 604.65 1100.27 674.39C1125.08 744.154 1109.96 798.808 1049.39 822.034C988.822 845.259 894.019 832.752 789.525 793.544C685.067 754.349 571.11 688.533 472.442 605.376C373.774 522.219 309.115 437.498 284.319 367.758C259.515 297.994 274.63 243.34 335.2 220.115Z" stroke="url(#paint65_linear_281_920)"/>
<path d="M344.496 216.621C405.777 193.998 500.185 207.446 603.454 247.683C706.691 287.908 818.609 354.844 914.708 438.966C1010.81 523.088 1072.85 608.436 1095.5 678.41C1118.16 748.406 1101.37 802.904 1040.09 825.527C978.813 848.15 884.405 834.702 781.136 794.465C677.899 754.241 565.98 687.305 469.882 603.182C373.783 519.06 311.737 433.713 289.087 363.739C266.429 293.742 283.216 239.244 344.496 216.621Z" stroke="url(#paint66_linear_281_920)"/>
<path d="M353.9 213.22C415.872 191.207 509.855 205.592 611.869 246.846C713.854 288.087 823.698 356.122 917.198 441.184C1010.7 526.245 1070.11 612.194 1090.61 682.381C1111.12 752.588 1092.66 806.914 1030.69 828.928C968.718 850.941 874.735 836.556 772.721 795.303C670.737 754.061 560.892 686.026 467.392 600.964C373.892 515.903 314.477 429.955 293.978 359.767C273.474 289.56 291.929 235.234 353.9 213.22Z" stroke="url(#paint67_linear_281_920)"/>
<path d="M363.407 209.913C426.05 188.516 519.58 203.834 620.308 246.092C721.009 288.338 828.747 357.452 919.62 443.427C1010.49 529.401 1067.26 615.925 1085.6 686.303C1103.94 756.7 1083.83 810.838 1021.18 832.235C958.539 853.632 865.009 838.315 764.281 796.057C663.58 753.811 555.844 684.697 464.971 598.722C374.098 512.748 317.33 426.224 298.99 355.846C280.644 285.448 300.763 231.311 363.407 209.913Z" stroke="url(#paint68_linear_281_920)"/>
<path d="M373.014 206.702C436.31 185.927 529.359 202.173 628.77 245.422C728.156 288.66 833.753 358.831 921.971 445.692C1010.19 532.554 1064.29 619.627 1080.47 690.175C1096.65 760.741 1074.87 814.673 1011.58 835.447C948.28 856.222 855.232 839.976 755.821 796.727C656.434 753.489 550.837 683.318 462.619 596.456C374.4 509.594 320.299 422.522 304.123 351.974C287.942 281.408 309.717 227.476 373.014 206.702Z" stroke="url(#paint69_linear_281_920)"/>
<path d="M382.718 203.585C446.649 183.44 539.187 200.609 637.251 244.836C735.293 289.053 838.718 360.259 924.255 447.981C1009.79 535.704 1061.21 623.298 1075.22 693.994C1089.23 764.707 1065.8 818.418 1001.87 838.563C937.944 858.708 845.406 841.538 747.341 797.312C649.299 753.095 545.874 681.889 460.338 594.166C374.801 506.444 323.383 418.85 309.375 348.153C295.363 277.441 318.788 223.73 382.718 203.585Z" stroke="url(#paint70_linear_281_920)"/>
<path d="M392.516 200.566C457.061 181.056 549.06 199.144 645.748 244.335C742.416 289.516 843.636 361.737 926.465 450.293C1009.29 538.849 1058.02 626.939 1069.85 697.762C1081.69 768.6 1056.62 822.073 992.077 841.582C927.532 861.092 835.532 843.005 738.844 797.814C642.176 752.632 540.955 680.411 458.126 591.855C375.297 503.298 326.576 415.209 314.74 344.386C302.903 273.548 327.971 220.075 392.516 200.566Z" stroke="url(#paint71_linear_281_920)"/>
<path d="M402.403 197.645C467.543 178.777 558.975 197.776 654.258 243.918C749.522 290.051 848.508 363.263 928.605 452.627C1008.7 541.99 1054.71 630.547 1064.37 701.476C1074.03 772.418 1047.33 825.636 982.186 844.504C917.047 863.371 825.614 844.372 730.332 798.23C635.067 752.097 536.081 678.885 455.985 589.522C375.888 500.159 329.879 411.601 320.22 340.672C310.56 269.73 337.264 216.512 402.403 197.645Z" stroke="url(#paint72_linear_281_920)"/>
<path d="M412.381 194.821C478.095 176.601 568.932 196.507 662.78 243.586C756.612 290.656 853.334 364.838 930.673 454.98C1008.01 545.123 1051.29 634.122 1058.77 705.135C1066.26 776.159 1037.92 829.107 972.21 847.327C906.496 865.547 815.659 845.641 721.811 798.562C627.979 751.492 531.257 677.31 453.917 587.167C376.578 497.025 333.296 408.026 325.816 337.014C318.335 265.989 346.667 213.041 412.381 194.821Z" stroke="url(#paint73_linear_281_920)"/>
<path d="M422.444 192.098C488.712 174.531 578.927 195.338 671.312 243.338C763.682 291.332 858.11 366.46 932.669 457.355C1007.23 548.249 1047.77 637.663 1053.07 708.737C1058.37 779.823 1028.42 832.483 962.149 850.05C895.881 867.617 805.665 846.81 713.28 798.81C620.91 750.816 526.481 675.687 451.922 584.793C377.363 493.898 336.821 404.485 331.523 333.411C326.223 262.325 356.176 209.664 422.444 192.098Z" stroke="url(#paint74_linear_281_920)"/>
<path d="M432.586 189.475C499.389 172.567 588.954 194.268 679.848 243.176C770.729 292.077 862.834 368.13 934.59 459.749C1006.35 551.368 1044.14 641.168 1047.25 712.283C1050.37 783.408 1018.81 835.765 952.003 852.673C885.201 869.581 795.637 847.88 704.743 798.972C613.862 750.071 521.755 674.018 450 582.399C378.244 490.78 340.454 400.98 337.339 329.865C334.223 258.74 365.784 206.383 432.586 189.475Z" stroke="url(#paint75_linear_281_920)"/>
<path d="M442.81 186.952C510.126 170.709 599.013 193.297 688.389 243.098C777.753 292.893 867.508 369.846 936.439 462.161C1005.37 554.476 1040.4 644.636 1041.33 715.77C1042.26 786.912 1009.1 838.951 941.782 855.195C874.466 871.438 785.578 848.851 696.202 799.05C606.838 749.255 517.083 672.301 448.152 579.986C379.221 487.671 344.194 397.512 343.262 326.378C342.33 255.235 375.494 203.196 442.81 186.952Z" stroke="url(#paint76_linear_281_920)"/>
<path d="M453.108 184.533C520.917 168.959 609.099 192.427 696.93 243.105C784.751 293.778 872.128 371.609 938.213 464.593C1004.3 557.576 1036.55 648.068 1035.3 719.199C1034.05 790.338 999.292 842.042 931.483 857.616C863.674 873.19 775.492 849.722 687.661 799.044C599.841 748.371 512.463 670.54 446.378 577.556C380.293 484.573 348.04 394.081 349.292 322.95C350.544 251.811 385.3 200.107 453.108 184.533Z" stroke="url(#paint77_linear_281_920)"/>
<path d="M463.48 182.215C531.762 167.315 619.211 191.656 705.47 243.197C791.72 294.733 876.693 373.417 939.912 467.041C1003.13 560.664 1032.6 651.459 1029.17 722.566C1025.73 793.679 989.394 845.033 921.113 859.933C852.831 874.833 765.381 850.492 679.122 798.951C592.872 747.416 507.9 668.731 444.68 575.108C381.461 481.485 351.991 390.689 355.427 319.582C358.863 248.469 395.199 197.115 463.48 182.215Z" stroke="url(#paint78_linear_281_920)"/>
<path d="M473.921 180.001C542.653 165.779 629.344 190.987 714.005 243.374C798.658 295.757 881.201 375.271 941.536 469.505C1001.87 563.739 1028.55 654.812 1022.93 725.872C1017.31 796.939 979.404 847.927 910.671 862.148C841.939 876.369 755.248 851.162 670.587 798.774C585.934 746.392 503.391 666.878 443.057 572.644C382.722 478.41 356.045 387.337 361.663 316.276C367.282 245.209 405.188 194.222 473.921 180.001Z" stroke="url(#paint79_linear_281_920)"/>
<path d="M484.427 177.89C553.59 164.352 639.495 190.417 722.532 243.635C805.563 296.849 885.651 377.168 943.083 471.985C1000.51 566.802 1024.39 658.124 1016.59 729.117C1008.79 800.115 969.327 850.721 900.165 864.259C831.002 877.797 745.097 851.731 662.059 798.513C579.028 745.3 498.94 664.98 441.509 570.163C384.078 475.346 360.202 384.024 368.001 313.032C375.8 242.033 415.264 191.428 484.427 177.89Z" stroke="url(#paint80_linear_281_920)"/>
<path d="M494.997 175.884C564.569 163.033 649.662 189.949 731.051 243.981C812.434 298.01 890.043 379.11 944.553 474.48C999.064 569.851 1020.13 661.395 1010.16 732.298C1000.18 803.206 959.167 853.415 889.595 866.265C820.024 879.116 734.93 852.2 653.541 798.168C572.158 744.139 494.549 663.039 440.039 567.668C385.528 472.298 364.46 380.754 374.437 309.851C384.414 238.943 425.426 188.734 494.997 175.884Z" stroke="url(#paint81_linear_281_920)"/>
<path d="M505.626 173.983C575.586 161.824 659.841 189.582 739.557 244.412C819.268 299.239 894.374 381.095 945.948 476.99C997.521 572.885 1015.78 664.622 1003.62 735.414C991.471 806.211 948.924 856.007 878.965 868.166C809.006 880.325 724.751 852.567 645.035 797.737C565.324 742.91 490.218 661.055 438.645 565.16C387.072 469.264 368.817 377.527 380.969 306.735C393.122 235.938 435.667 186.142 505.626 173.983Z" stroke="url(#paint82_linear_281_920)"/>
<path d="M516.313 172.187C586.639 160.724 670.031 189.315 748.05 244.927C826.064 300.535 898.644 383.123 947.265 479.513C995.885 575.904 1011.32 667.806 996.997 738.466C982.673 809.129 938.605 858.498 868.28 869.961C797.954 881.425 714.562 852.833 636.543 797.222C558.529 741.614 485.949 659.027 437.329 562.636C388.708 466.246 373.273 374.343 387.596 303.683C401.92 233.019 445.988 183.651 516.313 172.187Z" stroke="url(#paint83_linear_281_920)"/>
<path d="M527.052 170.498C597.722 159.734 680.225 189.149 756.523 245.525C832.817 301.898 902.85 385.192 948.503 482.049C994.156 578.905 1006.77 670.945 990.277 741.451C973.786 811.96 928.21 860.886 857.54 871.651C786.87 882.415 704.367 852.999 628.069 796.623C551.775 740.25 481.743 656.957 436.09 560.1C390.437 463.244 377.825 371.203 394.315 300.697C410.806 230.188 456.382 181.263 527.052 170.498Z" stroke="url(#paint84_linear_281_920)"/>
<path d="M537.842 168.916C608.835 158.854 690.423 189.085 764.977 246.208C839.528 303.328 906.991 387.303 949.663 484.596C992.335 581.889 1002.12 674.039 983.467 744.37C964.814 814.703 917.743 863.171 846.75 873.233C775.758 883.296 694.169 853.064 619.615 795.941C545.064 738.82 477.601 654.846 434.929 557.553C392.257 460.26 382.474 368.109 401.125 297.779C419.778 227.445 466.85 178.978 537.842 168.916Z" stroke="url(#paint85_linear_281_920)"/>
<path d="M548.678 167.44C619.972 158.084 700.62 189.122 773.408 246.975C846.193 304.825 911.067 389.455 950.745 487.155C990.423 584.855 997.375 677.087 976.567 747.221C955.759 817.357 907.207 865.352 835.913 874.709C764.619 884.065 683.971 853.027 611.183 795.175C538.398 737.324 473.524 652.694 433.847 554.994C394.169 457.294 387.215 365.063 408.023 294.929C428.832 224.792 477.384 176.797 548.678 167.44Z" stroke="url(#paint86_linear_281_920)"/>
<path d="M559.558 166.072C631.131 157.424 710.815 189.258 781.814 247.823C852.811 306.387 915.075 391.646 951.747 489.724C988.419 587.801 992.54 680.086 969.582 750.002C946.624 819.92 896.606 867.427 825.033 876.075C753.46 884.724 673.776 852.889 602.777 794.324C531.779 735.761 469.515 650.502 432.843 552.424C396.171 454.347 392.05 362.062 415.008 292.145C437.966 222.227 487.985 174.72 559.558 166.072Z" stroke="url(#paint87_linear_281_920)"/>
<path d="M570.478 164.813C642.309 156.875 721.004 189.497 790.193 248.756C859.381 308.015 919.019 393.878 952.673 492.302C986.328 590.727 987.614 683.038 962.514 752.715C937.413 822.394 885.944 869.399 814.114 877.336C742.284 885.273 663.588 852.651 594.399 793.392C525.211 734.134 465.575 648.271 431.92 549.846C398.265 451.421 396.978 359.11 422.078 289.433C447.179 219.754 498.648 172.75 570.478 164.813Z" stroke="url(#paint88_linear_281_920)"/>
<path d="M581.435 163.661C653.501 156.438 731.183 189.837 798.542 249.773C865.899 309.708 922.89 396.148 953.518 494.89C984.145 593.632 982.598 685.941 955.362 755.357C928.126 824.775 875.223 871.264 803.157 878.487C731.092 885.711 653.409 852.312 586.051 792.376C518.694 732.441 461.702 646 431.075 547.258C400.447 448.516 401.995 356.208 429.23 286.792C456.466 217.373 509.37 170.885 581.435 163.661Z" stroke="url(#paint89_linear_281_920)"/>
<path d="M592.425 162.618C664.703 156.111 741.35 190.275 806.857 250.87C872.363 311.464 926.691 398.456 954.282 497.486C981.873 596.515 977.492 688.793 948.13 757.928C918.768 827.064 864.444 873.021 792.166 879.529C719.888 886.037 643.241 851.872 577.734 791.277C512.228 730.684 457.901 643.692 430.309 544.663C402.718 445.633 407.099 353.355 436.461 284.22C465.823 215.083 520.147 169.126 592.425 162.618Z" stroke="url(#paint90_linear_281_920)"/>
<path d="M603.447 161.685C675.915 155.895 751.501 190.817 815.138 252.051C878.773 313.285 930.421 400.801 954.967 500.088C979.514 599.376 972.301 691.595 940.821 760.428C909.341 829.262 853.615 874.674 781.147 880.464C708.678 886.254 633.091 851.333 569.455 790.098C505.819 728.864 454.171 641.347 429.625 542.06C405.078 442.773 412.291 350.554 443.771 281.721C475.251 212.887 530.978 167.475 603.447 161.685Z" stroke="url(#paint91_linear_281_920)"/>
<path d="M614.494 160.86C687.131 155.79 761.634 191.457 823.381 253.313C885.126 315.168 934.079 403.183 955.573 502.697C977.067 602.212 967.024 694.345 933.436 762.854C899.848 831.364 842.737 876.218 770.099 881.288C697.462 886.358 622.959 850.691 561.213 788.835C499.468 726.98 450.514 638.965 429.02 539.451C407.526 439.936 417.569 347.803 451.157 279.294C484.746 210.784 541.857 165.93 614.494 160.86Z" stroke="url(#paint92_linear_281_920)"/>
<path d="M625.563 160.145C698.346 155.797 771.744 192.198 831.581 254.657C891.417 317.115 937.66 405.601 956.096 505.312C974.531 605.024 961.662 697.043 925.976 765.208C890.29 833.374 831.809 877.654 759.026 882.003C686.243 886.352 612.846 849.951 553.008 787.493C493.172 725.035 446.929 636.548 428.493 536.836C410.058 437.124 422.928 345.107 458.613 276.941C494.299 208.775 552.78 164.494 625.563 160.145Z" stroke="url(#paint93_linear_281_920)"/>
<path d="M636.655 159.54C709.562 155.914 781.831 193.039 839.741 256.081C897.651 319.123 941.169 408.054 956.54 507.933C971.912 607.811 956.22 699.686 918.447 767.487C880.674 835.288 820.843 878.983 747.936 882.609C675.029 886.235 602.76 849.11 544.85 786.068C486.941 723.026 443.421 634.096 428.05 534.217C412.678 434.338 428.371 342.462 466.144 274.662C503.917 206.861 563.748 163.166 636.655 159.54Z" stroke="url(#paint94_linear_281_920)"/>
<path d="M647.764 159.045C720.772 156.143 791.89 193.979 847.855 257.586C903.82 321.192 944.602 410.541 956.905 510.557C969.208 610.572 950.697 702.277 910.848 769.692C871 837.108 809.837 880.202 736.829 883.104C663.821 886.007 592.702 848.17 536.737 784.564C480.772 720.957 439.99 631.609 427.687 531.594C415.384 431.578 433.895 339.873 473.743 272.457C513.592 205.042 574.756 161.947 647.764 159.045Z" stroke="url(#paint95_linear_281_920)"/>
<path d="M658.885 158.659C731.972 156.481 801.918 195.018 855.922 259.17C909.925 323.322 947.958 413.06 957.189 513.182C966.419 613.304 945.095 704.811 903.183 771.82C861.271 838.83 798.795 881.312 725.708 883.489C652.621 885.667 582.674 847.13 528.67 782.978C474.667 718.826 436.634 629.087 427.404 528.966C418.174 428.844 439.497 337.337 481.409 270.328C523.321 203.318 585.798 160.836 658.885 158.659Z" stroke="url(#paint96_linear_281_920)"/>
<path d="M670.015 158.383C743.159 156.931 811.911 196.156 863.937 260.834C915.963 325.511 951.235 415.614 957.39 515.812C963.545 616.009 939.415 707.291 895.453 773.874C851.49 840.457 787.718 882.313 714.575 883.765C641.432 885.217 572.68 845.992 520.653 781.314C468.628 716.636 433.356 626.534 427.201 526.337C421.046 426.139 445.175 334.857 489.138 268.274C533.101 201.691 596.872 159.835 670.015 158.383Z" stroke="url(#paint97_linear_281_920)"/>
<path d="M681.155 158.218C754.332 157.492 821.87 197.393 871.902 262.577C921.934 327.761 954.434 418.199 957.512 518.442C960.59 618.686 933.662 709.714 887.662 775.851C841.662 841.988 776.615 883.204 703.438 883.93C630.261 884.657 562.723 844.755 512.69 779.571C462.658 714.388 430.159 623.949 427.081 523.706C424.003 423.462 450.93 332.434 496.93 266.298C542.93 200.161 607.978 158.944 681.155 158.218Z" stroke="url(#paint98_linear_281_920)"/>
<path d="M692.295 158.162C765.483 158.162 831.786 198.728 879.81 264.399C927.833 330.069 957.551 420.815 957.551 521.074C957.551 621.332 927.833 712.079 879.81 777.749C831.786 843.42 765.483 883.985 692.295 883.985C619.107 883.985 552.805 843.42 504.781 777.749C456.758 712.079 427.039 621.332 427.039 521.074C427.039 420.815 456.758 330.069 504.781 264.399C552.805 198.728 619.107 158.162 692.295 158.162Z" stroke="url(#paint99_linear_281_920)"/>
</g>
<g opacity="0.75" filter="url(#filter0_f_281_920)">
<ellipse cx="692.497" cy="492.829" rx="349.458" ry="360.799" transform="rotate(-116.193 692.497 492.829)" fill="url(#paint100_linear_281_920)" fill-opacity="0.25"/>
</g>
<defs>
<filter id="filter0_f_281_920" x="13.7949" y="-178.942" width="1357.4" height="1343.54" filterUnits="userSpaceOnUse" color-interpolation-filters="sRGB">
<feFlood flood-opacity="0" result="BackgroundImageFix"/>
<feBlend mode="normal" in="SourceGraphic" in2="BackgroundImageFix" result="shape"/>
<feGaussianBlur stdDeviation="160" result="effect1_foregroundBlur_281_920"/>
</filter>
<linearGradient id="paint0_linear_281_920" x1="102.465" y1="727.14" x2="241.728" y2="88.2325" gradientUnits="userSpaceOnUse">
<stop stop-color="white" stop-opacity="0.05"/>
<stop offset="1" stop-color="white" stop-opacity="0.15"/>
</linearGradient>
<linearGradient id="paint1_linear_281_920" x1="96.2285" y1="721.257" x2="243.103" y2="81.0793" gradientUnits="userSpaceOnUse">
<stop stop-color="white" stop-opacity="0.05"/>
<stop offset="1" stop-color="white" stop-opacity="0.15"/>
</linearGradient>
<linearGradient id="paint2_linear_281_920" x1="90.1719" y1="715.312" x2="244.802" y2="73.8268" gradientUnits="userSpaceOnUse">
<stop stop-color="white" stop-opacity="0.05"/>
<stop offset="1" stop-color="white" stop-opacity="0.15"/>
</linearGradient>
<linearGradient id="paint3_linear_281_920" x1="84.3008" y1="709.309" x2="246.836" y2="66.4808" gradientUnits="userSpaceOnUse">
<stop stop-color="white" stop-opacity="0.05"/>
<stop offset="1" stop-color="white" stop-opacity="0.15"/>
</linearGradient>
<linearGradient id="paint4_linear_281_920" x1="78.6152" y1="703.248" x2="249.214" y2="59.0462" gradientUnits="userSpaceOnUse">
<stop stop-color="white" stop-opacity="0.05"/>
<stop offset="1" stop-color="white" stop-opacity="0.15"/>
</linearGradient>
<linearGradient id="paint5_linear_281_920" x1="73.1152" y1="697.132" x2="251.945" y2="51.5296" gradientUnits="userSpaceOnUse">
<stop stop-color="white" stop-opacity="0.05"/>
<stop offset="1" stop-color="white" stop-opacity="0.15"/>
</linearGradient>
<linearGradient id="paint6_linear_281_920" x1="67.8047" y1="690.962" x2="255.042" y2="43.9371" gradientUnits="userSpaceOnUse">
<stop stop-color="white" stop-opacity="0.05"/>
<stop offset="1" stop-color="white" stop-opacity="0.15"/>
</linearGradient>
<linearGradient id="paint7_linear_281_920" x1="62.6836" y1="684.74" x2="258.512" y2="36.2756" gradientUnits="userSpaceOnUse">
<stop stop-color="white" stop-opacity="0.05"/>
<stop offset="1" stop-color="white" stop-opacity="0.15"/>
</linearGradient>
<linearGradient id="paint8_linear_281_920" x1="57.7559" y1="678.469" x2="262.368" y2="28.5533" gradientUnits="userSpaceOnUse">
<stop stop-color="white" stop-opacity="0.05"/>
<stop offset="1" stop-color="white" stop-opacity="0.15"/>
</linearGradient>
<linearGradient id="paint9_linear_281_920" x1="53.0195" y1="672.149" x2="266.619" y2="20.7772" gradientUnits="userSpaceOnUse">
<stop stop-color="white" stop-opacity="0.05"/>
<stop offset="1" stop-color="white" stop-opacity="0.15"/>
</linearGradient>
<linearGradient id="paint10_linear_281_920" x1="48.4785" y1="665.784" x2="271.277" y2="12.9561" gradientUnits="userSpaceOnUse">
<stop stop-color="white" stop-opacity="0.05"/>
<stop offset="1" stop-color="white" stop-opacity="0.15"/>
</linearGradient>
<linearGradient id="paint11_linear_281_920" x1="44.1348" y1="659.374" x2="276.353" y2="5.09797" gradientUnits="userSpaceOnUse">
<stop stop-color="white" stop-opacity="0.05"/>
<stop offset="1" stop-color="white" stop-opacity="0.15"/>
</linearGradient>
<linearGradient id="paint12_linear_281_920" x1="39.9863" y1="652.923" x2="281.855" y2="-2.78652" gradientUnits="userSpaceOnUse">
<stop stop-color="white" stop-opacity="0.05"/>
<stop offset="1" stop-color="white" stop-opacity="0.15"/>
</linearGradient>
<linearGradient id="paint13_linear_281_920" x1="36.0391" y1="646.431" x2="287.799" y2="-10.6876" gradientUnits="userSpaceOnUse">
<stop stop-color="white" stop-opacity="0.05"/>
<stop offset="1" stop-color="white" stop-opacity="0.15"/>
</linearGradient>
<linearGradient id="paint14_linear_281_920" x1="32.291" y1="639.901" x2="294.194" y2="-18.5938" gradientUnits="userSpaceOnUse">
<stop stop-color="white" stop-opacity="0.05"/>
<stop offset="1" stop-color="white" stop-opacity="0.15"/>
</linearGradient>
<linearGradient id="paint15_linear_281_920" x1="28.7422" y1="633.335" x2="301.049" y2="-26.4944" gradientUnits="userSpaceOnUse">
<stop stop-color="white" stop-opacity="0.05"/>
<stop offset="1" stop-color="white" stop-opacity="0.15"/>
</linearGradient>
<linearGradient id="paint16_linear_281_920" x1="25.3965" y1="626.734" x2="308.378" y2="-34.3767" gradientUnits="userSpaceOnUse">
<stop stop-color="white" stop-opacity="0.05"/>
<stop offset="1" stop-color="white" stop-opacity="0.15"/>
</linearGradient>
<linearGradient id="paint17_linear_281_920" x1="22.2559" y1="620.102" x2="316.194" y2="-42.2267" gradientUnits="userSpaceOnUse">
<stop stop-color="white" stop-opacity="0.05"/>
<stop offset="1" stop-color="white" stop-opacity="0.15"/>
</linearGradient>
<linearGradient id="paint18_linear_281_920" x1="19.3164" y1="613.439" x2="324.503" y2="-50.0308" gradientUnits="userSpaceOnUse">
<stop stop-color="white" stop-opacity="0.05"/>
<stop offset="1" stop-color="white" stop-opacity="0.15"/>
</linearGradient>
<linearGradient id="paint19_linear_281_920" x1="16.584" y1="606.748" x2="333.322" y2="-57.7735" gradientUnits="userSpaceOnUse">
<stop stop-color="white" stop-opacity="0.05"/>
<stop offset="1" stop-color="white" stop-opacity="0.15"/>
</linearGradient>
<linearGradient id="paint20_linear_281_920" x1="14.0566" y1="600.032" x2="342.659" y2="-65.438" gradientUnits="userSpaceOnUse">
<stop stop-color="white" stop-opacity="0.05"/>
<stop offset="1" stop-color="white" stop-opacity="0.15"/>
</linearGradient>
<linearGradient id="paint21_linear_281_920" x1="11.7363" y1="593.29" x2="352.526" y2="-73.0081" gradientUnits="userSpaceOnUse">
<stop stop-color="white" stop-opacity="0.05"/>
<stop offset="1" stop-color="white" stop-opacity="0.15"/>
</linearGradient>
<linearGradient id="paint22_linear_281_920" x1="9.62305" y1="586.528" x2="362.934" y2="-80.4637" gradientUnits="userSpaceOnUse">
<stop stop-color="white" stop-opacity="0.05"/>
<stop offset="1" stop-color="white" stop-opacity="0.15"/>
</linearGradient>
<linearGradient id="paint23_linear_281_920" x1="7.7168" y1="579.744" x2="373.893" y2="-87.786" gradientUnits="userSpaceOnUse">
<stop stop-color="white" stop-opacity="0.05"/>
<stop offset="1" stop-color="white" stop-opacity="0.15"/>
</linearGradient>
<linearGradient id="paint24_linear_281_920" x1="6.01953" y1="572.944" x2="385.414" y2="-94.953" gradientUnits="userSpaceOnUse">
<stop stop-color="white" stop-opacity="0.05"/>
<stop offset="1" stop-color="white" stop-opacity="0.15"/>
</linearGradient>
<linearGradient id="paint25_linear_281_920" x1="4.53125" y1="566.127" x2="397.508" y2="-101.942" gradientUnits="userSpaceOnUse">
<stop stop-color="white" stop-opacity="0.05"/>
<stop offset="1" stop-color="white" stop-opacity="0.15"/>
</linearGradient>
<linearGradient id="paint26_linear_281_920" x1="3.25391" y1="559.297" x2="410.183" y2="-108.729" gradientUnits="userSpaceOnUse">
<stop stop-color="white" stop-opacity="0.05"/>
<stop offset="1" stop-color="white" stop-opacity="0.15"/>
</linearGradient>
<linearGradient id="paint27_linear_281_920" x1="2.18555" y1="552.455" x2="423.448" y2="-115.289" gradientUnits="userSpaceOnUse">
<stop stop-color="white" stop-opacity="0.05"/>
<stop offset="1" stop-color="white" stop-opacity="0.15"/>
</linearGradient>
<linearGradient id="paint28_linear_281_920" x1="1.32617" y1="545.603" x2="437.31" y2="-121.594" gradientUnits="userSpaceOnUse">
<stop stop-color="white" stop-opacity="0.05"/>
<stop offset="1" stop-color="white" stop-opacity="0.15"/>
</linearGradient>
<linearGradient id="paint29_linear_281_920" x1="0.679688" y1="538.745" x2="451.779" y2="-127.615" gradientUnits="userSpaceOnUse">
<stop stop-color="white" stop-opacity="0.05"/>
<stop offset="1" stop-color="white" stop-opacity="0.15"/>
</linearGradient>
<linearGradient id="paint30_linear_281_920" x1="0.242188" y1="531.88" x2="466.857" y2="-133.321" gradientUnits="userSpaceOnUse">
<stop stop-color="white" stop-opacity="0.05"/>
<stop offset="1" stop-color="white" stop-opacity="0.15"/>
</linearGradient>
<linearGradient id="paint31_linear_281_920" x1="0.015625" y1="525.012" x2="482.551" y2="-138.679" gradientUnits="userSpaceOnUse">
<stop stop-color="white" stop-opacity="0.05"/>
<stop offset="1" stop-color="white" stop-opacity="0.15"/>
</linearGradient>
<linearGradient id="paint32_linear_281_920" x1="0" y1="518.144" x2="498.862" y2="-143.655" gradientUnits="userSpaceOnUse">
<stop stop-color="white" stop-opacity="0.05"/>
<stop offset="1" stop-color="white" stop-opacity="0.15"/>
</linearGradient>
<linearGradient id="paint33_linear_281_920" x1="0.195313" y1="511.275" x2="515.794" y2="-148.214" gradientUnits="userSpaceOnUse">
<stop stop-color="white" stop-opacity="0.05"/>
<stop offset="1" stop-color="white" stop-opacity="0.15"/>
</linearGradient>
<linearGradient id="paint34_linear_281_920" x1="0.601563" y1="504.41" x2="533.346" y2="-152.316" gradientUnits="userSpaceOnUse">
<stop stop-color="white" stop-opacity="0.05"/>
<stop offset="1" stop-color="white" stop-opacity="0.15"/>
</linearGradient>
<linearGradient id="paint35_linear_281_920" x1="1.21875" y1="497.551" x2="551.513" y2="-155.92" gradientUnits="userSpaceOnUse">
<stop stop-color="white" stop-opacity="0.05"/>
<stop offset="1" stop-color="white" stop-opacity="0.15"/>
</linearGradient>
<linearGradient id="paint36_linear_281_920" x1="2.04492" y1="490.698" x2="570.291" y2="-158.986" gradientUnits="userSpaceOnUse">
<stop stop-color="white" stop-opacity="0.05"/>
<stop offset="1" stop-color="white" stop-opacity="0.15"/>
</linearGradient>
<linearGradient id="paint37_linear_281_920" x1="3.08398" y1="483.854" x2="589.674" y2="-161.471" gradientUnits="userSpaceOnUse">
<stop stop-color="white" stop-opacity="0.05"/>
<stop offset="1" stop-color="white" stop-opacity="0.15"/>
</linearGradient>
<linearGradient id="paint38_linear_281_920" x1="4.33203" y1="477.022" x2="609.648" y2="-163.327" gradientUnits="userSpaceOnUse">
<stop stop-color="white" stop-opacity="0.05"/>
<stop offset="1" stop-color="white" stop-opacity="0.15"/>
</linearGradient>
<linearGradient id="paint39_linear_281_920" x1="5.78906" y1="470.203" x2="630.198" y2="-164.509" gradientUnits="userSpaceOnUse">
<stop stop-color="white" stop-opacity="0.05"/>
<stop offset="1" stop-color="white" stop-opacity="0.15"/>
</linearGradient>
<linearGradient id="paint40_linear_281_920" x1="7.45508" y1="463.4" x2="651.306" y2="-164.968" gradientUnits="userSpaceOnUse">
<stop stop-color="white" stop-opacity="0.05"/>
<stop offset="1" stop-color="white" stop-opacity="0.15"/>
</linearGradient>
<linearGradient id="paint41_linear_281_920" x1="9.33008" y1="456.614" x2="672.951" y2="-164.655" gradientUnits="userSpaceOnUse">
<stop stop-color="white" stop-opacity="0.05"/>
<stop offset="1" stop-color="white" stop-opacity="0.15"/>
</linearGradient>
<linearGradient id="paint42_linear_281_920" x1="11.4121" y1="449.848" x2="695.102" y2="-163.518" gradientUnits="userSpaceOnUse">
<stop stop-color="white" stop-opacity="0.05"/>
<stop offset="1" stop-color="white" stop-opacity="0.15"/>
</linearGradient>
<linearGradient id="paint43_linear_281_920" x1="13.7031" y1="443.104" x2="717.732" y2="-161.51" gradientUnits="userSpaceOnUse">
<stop stop-color="white" stop-opacity="0.05"/>
<stop offset="1" stop-color="white" stop-opacity="0.15"/>
</linearGradient>
<linearGradient id="paint44_linear_281_920" x1="16.2012" y1="436.383" x2="740.8" y2="-158.577" gradientUnits="userSpaceOnUse">
<stop stop-color="white" stop-opacity="0.05"/>
<stop offset="1" stop-color="white" stop-opacity="0.15"/>
</linearGradient>
<linearGradient id="paint45_linear_281_920" x1="18.9023" y1="429.689" x2="764.261" y2="-154.67" gradientUnits="userSpaceOnUse">
<stop stop-color="white" stop-opacity="0.05"/>
<stop offset="1" stop-color="white" stop-opacity="0.15"/>
</linearGradient>
<linearGradient id="paint46_linear_281_920" x1="21.8105" y1="423.022" x2="788.07" y2="-149.739" gradientUnits="userSpaceOnUse">
<stop stop-color="white" stop-opacity="0.05"/>
<stop offset="1" stop-color="white" stop-opacity="0.15"/>
</linearGradient>
<linearGradient id="paint47_linear_281_920" x1="24.9238" y1="416.385" x2="812.172" y2="-143.738" gradientUnits="userSpaceOnUse">
<stop stop-color="white" stop-opacity="0.05"/>
<stop offset="1" stop-color="white" stop-opacity="0.15"/>
</linearGradient>
<linearGradient id="paint48_linear_281_920" x1="28.2402" y1="409.779" x2="836.504" y2="-136.62" gradientUnits="userSpaceOnUse">
<stop stop-color="white" stop-opacity="0.05"/>
<stop offset="1" stop-color="white" stop-opacity="0.15"/>
</linearGradient>
<linearGradient id="paint49_linear_281_920" x1="31.7578" y1="403.208" x2="860.997" y2="-128.343" gradientUnits="userSpaceOnUse">
<stop stop-color="white" stop-opacity="0.05"/>
<stop offset="1" stop-color="white" stop-opacity="0.15"/>
</linearGradient>
<linearGradient id="paint50_linear_281_920" x1="35.4766" y1="396.673" x2="885.578" y2="-118.87" gradientUnits="userSpaceOnUse">
<stop stop-color="white" stop-opacity="0.05"/>
<stop offset="1" stop-color="white" stop-opacity="0.15"/>
</linearGradient>
<linearGradient id="paint51_linear_281_920" x1="39.3945" y1="390.175" x2="910.167" y2="-108.167" gradientUnits="userSpaceOnUse">
<stop stop-color="white" stop-opacity="0.05"/>
<stop offset="1" stop-color="white" stop-opacity="0.15"/>
</linearGradient>
<linearGradient id="paint52_linear_281_920" x1="43.5137" y1="383.718" x2="934.678" y2="-96.2065" gradientUnits="userSpaceOnUse">
<stop stop-color="white" stop-opacity="0.05"/>
<stop offset="1" stop-color="white" stop-opacity="0.15"/>
</linearGradient>
<linearGradient id="paint53_linear_281_920" x1="47.8301" y1="377.302" x2="959.018" y2="-82.9681" gradientUnits="userSpaceOnUse">
<stop stop-color="white" stop-opacity="0.05"/>
<stop offset="1" stop-color="white" stop-opacity="0.15"/>
</linearGradient>
<linearGradient id="paint54_linear_281_920" x1="52.3418" y1="370.93" x2="983.087" y2="-68.4383" gradientUnits="userSpaceOnUse">
<stop stop-color="white" stop-opacity="0.05"/>
<stop offset="1" stop-color="white" stop-opacity="0.15"/>
</linearGradient>
<linearGradient id="paint55_linear_281_920" x1="57.0488" y1="364.604" x2="1006.79" y2="-52.6137" gradientUnits="userSpaceOnUse">
<stop stop-color="white" stop-opacity="0.05"/>
<stop offset="1" stop-color="white" stop-opacity="0.15"/>
</linearGradient>
<linearGradient id="paint56_linear_281_920" x1="61.9492" y1="358.325" x2="1030.01" y2="-35.5" gradientUnits="userSpaceOnUse">
<stop stop-color="white" stop-opacity="0.05"/>
<stop offset="1" stop-color="white" stop-opacity="0.15"/>
</linearGradient>
<linearGradient id="paint57_linear_281_920" x1="67.041" y1="352.096" x2="1052.64" y2="-17.1131" gradientUnits="userSpaceOnUse">
<stop stop-color="white" stop-opacity="0.05"/>
<stop offset="1" stop-color="white" stop-opacity="0.15"/>
</linearGradient>
<linearGradient id="paint58_linear_281_920" x1="72.3242" y1="345.918" x2="1074.59" y2="2.5204" gradientUnits="userSpaceOnUse">
<stop stop-color="white" stop-opacity="0.05"/>
<stop offset="1" stop-color="white" stop-opacity="0.15"/>
</linearGradient>
<linearGradient id="paint59_linear_281_920" x1="77.7949" y1="339.794" x2="1095.72" y2="23.3601" gradientUnits="userSpaceOnUse">
<stop stop-color="white" stop-opacity="0.05"/>
<stop offset="1" stop-color="white" stop-opacity="0.15"/>
</linearGradient>
<linearGradient id="paint60_linear_281_920" x1="83.4551" y1="333.725" x2="1115.95" y2="45.3565" gradientUnits="userSpaceOnUse">
<stop stop-color="white" stop-opacity="0.05"/>
<stop offset="1" stop-color="white" stop-opacity="0.15"/>
</linearGradient>
<linearGradient id="paint61_linear_281_920" x1="89.2988" y1="327.713" x2="1135.15" y2="68.4448" gradientUnits="userSpaceOnUse">
<stop stop-color="white" stop-opacity="0.05"/>
<stop offset="1" stop-color="white" stop-opacity="0.15"/>
</linearGradient>
<linearGradient id="paint62_linear_281_920" x1="95.3281" y1="321.76" x2="1153.23" y2="92.5499" gradientUnits="userSpaceOnUse">
<stop stop-color="white" stop-opacity="0.05"/>
<stop offset="1" stop-color="white" stop-opacity="0.15"/>
</linearGradient>
<linearGradient id="paint63_linear_281_920" x1="101.537" y1="315.868" x2="1170.1" y2="117.585" gradientUnits="userSpaceOnUse">
<stop stop-color="white" stop-opacity="0.05"/>
<stop offset="1" stop-color="white" stop-opacity="0.15"/>
</linearGradient>
<linearGradient id="paint64_linear_281_920" x1="107.928" y1="310.038" x2="1185.67" y2="143.451" gradientUnits="userSpaceOnUse">
<stop stop-color="white" stop-opacity="0.05"/>
<stop offset="1" stop-color="white" stop-opacity="0.15"/>
</linearGradient>
<linearGradient id="paint65_linear_281_920" x1="114.496" y1="304.273" x2="1199.87" y2="170.039" gradientUnits="userSpaceOnUse">
<stop stop-color="white" stop-opacity="0.05"/>
<stop offset="1" stop-color="white" stop-opacity="0.15"/>
</linearGradient>
<linearGradient id="paint66_linear_281_920" x1="121.238" y1="298.573" x2="1212.62" y2="197.231" gradientUnits="userSpaceOnUse">
<stop stop-color="white" stop-opacity="0.05"/>
<stop offset="1" stop-color="white" stop-opacity="0.15"/>
</linearGradient>
<linearGradient id="paint67_linear_281_920" x1="128.156" y1="292.941" x2="1223.88" y2="224.904" gradientUnits="userSpaceOnUse">
<stop stop-color="white" stop-opacity="0.05"/>
<stop offset="1" stop-color="white" stop-opacity="0.15"/>
</linearGradient>
<linearGradient id="paint68_linear_281_920" x1="135.246" y1="287.379" x2="1233.6" y2="252.924" gradientUnits="userSpaceOnUse">
<stop stop-color="white" stop-opacity="0.05"/>
<stop offset="1" stop-color="white" stop-opacity="0.15"/>
</linearGradient>
<linearGradient id="paint69_linear_281_920" x1="142.506" y1="281.888" x2="1241.77" y2="281.158" gradientUnits="userSpaceOnUse">
<stop stop-color="white" stop-opacity="0.05"/>
<stop offset="1" stop-color="white" stop-opacity="0.15"/>
</linearGradient>
<linearGradient id="paint70_linear_281_920" x1="149.934" y1="276.47" x2="1248.36" y2="309.467" gradientUnits="userSpaceOnUse">
<stop stop-color="white" stop-opacity="0.05"/>
<stop offset="1" stop-color="white" stop-opacity="0.15"/>
</linearGradient>
<linearGradient id="paint71_linear_281_920" x1="157.525" y1="271.126" x2="1253.4" y2="337.716" gradientUnits="userSpaceOnUse">
<stop stop-color="white" stop-opacity="0.05"/>
<stop offset="1" stop-color="white" stop-opacity="0.15"/>
</linearGradient>
<linearGradient id="paint72_linear_281_920" x1="165.279" y1="265.859" x2="1256.88" y2="365.767" gradientUnits="userSpaceOnUse">
<stop stop-color="white" stop-opacity="0.05"/>
<stop offset="1" stop-color="white" stop-opacity="0.15"/>
</linearGradient>
<linearGradient id="paint73_linear_281_920" x1="173.195" y1="260.669" x2="1258.86" y2="393.49" gradientUnits="userSpaceOnUse">
<stop stop-color="white" stop-opacity="0.05"/>
<stop offset="1" stop-color="white" stop-opacity="0.15"/>
</linearGradient>
<linearGradient id="paint74_linear_281_920" x1="181.27" y1="255.558" x2="1259.38" y2="420.759" gradientUnits="userSpaceOnUse">
<stop stop-color="white" stop-opacity="0.05"/>
<stop offset="1" stop-color="white" stop-opacity="0.15"/>
</linearGradient>
<linearGradient id="paint75_linear_281_920" x1="189.498" y1="250.529" x2="1258.49" y2="447.456" gradientUnits="userSpaceOnUse">
<stop stop-color="white" stop-opacity="0.05"/>
<stop offset="1" stop-color="white" stop-opacity="0.15"/>
</linearGradient>
<linearGradient id="paint76_linear_281_920" x1="197.881" y1="245.582" x2="1256.28" y2="473.471" gradientUnits="userSpaceOnUse">
<stop stop-color="white" stop-opacity="0.05"/>
<stop offset="1" stop-color="white" stop-opacity="0.15"/>
</linearGradient>
<linearGradient id="paint77_linear_281_920" x1="206.414" y1="240.719" x2="1252.81" y2="498.706" gradientUnits="userSpaceOnUse">
<stop stop-color="white" stop-opacity="0.05"/>
<stop offset="1" stop-color="white" stop-opacity="0.15"/>
</linearGradient>
<linearGradient id="paint78_linear_281_920" x1="215.096" y1="235.941" x2="1248.19" y2="523.071" gradientUnits="userSpaceOnUse">
<stop stop-color="white" stop-opacity="0.05"/>
<stop offset="1" stop-color="white" stop-opacity="0.15"/>
</linearGradient>
<linearGradient id="paint79_linear_281_920" x1="223.922" y1="231.25" x2="1242.5" y2="546.492" gradientUnits="userSpaceOnUse">
<stop stop-color="white" stop-opacity="0.05"/>
<stop offset="1" stop-color="white" stop-opacity="0.15"/>
</linearGradient>
<linearGradient id="paint80_linear_281_920" x1="232.891" y1="226.647" x2="1235.85" y2="568.902" gradientUnits="userSpaceOnUse">
<stop stop-color="white" stop-opacity="0.05"/>
<stop offset="1" stop-color="white" stop-opacity="0.15"/>
</linearGradient>
<linearGradient id="paint81_linear_281_920" x1="242" y1="222.135" x2="1228.34" y2="590.251" gradientUnits="userSpaceOnUse">
<stop stop-color="white" stop-opacity="0.05"/>
<stop offset="1" stop-color="white" stop-opacity="0.15"/>
</linearGradient>
<linearGradient id="paint82_linear_281_920" x1="251.246" y1="217.713" x2="1220.08" y2="610.498" gradientUnits="userSpaceOnUse">
<stop stop-color="white" stop-opacity="0.05"/>
<stop offset="1" stop-color="white" stop-opacity="0.15"/>
</linearGradient>
<linearGradient id="paint83_linear_281_920" x1="260.627" y1="213.383" x2="1211.17" y2="629.614" gradientUnits="userSpaceOnUse">
<stop stop-color="white" stop-opacity="0.05"/>
<stop offset="1" stop-color="white" stop-opacity="0.15"/>
</linearGradient>
<linearGradient id="paint84_linear_281_920" x1="270.139" y1="209.147" x2="1201.72" y2="647.583" gradientUnits="userSpaceOnUse">
<stop stop-color="white" stop-opacity="0.05"/>
<stop offset="1" stop-color="white" stop-opacity="0.15"/>
</linearGradient>
<linearGradient id="paint85_linear_281_920" x1="279.779" y1="205.006" x2="1191.82" y2="664.398" gradientUnits="userSpaceOnUse">
<stop stop-color="white" stop-opacity="0.05"/>
<stop offset="1" stop-color="white" stop-opacity="0.15"/>
</linearGradient>
<linearGradient id="paint86_linear_281_920" x1="289.545" y1="200.962" x2="1181.58" y2="680.061" gradientUnits="userSpaceOnUse">
<stop stop-color="white" stop-opacity="0.05"/>
<stop offset="1" stop-color="white" stop-opacity="0.15"/>
</linearGradient>
<linearGradient id="paint87_linear_281_920" x1="299.434" y1="197.014" x2="1171.09" y2="694.585" gradientUnits="userSpaceOnUse">
<stop stop-color="white" stop-opacity="0.05"/>
<stop offset="1" stop-color="white" stop-opacity="0.15"/>
</linearGradient>
<linearGradient id="paint88_linear_281_920" x1="309.443" y1="193.166" x2="1160.44" y2="707.99" gradientUnits="userSpaceOnUse">
<stop stop-color="white" stop-opacity="0.05"/>
<stop offset="1" stop-color="white" stop-opacity="0.15"/>
</linearGradient>
<linearGradient id="paint89_linear_281_920" x1="319.568" y1="189.418" x2="1149.71" y2="720.301" gradientUnits="userSpaceOnUse">
<stop stop-color="white" stop-opacity="0.05"/>
<stop offset="1" stop-color="white" stop-opacity="0.15"/>
</linearGradient>
<linearGradient id="paint90_linear_281_920" x1="329.807" y1="185.77" x2="1138.98" y2="731.551" gradientUnits="userSpaceOnUse">
<stop stop-color="white" stop-opacity="0.05"/>
<stop offset="1" stop-color="white" stop-opacity="0.15"/>
</linearGradient>
<linearGradient id="paint91_linear_281_920" x1="340.156" y1="182.225" x2="1128.31" y2="741.777" gradientUnits="userSpaceOnUse">
<stop stop-color="white" stop-opacity="0.05"/>
<stop offset="1" stop-color="white" stop-opacity="0.15"/>
</linearGradient>
<linearGradient id="paint92_linear_281_920" x1="350.613" y1="178.783" x2="1117.78" y2="751.019" gradientUnits="userSpaceOnUse">
<stop stop-color="white" stop-opacity="0.05"/>
<stop offset="1" stop-color="white" stop-opacity="0.15"/>
</linearGradient>
<linearGradient id="paint93_linear_281_920" x1="361.172" y1="175.445" x2="1107.43" y2="759.323" gradientUnits="userSpaceOnUse">
<stop stop-color="white" stop-opacity="0.05"/>
<stop offset="1" stop-color="white" stop-opacity="0.15"/>
</linearGradient>
<linearGradient id="paint94_linear_281_920" x1="371.834" y1="172.213" x2="1097.33" y2="766.734" gradientUnits="userSpaceOnUse">
<stop stop-color="white" stop-opacity="0.05"/>
<stop offset="1" stop-color="white" stop-opacity="0.15"/>
</linearGradient>
<linearGradient id="paint95_linear_281_920" x1="382.594" y1="169.087" x2="1087.51" y2="773.302" gradientUnits="userSpaceOnUse">
<stop stop-color="white" stop-opacity="0.05"/>
<stop offset="1" stop-color="white" stop-opacity="0.15"/>
</linearGradient>
<linearGradient id="paint96_linear_281_920" x1="393.447" y1="166.067" x2="1078.01" y2="779.073" gradientUnits="userSpaceOnUse">
<stop stop-color="white" stop-opacity="0.05"/>
<stop offset="1" stop-color="white" stop-opacity="0.15"/>
</linearGradient>
<linearGradient id="paint97_linear_281_920" x1="404.391" y1="163.156" x2="1068.87" y2="784.1" gradientUnits="userSpaceOnUse">
<stop stop-color="white" stop-opacity="0.05"/>
<stop offset="1" stop-color="white" stop-opacity="0.15"/>
</linearGradient>
<linearGradient id="paint98_linear_281_920" x1="415.424" y1="160.354" x2="1060.12" y2="788.431" gradientUnits="userSpaceOnUse">
<stop stop-color="white" stop-opacity="0.05"/>
<stop offset="1" stop-color="white" stop-opacity="0.15"/>
</linearGradient>
<linearGradient id="paint99_linear_281_920" x1="426.539" y1="157.662" x2="1051.78" y2="792.115" gradientUnits="userSpaceOnUse">
<stop stop-color="white" stop-opacity="0.05"/>
<stop offset="1" stop-color="white" stop-opacity="0.15"/>
</linearGradient>
<linearGradient id="paint100_linear_281_920" x1="448.568" y1="32.0067" x2="1174.75" y2="153.71" gradientUnits="userSpaceOnUse">
<stop stop-color="#FAB656"/>
<stop offset="1" stop-color="#C766FF"/>
</linearGradient>
</defs>
</svg>
