<svg width="2623" height="2585" viewBox="0 0 2623 2585" fill="none" xmlns="http://www.w3.org/2000/svg">
<g opacity="0.75" filter="url(#filter0_f_281_711)">
<ellipse cx="1301" cy="838.65" rx="174.423" ry="198.127" transform="rotate(-116.193 1301 838.65)" fill="url(#paint0_linear_281_711)" fill-opacity="0.8"/>
</g>
<g opacity="0.4">
<path d="M367.633 1121.8C376.624 1069.22 411.526 1023.84 467.046 986.807C522.569 949.771 598.675 921.109 689.977 901.972C872.577 863.7 1115.86 863.552 1376.52 910.622C1637.19 957.692 1865.84 1043.06 2024.81 1143.01C2104.29 1192.98 2166.33 1246.59 2206.23 1300.86C2246.14 1355.13 2263.89 1410.02 2254.9 1462.59C2245.91 1515.17 2211.01 1560.55 2155.49 1597.58C2099.97 1634.62 2023.86 1663.28 1932.56 1682.42C1749.96 1720.69 1506.68 1720.84 1246.02 1673.77C985.349 1626.7 756.695 1541.33 597.732 1441.38C518.249 1391.4 456.212 1337.8 416.304 1283.53C376.396 1229.26 358.642 1174.37 367.633 1121.8Z" stroke="url(#paint1_linear_281_711)"/>
<path d="M370.518 1105.79C380.45 1053.4 416.169 1008.63 472.362 972.561C528.555 936.489 605.186 909.138 696.845 891.567C880.161 856.425 1123.48 860.425 1383.35 911.916C1643.22 963.407 1870.39 1052.63 2027.59 1155.24C2106.2 1206.55 2167.29 1261.19 2206.23 1316.11C2245.17 1371.03 2261.95 1426.2 2252.02 1478.6C2242.09 1530.99 2206.37 1575.76 2150.18 1611.83C2093.98 1647.9 2017.35 1675.25 1925.69 1692.82C1742.38 1727.96 1499.05 1723.96 1239.18 1672.47C979.315 1620.98 752.147 1531.76 594.944 1429.15C516.341 1377.84 455.252 1323.2 416.307 1268.28C377.363 1213.36 360.586 1158.19 370.518 1105.79Z" stroke="url(#paint2_linear_281_711)"/>
<path d="M373.69 1089.84C384.56 1037.64 421.085 993.507 477.932 958.411C534.78 923.314 611.913 897.283 703.901 881.283C887.876 849.283 1131.17 857.428 1390.16 913.325C1649.16 969.221 1874.77 1062.28 2030.16 1167.52C2107.86 1220.14 2167.99 1275.8 2205.96 1331.36C2243.92 1386.92 2259.72 1442.34 2248.85 1494.54C2237.98 1546.75 2201.45 1590.88 2144.61 1625.98C2087.76 1661.07 2010.62 1687.1 1918.64 1703.1C1734.66 1735.1 1491.37 1726.96 1232.38 1671.06C973.382 1615.17 747.77 1522.11 592.374 1416.87C514.675 1364.25 454.552 1308.59 416.582 1253.03C378.613 1197.47 362.82 1142.05 373.69 1089.84Z" stroke="url(#paint3_linear_281_711)"/>
<path d="M377.148 1073.96C388.953 1021.96 426.273 978.474 483.757 944.364C541.242 910.253 618.853 885.548 711.143 871.124C895.721 842.276 1138.91 854.564 1396.95 914.849C1654.99 975.135 1878.97 1071.99 2032.51 1179.83C2109.29 1233.76 2168.42 1290.41 2205.41 1346.59C2242.39 1402.77 2257.2 1458.44 2245.39 1510.43C2233.58 1562.42 2196.27 1605.91 2138.78 1640.02C2081.3 1674.14 2003.69 1698.84 1911.39 1713.26C1726.82 1742.11 1483.63 1729.82 1225.59 1669.54C967.552 1609.25 743.566 1512.4 590.024 1404.55C513.253 1350.63 454.114 1293.98 417.131 1237.8C380.148 1181.62 365.343 1125.95 377.148 1073.96Z" stroke="url(#paint4_linear_281_711)"/>
<path d="M380.889 1058.14C393.626 1006.37 431.729 963.537 489.832 930.423C547.937 897.308 626.003 873.937 718.567 861.093C903.692 835.405 1146.7 851.834 1403.71 916.49C1660.71 981.145 1883 1081.77 2034.64 1192.18C2110.47 1247.39 2168.6 1305.02 2204.59 1361.81C2240.57 1418.59 2254.38 1474.49 2241.65 1526.25C2228.91 1578.02 2190.81 1620.85 2132.7 1653.97C2074.6 1687.08 1996.53 1710.45 1903.97 1723.3C1718.85 1748.98 1475.84 1732.55 1218.83 1667.9C961.827 1603.24 739.533 1502.61 587.893 1392.21C512.072 1337 453.936 1279.37 417.95 1222.58C381.966 1165.8 368.153 1109.9 380.889 1058.14Z" stroke="url(#paint5_linear_281_711)"/>
<path d="M384.916 1042.39C398.58 990.862 437.455 948.699 496.159 916.591C554.866 884.483 633.363 862.454 726.172 851.194C911.788 828.674 1154.55 849.238 1410.44 918.244C1666.33 987.249 1886.86 1091.62 2036.56 1204.56C2111.4 1261.03 2168.52 1319.63 2203.49 1377C2238.47 1434.37 2251.29 1490.48 2237.62 1542C2223.96 1593.53 2185.08 1635.69 2126.38 1667.8C2067.67 1699.91 1989.18 1721.93 1896.37 1733.19C1710.75 1755.71 1467.99 1735.15 1212.1 1666.14C956.209 1597.14 735.676 1492.77 585.984 1379.83C511.136 1323.36 454.021 1264.76 419.044 1207.38C384.068 1150.01 371.252 1093.91 384.916 1042.39Z" stroke="url(#paint6_linear_281_711)"/>
<path d="M389.224 1026.71C403.811 975.446 443.446 933.965 502.735 902.873C562.025 871.781 640.929 851.101 733.955 841.428C920.005 822.083 1162.44 846.775 1417.14 920.111C1671.84 993.446 1890.55 1101.53 2038.25 1216.97C2112.1 1274.69 2168.17 1334.23 2202.13 1392.17C2236.09 1450.11 2247.9 1506.41 2233.32 1557.67C2218.73 1608.94 2179.09 1650.42 2119.81 1681.51C2060.52 1712.61 1981.61 1733.29 1888.58 1742.96C1702.54 1762.3 1460.1 1737.61 1205.4 1664.28C950.698 1590.94 731.994 1482.86 584.294 1367.42C510.444 1309.7 454.366 1250.16 420.408 1192.21C386.452 1134.27 374.637 1077.98 389.224 1026.71Z" stroke="url(#paint7_linear_281_711)"/>
<path d="M393.811 1011.12C409.317 960.126 449.7 919.341 509.555 889.274C569.41 859.207 648.698 839.882 741.913 831.8C928.339 815.635 1170.37 844.449 1423.81 922.091C1677.24 999.734 1894.05 1111.49 2039.71 1229.39C2112.54 1288.35 2167.57 1348.82 2200.49 1407.31C2233.42 1465.8 2244.23 1522.27 2228.73 1573.27C2213.22 1624.26 2172.84 1665.05 2112.98 1695.11C2053.13 1725.18 1973.84 1744.5 1880.63 1752.59C1694.2 1768.75 1452.17 1739.94 1198.73 1662.29C945.296 1584.65 728.486 1472.89 582.825 1354.99C509.994 1296.04 454.97 1235.57 422.043 1177.07C389.116 1118.58 378.305 1062.11 393.811 1011.12Z" stroke="url(#paint8_linear_281_711)"/>
<path d="M398.68 995.613C415.1 944.908 456.219 904.83 516.621 875.798C577.024 846.765 656.67 828.802 750.046 822.312C936.793 809.334 1178.35 842.26 1430.44 924.186C1682.53 1006.11 1897.38 1121.51 2040.96 1241.84C2112.75 1302.01 2166.7 1363.39 2198.59 1422.41C2230.48 1481.44 2240.28 1538.07 2223.86 1588.77C2207.44 1639.48 2166.32 1679.55 2105.92 1708.59C2045.51 1737.62 1965.87 1755.58 1872.49 1762.07C1685.75 1775.05 1444.19 1742.13 1192.1 1660.2C940.008 1578.27 725.158 1462.87 581.58 1342.54C509.789 1282.38 455.838 1221 423.95 1161.97C392.063 1102.95 382.26 1046.32 398.68 995.613Z" stroke="url(#paint9_linear_281_711)"/>
<path d="M403.825 980.198C421.154 929.796 462.997 890.439 523.928 862.451C584.861 834.461 664.842 817.864 758.349 812.969C945.36 803.18 1186.37 840.208 1437.04 926.392C1687.71 1012.58 1900.53 1131.59 2041.98 1254.31C2112.71 1315.67 2165.57 1377.94 2196.41 1437.48C2227.25 1497.02 2236.04 1553.79 2218.71 1604.19C2201.38 1654.59 2159.54 1693.95 2098.61 1721.94C2037.68 1749.93 1957.7 1766.52 1864.19 1771.42C1677.18 1781.21 1436.17 1744.18 1185.5 1657.99C934.831 1571.81 722.008 1452.8 580.556 1330.08C509.829 1268.72 456.965 1206.45 426.127 1146.91C395.289 1087.37 386.496 1030.6 403.825 980.198Z" stroke="url(#paint10_linear_281_711)"/>
<path d="M409.248 964.876C427.481 914.794 470.034 876.168 531.475 849.232C592.919 822.295 673.21 807.069 766.82 803.77C954.038 797.174 1194.43 838.293 1443.6 928.71C1692.77 1019.13 1903.5 1141.71 2042.79 1266.78C2112.43 1329.32 2164.19 1392.46 2193.97 1452.5C2223.74 1512.54 2231.52 1569.43 2213.29 1619.51C2195.06 1669.59 2152.51 1708.22 2091.06 1735.15C2029.62 1762.09 1949.33 1777.32 1855.72 1780.62C1668.5 1787.21 1428.11 1746.09 1178.94 1655.68C929.77 1565.26 719.037 1442.68 579.755 1317.61C510.112 1255.07 458.352 1191.93 428.573 1131.89C398.795 1071.85 391.015 1014.96 409.248 964.876Z" stroke="url(#paint11_linear_281_711)"/>
<path d="M414.944 949.654C434.075 899.907 477.326 862.025 539.26 836.149C601.195 810.272 681.771 796.421 775.457 794.72C962.824 791.318 1202.52 836.516 1450.12 931.137C1697.71 1025.76 1906.29 1151.87 2043.36 1279.26C2111.9 1342.96 2162.54 1406.95 2191.25 1467.47C2219.96 1527.99 2226.73 1584.98 2207.59 1634.73C2188.46 1684.48 2145.21 1722.36 2083.28 1748.24C2021.34 1774.11 1940.77 1787.96 1847.08 1789.67C1659.71 1793.07 1420.02 1747.87 1172.42 1653.25C924.824 1558.63 716.246 1432.51 579.175 1305.12C510.639 1241.43 459.999 1177.43 431.288 1116.91C402.578 1056.4 395.814 999.402 414.944 949.654Z" stroke="url(#paint12_linear_281_711)"/>
<path d="M420.915 934.536C440.939 885.139 484.874 848.012 547.28 823.204C609.688 798.395 690.527 785.925 784.258 785.822C971.718 785.616 1210.65 834.878 1456.59 933.676C1702.54 1032.47 1908.9 1162.08 2043.72 1291.75C2111.13 1356.58 2160.63 1421.41 2188.27 1482.39C2215.9 1543.37 2221.65 1600.45 2201.62 1649.85C2181.6 1699.25 2137.67 1736.37 2075.26 1761.18C2012.85 1785.99 1932.01 1798.46 1838.28 1798.56C1650.82 1798.77 1411.89 1749.51 1165.95 1650.71C919.997 1551.91 713.638 1422.3 578.821 1292.64C511.411 1227.8 461.906 1162.98 434.272 1102C406.639 1041.02 400.892 983.934 420.915 934.536Z" stroke="url(#paint13_linear_281_711)"/>
<path d="M427.156 919.528C448.066 870.495 492.672 834.135 555.533 810.402C618.395 786.669 699.47 775.583 793.219 777.078C980.715 780.068 1218.8 833.379 1463.03 936.323C1707.25 1039.27 1911.33 1172.33 2043.85 1304.23C2110.11 1370.19 2158.47 1435.83 2185.02 1497.25C2211.56 1558.67 2216.29 1615.82 2195.38 1664.86C2174.47 1713.89 2129.87 1750.25 2067.01 1773.98C2004.14 1797.71 1923.07 1808.8 1829.32 1807.31C1641.82 1804.32 1403.74 1751.01 1159.51 1648.06C915.288 1545.12 711.211 1412.05 578.689 1280.15C512.426 1214.2 464.072 1148.56 437.523 1087.14C410.974 1025.72 406.247 968.561 427.156 919.528Z" stroke="url(#paint14_linear_281_711)"/>
<path d="M433.667 904.634C455.456 855.981 500.72 820.398 564.016 797.748C627.313 775.098 708.599 765.399 802.338 768.491C989.812 774.676 1226.99 832.022 1469.41 939.079C1711.84 1046.14 1913.57 1182.62 2043.76 1316.72C2108.85 1383.77 2156.04 1450.2 2181.5 1512.05C2206.95 1573.89 2210.66 1631.1 2188.87 1679.75C2167.08 1728.41 2121.82 1763.99 2058.52 1786.64C1995.23 1809.29 1913.94 1818.99 1820.2 1815.89C1632.73 1809.71 1395.55 1752.36 1153.13 1645.31C910.7 1538.25 708.967 1401.77 578.779 1267.67C513.684 1200.62 466.495 1134.18 441.039 1072.34C415.584 1010.5 411.877 953.288 433.667 904.634Z" stroke="url(#paint15_linear_281_711)"/>
<path d="M440.445 889.858C463.108 841.599 509.016 806.805 572.727 785.245C636.44 763.684 717.913 755.376 811.612 760.065C999.007 769.442 1235.2 830.803 1475.75 941.943C1716.31 1053.08 1915.63 1192.94 2043.45 1329.19C2107.35 1397.32 2153.36 1464.53 2177.72 1526.78C2202.07 1589.03 2204.76 1646.27 2182.09 1694.53C2159.43 1742.79 2113.52 1777.58 2049.81 1799.14C1986.1 1820.7 1904.63 1829.01 1810.93 1824.32C1623.53 1814.94 1387.34 1753.58 1146.79 1642.44C906.234 1531.3 706.906 1391.45 579.093 1255.19C515.186 1187.07 469.176 1119.86 444.822 1057.61C420.468 995.362 417.782 938.117 440.445 889.858Z" stroke="url(#paint16_linear_281_711)"/>
<path d="M447.489 875.203C471.018 827.353 517.556 793.358 581.663 772.895C645.772 752.431 727.408 745.514 821.039 751.798C1008.3 764.366 1243.43 829.725 1482.04 944.913C1720.65 1060.1 1917.51 1203.29 2042.91 1341.66C2105.61 1410.84 2150.43 1478.8 2173.67 1541.44C2196.92 1604.07 2198.58 1661.33 2175.05 1709.18C2151.52 1757.03 2104.99 1791.03 2040.88 1811.49C1976.77 1831.96 1895.13 1838.87 1801.5 1832.59C1614.24 1820.02 1379.11 1754.66 1140.5 1639.47C901.893 1524.29 705.03 1381.1 579.631 1242.73C516.93 1173.54 472.114 1105.58 448.867 1042.95C425.622 980.317 423.959 923.053 447.489 875.203Z" stroke="url(#paint17_linear_281_711)"/>
<path d="M454.794 860.677C479.183 813.251 526.337 780.065 590.82 760.704C655.306 741.342 737.079 735.821 830.613 743.698C1017.68 759.452 1251.69 828.788 1488.28 947.988C1724.87 1067.19 1919.2 1213.66 2042.15 1354.11C2103.62 1424.33 2147.23 1493.02 2169.36 1556.02C2191.49 1619.02 2192.13 1676.28 2167.75 1723.71C2143.36 1771.14 2096.2 1804.32 2031.72 1823.68C1967.23 1843.04 1885.46 1848.56 1791.93 1840.69C1604.86 1824.93 1370.85 1755.6 1134.26 1636.4C897.674 1517.2 703.337 1370.72 580.39 1230.28C518.915 1160.06 475.306 1091.37 453.175 1028.37C431.045 965.368 430.406 908.103 454.794 860.677Z" stroke="url(#paint18_linear_281_711)"/>
<path d="M462.362 846.28C487.602 799.292 535.356 766.926 600.197 748.673C665.04 730.42 746.926 726.297 840.336 735.765C1027.15 754.7 1259.96 827.992 1494.46 951.169C1728.96 1074.35 1920.71 1224.07 2041.17 1366.53C2101.4 1437.77 2143.79 1507.17 2164.79 1570.52C2185.8 1633.87 2185.42 1691.12 2160.18 1738.11C2134.94 1785.09 2087.18 1817.46 2022.34 1835.71C1957.5 1853.97 1875.61 1858.09 1782.2 1848.62C1595.39 1829.69 1362.58 1756.39 1128.08 1633.22C893.582 1510.04 701.831 1360.32 581.373 1217.85C521.143 1146.62 478.753 1077.21 457.744 1013.86C436.737 950.517 437.121 893.268 462.362 846.28Z" stroke="url(#paint19_linear_281_711)"/>
<path d="M470.188 832.02C496.273 785.485 544.614 753.949 609.792 736.811C674.972 719.672 756.945 716.945 850.202 728C1036.71 750.112 1268.25 827.338 1500.58 954.454C1732.92 1081.57 1922.03 1234.49 2039.96 1378.94C2098.93 1451.17 2140.09 1521.26 2159.97 1584.94C2179.84 1648.62 2178.44 1705.83 2152.35 1752.37C2126.27 1798.9 2077.93 1830.44 2012.75 1847.58C1947.57 1864.71 1865.6 1867.44 1772.34 1856.39C1585.83 1834.27 1354.29 1757.05 1121.96 1629.93C889.618 1502.82 700.51 1349.9 582.578 1205.44C523.611 1133.22 482.455 1063.12 462.576 999.446C442.697 935.771 444.104 878.556 470.188 832.02Z" stroke="url(#paint20_linear_281_711)"/>
<path d="M478.269 817.902C505.19 771.833 554.103 741.135 619.598 725.116C685.095 709.096 767.132 707.768 860.206 720.408C1046.35 745.689 1276.55 826.825 1506.65 957.842C1736.76 1088.86 1923.16 1244.93 2038.54 1391.32C2096.22 1464.52 2136.13 1535.28 2154.88 1599.27C2173.62 1663.25 2171.19 1720.42 2144.27 1766.49C2117.35 1812.55 2068.44 1843.25 2002.94 1859.27C1937.44 1875.29 1855.41 1876.62 1762.33 1863.98C1576.19 1838.7 1345.99 1757.56 1115.89 1626.55C885.781 1495.53 699.374 1339.46 584.003 1193.06C526.317 1119.86 486.407 1049.1 467.662 985.117C448.918 921.134 451.349 863.971 478.269 817.902Z" stroke="url(#paint21_linear_281_711)"/>
<path d="M486.605 803.925C514.354 758.337 563.824 728.488 629.617 713.593C695.411 698.697 777.485 698.769 870.35 712.99C1056.08 741.431 1284.86 826.453 1512.66 961.33C1740.46 1096.21 1924.11 1255.38 2036.89 1403.67C2093.27 1477.82 2131.93 1549.23 2149.53 1613.5C2167.14 1677.78 2163.68 1734.87 2135.93 1780.46C2108.19 1826.05 2058.72 1855.9 1992.92 1870.79C1927.13 1885.69 1845.05 1885.62 1752.19 1871.4C1566.46 1842.95 1337.68 1757.93 1109.88 1623.05C882.074 1488.18 698.425 1329.01 585.652 1180.71C529.264 1106.56 490.613 1035.16 473.008 970.881C455.404 906.608 458.857 849.513 486.605 803.925Z" stroke="url(#paint22_linear_281_711)"/>
<path d="M495.192 790.1C523.761 745.006 573.773 716.014 639.843 702.248C705.915 688.481 788.001 689.951 880.627 705.748C1065.88 737.342 1293.18 826.224 1518.61 964.92C1744.04 1103.62 1924.88 1265.84 2035.02 1415.99C2090.09 1491.06 2127.47 1563.1 2143.93 1627.64C2160.39 1692.18 2155.92 1749.19 2127.35 1794.29C2098.78 1839.38 2048.77 1868.37 1982.7 1882.14C1916.62 1895.91 1834.54 1894.43 1741.91 1878.64C1556.66 1847.04 1329.36 1758.16 1103.93 1619.47C878.499 1480.77 697.663 1318.54 587.521 1168.4C532.449 1093.32 495.068 1021.29 478.609 956.744C462.151 892.202 466.624 835.193 495.192 790.1Z" stroke="url(#paint23_linear_281_711)"/>
<path d="M504.028 776.426C533.408 731.841 583.947 703.715 650.274 691.081C716.603 678.447 798.677 681.317 891.037 698.686C1075.75 733.423 1301.51 826.136 1524.5 968.61C1747.49 1111.08 1925.45 1276.32 2032.93 1428.27C2086.67 1504.25 2122.77 1576.88 2138.08 1641.68C2153.38 1706.47 2147.89 1763.37 2118.51 1807.96C2089.13 1852.55 2038.59 1880.67 1972.27 1893.3C1905.94 1905.94 1823.86 1903.07 1731.5 1885.7C1546.79 1850.96 1321.03 1758.25 1098.04 1615.78C875.055 1473.3 697.088 1308.07 589.611 1156.12C535.872 1080.14 499.771 1007.5 484.463 942.709C469.156 877.917 474.649 821.011 504.028 776.426Z" stroke="url(#paint24_linear_281_711)"/>
<path d="M513.11 762.909C543.291 718.846 594.341 691.595 660.906 680.098C727.472 668.601 809.509 672.868 901.573 691.803C1085.7 729.673 1309.83 826.191 1530.32 972.398C1750.8 1118.61 1925.84 1286.79 2030.62 1440.51C2083.01 1517.36 2117.82 1590.58 2131.97 1655.61C2146.12 1720.63 2139.61 1777.41 2109.43 1821.48C2079.25 1865.54 2028.2 1892.79 1961.63 1904.29C1895.07 1915.78 1813.03 1911.52 1720.97 1892.58C1536.84 1854.71 1312.71 1758.19 1092.22 1611.99C871.744 1465.78 696.701 1297.59 591.921 1143.88C539.531 1067.02 504.722 993.805 490.569 928.781C476.417 863.758 482.928 806.973 513.11 762.909Z" stroke="url(#paint25_linear_281_711)"/>
<path d="M522.434 749.554C553.408 706.026 604.954 679.659 671.735 669.302C738.518 658.945 820.492 664.609 912.234 685.104C1095.72 726.094 1318.16 826.388 1536.07 976.284C1753.97 1126.18 1926.04 1297.27 2028.09 1452.7C2079.11 1530.41 2112.62 1604.19 2125.61 1669.42C2138.61 1734.66 2131.08 1791.3 2100.11 1834.83C2069.13 1878.36 2017.58 1904.73 1950.8 1915.08C1884.02 1925.44 1802.05 1919.78 1710.3 1899.28C1526.82 1858.29 1304.38 1758 1086.47 1608.1C868.566 1458.21 696.499 1287.11 594.449 1131.69C543.423 1053.97 509.917 980.198 496.925 914.963C483.933 849.73 491.46 793.083 522.434 749.554Z" stroke="url(#paint26_linear_281_711)"/>
<path d="M531.999 736.365C563.756 693.386 615.782 667.91 682.759 658.696C749.739 649.482 831.627 656.54 923.018 678.59C1105.8 722.689 1326.49 826.726 1541.75 980.266C1757.02 1133.81 1926.05 1307.75 2025.34 1464.84C2074.99 1543.39 2107.18 1617.7 2119.01 1683.13C2130.84 1748.55 2122.3 1805.04 2090.54 1848.02C2058.78 1891 2006.76 1916.48 1939.78 1925.69C1872.8 1934.91 1790.91 1927.85 1699.52 1905.8C1516.74 1861.7 1296.05 1757.66 1080.79 1604.12C865.524 1450.58 696.486 1276.64 597.197 1119.54C547.551 1041 515.357 966.685 503.528 901.26C491.7 835.837 500.241 779.345 531.999 736.365Z" stroke="url(#paint27_linear_281_711)"/>
<path d="M541.802 723.343C574.333 680.926 626.824 656.348 693.977 648.281C761.133 640.213 842.907 648.664 933.92 672.261C1115.94 719.455 1334.81 827.206 1547.37 984.343C1759.92 1141.48 1925.88 1318.22 2022.38 1476.93C2070.63 1556.29 2101.5 1631.11 2112.16 1696.71C2122.82 1762.3 2113.27 1818.62 2080.74 1861.04C2048.21 1903.46 1995.72 1928.04 1928.56 1936.1C1861.41 1944.17 1779.63 1935.72 1688.62 1912.12C1506.6 1864.93 1287.73 1757.18 1075.17 1600.04C862.618 1442.91 696.659 1266.16 600.161 1107.45C551.912 1028.1 521.041 953.271 510.38 887.675C499.719 822.081 509.271 765.761 541.802 723.343Z" stroke="url(#paint28_linear_281_711)"/>
<path d="M551.837 710.497C585.132 668.654 638.071 644.983 705.38 638.064C772.691 631.145 854.329 640.986 944.935 666.123C1126.14 716.397 1343.13 827.828 1552.91 988.514C1762.69 1149.2 1925.52 1328.69 2019.2 1488.97C2066.04 1569.11 2095.57 1644.42 2105.06 1710.17C2114.56 1775.91 2104 1832.05 2070.7 1873.89C2037.41 1915.73 1984.47 1939.4 1917.16 1946.32C1849.85 1953.24 1768.21 1943.4 1677.6 1918.26C1496.39 1867.99 1279.41 1756.56 1069.63 1595.87C859.847 1435.19 697.019 1255.7 603.341 1095.42C556.502 1015.28 526.963 939.962 517.472 874.215C507.982 808.471 518.542 752.34 551.837 710.497Z" stroke="url(#paint29_linear_281_711)"/>
<path d="M562.106 697.828C596.154 656.572 649.526 633.815 716.97 628.047C784.416 622.278 865.891 633.506 956.064 660.177C1136.41 713.516 1351.43 828.592 1558.38 992.778C1765.32 1156.96 1924.97 1339.14 2015.8 1500.94C2061.22 1581.84 2089.41 1657.63 2097.73 1723.5C2106.05 1789.38 2094.48 1845.3 2060.43 1886.56C2026.38 1927.82 1973.01 1950.57 1905.57 1956.34C1838.12 1962.11 1756.65 1950.88 1666.48 1924.21C1486.13 1870.87 1271.11 1755.8 1064.16 1591.61C857.214 1427.42 697.567 1245.25 606.739 1083.45C561.324 1002.54 533.127 926.76 524.809 860.883C516.492 795.008 528.057 739.084 562.106 697.828Z" stroke="url(#paint30_linear_281_711)"/>
<path d="M572.602 685.338C607.394 644.682 661.181 622.845 728.74 618.23C796.301 613.614 877.59 626.226 967.301 654.42C1146.72 710.809 1359.73 829.496 1563.77 997.131C1767.82 1164.77 1924.24 1349.58 2012.19 1512.85C2056.17 1594.49 2083.01 1670.72 2090.15 1736.71C2097.3 1802.69 2084.73 1858.39 2049.94 1899.05C2015.14 1939.7 1961.36 1961.54 1893.8 1966.16C1826.24 1970.77 1744.95 1958.16 1655.24 1929.97C1475.82 1873.58 1262.81 1754.89 1058.77 1587.25C854.721 1419.62 698.303 1234.81 610.351 1071.53C566.374 989.897 539.526 913.668 532.385 847.68C525.244 781.695 537.811 725.994 572.602 685.338Z" stroke="url(#paint31_linear_281_711)"/>
<path d="M583.324 673.033C618.849 632.989 673.035 612.08 740.688 608.618C808.342 605.157 889.42 619.148 978.642 648.859C1157.08 708.279 1368 830.541 1569.09 1001.58C1770.17 1172.61 1923.32 1360 2008.36 1524.7C2050.89 1607.04 2076.38 1683.69 2082.34 1749.77C2088.31 1815.85 2074.74 1871.31 2039.22 1911.35C2003.69 1951.4 1949.51 1972.31 1881.85 1975.77C1814.2 1979.23 1733.12 1965.24 1643.9 1935.53C1465.46 1876.11 1254.54 1753.84 1053.45 1582.81C852.366 1411.78 699.225 1224.38 614.176 1059.69C571.651 977.342 546.161 900.691 540.198 834.613C534.235 768.537 547.799 713.077 583.324 673.033Z" stroke="url(#paint32_linear_281_711)"/>
<path d="M594.267 660.918C630.513 621.499 685.082 601.523 752.808 599.217C820.536 596.91 901.377 612.277 990.084 643.494C1167.49 705.928 1376.26 831.728 1574.33 1006.11C1772.39 1180.49 1922.21 1370.4 2004.33 1536.47C2045.39 1619.5 2069.51 1696.55 2074.29 1762.7C2079.08 1828.85 2064.52 1884.05 2028.27 1923.47C1992.03 1962.89 1937.46 1982.86 1869.73 1985.17C1802 1987.48 1721.16 1972.11 1632.46 1940.89C1455.05 1878.46 1246.27 1752.66 1048.21 1578.28C850.15 1403.9 700.332 1213.98 618.212 1047.92C577.152 964.883 553.027 887.835 548.244 821.687C543.462 755.54 558.02 700.338 594.267 660.918Z" stroke="url(#paint33_linear_281_711)"/>
<path d="M605.428 648.995C642.385 610.212 697.322 591.176 765.1 590.025C832.881 588.874 913.461 605.611 1001.62 638.326C1177.95 703.754 1384.51 833.054 1579.49 1010.73C1774.46 1188.4 1920.91 1380.78 2000.08 1548.17C2039.66 1631.86 2062.41 1709.28 2066.02 1775.48C2069.62 1841.68 2054.07 1896.61 2017.11 1935.39C1980.15 1974.17 1925.22 1993.21 1857.44 1994.36C1789.66 1995.51 1709.08 1978.77 1620.92 1946.06C1444.59 1880.63 1238.03 1751.33 1043.05 1573.66C848.075 1395.98 701.627 1203.6 622.461 1036.22C582.878 952.524 560.127 875.101 556.525 808.903C552.924 742.707 568.471 687.778 605.428 648.995Z" stroke="url(#paint34_linear_281_711)"/>
<path d="M616.804 637.267C654.461 599.132 709.746 581.042 777.557 581.047C845.37 581.052 925.665 599.155 1013.26 633.357C1188.44 701.76 1392.72 834.52 1584.56 1015.43C1776.4 1196.35 1919.43 1391.13 1995.62 1559.79C2033.71 1644.12 2055.09 1721.89 2057.5 1788.12C2059.92 1854.35 2043.39 1908.98 2005.73 1947.12C1968.08 1985.25 1912.79 2003.34 1844.98 2003.34C1777.17 2003.33 1696.87 1985.23 1609.28 1951.03C1434.1 1882.62 1229.81 1749.87 1037.98 1568.95C846.141 1388.04 703.106 1193.25 626.919 1024.6C588.825 940.268 567.453 862.494 565.034 796.266C562.615 730.039 579.147 675.402 616.804 637.267Z" stroke="url(#paint35_linear_281_711)"/>
<path d="M628.393 625.74C666.738 588.265 722.356 571.126 790.177 572.287C858.002 573.448 937.987 592.911 1024.98 628.59C1198.98 699.947 1400.92 836.126 1589.55 1020.22C1778.19 1204.32 1917.77 1401.45 1990.95 1571.33C2027.55 1656.27 2047.53 1734.37 2048.77 1800.61C2050 1866.84 2032.49 1921.17 1994.15 1958.65C1955.8 1996.12 1900.18 2013.26 1832.36 2012.1C1764.54 2010.94 1684.55 1991.48 1597.56 1955.8C1423.56 1884.44 1221.62 1748.26 1032.98 1564.16C844.349 1380.06 704.771 1182.93 631.585 1013.06C594.992 928.12 575.007 850.019 573.772 783.781C572.536 717.545 590.047 663.214 628.393 625.74Z" stroke="url(#paint36_linear_281_711)"/>
<path d="M640.188 614.416C679.209 577.612 735.143 561.43 802.956 563.746C870.771 566.063 950.422 586.881 1036.8 624.026C1209.54 698.315 1409.09 837.871 1594.46 1025.1C1779.84 1212.33 1915.92 1411.74 1986.08 1582.78C2021.16 1668.3 2039.75 1746.71 2039.8 1812.94C2039.86 1879.16 2021.37 1933.17 1982.35 1969.97C1943.33 2006.77 1887.4 2022.96 1819.58 2020.64C1751.77 2018.32 1672.12 1997.51 1585.74 1960.36C1413 1886.07 1213.45 1746.52 1028.08 1559.29C842.699 1372.06 706.621 1172.65 636.459 1001.61C601.377 916.084 582.785 837.678 582.733 771.451C582.681 705.225 601.166 651.219 640.188 614.416Z" stroke="url(#paint37_linear_281_711)"/>
<path d="M652.188 603.296C691.875 567.176 748.108 551.954 815.891 555.425C883.676 558.897 962.968 581.062 1048.69 619.662C1220.14 696.861 1417.22 839.753 1599.29 1030.05C1781.35 1220.35 1913.88 1421.99 1981 1594.15C2014.56 1680.23 2031.75 1758.91 2030.62 1825.11C2029.49 1891.3 2010.04 1944.97 1970.35 1981.09C1930.66 2017.21 1874.43 2032.43 1806.65 2028.96C1738.86 2025.49 1659.57 2003.32 1573.85 1964.72C1402.4 1887.52 1205.32 1744.63 1023.25 1554.33C841.192 1364.04 708.655 1162.4 641.538 990.239C607.979 904.16 590.786 825.475 591.917 759.278C593.049 693.083 612.502 639.418 652.188 603.296Z" stroke="url(#paint38_linear_281_711)"/>
<path d="M664.389 592.388C704.728 556.961 761.243 542.705 828.976 547.33C896.71 551.955 975.619 575.463 1060.67 615.506C1230.76 695.591 1425.33 841.774 1604.02 1035.09C1782.71 1228.4 1911.67 1432.2 1975.72 1605.42C2007.74 1692.03 2023.53 1770.97 2021.22 1837.12C2018.9 1903.26 1998.49 1956.57 1958.15 1992C1917.81 2027.42 1861.3 2041.68 1793.56 2037.05C1725.83 2032.43 1646.92 2008.92 1561.87 1968.88C1391.77 1888.79 1197.21 1742.61 1018.52 1549.3C839.828 1355.99 710.872 1152.19 646.821 978.966C614.795 892.355 599.005 813.415 601.32 747.268C603.635 681.124 624.05 627.816 664.389 592.388Z" stroke="url(#paint39_linear_281_711)"/>
<path d="M676.788 581.694C717.767 546.97 774.546 533.684 842.208 539.462C909.871 545.24 988.373 570.081 1072.72 611.555C1241.41 694.501 1433.4 843.932 1608.67 1040.2C1783.93 1236.46 1909.27 1442.37 1970.23 1616.6C2000.72 1703.71 2015.1 1782.89 2011.6 1848.96C2008.1 1915.03 1986.73 1967.97 1945.75 2002.69C1904.77 2037.42 1847.99 2050.7 1780.33 2044.92C1712.67 2039.15 1634.17 2014.31 1549.82 1972.83C1381.12 1889.89 1189.14 1740.45 1013.87 1544.19C838.607 1347.92 713.272 1142.02 652.306 967.788C621.823 880.673 607.441 801.501 610.939 735.425C614.437 669.352 635.809 616.417 676.788 581.694Z" stroke="url(#paint40_linear_281_711)"/>
<path d="M689.38 571.215C730.987 537.206 788.013 524.895 855.583 531.824C923.155 538.752 1001.23 564.919 1084.85 607.811C1252.09 693.594 1441.43 846.227 1613.22 1045.39C1785.01 1244.55 1906.69 1452.49 1964.55 1627.68C1993.48 1715.27 2006.45 1794.65 2001.77 1860.63C1997.09 1926.62 1974.77 1979.16 1933.16 2013.17C1891.55 2047.18 1834.53 2059.49 1766.96 2052.56C1699.39 2045.63 1621.32 2019.47 1537.69 1976.58C1370.45 1890.79 1181.11 1738.16 1009.32 1539C837.532 1339.84 715.856 1131.89 657.994 956.709C629.063 869.116 616.093 789.736 620.772 723.751C625.451 657.769 647.773 605.223 689.38 571.215Z" stroke="url(#paint41_linear_281_711)"/>
<path d="M702.16 560.955C744.382 527.671 801.639 516.338 869.096 524.415C936.555 532.493 1014.17 559.977 1097.04 604.275C1262.78 692.868 1449.42 848.656 1617.68 1050.65C1785.94 1252.64 1903.92 1462.56 1958.66 1638.65C1986.03 1726.7 1997.58 1806.26 1991.73 1872.14C1985.87 1938.01 1962.6 1990.15 1920.38 2023.43C1878.16 2056.71 1820.9 2068.05 1753.44 2059.97C1685.98 2051.89 1608.37 2024.41 1525.5 1980.11C1359.76 1891.52 1173.11 1735.73 1004.86 1533.73C836.599 1331.74 718.619 1121.82 663.878 945.731C636.507 857.686 624.954 778.123 630.814 712.25C636.673 646.379 659.938 594.238 702.16 560.955Z" stroke="url(#paint42_linear_281_711)"/>
<path d="M715.126 550.918C757.95 518.371 815.419 508.02 882.743 517.243C950.069 526.466 1027.21 555.262 1109.3 600.95C1273.48 692.327 1457.38 851.223 1622.05 1055.99C1786.73 1260.76 1900.98 1472.59 1952.58 1649.53C1978.38 1738 1988.51 1817.72 1981.47 1883.46C1974.44 1949.2 1950.24 2000.92 1907.41 2033.47C1864.59 2066.01 1807.12 2076.37 1739.8 2067.14C1672.47 2057.92 1595.33 2029.12 1513.24 1983.44C1349.06 1892.06 1165.16 1733.16 1000.49 1528.4C835.81 1323.63 721.563 1111.8 669.96 934.861C644.158 846.391 634.026 766.668 641.064 700.926C648.101 635.186 672.302 583.466 715.126 550.918Z" stroke="url(#paint43_linear_281_711)"/>
<path d="M728.275 541.107C771.689 509.305 829.353 499.938 896.523 510.305C963.696 520.671 1040.33 550.768 1121.62 597.835C1284.2 691.967 1465.28 853.922 1626.33 1061.4C1787.37 1268.88 1897.85 1482.55 1946.3 1660.29C1970.53 1749.16 1979.24 1829.01 1971.02 1894.6C1962.81 1960.19 1937.68 2011.47 1894.27 2043.28C1850.85 2075.08 1793.19 2084.45 1726.02 2074.08C1658.84 2063.71 1582.21 2033.62 1500.92 1986.55C1338.34 1892.42 1157.26 1730.46 996.213 1522.99C835.169 1315.51 724.688 1101.83 676.239 924.098C652.014 835.23 643.305 755.373 651.519 689.781C659.733 624.192 684.862 572.91 728.275 541.107Z" stroke="url(#paint44_linear_281_711)"/>
<path d="M741.601 531.525C785.59 500.478 843.431 492.099 910.428 503.605C977.427 515.112 1053.54 546.501 1134 594.931C1294.92 691.79 1473.14 856.755 1630.51 1066.88C1787.87 1277 1894.55 1492.46 1939.83 1670.94C1962.47 1760.18 1969.75 1840.14 1960.37 1905.56C1950.98 1970.98 1924.93 2021.81 1880.94 2052.86C1836.95 2083.91 1779.11 2092.29 1712.11 2080.78C1645.11 2069.27 1569 2037.88 1488.54 1989.45C1327.62 1892.6 1149.4 1727.63 992.035 1517.51C834.671 1307.38 727.99 1091.92 682.71 913.447C660.069 824.208 652.786 744.24 662.174 678.82C671.562 613.403 697.611 562.573 741.601 531.525Z" stroke="url(#paint45_linear_281_711)"/>
<path d="M755.099 522.176C799.651 491.894 857.652 484.503 924.455 497.147C991.259 509.79 1066.82 542.462 1146.43 592.24C1305.65 691.796 1480.95 859.722 1634.59 1072.43C1788.22 1285.14 1891.07 1502.31 1933.17 1681.47C1954.22 1771.06 1960.07 1851.11 1949.51 1916.34C1938.96 1981.57 1911.99 2031.93 1867.44 2062.21C1822.89 2092.49 1764.89 2099.88 1698.08 2087.24C1631.28 2074.6 1555.72 2041.92 1476.11 1992.15C1316.89 1892.59 1141.59 1724.66 987.952 1511.96C834.318 1299.25 731.47 1082.07 689.372 902.913C668.323 813.33 662.467 733.276 673.026 668.047C683.584 602.821 710.547 552.459 755.099 522.176Z" stroke="url(#paint46_linear_281_711)"/>
<path d="M768.768 513.061C813.869 483.552 872.012 477.155 938.6 490.931C1005.19 504.707 1080.18 538.651 1158.91 589.763C1316.38 691.986 1488.71 862.819 1638.57 1078.04C1788.43 1293.27 1887.41 1512.1 1926.31 1691.89C1945.77 1781.79 1950.19 1861.9 1938.47 1926.92C1926.74 1991.94 1898.87 2041.82 1853.77 2071.33C1808.67 2100.83 1750.53 2107.23 1683.94 2093.46C1617.35 2079.68 1542.36 2045.74 1463.62 1994.62C1306.16 1892.4 1133.83 1721.57 983.969 1506.34C834.11 1291.12 735.127 1072.29 696.224 892.496C676.772 802.598 672.346 722.483 684.073 657.465C695.799 592.449 723.666 542.57 768.768 513.061Z" stroke="url(#paint47_linear_281_711)"/>
<path d="M782.6 504.183C828.237 475.456 886.504 470.053 952.857 484.957C1019.21 499.863 1093.61 535.069 1171.44 587.499C1327.11 692.357 1496.42 866.048 1642.45 1083.72C1788.49 1301.4 1883.58 1521.81 1919.28 1702.18C1937.12 1792.37 1940.12 1872.53 1927.23 1937.31C1914.34 2002.1 1885.57 2051.48 1839.94 2080.2C1794.3 2108.93 1736.03 2114.33 1669.68 2099.43C1603.33 2084.52 1528.93 2049.32 1451.09 1996.89C1295.43 1892.03 1126.12 1718.34 980.085 1500.66C834.048 1282.98 738.959 1062.57 703.263 882.201C685.414 792.014 682.419 711.861 695.31 647.074C708.2 582.289 736.964 532.909 782.6 504.183Z" stroke="url(#paint48_linear_281_711)"/>
<path d="M796.596 495.544C842.754 467.609 901.128 463.202 967.226 479.23C1033.33 495.259 1107.11 531.717 1184.02 585.449C1337.83 692.911 1504.07 869.406 1646.24 1089.47C1788.41 1309.53 1879.57 1531.46 1912.05 1712.35C1928.29 1802.8 1929.85 1882.97 1915.8 1947.51C1901.75 2012.04 1872.1 2060.91 1825.94 2088.84C1779.79 2116.78 1721.41 2121.18 1655.31 2105.15C1589.21 2089.13 1515.43 2052.67 1438.52 1998.94C1284.71 1891.47 1118.48 1714.98 976.304 1494.92C834.132 1274.85 742.966 1052.93 710.488 872.031C694.249 781.582 692.686 701.416 706.737 636.88C720.787 572.345 750.438 523.479 796.596 495.544Z" stroke="url(#paint49_linear_281_711)"/>
<path d="M810.747 487.15C857.412 460.015 915.875 456.605 981.697 473.752C1047.52 490.901 1120.67 528.6 1196.63 583.617C1348.55 693.65 1511.65 872.895 1649.92 1095.28C1788.18 1317.66 1875.39 1541.03 1904.64 1722.4C1919.27 1813.08 1919.4 1893.23 1904.19 1957.5C1888.99 2021.77 1858.46 2070.1 1811.79 2097.24C1765.13 2124.37 1706.66 2127.78 1640.84 2110.64C1575.02 2093.49 1501.87 2055.79 1425.91 2000.77C1273.99 1890.74 1110.88 1711.49 972.622 1489.11C834.359 1266.73 747.145 1043.35 717.895 861.991C703.269 771.308 703.139 691.154 718.345 626.887C733.551 562.623 764.081 514.285 810.747 487.15Z" stroke="url(#paint50_linear_281_711)"/>
<path d="M825.051 478.999C872.21 452.672 930.744 450.261 996.271 468.522C1061.8 486.785 1134.28 525.713 1209.27 581.999C1359.25 694.57 1519.18 876.509 1653.49 1101.14C1787.81 1325.78 1871.04 1550.53 1897.06 1732.31C1910.06 1823.2 1908.76 1903.32 1892.4 1967.29C1876.05 2031.27 1844.65 2079.06 1797.49 2105.39C1750.33 2131.71 1691.8 2134.13 1626.27 2115.86C1560.74 2097.6 1488.26 2058.68 1413.27 2002.39C1263.29 1889.82 1103.36 1707.88 969.045 1483.24C834.734 1258.61 751.498 1033.86 725.484 852.08C712.477 761.191 713.779 681.072 730.137 617.095C746.494 553.121 777.893 505.326 825.051 478.999Z" stroke="url(#paint51_linear_281_711)"/>
<path d="M839.503 471.097C887.14 445.586 945.728 444.174 1010.94 463.544C1076.15 482.915 1147.95 523.059 1221.95 580.597C1369.94 695.671 1526.65 880.251 1656.97 1107.07C1787.29 1333.88 1866.52 1559.95 1889.29 1742.08C1900.67 1833.15 1897.94 1913.21 1880.43 1976.88C1862.93 2040.54 1830.67 2087.78 1783.04 2113.29C1735.4 2138.8 1676.81 2140.21 1611.6 2120.84C1546.39 2101.47 1474.59 2061.33 1400.59 2003.79C1252.6 1888.72 1095.89 1704.14 965.572 1477.32C835.254 1250.5 756.02 1024.44 733.25 842.303C721.865 751.236 724.601 671.177 742.105 607.509C759.608 543.844 791.866 496.607 839.503 471.097Z" stroke="url(#paint52_linear_281_711)"/>
<path d="M854.099 463.444C902.201 438.758 960.823 438.344 1025.7 458.817C1090.58 479.29 1161.67 520.64 1234.65 579.412C1380.61 696.954 1534.05 884.118 1660.33 1113.05C1786.62 1341.98 1861.83 1569.29 1881.35 1751.72C1891.11 1842.94 1886.94 1922.92 1868.29 1986.26C1849.65 2049.59 1816.54 2096.26 1768.44 2120.94C1720.34 2145.63 1661.72 2146.04 1596.84 2125.57C1531.96 2105.1 1460.87 2063.75 1387.89 2004.98C1241.93 1887.43 1088.49 1700.27 962.204 1471.34C835.917 1242.41 760.711 1015.1 741.193 832.663C731.434 741.445 735.6 661.471 754.245 598.132C772.889 534.795 805.998 488.13 854.099 463.444Z" stroke="url(#paint53_linear_281_711)"/>
<path d="M868.835 456.044C917.386 432.189 976.026 432.776 1040.55 454.344C1105.07 475.914 1175.44 518.456 1247.38 578.444C1391.27 698.418 1541.38 888.109 1663.6 1119.08C1785.81 1350.06 1856.97 1578.54 1873.23 1761.22C1881.36 1852.57 1875.76 1932.43 1855.98 1995.42C1836.2 2058.41 1802.26 2104.49 1753.71 2128.34C1705.15 2152.2 1646.51 2151.61 1581.99 2130.04C1517.47 2108.47 1447.1 2065.93 1375.16 2005.94C1231.27 1885.97 1081.16 1696.28 958.943 1465.3C836.727 1234.33 765.571 1005.84 749.31 823.163C741.18 731.822 746.775 651.957 766.555 588.966C786.335 525.977 820.284 479.898 868.835 456.044Z" stroke="url(#paint54_linear_281_711)"/>
<path d="M883.703 448.899C932.689 425.883 991.329 427.469 1055.48 450.127C1119.63 472.786 1189.24 516.508 1260.13 577.694C1401.89 700.064 1548.64 892.224 1666.75 1125.17C1784.86 1358.12 1851.94 1587.71 1864.94 1770.58C1871.44 1862.02 1864.42 1941.75 1843.51 2004.37C1822.6 2066.99 1787.82 2112.47 1738.83 2135.49C1689.85 2158.5 1631.21 2156.92 1567.06 2134.26C1502.91 2111.6 1433.29 2067.88 1362.41 2006.69C1220.65 1884.32 1073.9 1692.16 955.788 1459.22C837.679 1226.27 770.595 996.678 757.596 813.807C751.097 722.37 758.122 642.638 779.031 580.014C799.94 517.393 834.717 471.915 883.703 448.899Z" stroke="url(#paint55_linear_281_711)"/>
<path d="M898.704 442.01C948.11 419.84 1006.73 422.425 1070.48 446.166C1134.24 469.908 1203.09 514.795 1272.89 577.16C1412.49 701.889 1555.83 896.459 1669.8 1131.31C1783.76 1366.16 1846.75 1596.79 1856.49 1779.79C1861.35 1871.3 1852.9 1950.87 1830.87 2013.11C1808.84 2075.34 1773.24 2120.21 1723.83 2142.38C1674.43 2164.55 1615.81 2161.96 1552.05 2138.22C1488.3 2114.48 1419.45 2069.59 1349.65 2007.23C1210.05 1882.5 1066.71 1687.93 952.743 1453.08C838.777 1218.22 775.785 987.601 766.053 804.595C761.187 713.091 769.638 633.517 791.671 571.279C813.702 509.044 849.298 464.18 898.704 442.01Z" stroke="url(#paint56_linear_281_711)"/>
<path d="M913.83 435.381C963.641 414.063 1022.23 417.647 1085.57 442.464C1148.91 467.281 1216.96 513.321 1285.66 576.846C1423.06 703.896 1562.95 900.816 1672.73 1137.5C1782.52 1374.18 1841.4 1605.77 1847.86 1788.85C1851.09 1880.4 1841.22 1959.79 1818.07 2021.62C1794.92 2083.45 1758.52 2127.69 1708.71 2149.01C1658.9 2170.32 1600.31 2166.74 1536.97 2141.92C1473.63 2117.11 1405.57 2071.07 1336.88 2007.54C1199.48 1880.49 1059.59 1683.57 949.806 1446.89C840.019 1210.21 781.138 978.617 774.676 795.533C771.445 703.989 781.319 624.597 804.467 562.765C827.615 500.934 864.019 456.698 913.83 435.381Z" stroke="url(#paint57_linear_281_711)"/>
<path d="M929.077 429.012C979.277 408.553 1037.81 413.134 1100.72 439.018C1163.62 464.904 1230.87 512.082 1298.44 576.749C1433.59 706.08 1569.98 905.291 1675.56 1143.73C1781.13 1382.17 1835.89 1614.66 1839.08 1797.77C1840.67 1889.32 1829.38 1968.51 1805.12 2029.92C1780.86 2091.32 1743.66 2134.92 1693.46 2155.37C1643.26 2175.83 1584.73 2171.25 1521.82 2145.37C1458.91 2119.48 1391.67 2072.3 1324.09 2007.64C1188.95 1878.31 1052.55 1679.09 946.979 1440.65C841.404 1202.21 786.653 969.728 783.461 786.621C781.866 695.065 793.161 615.879 817.418 554.471C841.675 493.064 878.876 449.47 929.077 429.012Z" stroke="url(#paint58_linear_281_711)"/>
<path d="M944.439 422.907C995.014 403.314 1053.47 408.89 1115.93 435.835C1178.39 462.781 1244.8 511.082 1311.23 576.87C1444.09 708.444 1576.94 909.886 1678.28 1150.01C1779.61 1390.14 1830.21 1623.45 1830.13 1806.52C1830.09 1898.06 1817.38 1977.02 1792.02 2037.98C1766.66 2098.95 1728.67 2141.89 1678.1 2161.48C1627.52 2181.07 1569.06 2175.5 1506.61 2148.55C1444.15 2121.61 1377.74 2073.31 1311.31 2007.52C1178.45 1875.94 1045.6 1674.5 944.264 1434.37C842.932 1194.24 792.326 960.939 792.407 777.864C792.448 686.325 805.16 607.37 830.519 546.404C855.878 485.44 893.864 442.5 944.439 422.907Z" stroke="url(#paint59_linear_281_711)"/>
<path d="M959.914 417.066C1010.85 398.344 1069.22 404.914 1131.2 432.91C1193.19 460.908 1258.75 510.319 1324.02 577.208C1454.55 710.984 1583.82 914.596 1680.88 1156.34C1777.94 1398.08 1824.38 1632.14 1821.03 1815.12C1819.35 1906.62 1805.22 1985.32 1778.77 2045.82C1752.32 2106.33 1713.56 2148.6 1662.62 2167.32C1611.69 2186.04 1553.32 2179.47 1491.34 2151.48C1429.35 2123.48 1363.79 2074.07 1298.52 2007.18C1167.99 1873.4 1038.72 1669.79 941.66 1428.05C844.603 1186.31 798.159 952.249 801.512 769.262C803.189 677.767 817.314 599.066 843.767 538.561C870.219 478.059 908.98 435.787 959.914 417.066Z" stroke="url(#paint60_linear_281_711)"/>
<path d="M975.496 411.492C1026.77 393.648 1085.04 401.21 1146.53 430.249C1208.03 459.29 1272.72 509.796 1336.8 577.765C1464.96 713.703 1590.62 919.422 1683.37 1162.7C1776.12 1405.98 1818.39 1640.72 1811.77 1823.57C1808.45 1914.99 1792.92 1993.41 1765.38 2053.44C1737.84 2113.46 1698.32 2155.05 1647.04 2172.9C1595.76 2190.74 1537.5 2183.18 1476.01 2154.14C1414.51 2125.1 1349.82 2074.59 1285.74 2006.62C1157.58 1870.68 1031.92 1664.96 939.168 1421.68C846.416 1178.4 804.147 943.664 810.771 760.821C814.083 669.399 829.618 590.975 857.157 530.95C884.695 470.928 924.219 429.337 975.496 411.492Z" stroke="url(#paint61_linear_281_711)"/>
<path d="M991.181 406.187C1042.79 389.225 1100.92 397.776 1161.91 427.85C1222.9 457.926 1286.69 509.51 1349.57 578.54C1475.33 716.598 1597.33 924.361 1685.75 1169.11C1774.17 1413.86 1812.25 1649.2 1802.36 1831.85C1797.41 1923.17 1780.47 2001.29 1751.85 2060.82C1723.24 2120.34 1682.96 2161.24 1631.36 2178.2C1579.75 2195.16 1521.62 2186.61 1460.63 2156.54C1399.64 2126.46 1335.84 2074.88 1272.97 2005.85C1147.21 1867.79 1025.21 1660.03 936.791 1415.28C848.371 1170.53 810.291 935.185 820.184 752.542C825.131 661.22 842.07 583.098 870.687 523.571C899.302 464.046 939.575 423.149 991.181 406.187Z" stroke="url(#paint62_linear_281_711)"/>
<path d="M1006.96 401.15C1058.88 385.076 1116.87 394.615 1177.33 425.715C1237.79 456.816 1300.68 509.463 1362.33 579.531C1485.64 719.668 1603.95 929.412 1688.01 1175.55C1772.07 1421.69 1805.95 1657.57 1792.79 1839.96C1786.21 1931.16 1767.87 2008.95 1738.19 2067.96C1708.5 2126.97 1667.49 2167.16 1615.58 2183.24C1563.66 2199.31 1505.66 2189.77 1445.21 2158.67C1384.75 2127.57 1321.86 2074.92 1260.2 2004.86C1136.9 1864.72 1018.59 1654.98 934.527 1408.84C850.466 1162.7 816.585 926.815 829.745 744.427C836.324 653.232 854.664 575.436 884.349 516.425C914.033 457.417 955.044 417.225 1006.96 401.15Z" stroke="url(#paint63_linear_281_711)"/>
<path d="M1022.84 396.386C1075.05 381.204 1132.88 391.728 1192.8 423.843C1252.71 455.96 1314.67 509.654 1375.08 580.741C1495.9 722.913 1610.48 934.574 1690.16 1182.03C1769.84 1429.48 1799.51 1665.83 1783.08 1847.91C1774.87 1938.95 1755.14 2016.39 1724.4 2074.87C1693.65 2133.35 1651.92 2172.82 1599.7 2188C1547.49 2203.18 1489.65 2192.66 1429.74 2160.55C1369.83 2128.43 1307.87 2074.73 1247.46 2003.65C1126.63 1861.48 1012.05 1649.81 932.378 1402.36C852.702 1154.91 823.032 918.556 839.454 736.479C847.665 645.44 867.397 567.994 898.142 509.517C928.886 451.042 970.622 411.568 1022.84 396.386Z" stroke="url(#paint64_linear_281_711)"/>
<path d="M1038.8 391.894C1091.29 377.61 1148.95 389.114 1208.3 422.235C1267.65 455.358 1328.66 510.083 1387.81 582.166C1506.11 726.33 1616.93 939.844 1692.19 1188.54C1767.46 1437.23 1792.91 1673.98 1773.23 1855.69C1763.39 1946.54 1742.27 2023.62 1710.48 2081.54C1678.68 2139.46 1636.23 2178.21 1583.74 2192.49C1531.25 2206.78 1473.59 2195.27 1414.24 2162.15C1354.89 2129.03 1293.88 2074.3 1234.73 2002.22C1116.43 1858.06 1005.61 1644.54 930.344 1395.85C855.078 1147.15 829.627 910.41 849.306 728.7C859.145 637.843 880.265 560.77 912.06 502.845C943.855 444.922 986.304 406.178 1038.8 391.894Z" stroke="url(#paint65_linear_281_711)"/>
<path d="M1054.84 387.677C1107.6 374.294 1165.06 386.775 1223.83 420.893C1282.6 455.012 1342.64 510.751 1400.51 583.807C1516.26 729.919 1623.28 945.221 1694.11 1195.08C1764.95 1444.94 1786.17 1682.01 1763.24 1863.3C1751.77 1953.94 1729.27 2030.62 1696.44 2087.97C1663.6 2145.33 1620.45 2183.33 1567.69 2196.71C1514.93 2210.09 1457.47 2197.61 1398.71 2163.49C1339.94 2129.38 1279.9 2073.64 1222.03 2000.58C1106.28 1854.47 999.26 1639.17 928.426 1389.31C857.592 1139.45 836.369 902.38 859.299 721.091C870.764 630.446 893.264 553.77 926.1 496.415C958.935 439.062 1002.08 401.06 1054.84 387.677Z" stroke="url(#paint66_linear_281_711)"/>
<path d="M1070.97 383.734C1123.97 371.257 1181.22 384.712 1239.39 419.815C1297.56 454.92 1356.61 511.656 1413.19 585.665C1526.34 733.681 1629.53 950.704 1695.91 1201.65C1762.29 1452.6 1779.28 1689.92 1753.11 1870.73C1740.02 1961.14 1716.15 2037.39 1682.28 2094.16C1648.41 2150.93 1604.58 2188.18 1551.57 2200.65C1498.56 2213.13 1441.32 2199.67 1383.15 2164.57C1324.98 2129.47 1265.93 2072.73 1209.35 1998.72C1096.2 1850.71 993.006 1633.68 926.626 1382.73C860.246 1131.78 843.256 894.469 869.43 713.658C882.517 623.251 906.391 546.995 940.258 490.226C974.124 433.46 1017.96 396.212 1070.97 383.734Z" stroke="url(#paint67_linear_281_711)"/>
<path d="M1087.16 380.069C1140.4 368.501 1197.42 382.926 1254.97 419.004C1312.52 455.084 1370.57 512.8 1425.83 587.738C1536.36 737.613 1635.69 956.293 1697.6 1208.25C1759.5 1460.22 1772.25 1697.71 1742.84 1877.99C1728.14 1968.13 1702.9 2043.94 1668.01 2100.1C1633.12 2156.27 1588.61 2192.75 1535.37 2204.32C1482.14 2215.89 1425.12 2201.46 1367.57 2165.38C1310.02 2129.3 1251.97 2071.59 1196.7 1996.65C1086.18 1846.77 986.848 1628.09 924.942 1376.13C863.036 1124.17 850.285 886.68 879.695 706.401C894.401 616.26 919.642 540.447 954.529 484.283C989.415 428.121 1033.92 391.637 1087.16 380.069Z" stroke="url(#paint68_linear_281_711)"/>
<path d="M1103.43 376.682C1156.88 366.027 1213.65 381.417 1270.57 418.459C1327.48 455.503 1384.51 514.18 1438.45 590.025C1546.31 741.712 1641.75 961.983 1699.16 1214.88C1756.58 1467.78 1765.08 1705.37 1732.45 1885.07C1716.13 1974.91 1689.53 2050.26 1653.63 2105.8C1617.73 2161.34 1572.57 2197.05 1519.11 2207.7C1465.65 2218.36 1408.89 2202.97 1351.97 2165.93C1295.06 2128.88 1238.03 2070.21 1184.09 1994.36C1076.23 1842.67 980.789 1622.4 923.376 1369.51C865.962 1116.61 857.453 879.014 890.091 699.322C906.41 609.474 933.011 534.128 968.908 478.585C1004.8 423.044 1049.97 387.337 1103.43 376.682Z" stroke="url(#paint69_linear_281_711)"/>
<path d="M1119.76 373.574C1173.41 363.836 1229.92 380.186 1286.18 418.18C1342.44 456.177 1398.43 515.8 1451.02 592.528C1556.19 745.982 1647.71 967.774 1700.61 1221.53C1753.51 1475.29 1757.78 1712.91 1721.92 1891.96C1703.99 1981.49 1676.04 2056.35 1639.15 2111.25C1602.25 2166.15 1556.44 2201.08 1502.78 2210.81C1449.13 2220.55 1392.62 2204.2 1336.36 2166.21C1280.1 2128.21 1224.11 2068.59 1171.52 1991.86C1066.35 1838.41 974.831 1616.61 921.928 1362.86C869.025 1109.1 864.762 871.475 900.617 692.424C918.544 602.898 946.496 528.04 983.392 473.136C1020.29 418.233 1066.1 383.312 1119.76 373.574Z" stroke="url(#paint70_linear_281_711)"/>
<path d="M1136.14 370.744C1189.98 361.925 1246.2 379.231 1301.79 418.167C1357.39 457.104 1412.32 517.652 1463.55 595.24C1566 750.414 1653.56 973.662 1701.94 1228.2C1750.32 1482.74 1750.33 1720.32 1711.27 1898.68C1691.74 1987.86 1662.45 2062.2 1624.56 2116.45C1586.68 2170.7 1540.23 2204.82 1486.39 2213.64C1432.56 2222.46 1376.34 2205.15 1320.74 2166.22C1265.15 2127.28 1210.22 2066.73 1158.99 1989.15C1056.54 1833.97 968.974 1610.72 920.598 1356.19C872.222 1101.65 872.204 864.062 911.265 685.707C930.796 596.529 960.092 522.184 997.975 467.934C1035.86 413.687 1082.3 379.563 1136.14 370.744Z" stroke="url(#paint71_linear_281_711)"/>
<path d="M1152.58 368.196C1206.59 360.299 1262.51 378.556 1317.42 418.421C1372.32 458.287 1426.18 519.743 1476.03 598.167C1575.72 755.014 1659.32 979.648 1703.15 1234.89C1746.99 1490.13 1742.76 1727.6 1700.5 1905.21C1679.37 1994.01 1648.74 2067.82 1609.89 2121.4C1571.03 2174.98 1523.96 2208.29 1469.96 2216.19C1415.95 2224.09 1360.03 2205.83 1305.12 2165.96C1250.22 2126.1 1196.36 2064.64 1146.51 1986.22C1046.82 1829.37 963.224 1604.74 919.389 1349.5C875.554 1094.26 879.784 856.78 922.039 679.176C943.167 590.373 973.796 516.563 1012.66 462.985C1051.51 409.409 1098.58 376.093 1152.58 368.196Z" stroke="url(#paint72_linear_281_711)"/>
<path d="M1169.07 365.931C1223.23 358.958 1278.83 378.159 1333.03 418.941C1387.24 459.725 1440.01 522.069 1488.46 601.306C1585.37 759.778 1664.96 985.73 1704.24 1241.6C1743.52 1497.46 1735.05 1734.75 1689.61 1911.55C1666.89 1999.95 1634.94 2073.21 1595.11 2126.1C1555.29 2178.99 1507.62 2211.48 1453.47 2218.46C1399.31 2225.43 1343.71 2206.23 1289.5 2165.45C1235.3 2124.66 1182.53 2062.32 1134.08 1983.08C1037.17 1824.61 957.577 1598.66 918.297 1342.79C879.016 1086.92 887.491 849.632 932.928 672.833C955.647 584.433 987.6 511.179 1027.42 458.289C1067.25 405.401 1114.91 372.904 1169.07 365.931Z" stroke="url(#paint73_linear_281_711)"/>
<path d="M1185.6 363.945C1239.89 357.899 1295.16 378.039 1348.65 419.726C1402.13 461.414 1453.8 524.629 1500.84 604.654C1594.93 764.703 1670.5 991.905 1705.21 1248.32C1739.93 1504.73 1727.21 1741.77 1678.61 1917.71C1654.3 2005.68 1621.03 2078.35 1580.26 2130.54C1539.48 2182.72 1491.23 2214.39 1436.94 2220.44C1382.65 2226.49 1327.38 2206.35 1273.89 2164.66C1220.41 2122.97 1168.74 2059.76 1121.7 1979.73C1027.61 1819.68 952.04 1592.48 917.326 1336.07C882.612 1079.65 895.329 842.618 943.934 666.677C968.236 578.706 1001.5 506.032 1042.28 453.846C1083.05 401.662 1131.31 369.992 1185.6 363.945Z" stroke="url(#paint74_linear_281_711)"/>
<path d="M1202.17 362.244C1256.58 357.126 1311.5 378.199 1364.25 420.777C1417 463.358 1467.54 527.423 1513.16 608.212C1604.41 769.789 1675.93 998.171 1706.06 1255.06C1736.2 1511.94 1719.25 1748.65 1667.49 1923.67C1641.61 2011.19 1607.04 2083.26 1565.32 2134.73C1523.61 2186.19 1474.78 2217.02 1420.37 2222.14C1365.96 2227.26 1311.04 2206.19 1258.29 2163.61C1205.54 2121.03 1155 2056.96 1109.38 1976.17C1018.13 1814.6 946.612 1586.22 916.475 1329.33C886.338 1072.44 903.294 835.74 955.052 660.712C980.931 573.197 1015.5 501.125 1057.22 449.658C1098.93 398.194 1147.76 367.362 1202.17 362.244Z" stroke="url(#paint75_linear_281_711)"/>
<path d="M1218.77 360.826C1273.28 356.638 1327.84 378.637 1379.83 422.095C1431.83 465.554 1481.24 530.45 1525.42 611.979C1613.8 775.034 1681.24 1004.53 1706.8 1261.8C1732.35 1519.08 1711.16 1755.38 1656.26 1929.45C1628.81 2016.48 1592.95 2087.93 1550.31 2138.66C1507.66 2189.39 1458.27 2219.37 1403.76 2223.56C1349.26 2227.75 1294.7 2205.75 1242.71 2162.29C1190.71 2118.83 1141.3 2053.94 1097.12 1972.41C1008.74 1809.35 941.294 1579.86 915.744 1322.58C890.194 1065.31 911.383 829.003 966.278 654.939C993.725 567.907 1029.59 496.459 1072.23 445.728C1114.88 395 1164.27 365.014 1218.77 360.826Z" stroke="url(#paint76_linear_281_711)"/>
<path d="M1235.41 359.691C1290 356.434 1344.17 379.353 1395.39 423.676C1446.62 468.001 1494.88 533.71 1537.62 615.953C1623.09 780.438 1686.45 1010.97 1707.41 1268.56C1728.36 1526.15 1702.95 1761.98 1644.93 1935.03C1615.92 2021.55 1578.77 2092.35 1535.22 2142.33C1491.66 2192.31 1441.73 2221.44 1387.13 2224.7C1332.54 2227.95 1278.37 2205.03 1227.14 2160.71C1175.92 2116.39 1127.66 2050.68 1084.92 1968.43C999.447 1803.95 936.089 1573.42 915.133 1315.83C894.177 1058.23 919.594 822.406 977.609 649.361C1006.62 562.838 1043.77 492.034 1087.32 442.054C1130.88 392.077 1180.81 362.948 1235.41 359.691Z" stroke="url(#paint77_linear_281_711)"/>
<path d="M1252.06 358.842C1306.72 356.517 1360.49 380.349 1410.93 425.525C1461.38 470.702 1508.47 537.202 1549.74 620.135C1632.29 785.998 1691.54 1017.5 1707.9 1275.33C1724.25 1533.15 1694.62 1768.44 1633.5 1940.41C1602.94 2026.4 1564.52 2096.53 1520.06 2145.75C1475.6 2194.96 1425.14 2223.22 1370.48 2225.55C1315.82 2227.87 1262.05 2204.04 1211.61 2158.87C1161.16 2113.69 1114.07 2047.19 1072.8 1964.26C990.247 1798.39 930.999 1566.89 914.643 1309.06C898.287 1051.24 927.924 815.954 989.041 643.981C1019.6 557.993 1058.02 487.856 1102.48 438.643C1146.93 389.431 1197.4 361.167 1252.06 358.842Z" stroke="url(#paint78_linear_281_711)"/>
<path d="M1268.73 358.274C1323.44 356.883 1376.8 381.619 1426.44 427.633C1476.09 473.649 1521.99 540.92 1561.79 624.517C1641.39 791.709 1696.51 1024.11 1708.26 1282.1C1720.01 1540.08 1686.17 1774.74 1621.97 1945.59C1589.86 2031.02 1550.18 2100.47 1504.84 2148.9C1459.5 2197.33 1408.52 2224.72 1353.81 2226.11C1299.09 2227.5 1245.74 2202.77 1196.1 2156.75C1146.45 2110.74 1100.54 2043.47 1060.74 1959.87C981.144 1792.68 926.025 1560.27 914.274 1302.29C902.524 1044.31 936.37 809.643 1000.57 638.793C1032.67 553.367 1072.35 483.919 1117.7 435.487C1163.04 387.057 1214.02 359.666 1268.73 358.274Z" stroke="url(#paint79_linear_281_711)"/>
<path d="M1285.42 357.993C1340.16 357.535 1393.08 383.169 1441.91 430.008C1490.74 476.848 1535.46 544.87 1573.77 629.106C1650.39 797.576 1701.37 1030.81 1708.51 1288.87C1715.65 1546.93 1677.61 1780.91 1610.34 1950.58C1576.71 2035.42 1535.78 2104.16 1489.56 2151.79C1443.34 2199.43 1391.87 2225.94 1337.12 2226.4C1282.37 2226.85 1229.46 2201.22 1180.63 2154.38C1131.79 2107.54 1087.08 2039.52 1048.77 1955.28C972.143 1786.81 921.167 1553.58 914.026 1295.52C906.884 1037.46 944.931 803.483 1012.2 633.808C1045.83 548.97 1086.76 480.231 1132.98 432.595C1179.19 384.96 1230.67 358.452 1285.42 357.993Z" stroke="url(#paint80_linear_281_711)"/>
<path d="M1302.11 357.995C1356.87 358.47 1409.34 384.995 1457.34 432.644C1505.35 480.294 1548.85 549.046 1585.67 633.894C1659.29 803.59 1706.11 1037.58 1708.64 1295.64C1711.17 1553.7 1668.93 1786.92 1598.62 1955.37C1563.47 2039.59 1521.3 2107.6 1474.23 2154.42C1427.15 2201.25 1375.19 2226.87 1320.43 2226.39C1265.66 2225.92 1213.19 2199.39 1165.19 2151.74C1117.19 2104.09 1073.68 2035.34 1036.87 1950.49C963.245 1780.8 916.429 1546.81 913.899 1288.75C911.369 1030.69 953.604 797.469 1023.91 629.021C1059.07 544.797 1101.23 476.789 1148.31 429.963C1195.39 383.139 1247.35 357.52 1302.11 357.995Z" stroke="url(#paint81_linear_281_711)"/>
<path d="M1318.81 358.283C1373.57 359.692 1425.58 387.099 1472.73 435.543C1519.89 483.989 1562.18 553.45 1597.48 638.886C1668.09 809.756 1710.73 1044.43 1708.65 1302.41C1706.56 1560.39 1660.15 1792.78 1586.82 1959.95C1550.15 2043.54 1506.77 2110.79 1458.84 2156.79C1410.92 2202.79 1358.5 2227.51 1303.73 2226.11C1248.97 2224.7 1196.96 2197.29 1149.81 2148.85C1102.65 2100.4 1060.36 2030.94 1025.06 1945.5C954.453 1774.63 911.811 1539.95 913.893 1281.97C915.975 1023.99 962.386 791.607 1035.72 624.438C1072.39 540.853 1115.77 473.596 1163.7 427.595C1211.62 381.596 1264.04 356.875 1318.81 358.283Z" stroke="url(#paint82_linear_281_711)"/>
<path d="M1335.5 358.855C1390.25 361.196 1441.77 389.477 1488.07 438.702C1534.37 487.929 1575.42 558.078 1609.21 644.075C1676.77 816.068 1715.22 1051.36 1708.53 1309.18C1701.84 1567 1651.27 1798.49 1574.93 1964.33C1536.76 2047.25 1492.17 2113.74 1443.42 2158.9C1394.67 2204.06 1341.79 2227.88 1287.04 2225.53C1232.29 2223.19 1180.77 2194.91 1134.47 2145.69C1088.16 2096.46 1047.11 2026.31 1013.33 1940.31C945.77 1768.32 907.315 1533.03 914.008 1275.21C920.701 1017.38 971.274 785.897 1047.61 620.058C1085.77 537.138 1130.37 470.652 1179.12 425.49C1227.87 380.33 1280.75 356.514 1335.5 358.855Z" stroke="url(#paint83_linear_281_711)"/>
<path d="M1352.18 359.711C1406.9 362.984 1457.93 392.13 1503.36 442.121C1548.79 492.114 1588.59 562.929 1620.84 649.461C1685.34 822.524 1719.6 1058.36 1708.29 1315.95C1696.99 1573.53 1642.27 1804.05 1562.96 1968.51C1523.31 2050.74 1477.51 2116.43 1427.95 2160.74C1378.38 2205.05 1325.07 2227.95 1270.35 2224.68C1215.64 2221.4 1164.61 2192.26 1119.18 2142.27C1073.75 2092.27 1033.95 2021.46 1001.7 1934.93C937.197 1761.86 902.941 1526.03 914.243 1268.44C925.546 1010.86 980.264 780.341 1059.57 615.882C1099.23 533.652 1145.02 467.958 1194.59 423.648C1244.16 379.34 1297.47 356.437 1352.18 359.711Z" stroke="url(#paint84_linear_281_711)"/>
<path d="M1368.86 360.85C1423.53 365.055 1474.04 395.057 1518.58 445.798C1563.13 496.542 1601.67 568.002 1632.38 655.043C1693.8 829.123 1723.85 1065.43 1707.94 1322.7C1692.03 1579.97 1633.18 1809.45 1550.92 1972.47C1509.79 2053.99 1462.81 2118.87 1412.44 2162.32C1362.08 2205.76 1308.35 2227.74 1253.68 2223.54C1199.01 2219.33 1148.5 2189.33 1103.95 2138.59C1059.41 2087.85 1020.87 2016.38 990.157 1929.34C928.739 1755.26 898.693 1518.95 914.601 1261.68C930.509 1004.41 989.357 774.941 1071.62 611.912C1112.75 530.396 1159.73 465.514 1210.09 422.071C1260.46 378.629 1314.19 356.646 1368.86 360.85Z" stroke="url(#paint85_linear_281_711)"/>
<path d="M1385.51 362.275C1440.12 367.41 1490.1 398.258 1533.75 449.735C1577.39 501.214 1614.66 573.297 1643.82 660.82C1702.14 835.865 1727.97 1072.57 1707.46 1329.45C1686.95 1586.33 1623.99 1814.69 1538.8 1976.24C1496.2 2057.01 1448.06 2121.06 1396.91 2163.63C1345.76 2206.19 1291.63 2227.25 1237.02 2222.11C1182.42 2216.98 1132.43 2186.13 1088.79 2134.65C1045.15 2083.17 1007.87 2011.09 978.714 1923.57C920.397 1748.52 894.569 1511.81 915.078 1254.94C935.587 998.06 998.546 769.699 1083.74 608.15C1126.33 527.375 1174.48 463.325 1225.63 420.76C1276.78 378.197 1330.91 357.14 1385.51 362.275Z" stroke="url(#paint86_linear_281_711)"/>
<path d="M1402.15 363.981C1456.67 370.044 1506.11 401.73 1548.84 453.926C1591.57 506.125 1627.57 578.809 1655.17 666.788C1710.37 842.744 1731.97 1079.78 1706.86 1336.19C1681.76 1592.59 1614.71 1819.77 1526.61 1979.79C1482.57 2059.8 1433.27 2123 1381.35 2164.67C1329.43 2206.34 1274.91 2226.47 1220.39 2220.41C1165.87 2214.34 1116.43 2182.66 1073.7 2130.46C1030.97 2078.26 994.973 2005.58 967.373 1917.6C912.175 1741.64 890.574 1504.6 915.678 1248.2C940.782 991.794 1007.83 764.616 1095.93 604.595C1139.97 524.584 1189.27 461.385 1241.19 419.712C1293.11 378.042 1347.63 357.918 1402.15 363.981Z" stroke="url(#paint87_linear_281_711)"/>
<path d="M1418.75 365.97C1473.17 372.96 1522.06 405.473 1563.87 458.374C1605.67 511.276 1640.37 584.54 1666.4 672.948C1718.47 849.761 1735.83 1087.05 1706.14 1342.91C1676.45 1598.77 1605.33 1824.69 1514.36 1983.14C1468.88 2062.36 1418.44 2124.69 1365.77 2165.45C1313.09 2206.22 1258.21 2225.41 1203.78 2218.42C1149.36 2211.43 1100.48 2178.91 1058.67 2126.01C1016.87 2073.11 982.168 1999.85 956.136 1911.44C904.073 1734.63 886.705 1497.33 916.396 1241.48C946.087 985.621 1017.21 759.693 1108.18 601.251C1153.66 522.028 1204.1 459.699 1256.77 418.931C1309.45 378.166 1364.33 358.981 1418.75 365.97Z" stroke="url(#paint88_linear_281_711)"/>
<path d="M1435.33 368.242C1489.63 376.157 1537.95 409.489 1578.81 463.076C1619.68 516.666 1653.08 590.486 1677.53 679.296C1726.44 856.912 1739.57 1094.39 1705.3 1349.62C1671.03 1604.85 1595.86 1829.45 1502.05 1986.27C1455.14 2064.68 1403.58 2126.12 1350.17 2165.97C1296.76 2205.82 1241.52 2224.06 1187.21 2216.14C1132.91 2208.23 1084.59 2174.9 1043.73 2121.31C1002.86 2067.72 969.465 1993.9 945.008 1905.09C896.097 1727.47 882.967 1490 917.236 1234.77C951.505 979.541 1026.68 754.933 1120.49 598.116C1167.4 519.707 1218.96 458.268 1272.37 418.418C1325.78 378.569 1381.02 360.328 1435.33 368.242Z" stroke="url(#paint89_linear_281_711)"/>
<path d="M1451.86 370.796C1506.04 379.632 1553.76 413.772 1593.68 468.031C1633.59 522.292 1665.68 596.647 1688.55 685.831C1734.29 864.197 1743.18 1101.79 1704.34 1356.31C1665.51 1610.83 1586.31 1834.05 1489.67 1989.19C1441.36 2066.77 1388.69 2127.3 1334.56 2166.22C1280.42 2205.14 1224.85 2222.43 1170.68 2213.59C1116.5 2204.76 1068.78 2170.62 1028.86 2116.36C988.946 2062.1 956.865 1987.74 933.992 1898.56C888.247 1720.19 879.359 1482.6 918.196 1228.08C957.032 973.557 1036.23 750.337 1132.87 595.194C1181.18 517.622 1233.85 457.09 1287.98 418.169C1342.12 379.25 1397.69 361.96 1451.86 370.796Z" stroke="url(#paint90_linear_281_711)"/>
<path d="M1468.35 373.629C1522.38 383.385 1569.5 418.322 1608.45 473.235C1647.41 528.151 1678.17 603.017 1699.45 692.549C1742.01 871.611 1746.66 1109.24 1703.26 1362.98C1659.87 1616.72 1576.67 1838.48 1477.24 1991.9C1427.53 2068.61 1373.78 2128.22 1318.94 2166.2C1264.1 2204.18 1208.21 2220.51 1154.18 2210.76C1100.16 2201 1053.04 2166.06 1014.08 2111.15C975.13 2056.23 944.371 1981.37 923.089 1891.84C880.524 1712.78 875.881 1475.15 919.274 1221.41C962.666 967.669 1045.87 745.905 1145.29 592.483C1195.01 515.771 1248.76 456.166 1303.6 418.186C1358.44 380.209 1414.33 363.874 1468.35 373.629Z" stroke="url(#paint91_linear_281_711)"/>
<path d="M1484.8 376.744C1538.66 387.416 1585.17 423.14 1623.14 478.691C1661.12 534.245 1690.55 609.6 1710.23 699.452C1749.6 879.154 1750 1116.75 1702.07 1369.63C1654.13 1622.51 1566.95 1842.75 1464.77 1994.4C1413.67 2070.23 1358.85 2128.89 1303.32 2165.92C1247.79 2202.94 1191.6 2218.32 1137.74 2207.64C1083.88 2196.97 1037.37 2161.25 999.395 2105.7C961.416 2050.14 931.991 1974.79 912.305 1884.94C872.933 1705.23 872.537 1467.64 920.472 1214.76C968.407 961.881 1055.59 741.641 1157.77 589.986C1208.86 514.158 1263.69 455.497 1319.22 418.471C1374.75 381.446 1430.94 366.072 1484.8 376.744Z" stroke="url(#paint92_linear_281_711)"/>
<path d="M1501.19 380.136C1554.87 391.721 1600.75 428.221 1637.74 484.393C1674.73 540.568 1702.81 616.389 1720.9 706.534C1757.06 886.822 1753.21 1124.31 1700.75 1376.25C1648.29 1628.19 1557.15 1846.84 1452.24 1996.68C1399.79 2071.6 1343.9 2129.3 1287.7 2165.36C1231.5 2201.43 1175.03 2215.83 1121.35 2204.25C1067.67 2192.66 1021.79 2156.16 984.802 2099.99C947.809 2043.82 919.726 1968 901.643 1877.85C865.476 1697.56 869.327 1460.08 921.79 1208.13C974.253 956.192 1065.39 737.542 1170.3 587.702C1222.75 512.781 1278.64 455.083 1334.84 419.021C1391.03 382.96 1447.51 368.551 1501.19 380.136Z" stroke="url(#paint93_linear_281_711)"/>
<path d="M1517.52 383.807C1571 396.301 1616.24 433.566 1652.23 490.342C1688.22 547.122 1714.96 623.385 1731.43 713.795C1764.38 894.614 1756.29 1131.92 1699.31 1382.85C1642.34 1633.78 1547.28 1850.77 1439.67 1998.75C1385.87 2072.74 1328.94 2129.46 1272.09 2164.55C1215.24 2199.64 1158.49 2213.07 1105.01 2200.58C1051.53 2188.09 1006.3 2150.82 970.308 2094.04C934.313 2037.27 907.581 1961 891.106 1870.59C858.155 1689.77 866.251 1452.46 923.226 1201.54C980.201 950.606 1075.26 733.614 1182.86 585.634C1236.67 511.642 1293.59 454.925 1350.45 419.837C1407.3 384.752 1464.04 371.312 1517.52 383.807Z" stroke="url(#paint94_linear_281_711)"/>
<path d="M1533.8 387.755C1587.06 401.155 1631.64 439.173 1666.62 496.536C1701.61 553.902 1726.98 630.584 1741.84 721.233C1771.57 902.528 1759.23 1139.59 1697.76 1389.42C1636.29 1639.26 1537.34 1854.53 1427.07 2000.61C1371.93 2073.65 1313.98 2129.37 1256.49 2163.47C1199.01 2197.57 1142.01 2210.03 1088.74 2196.63C1035.48 2183.23 990.903 2145.22 955.919 2087.85C920.933 2030.49 895.559 1953.8 880.696 1863.16C850.972 1681.86 863.311 1444.8 924.781 1194.96C986.251 945.126 1085.2 729.857 1195.47 583.781C1250.61 510.742 1308.56 455.021 1366.05 420.92C1423.53 386.82 1480.53 374.355 1533.8 387.755Z" stroke="url(#paint95_linear_281_711)"/>
<path d="M1550 391.978C1603.03 406.279 1646.94 445.04 1680.9 502.972C1714.87 560.907 1738.88 637.986 1752.12 728.845C1778.61 910.56 1762.03 1147.3 1696.09 1395.97C1630.14 1644.64 1527.32 1858.12 1414.43 2002.25C1357.98 2074.31 1299.02 2129.02 1240.91 2162.12C1182.8 2195.23 1125.57 2206.71 1072.54 2192.41C1019.5 2178.11 975.602 2139.35 941.637 2081.42C907.671 2023.48 883.663 1946.4 870.418 1855.55C843.929 1673.83 860.507 1437.09 926.452 1188.42C992.398 939.751 1095.21 726.271 1208.11 582.144C1264.56 510.079 1323.52 455.373 1381.63 422.268C1439.73 389.164 1496.96 377.676 1550 391.978Z" stroke="url(#paint96_linear_281_711)"/>
<path d="M1566.13 396.473C1618.92 411.673 1662.13 451.163 1695.07 509.646C1728.01 568.133 1750.64 645.584 1762.26 736.625C1785.51 918.706 1764.7 1155.05 1694.3 1402.48C1623.9 1649.91 1517.25 1861.53 1401.75 2003.67C1344 2074.73 1284.06 2128.41 1225.35 2160.51C1166.64 2192.61 1109.2 2203.11 1056.41 2187.91C1003.62 2172.71 960.403 2133.22 927.467 2074.74C894.531 2016.25 871.897 1938.8 860.274 1847.76C837.028 1665.68 857.84 1429.34 928.242 1181.91C998.643 934.48 1105.29 722.854 1220.79 580.72C1278.53 509.652 1338.48 455.977 1397.19 423.879C1455.9 391.781 1513.34 381.274 1566.13 396.473Z" stroke="url(#paint97_linear_281_711)"/>
<path d="M1582.18 401.242C1634.71 417.334 1677.23 457.542 1709.12 516.559C1741.02 575.579 1762.27 653.38 1772.27 744.576C1792.27 926.967 1767.23 1162.84 1692.39 1408.95C1617.56 1655.07 1507.11 1864.77 1389.05 2004.87C1330.02 2074.92 1269.11 2127.55 1209.82 2158.63C1150.52 2189.71 1092.88 2199.24 1040.36 2183.14C987.831 2167.05 945.312 2126.84 913.416 2067.83C881.52 2008.8 860.265 1931 850.268 1839.81C830.273 1657.42 855.313 1421.54 930.149 1175.43C1004.98 929.32 1115.43 719.612 1233.49 579.514C1292.52 509.465 1353.43 456.836 1412.72 425.754C1472.02 394.673 1529.66 385.15 1582.18 401.242Z" stroke="url(#paint98_linear_281_711)"/>
<path d="M1598.15 406.283C1650.4 423.263 1692.21 464.177 1723.05 523.709C1753.9 583.245 1773.77 661.372 1782.14 752.695C1798.88 935.34 1769.62 1170.67 1690.37 1415.39C1611.12 1660.11 1496.91 1867.84 1376.33 2005.86C1316.04 2074.87 1254.17 2126.43 1194.31 2156.49C1134.46 2186.55 1076.63 2195.08 1024.39 2178.1C972.14 2161.12 930.332 2120.21 899.486 2060.68C868.639 2001.14 848.772 1923.01 840.403 1831.69C823.664 1649.05 852.924 1413.71 932.171 1168.99C1011.42 924.271 1125.63 716.546 1246.21 578.527C1306.5 509.517 1368.37 457.952 1428.23 427.895C1488.08 397.839 1545.91 389.304 1598.15 406.283Z" stroke="url(#paint99_linear_281_711)"/>
<path d="M1614.03 411.594C1665.99 429.456 1707.07 471.064 1736.86 531.094C1766.65 591.128 1785.12 669.556 1791.86 760.978C1805.34 943.822 1771.87 1178.55 1688.23 1421.8C1604.6 1665.05 1486.65 1870.73 1363.58 2006.63C1302.05 2074.58 1239.25 2125.06 1178.84 2154.09C1118.44 2183.11 1060.46 2190.65 1008.5 2172.79C956.551 2154.93 915.467 2113.32 885.68 2053.29C855.892 1993.26 837.418 1914.83 830.68 1823.41C817.203 1640.56 850.673 1405.84 934.308 1162.59C1017.94 919.334 1135.89 713.655 1258.96 577.757C1320.49 509.807 1383.29 459.322 1443.69 430.299C1504.1 401.278 1562.08 393.732 1614.03 411.594Z" stroke="url(#paint100_linear_281_711)"/>
</g>
<defs>
<filter id="filter0_f_281_711" x="787.212" y="339.331" width="1027.57" height="998.64" filterUnits="userSpaceOnUse" color-interpolation-filters="sRGB">
<feFlood flood-opacity="0" result="BackgroundImageFix"/>
<feBlend mode="normal" in="SourceGraphic" in2="BackgroundImageFix" result="shape"/>
<feGaussianBlur stdDeviation="160" result="effect1_foregroundBlur_281_711"/>
</filter>
<linearGradient id="paint0_linear_281_711" x1="1179.25" y1="585.597" x2="1543.43" y2="641.074" gradientUnits="userSpaceOnUse">
<stop stop-color="#FAB656"/>
<stop offset="1" stop-color="#C766FF"/>
</linearGradient>
<linearGradient id="paint1_linear_281_711" x1="367.141" y1="1121.71" x2="2258.4" y2="1445.14" gradientUnits="userSpaceOnUse">
<stop stop-color="white" stop-opacity="0.3"/>
<stop offset="1" stop-color="white" stop-opacity="0.6"/>
</linearGradient>
<linearGradient id="paint2_linear_281_711" x1="370.028" y1="1105.7" x2="2255.47" y2="1463.09" gradientUnits="userSpaceOnUse">
<stop stop-color="white" stop-opacity="0.3"/>
<stop offset="1" stop-color="white" stop-opacity="0.6"/>
</linearGradient>
<linearGradient id="paint3_linear_281_711" x1="373.201" y1="1089.74" x2="2252.18" y2="1481" gradientUnits="userSpaceOnUse">
<stop stop-color="white" stop-opacity="0.3"/>
<stop offset="1" stop-color="white" stop-opacity="0.6"/>
</linearGradient>
<linearGradient id="paint4_linear_281_711" x1="376.661" y1="1073.84" x2="2248.53" y2="1498.86" gradientUnits="userSpaceOnUse">
<stop stop-color="white" stop-opacity="0.3"/>
<stop offset="1" stop-color="white" stop-opacity="0.6"/>
</linearGradient>
<linearGradient id="paint5_linear_281_711" x1="380.405" y1="1058.01" x2="2244.52" y2="1516.66" gradientUnits="userSpaceOnUse">
<stop stop-color="white" stop-opacity="0.3"/>
<stop offset="1" stop-color="white" stop-opacity="0.6"/>
</linearGradient>
<linearGradient id="paint6_linear_281_711" x1="384.433" y1="1042.26" x2="2240.16" y2="1534.38" gradientUnits="userSpaceOnUse">
<stop stop-color="white" stop-opacity="0.3"/>
<stop offset="1" stop-color="white" stop-opacity="0.6"/>
</linearGradient>
<linearGradient id="paint7_linear_281_711" x1="388.743" y1="1026.57" x2="2235.45" y2="1552.02" gradientUnits="userSpaceOnUse">
<stop stop-color="white" stop-opacity="0.3"/>
<stop offset="1" stop-color="white" stop-opacity="0.6"/>
</linearGradient>
<linearGradient id="paint8_linear_281_711" x1="393.333" y1="1010.97" x2="2230.37" y2="1569.57" gradientUnits="userSpaceOnUse">
<stop stop-color="white" stop-opacity="0.3"/>
<stop offset="1" stop-color="white" stop-opacity="0.6"/>
</linearGradient>
<linearGradient id="paint9_linear_281_711" x1="398.204" y1="995.459" x2="2224.96" y2="1587.01" gradientUnits="userSpaceOnUse">
<stop stop-color="white" stop-opacity="0.3"/>
<stop offset="1" stop-color="white" stop-opacity="0.6"/>
</linearGradient>
<linearGradient id="paint10_linear_281_711" x1="403.353" y1="980.035" x2="2219.19" y2="1604.35" gradientUnits="userSpaceOnUse">
<stop stop-color="white" stop-opacity="0.3"/>
<stop offset="1" stop-color="white" stop-opacity="0.6"/>
</linearGradient>
<linearGradient id="paint11_linear_281_711" x1="408.778" y1="964.706" x2="2213.07" y2="1621.57" gradientUnits="userSpaceOnUse">
<stop stop-color="white" stop-opacity="0.3"/>
<stop offset="1" stop-color="white" stop-opacity="0.6"/>
</linearGradient>
<linearGradient id="paint12_linear_281_711" x1="414.477" y1="949.476" x2="2206.62" y2="1638.66" gradientUnits="userSpaceOnUse">
<stop stop-color="white" stop-opacity="0.3"/>
<stop offset="1" stop-color="white" stop-opacity="0.6"/>
</linearGradient>
<linearGradient id="paint13_linear_281_711" x1="420.451" y1="934.351" x2="2199.82" y2="1655.62" gradientUnits="userSpaceOnUse">
<stop stop-color="white" stop-opacity="0.3"/>
<stop offset="1" stop-color="white" stop-opacity="0.6"/>
</linearGradient>
<linearGradient id="paint14_linear_281_711" x1="426.696" y1="919.334" x2="2192.7" y2="1672.43" gradientUnits="userSpaceOnUse">
<stop stop-color="white" stop-opacity="0.3"/>
<stop offset="1" stop-color="white" stop-opacity="0.6"/>
</linearGradient>
<linearGradient id="paint15_linear_281_711" x1="433.209" y1="904.432" x2="2185.24" y2="1689.09" gradientUnits="userSpaceOnUse">
<stop stop-color="white" stop-opacity="0.3"/>
<stop offset="1" stop-color="white" stop-opacity="0.6"/>
</linearGradient>
<linearGradient id="paint16_linear_281_711" x1="439.991" y1="889.648" x2="2177.46" y2="1705.58" gradientUnits="userSpaceOnUse">
<stop stop-color="white" stop-opacity="0.3"/>
<stop offset="1" stop-color="white" stop-opacity="0.6"/>
</linearGradient>
<linearGradient id="paint17_linear_281_711" x1="447.038" y1="874.986" x2="2169.35" y2="1721.91" gradientUnits="userSpaceOnUse">
<stop stop-color="white" stop-opacity="0.3"/>
<stop offset="1" stop-color="white" stop-opacity="0.6"/>
</linearGradient>
<linearGradient id="paint18_linear_281_711" x1="454.348" y1="860.451" x2="2160.93" y2="1738.06" gradientUnits="userSpaceOnUse">
<stop stop-color="white" stop-opacity="0.3"/>
<stop offset="1" stop-color="white" stop-opacity="0.6"/>
</linearGradient>
<linearGradient id="paint19_linear_281_711" x1="461.919" y1="846.048" x2="2152.2" y2="1754.02" gradientUnits="userSpaceOnUse">
<stop stop-color="white" stop-opacity="0.3"/>
<stop offset="1" stop-color="white" stop-opacity="0.6"/>
</linearGradient>
<linearGradient id="paint20_linear_281_711" x1="469.75" y1="831.781" x2="2143.16" y2="1769.79" gradientUnits="userSpaceOnUse">
<stop stop-color="white" stop-opacity="0.3"/>
<stop offset="1" stop-color="white" stop-opacity="0.6"/>
</linearGradient>
<linearGradient id="paint21_linear_281_711" x1="477.835" y1="817.654" x2="2133.82" y2="1785.35" gradientUnits="userSpaceOnUse">
<stop stop-color="white" stop-opacity="0.3"/>
<stop offset="1" stop-color="white" stop-opacity="0.6"/>
</linearGradient>
<linearGradient id="paint22_linear_281_711" x1="486.175" y1="803.671" x2="2124.19" y2="1800.71" gradientUnits="userSpaceOnUse">
<stop stop-color="white" stop-opacity="0.3"/>
<stop offset="1" stop-color="white" stop-opacity="0.6"/>
</linearGradient>
<linearGradient id="paint23_linear_281_711" x1="494.766" y1="789.837" x2="2114.27" y2="1815.86" gradientUnits="userSpaceOnUse">
<stop stop-color="white" stop-opacity="0.3"/>
<stop offset="1" stop-color="white" stop-opacity="0.6"/>
</linearGradient>
<linearGradient id="paint24_linear_281_711" x1="503.607" y1="776.156" x2="2104.07" y2="1830.78" gradientUnits="userSpaceOnUse">
<stop stop-color="white" stop-opacity="0.3"/>
<stop offset="1" stop-color="white" stop-opacity="0.6"/>
</linearGradient>
<linearGradient id="paint25_linear_281_711" x1="512.693" y1="762.633" x2="2093.59" y2="1845.48" gradientUnits="userSpaceOnUse">
<stop stop-color="white" stop-opacity="0.3"/>
<stop offset="1" stop-color="white" stop-opacity="0.6"/>
</linearGradient>
<linearGradient id="paint26_linear_281_711" x1="522.022" y1="749.271" x2="2082.85" y2="1859.94" gradientUnits="userSpaceOnUse">
<stop stop-color="white" stop-opacity="0.3"/>
<stop offset="1" stop-color="white" stop-opacity="0.6"/>
</linearGradient>
<linearGradient id="paint27_linear_281_711" x1="531.592" y1="736.075" x2="2071.84" y2="1874.17" gradientUnits="userSpaceOnUse">
<stop stop-color="white" stop-opacity="0.3"/>
<stop offset="1" stop-color="white" stop-opacity="0.6"/>
</linearGradient>
<linearGradient id="paint28_linear_281_711" x1="541.4" y1="723.046" x2="2060.58" y2="1888.14" gradientUnits="userSpaceOnUse">
<stop stop-color="white" stop-opacity="0.3"/>
<stop offset="1" stop-color="white" stop-opacity="0.6"/>
</linearGradient>
<linearGradient id="paint29_linear_281_711" x1="551.44" y1="710.193" x2="2049.07" y2="1901.87" gradientUnits="userSpaceOnUse">
<stop stop-color="white" stop-opacity="0.3"/>
<stop offset="1" stop-color="white" stop-opacity="0.6"/>
</linearGradient>
<linearGradient id="paint30_linear_281_711" x1="561.714" y1="697.517" x2="2037.33" y2="1915.34" gradientUnits="userSpaceOnUse">
<stop stop-color="white" stop-opacity="0.3"/>
<stop offset="1" stop-color="white" stop-opacity="0.6"/>
</linearGradient>
<linearGradient id="paint31_linear_281_711" x1="572.216" y1="685.02" x2="2025.35" y2="1928.55" gradientUnits="userSpaceOnUse">
<stop stop-color="white" stop-opacity="0.3"/>
<stop offset="1" stop-color="white" stop-opacity="0.6"/>
</linearGradient>
<linearGradient id="paint32_linear_281_711" x1="582.943" y1="672.709" x2="2013.14" y2="1941.5" gradientUnits="userSpaceOnUse">
<stop stop-color="white" stop-opacity="0.3"/>
<stop offset="1" stop-color="white" stop-opacity="0.6"/>
</linearGradient>
<linearGradient id="paint33_linear_281_711" x1="593.891" y1="660.588" x2="2000.71" y2="1954.18" gradientUnits="userSpaceOnUse">
<stop stop-color="white" stop-opacity="0.3"/>
<stop offset="1" stop-color="white" stop-opacity="0.6"/>
</linearGradient>
<linearGradient id="paint34_linear_281_711" x1="605.059" y1="648.658" x2="1988.08" y2="1966.58" gradientUnits="userSpaceOnUse">
<stop stop-color="white" stop-opacity="0.3"/>
<stop offset="1" stop-color="white" stop-opacity="0.6"/>
</linearGradient>
<linearGradient id="paint35_linear_281_711" x1="616.44" y1="636.924" x2="1975.24" y2="1978.71" gradientUnits="userSpaceOnUse">
<stop stop-color="white" stop-opacity="0.3"/>
<stop offset="1" stop-color="white" stop-opacity="0.6"/>
</linearGradient>
<linearGradient id="paint36_linear_281_711" x1="628.034" y1="625.391" x2="1962.21" y2="1990.56" gradientUnits="userSpaceOnUse">
<stop stop-color="white" stop-opacity="0.3"/>
<stop offset="1" stop-color="white" stop-opacity="0.6"/>
</linearGradient>
<linearGradient id="paint37_linear_281_711" x1="639.836" y1="614.061" x2="1948.99" y2="2002.12" gradientUnits="userSpaceOnUse">
<stop stop-color="white" stop-opacity="0.3"/>
<stop offset="1" stop-color="white" stop-opacity="0.6"/>
</linearGradient>
<linearGradient id="paint38_linear_281_711" x1="651.843" y1="602.935" x2="1935.59" y2="2013.4" gradientUnits="userSpaceOnUse">
<stop stop-color="white" stop-opacity="0.3"/>
<stop offset="1" stop-color="white" stop-opacity="0.6"/>
</linearGradient>
<linearGradient id="paint39_linear_281_711" x1="664.05" y1="592.021" x2="1922.02" y2="2024.39" gradientUnits="userSpaceOnUse">
<stop stop-color="white" stop-opacity="0.3"/>
<stop offset="1" stop-color="white" stop-opacity="0.6"/>
</linearGradient>
<linearGradient id="paint40_linear_281_711" x1="676.455" y1="581.32" x2="1908.29" y2="2035.09" gradientUnits="userSpaceOnUse">
<stop stop-color="white" stop-opacity="0.3"/>
<stop offset="1" stop-color="white" stop-opacity="0.6"/>
</linearGradient>
<linearGradient id="paint41_linear_281_711" x1="689.053" y1="570.836" x2="1894.4" y2="2045.5" gradientUnits="userSpaceOnUse">
<stop stop-color="white" stop-opacity="0.3"/>
<stop offset="1" stop-color="white" stop-opacity="0.6"/>
</linearGradient>
<linearGradient id="paint42_linear_281_711" x1="701.84" y1="560.57" x2="1880.36" y2="2055.61" gradientUnits="userSpaceOnUse">
<stop stop-color="white" stop-opacity="0.3"/>
<stop offset="1" stop-color="white" stop-opacity="0.6"/>
</linearGradient>
<linearGradient id="paint43_linear_281_711" x1="714.812" y1="550.529" x2="1866.18" y2="2065.43" gradientUnits="userSpaceOnUse">
<stop stop-color="white" stop-opacity="0.3"/>
<stop offset="1" stop-color="white" stop-opacity="0.6"/>
</linearGradient>
<linearGradient id="paint44_linear_281_711" x1="727.968" y1="540.712" x2="1851.87" y2="2074.95" gradientUnits="userSpaceOnUse">
<stop stop-color="white" stop-opacity="0.3"/>
<stop offset="1" stop-color="white" stop-opacity="0.6"/>
</linearGradient>
<linearGradient id="paint45_linear_281_711" x1="741.301" y1="531.125" x2="1837.43" y2="2084.18" gradientUnits="userSpaceOnUse">
<stop stop-color="white" stop-opacity="0.3"/>
<stop offset="1" stop-color="white" stop-opacity="0.6"/>
</linearGradient>
<linearGradient id="paint46_linear_281_711" x1="754.806" y1="521.771" x2="1822.87" y2="2093.11" gradientUnits="userSpaceOnUse">
<stop stop-color="white" stop-opacity="0.3"/>
<stop offset="1" stop-color="white" stop-opacity="0.6"/>
</linearGradient>
<linearGradient id="paint47_linear_281_711" x1="768.482" y1="512.651" x2="1808.2" y2="2101.74" gradientUnits="userSpaceOnUse">
<stop stop-color="white" stop-opacity="0.3"/>
<stop offset="1" stop-color="white" stop-opacity="0.6"/>
</linearGradient>
<linearGradient id="paint48_linear_281_711" x1="782.322" y1="503.767" x2="1793.43" y2="2110.07" gradientUnits="userSpaceOnUse">
<stop stop-color="white" stop-opacity="0.3"/>
<stop offset="1" stop-color="white" stop-opacity="0.6"/>
</linearGradient>
<linearGradient id="paint49_linear_281_711" x1="796.325" y1="495.124" x2="1778.56" y2="2118.1" gradientUnits="userSpaceOnUse">
<stop stop-color="white" stop-opacity="0.3"/>
<stop offset="1" stop-color="white" stop-opacity="0.6"/>
</linearGradient>
<linearGradient id="paint50_linear_281_711" x1="810.483" y1="486.725" x2="1763.6" y2="2125.84" gradientUnits="userSpaceOnUse">
<stop stop-color="white" stop-opacity="0.3"/>
<stop offset="1" stop-color="white" stop-opacity="0.6"/>
</linearGradient>
<linearGradient id="paint51_linear_281_711" x1="824.795" y1="478.57" x2="1748.56" y2="2133.28" gradientUnits="userSpaceOnUse">
<stop stop-color="white" stop-opacity="0.3"/>
<stop offset="1" stop-color="white" stop-opacity="0.6"/>
</linearGradient>
<linearGradient id="paint52_linear_281_711" x1="839.254" y1="470.663" x2="1733.44" y2="2140.42" gradientUnits="userSpaceOnUse">
<stop stop-color="white" stop-opacity="0.3"/>
<stop offset="1" stop-color="white" stop-opacity="0.6"/>
</linearGradient>
<linearGradient id="paint53_linear_281_711" x1="853.858" y1="463.006" x2="1718.25" y2="2147.27" gradientUnits="userSpaceOnUse">
<stop stop-color="white" stop-opacity="0.3"/>
<stop offset="1" stop-color="white" stop-opacity="0.6"/>
</linearGradient>
<linearGradient id="paint54_linear_281_711" x1="868.601" y1="455.602" x2="1702.99" y2="2153.82" gradientUnits="userSpaceOnUse">
<stop stop-color="white" stop-opacity="0.3"/>
<stop offset="1" stop-color="white" stop-opacity="0.6"/>
</linearGradient>
<linearGradient id="paint55_linear_281_711" x1="883.477" y1="448.453" x2="1687.68" y2="2160.08" gradientUnits="userSpaceOnUse">
<stop stop-color="white" stop-opacity="0.3"/>
<stop offset="1" stop-color="white" stop-opacity="0.6"/>
</linearGradient>
<linearGradient id="paint56_linear_281_711" x1="898.486" y1="441.56" x2="1672.32" y2="2166.04" gradientUnits="userSpaceOnUse">
<stop stop-color="white" stop-opacity="0.3"/>
<stop offset="1" stop-color="white" stop-opacity="0.6"/>
</linearGradient>
<linearGradient id="paint57_linear_281_711" x1="913.619" y1="434.927" x2="1656.91" y2="2171.72" gradientUnits="userSpaceOnUse">
<stop stop-color="white" stop-opacity="0.3"/>
<stop offset="1" stop-color="white" stop-opacity="0.6"/>
</linearGradient>
<linearGradient id="paint58_linear_281_711" x1="928.874" y1="428.555" x2="1641.46" y2="2177.11" gradientUnits="userSpaceOnUse">
<stop stop-color="white" stop-opacity="0.3"/>
<stop offset="1" stop-color="white" stop-opacity="0.6"/>
</linearGradient>
<linearGradient id="paint59_linear_281_711" x1="944.245" y1="422.446" x2="1625.98" y2="2182.21" gradientUnits="userSpaceOnUse">
<stop stop-color="white" stop-opacity="0.3"/>
<stop offset="1" stop-color="white" stop-opacity="0.6"/>
</linearGradient>
<linearGradient id="paint60_linear_281_711" x1="959.728" y1="416.602" x2="1610.47" y2="2187.02" gradientUnits="userSpaceOnUse">
<stop stop-color="white" stop-opacity="0.3"/>
<stop offset="1" stop-color="white" stop-opacity="0.6"/>
</linearGradient>
<linearGradient id="paint61_linear_281_711" x1="975.318" y1="411.025" x2="1594.94" y2="2191.56" gradientUnits="userSpaceOnUse">
<stop stop-color="white" stop-opacity="0.3"/>
<stop offset="1" stop-color="white" stop-opacity="0.6"/>
</linearGradient>
<linearGradient id="paint62_linear_281_711" x1="991.011" y1="405.716" x2="1579.39" y2="2195.81" gradientUnits="userSpaceOnUse">
<stop stop-color="white" stop-opacity="0.3"/>
<stop offset="1" stop-color="white" stop-opacity="0.6"/>
</linearGradient>
<linearGradient id="paint63_linear_281_711" x1="1006.8" y1="400.677" x2="1563.82" y2="2199.78" gradientUnits="userSpaceOnUse">
<stop stop-color="white" stop-opacity="0.3"/>
<stop offset="1" stop-color="white" stop-opacity="0.6"/>
</linearGradient>
<linearGradient id="paint64_linear_281_711" x1="1022.68" y1="395.91" x2="1548.25" y2="2203.48" gradientUnits="userSpaceOnUse">
<stop stop-color="white" stop-opacity="0.3"/>
<stop offset="1" stop-color="white" stop-opacity="0.6"/>
</linearGradient>
<linearGradient id="paint65_linear_281_711" x1="1038.65" y1="391.415" x2="1532.67" y2="2206.91" gradientUnits="userSpaceOnUse">
<stop stop-color="white" stop-opacity="0.3"/>
<stop offset="1" stop-color="white" stop-opacity="0.6"/>
</linearGradient>
<linearGradient id="paint66_linear_281_711" x1="1054.71" y1="387.195" x2="1517.1" y2="2210.06" gradientUnits="userSpaceOnUse">
<stop stop-color="white" stop-opacity="0.3"/>
<stop offset="1" stop-color="white" stop-opacity="0.6"/>
</linearGradient>
<linearGradient id="paint67_linear_281_711" x1="1070.84" y1="383.251" x2="1501.52" y2="2212.95" gradientUnits="userSpaceOnUse">
<stop stop-color="white" stop-opacity="0.3"/>
<stop offset="1" stop-color="white" stop-opacity="0.6"/>
</linearGradient>
<linearGradient id="paint68_linear_281_711" x1="1087.04" y1="379.584" x2="1485.96" y2="2215.57" gradientUnits="userSpaceOnUse">
<stop stop-color="white" stop-opacity="0.3"/>
<stop offset="1" stop-color="white" stop-opacity="0.6"/>
</linearGradient>
<linearGradient id="paint69_linear_281_711" x1="1103.32" y1="376.194" x2="1470.41" y2="2217.92" gradientUnits="userSpaceOnUse">
<stop stop-color="white" stop-opacity="0.3"/>
<stop offset="1" stop-color="white" stop-opacity="0.6"/>
</linearGradient>
<linearGradient id="paint70_linear_281_711" x1="1119.65" y1="373.085" x2="1454.87" y2="2220.02" gradientUnits="userSpaceOnUse">
<stop stop-color="white" stop-opacity="0.3"/>
<stop offset="1" stop-color="white" stop-opacity="0.6"/>
</linearGradient>
<linearGradient id="paint71_linear_281_711" x1="1136.05" y1="370.253" x2="1439.35" y2="2221.85" gradientUnits="userSpaceOnUse">
<stop stop-color="white" stop-opacity="0.3"/>
<stop offset="1" stop-color="white" stop-opacity="0.6"/>
</linearGradient>
<linearGradient id="paint72_linear_281_711" x1="1152.5" y1="367.703" x2="1423.86" y2="2223.44" gradientUnits="userSpaceOnUse">
<stop stop-color="white" stop-opacity="0.3"/>
<stop offset="1" stop-color="white" stop-opacity="0.6"/>
</linearGradient>
<linearGradient id="paint73_linear_281_711" x1="1168.99" y1="365.436" x2="1408.39" y2="2224.77" gradientUnits="userSpaceOnUse">
<stop stop-color="white" stop-opacity="0.3"/>
<stop offset="1" stop-color="white" stop-opacity="0.6"/>
</linearGradient>
<linearGradient id="paint74_linear_281_711" x1="1185.54" y1="363.45" x2="1392.95" y2="2225.84" gradientUnits="userSpaceOnUse">
<stop stop-color="white" stop-opacity="0.3"/>
<stop offset="1" stop-color="white" stop-opacity="0.6"/>
</linearGradient>
<linearGradient id="paint75_linear_281_711" x1="1202.11" y1="361.747" x2="1377.54" y2="2226.67" gradientUnits="userSpaceOnUse">
<stop stop-color="white" stop-opacity="0.3"/>
<stop offset="1" stop-color="white" stop-opacity="0.6"/>
</linearGradient>
<linearGradient id="paint76_linear_281_711" x1="1218.73" y1="360.328" x2="1362.17" y2="2227.26" gradientUnits="userSpaceOnUse">
<stop stop-color="white" stop-opacity="0.3"/>
<stop offset="1" stop-color="white" stop-opacity="0.6"/>
</linearGradient>
<linearGradient id="paint77_linear_281_711" x1="1235.36" y1="359.192" x2="1346.83" y2="2227.6" gradientUnits="userSpaceOnUse">
<stop stop-color="white" stop-opacity="0.3"/>
<stop offset="1" stop-color="white" stop-opacity="0.6"/>
</linearGradient>
<linearGradient id="paint78_linear_281_711" x1="1252.03" y1="358.343" x2="1331.53" y2="2227.7" gradientUnits="userSpaceOnUse">
<stop stop-color="white" stop-opacity="0.3"/>
<stop offset="1" stop-color="white" stop-opacity="0.6"/>
</linearGradient>
<linearGradient id="paint79_linear_281_711" x1="1268.71" y1="357.775" x2="1316.27" y2="2227.57" gradientUnits="userSpaceOnUse">
<stop stop-color="white" stop-opacity="0.3"/>
<stop offset="1" stop-color="white" stop-opacity="0.6"/>
</linearGradient>
<linearGradient id="paint80_linear_281_711" x1="1285.4" y1="357.494" x2="1301.06" y2="2227.2" gradientUnits="userSpaceOnUse">
<stop stop-color="white" stop-opacity="0.3"/>
<stop offset="1" stop-color="white" stop-opacity="0.6"/>
</linearGradient>
<linearGradient id="paint81_linear_281_711" x1="1302.1" y1="357.495" x2="1285.89" y2="2226.59" gradientUnits="userSpaceOnUse">
<stop stop-color="white" stop-opacity="0.3"/>
<stop offset="1" stop-color="white" stop-opacity="0.6"/>
</linearGradient>
<linearGradient id="paint82_linear_281_711" x1="1318.81" y1="357.783" x2="1270.77" y2="2225.76" gradientUnits="userSpaceOnUse">
<stop stop-color="white" stop-opacity="0.3"/>
<stop offset="1" stop-color="white" stop-opacity="0.6"/>
</linearGradient>
<linearGradient id="paint83_linear_281_711" x1="1335.51" y1="358.355" x2="1255.7" y2="2224.69" gradientUnits="userSpaceOnUse">
<stop stop-color="white" stop-opacity="0.3"/>
<stop offset="1" stop-color="white" stop-opacity="0.6"/>
</linearGradient>
<linearGradient id="paint84_linear_281_711" x1="1352.21" y1="359.211" x2="1240.68" y2="2223.4" gradientUnits="userSpaceOnUse">
<stop stop-color="white" stop-opacity="0.3"/>
<stop offset="1" stop-color="white" stop-opacity="0.6"/>
</linearGradient>
<linearGradient id="paint85_linear_281_711" x1="1368.89" y1="360.351" x2="1225.71" y2="2221.89" gradientUnits="userSpaceOnUse">
<stop stop-color="white" stop-opacity="0.3"/>
<stop offset="1" stop-color="white" stop-opacity="0.6"/>
</linearGradient>
<linearGradient id="paint86_linear_281_711" x1="1385.55" y1="361.776" x2="1210.79" y2="2220.15" gradientUnits="userSpaceOnUse">
<stop stop-color="white" stop-opacity="0.3"/>
<stop offset="1" stop-color="white" stop-opacity="0.6"/>
</linearGradient>
<linearGradient id="paint87_linear_281_711" x1="1402.2" y1="363.484" x2="1195.94" y2="2218.19" gradientUnits="userSpaceOnUse">
<stop stop-color="white" stop-opacity="0.3"/>
<stop offset="1" stop-color="white" stop-opacity="0.6"/>
</linearGradient>
<linearGradient id="paint88_linear_281_711" x1="1418.81" y1="365.474" x2="1181.13" y2="2216.01" gradientUnits="userSpaceOnUse">
<stop stop-color="white" stop-opacity="0.3"/>
<stop offset="1" stop-color="white" stop-opacity="0.6"/>
</linearGradient>
<linearGradient id="paint89_linear_281_711" x1="1435.39" y1="367.747" x2="1166.39" y2="2213.61" gradientUnits="userSpaceOnUse">
<stop stop-color="white" stop-opacity="0.3"/>
<stop offset="1" stop-color="white" stop-opacity="0.6"/>
</linearGradient>
<linearGradient id="paint90_linear_281_711" x1="1451.94" y1="370.302" x2="1151.7" y2="2211" gradientUnits="userSpaceOnUse">
<stop stop-color="white" stop-opacity="0.3"/>
<stop offset="1" stop-color="white" stop-opacity="0.6"/>
</linearGradient>
<linearGradient id="paint91_linear_281_711" x1="1468.44" y1="373.137" x2="1137.08" y2="2208.18" gradientUnits="userSpaceOnUse">
<stop stop-color="white" stop-opacity="0.3"/>
<stop offset="1" stop-color="white" stop-opacity="0.6"/>
</linearGradient>
<linearGradient id="paint92_linear_281_711" x1="1484.89" y1="376.253" x2="1122.51" y2="2205.14" gradientUnits="userSpaceOnUse">
<stop stop-color="white" stop-opacity="0.3"/>
<stop offset="1" stop-color="white" stop-opacity="0.6"/>
</linearGradient>
<linearGradient id="paint93_linear_281_711" x1="1501.29" y1="379.646" x2="1108.01" y2="2201.88" gradientUnits="userSpaceOnUse">
<stop stop-color="white" stop-opacity="0.3"/>
<stop offset="1" stop-color="white" stop-opacity="0.6"/>
</linearGradient>
<linearGradient id="paint94_linear_281_711" x1="1517.63" y1="383.319" x2="1093.57" y2="2198.42" gradientUnits="userSpaceOnUse">
<stop stop-color="white" stop-opacity="0.3"/>
<stop offset="1" stop-color="white" stop-opacity="0.6"/>
</linearGradient>
<linearGradient id="paint95_linear_281_711" x1="1533.91" y1="387.269" x2="1079.2" y2="2194.75" gradientUnits="userSpaceOnUse">
<stop stop-color="white" stop-opacity="0.3"/>
<stop offset="1" stop-color="white" stop-opacity="0.6"/>
</linearGradient>
<linearGradient id="paint96_linear_281_711" x1="1550.13" y1="391.494" x2="1064.89" y2="2190.87" gradientUnits="userSpaceOnUse">
<stop stop-color="white" stop-opacity="0.3"/>
<stop offset="1" stop-color="white" stop-opacity="0.6"/>
</linearGradient>
<linearGradient id="paint97_linear_281_711" x1="1566.27" y1="395.992" x2="1050.65" y2="2186.78" gradientUnits="userSpaceOnUse">
<stop stop-color="white" stop-opacity="0.3"/>
<stop offset="1" stop-color="white" stop-opacity="0.6"/>
</linearGradient>
<linearGradient id="paint98_linear_281_711" x1="1582.33" y1="400.764" x2="1036.48" y2="2182.48" gradientUnits="userSpaceOnUse">
<stop stop-color="white" stop-opacity="0.3"/>
<stop offset="1" stop-color="white" stop-opacity="0.6"/>
</linearGradient>
<linearGradient id="paint99_linear_281_711" x1="1598.31" y1="405.807" x2="1022.38" y2="2177.97" gradientUnits="userSpaceOnUse">
<stop stop-color="white" stop-opacity="0.3"/>
<stop offset="1" stop-color="white" stop-opacity="0.6"/>
</linearGradient>
<linearGradient id="paint100_linear_281_711" x1="1614.2" y1="411.121" x2="1008.34" y2="2173.26" gradientUnits="userSpaceOnUse">
<stop stop-color="white" stop-opacity="0.3"/>
<stop offset="1" stop-color="white" stop-opacity="0.6"/>
</linearGradient>
</defs>
</svg>
