<svg width="79" height="79" viewBox="0 0 79 79" fill="none" xmlns="http://www.w3.org/2000/svg">
<path d="M76.8794 35.594L42.8714 1.58604C40.9214 -0.363965 37.7234 -0.363965 35.7734 1.58604L28.6754 8.68404L37.6454 17.654C39.7514 16.952 42.0914 17.42 43.8074 19.058C45.4454 20.696 45.9134 23.114 45.2114 25.22L53.8694 33.878C55.9754 33.176 58.3934 33.644 60.0314 35.282C62.3714 37.622 62.3714 41.366 60.0314 43.706C57.6914 46.046 53.9474 46.046 51.6074 43.706C49.8134 41.912 49.4234 39.338 50.2814 37.232L42.1694 29.198V50.414C42.7154 50.726 43.2614 51.116 43.7294 51.506C46.0694 53.846 46.0694 57.59 43.7294 59.93C41.3894 62.27 37.6454 62.27 35.3054 59.93C32.9654 57.59 32.9654 53.846 35.3054 51.506C35.8514 50.96 36.5534 50.492 37.2554 50.18V28.808C36.5534 28.496 35.8514 28.028 35.3054 27.482C33.5114 25.688 33.1214 23.114 33.9794 20.93L25.1654 12.116L1.84336 35.438C-0.106641 37.388 -0.106641 40.586 1.84336 42.536L35.9294 76.622C37.8794 78.572 41.0774 78.572 43.0274 76.622L76.9574 42.692C78.8294 40.742 78.8294 37.622 76.8794 35.594Z" fill="url(#paint0_linear_215_2441)"/>
<defs>
<linearGradient id="paint0_linear_215_2441" x1="39.3663" y1="0.123535" x2="39.3663" y2="78.0845" gradientUnits="userSpaceOnUse">
<stop stop-color="white" stop-opacity="0.3"/>
<stop offset="1" stop-color="white" stop-opacity="0.6"/>
</linearGradient>
</defs>
</svg>
