<svg width="837" height="1962" viewBox="0 0 837 1962" fill="none" xmlns="http://www.w3.org/2000/svg">
<path d="M345.24 602.032C353.946 561.21 386.425 529.18 437.876 506.261C489.322 483.344 559.661 469.574 643.923 465.228C812.441 456.536 1036.53 485.546 1276.24 554.334C1515.95 623.122 1725.86 718.652 1871.45 817.48C1944.24 866.895 2000.93 917.119 2037.24 965.215C2073.54 1013.32 2089.4 1059.22 2080.69 1100.04C2071.99 1140.86 2039.51 1172.89 1988.06 1195.81C1936.61 1218.73 1866.27 1232.5 1782.01 1236.84C1613.49 1245.53 1389.4 1216.52 1149.69 1147.74C909.978 1078.95 700.074 983.419 554.486 884.591C481.69 835.175 424.999 784.952 388.698 736.855C352.393 688.753 336.535 642.853 345.24 602.032Z" stroke="url(#paint0_linear_215_2275)"/>
<path d="M348.032 589.6C357.601 549.034 390.826 517.593 442.888 495.524C494.945 473.457 565.757 460.796 650.335 457.743C819.486 451.637 1043.58 483.963 1282.52 556.185C1521.46 628.408 1729.96 726.839 1873.91 827.582C1945.88 877.955 2001.69 928.889 2037.1 977.392C2072.52 1025.9 2087.47 1071.91 2077.9 1112.47C2068.33 1153.04 2035.11 1184.48 1983.05 1206.55C1930.99 1228.61 1860.18 1241.28 1775.6 1244.33C1606.45 1250.43 1382.35 1218.11 1143.41 1145.89C904.471 1073.66 695.969 975.233 552.024 874.49C480.049 824.117 424.239 773.182 388.83 724.678C353.418 676.169 338.462 630.166 348.032 589.6Z" stroke="url(#paint1_linear_215_2275)"/>
<path d="M351.086 577.247C361.517 536.949 395.478 506.107 448.135 484.895C500.785 463.685 572.049 452.137 656.917 450.377C826.649 446.858 1050.68 482.49 1288.78 558.125C1526.88 633.759 1733.91 735.062 1876.17 837.69C1947.3 889.005 2002.21 940.634 2036.72 989.531C2071.23 1038.43 2085.28 1084.52 2074.85 1124.82C2064.42 1165.12 2030.46 1195.96 1977.8 1217.18C1925.15 1238.39 1853.88 1249.93 1769.02 1251.69C1599.28 1255.21 1375.25 1219.58 1137.15 1143.95C899.057 1068.31 692.02 967.008 549.761 864.381C478.63 813.065 423.719 761.436 389.214 712.54C354.704 663.638 340.656 617.546 351.086 577.247Z" stroke="url(#paint2_linear_215_2275)"/>
<path d="M354.403 564.978C365.692 524.96 400.378 494.727 453.614 474.377C506.843 454.03 578.536 443.598 663.669 443.133C833.931 442.202 1057.83 481.131 1295.01 560.154C1532.19 639.178 1737.7 743.322 1878.23 847.802C1948.5 900.044 2002.49 952.353 2036.09 1001.63C2069.68 1050.91 2082.82 1097.07 2071.53 1137.09C2060.24 1177.11 2025.55 1207.34 1972.32 1227.69C1919.09 1248.04 1847.4 1258.47 1762.26 1258.94C1592 1259.87 1368.1 1220.94 1130.92 1141.92C893.738 1062.89 688.229 958.749 547.701 854.269C477.435 802.027 423.439 749.718 389.847 700.444C356.252 651.164 343.115 604.997 354.403 564.978Z" stroke="url(#paint3_linear_215_2275)"/>
<path d="M357.982 552.797C370.124 513.07 405.527 483.454 459.325 463.974C513.116 444.496 585.217 435.186 670.589 436.014C841.327 437.672 1065.03 479.883 1301.22 562.272C1537.42 644.661 1741.33 751.614 1880.09 857.916C1949.47 911.068 2002.53 964.04 2035.2 1013.68C2067.87 1063.32 2080.09 1109.55 2067.95 1149.27C2055.81 1189 2020.41 1218.62 1966.61 1238.1C1912.82 1257.57 1840.72 1266.89 1755.34 1266.06C1584.6 1264.4 1360.9 1222.19 1124.71 1139.8C888.518 1057.41 684.599 950.457 545.844 844.156C476.464 791.003 423.4 738.031 390.733 688.395C358.062 638.752 345.84 592.524 357.982 552.797Z" stroke="url(#paint4_linear_215_2275)"/>
<path d="M361.822 540.706C374.814 501.283 410.921 472.293 465.265 453.689C519.602 435.086 592.089 426.898 677.674 429.02C848.839 433.266 1072.28 478.749 1307.41 564.478C1542.54 650.207 1744.8 759.936 1881.74 868.026C1950.21 922.073 2002.33 975.693 2034.07 1025.68C2065.8 1075.67 2077.1 1121.94 2064.11 1161.36C2051.12 1200.79 2015.01 1229.78 1960.67 1248.38C1906.33 1266.99 1833.84 1275.17 1748.26 1273.05C1577.09 1268.8 1353.66 1223.32 1118.53 1137.59C883.395 1051.86 681.131 942.135 544.191 834.044C475.719 779.998 423.601 726.379 391.868 676.395C360.131 626.405 348.829 580.129 361.822 540.706Z" stroke="url(#paint5_linear_215_2275)"/>
<path d="M365.92 528.71C379.759 489.602 416.561 461.247 471.434 443.523C526.3 425.802 599.151 418.739 684.922 422.155C856.46 428.987 1079.56 477.727 1313.56 566.77C1547.56 655.813 1748.11 768.285 1883.19 878.131C1950.74 933.056 2001.89 987.306 2032.68 1037.62C2063.47 1087.94 2073.85 1134.25 2060.01 1173.36C2046.17 1212.47 2009.37 1240.82 1954.5 1258.55C1899.63 1276.27 1826.78 1283.33 1741.01 1279.91C1569.47 1273.08 1346.37 1224.34 1112.37 1135.3C878.374 1046.26 677.825 933.784 542.741 823.938C475.197 769.013 424.044 714.763 393.254 664.447C362.461 614.125 352.081 567.817 365.92 528.71Z" stroke="url(#paint6_linear_215_2275)"/>
<path d="M370.276 516.811C384.958 478.031 422.442 450.32 477.828 433.483C533.206 416.648 606.398 410.713 692.33 415.421C864.189 424.837 1086.89 476.819 1319.68 569.149C1552.48 661.479 1751.25 776.66 1884.44 888.229C1951.03 944.015 2001.21 998.879 2031.04 1049.51C2060.88 1100.15 2070.34 1146.48 2055.66 1185.26C2040.97 1224.04 2003.49 1251.75 1948.1 1268.59C1892.73 1285.42 1819.53 1291.36 1733.6 1286.65C1561.74 1277.23 1339.04 1225.25 1106.25 1132.92C873.454 1040.59 674.68 925.409 541.494 813.84C474.9 758.054 424.726 703.189 394.89 652.556C365.05 601.917 355.595 555.591 370.276 516.811Z" stroke="url(#paint7_linear_215_2275)"/>
<path d="M374.89 505.015C390.41 466.574 428.565 439.516 484.447 423.57C540.321 407.626 613.832 402.82 699.899 408.819C872.026 420.818 1094.26 476.026 1325.78 571.615C1557.3 667.204 1754.23 785.058 1885.48 898.315C1951.1 954.945 2000.28 1010.41 2029.16 1061.34C2058.04 1112.28 2066.56 1158.61 2051.04 1197.05C2035.52 1235.5 1997.37 1262.55 1941.49 1278.5C1885.61 1294.44 1812.1 1299.25 1726.03 1293.25C1553.91 1281.25 1331.68 1226.04 1100.16 1130.45C868.638 1034.87 671.701 917.011 540.454 803.754C474.829 747.124 425.649 691.662 396.775 640.728C367.897 589.787 359.371 543.455 374.89 505.015Z" stroke="url(#paint8_linear_215_2275)"/>
<path d="M379.759 493.324C396.112 455.234 434.927 428.837 491.287 413.788C547.64 398.74 621.448 395.064 707.623 402.353C879.966 416.929 1101.66 475.348 1331.83 574.166C1562.01 672.984 1757.05 793.476 1886.32 908.387C1950.95 965.844 1999.12 1021.89 2027.03 1073.11C2054.93 1124.33 2062.53 1170.66 2046.17 1208.75C2029.82 1246.83 1991.01 1273.23 1934.65 1288.28C1878.29 1303.33 1804.49 1307.01 1718.31 1299.72C1545.97 1285.14 1324.28 1226.72 1094.1 1127.9C863.927 1029.09 668.886 908.594 539.617 793.684C474.981 736.226 426.812 680.183 398.908 628.963C371.001 577.736 363.407 531.413 379.759 493.324Z" stroke="url(#paint9_linear_215_2275)"/>
<path d="M384.881 481.742C402.062 444.015 441.525 418.286 498.347 404.138C555.161 389.991 629.244 387.448 715.5 396.023C888.007 413.173 1109.09 474.783 1337.85 576.8C1566.61 678.818 1759.7 801.911 1886.95 918.441C1950.57 976.708 1997.72 1033.31 2024.64 1084.8C2051.57 1136.3 2058.23 1182.6 2041.05 1220.33C2023.87 1258.06 1984.41 1283.78 1927.59 1297.93C1870.77 1312.08 1796.69 1314.62 1710.43 1306.05C1537.93 1288.9 1316.84 1227.29 1088.08 1125.27C859.321 1023.25 666.236 900.159 538.986 783.629C475.359 725.363 428.213 668.756 401.289 617.266C374.362 565.769 367.7 519.47 384.881 481.742Z" stroke="url(#paint10_linear_215_2275)"/>
<path d="M390.257 470.273C408.26 432.92 448.359 407.867 505.625 394.623C562.884 381.382 637.218 379.971 723.53 389.831C896.148 409.549 1116.56 474.331 1343.83 579.517C1571.11 684.704 1762.18 810.361 1887.37 928.474C1949.97 987.532 1996.08 1044.68 2022.01 1096.43C2047.95 1148.18 2053.68 1194.44 2035.68 1231.8C2017.67 1269.15 1977.57 1294.2 1920.31 1307.45C1863.05 1320.69 1788.71 1322.1 1702.4 1312.24C1529.78 1292.52 1309.37 1227.74 1082.1 1122.55C854.824 1017.37 663.753 891.709 538.56 773.596C475.961 714.537 429.855 657.384 403.919 605.639C377.98 553.887 372.253 507.626 390.257 470.273Z" stroke="url(#paint11_linear_215_2275)"/>
<path d="M395.882 458.919C414.704 421.951 455.427 397.581 513.119 385.248C570.805 372.916 645.368 372.638 731.709 383.779C904.386 406.059 1124.06 473.995 1349.78 582.318C1575.5 690.64 1764.5 818.822 1887.59 938.482C1949.14 998.315 1994.2 1056 2019.14 1107.98C2044.08 1159.97 2048.87 1206.18 2030.05 1243.15C2011.23 1280.12 1970.51 1304.49 1912.81 1316.82C1855.13 1329.15 1780.57 1329.43 1694.22 1318.29C1521.55 1296.01 1301.88 1228.07 1076.16 1119.75C850.435 1011.43 661.438 883.246 538.34 763.586C476.789 703.754 431.734 646.072 406.794 594.088C381.85 542.097 377.061 495.888 395.882 458.919Z" stroke="url(#paint12_linear_215_2275)"/>
<path d="M401.757 447.685C421.391 411.113 462.725 387.435 520.826 376.014C578.921 364.595 653.691 365.451 740.035 377.869C912.718 402.705 1131.58 473.774 1355.68 585.199C1579.78 696.625 1766.64 827.293 1887.61 948.465C1948.09 1009.05 1992.08 1067.25 2016.02 1119.45C2039.96 1171.67 2043.81 1217.81 2024.18 1254.38C2004.54 1290.95 1963.21 1314.63 1905.11 1326.05C1847.01 1337.47 1772.24 1336.62 1685.9 1324.2C1513.22 1299.36 1294.35 1228.29 1070.26 1116.87C846.157 1005.44 659.291 874.774 538.325 753.602C477.84 693.015 433.852 634.822 409.914 582.615C385.974 530.401 382.124 484.257 401.757 447.685Z" stroke="url(#paint13_linear_215_2275)"/>
<path d="M407.878 436.575C428.317 400.41 470.251 377.431 528.744 366.927C587.23 356.424 662.183 358.413 748.503 372.105C921.139 399.49 1139.13 473.668 1361.54 588.164C1583.94 702.659 1768.62 835.774 1887.42 958.419C1946.82 1019.74 1989.73 1078.43 2012.65 1130.84C2035.58 1183.26 2038.49 1229.33 2018.05 1265.49C1997.62 1301.66 1955.68 1324.64 1897.19 1335.14C1838.7 1345.64 1763.75 1343.66 1677.43 1329.96C1504.79 1302.58 1286.81 1228.4 1064.4 1113.91C841.991 999.41 657.311 866.295 538.515 743.65C479.115 682.325 436.207 623.639 413.28 571.224C390.35 518.804 387.439 472.739 407.878 436.575Z" stroke="url(#paint14_linear_215_2275)"/>
<path d="M414.246 425.59C435.485 389.844 478.004 367.571 536.871 357.987C595.73 348.404 670.844 351.523 757.115 366.486C929.652 396.41 1146.7 473.678 1367.35 591.207C1588 708.737 1770.43 844.257 1887.02 968.339C1945.32 1030.38 1987.14 1089.55 2009.04 1142.15C2030.96 1194.76 2032.93 1240.73 2011.69 1276.48C1990.45 1312.23 1947.93 1334.5 1889.06 1344.08C1830.2 1353.67 1755.09 1350.55 1668.82 1335.58C1496.28 1305.66 1279.23 1228.39 1058.59 1110.86C837.937 993.332 655.502 857.812 538.911 733.73C480.613 671.687 438.799 612.524 416.889 559.919C394.977 507.307 393.006 461.336 414.246 425.59Z" stroke="url(#paint15_linear_215_2275)"/>
<path d="M420.855 414.735C442.888 379.417 485.981 357.857 545.203 349.196C604.419 340.535 679.67 344.787 765.865 361.015C938.25 393.469 1154.29 473.801 1373.11 594.33C1591.93 714.858 1772.07 852.743 1886.42 978.224C1943.6 1040.97 1984.31 1100.59 2005.19 1153.37C2026.08 1206.15 2027.11 1252.02 2005.08 1287.33C1983.04 1322.65 1939.95 1344.21 1880.73 1352.87C1821.51 1361.53 1746.26 1357.28 1660.07 1341.05C1487.68 1308.6 1271.64 1228.27 1052.82 1107.74C833.998 987.211 653.862 849.326 539.512 723.845C482.336 661.103 441.626 601.483 420.741 548.702C399.853 495.916 398.823 450.052 420.855 414.735Z" stroke="url(#paint16_linear_215_2275)"/>
<path d="M427.707 404.013C450.526 369.136 494.18 348.294 553.74 340.557C613.293 332.822 688.659 338.205 774.752 355.693C946.932 390.668 1161.9 474.04 1378.83 597.531C1595.76 721.021 1773.54 861.228 1885.61 988.069C1941.65 1051.49 1981.24 1111.55 2001.1 1164.49C2020.96 1217.44 2021.04 1263.18 1998.23 1298.06C1975.41 1332.93 1931.75 1353.78 1872.19 1361.51C1812.64 1369.25 1737.27 1363.86 1651.18 1346.38C1479 1311.4 1264.03 1228.03 1047.1 1104.54C830.174 981.048 652.393 840.842 540.319 714C484.28 650.578 444.688 590.518 424.833 537.578C404.976 484.633 404.887 438.891 427.707 404.013Z" stroke="url(#paint17_linear_215_2275)"/>
<path d="M434.798 393.427C458.397 359 502.598 338.883 562.477 332.074C622.35 325.267 697.808 331.777 783.772 350.52C955.695 388.006 1169.52 474.392 1384.5 600.807C1599.47 727.222 1774.84 869.709 1884.6 997.872C1939.49 1061.96 1977.95 1122.44 1996.77 1175.52C2015.59 1228.61 2014.74 1274.22 1991.14 1308.64C1967.54 1343.07 1923.34 1363.19 1863.46 1369.99C1803.58 1376.8 1728.13 1370.29 1642.16 1351.55C1470.24 1314.06 1256.41 1227.68 1041.44 1101.26C826.467 974.846 651.094 832.359 541.33 704.196C486.446 640.112 447.984 579.631 429.166 526.549C410.346 473.461 411.199 427.854 434.798 393.427Z" stroke="url(#paint18_linear_215_2275)"/>
<path d="M442.126 382.98C466.498 349.014 511.232 329.629 571.412 323.75C631.586 317.872 707.113 325.51 792.922 345.502C964.536 385.486 1177.16 474.86 1390.11 604.161C1603.06 733.462 1775.97 878.186 1883.39 1007.63C1937.1 1072.36 1974.42 1133.24 1992.2 1186.45C2009.97 1239.66 2008.18 1285.12 1983.81 1319.09C1959.44 1353.06 1914.7 1372.44 1854.52 1378.32C1794.35 1384.2 1718.82 1376.56 1633.01 1356.57C1461.4 1316.58 1248.77 1227.21 1035.82 1097.91C822.877 968.606 649.966 823.883 542.545 694.437C488.833 629.712 451.513 568.828 433.737 515.619C415.96 462.404 417.753 416.946 442.126 382.98Z" stroke="url(#paint19_linear_215_2275)"/>
<path d="M449.689 372.676C474.827 339.181 520.081 320.534 580.543 315.587C641 310.64 716.573 319.402 802.202 340.637C973.454 383.107 1184.81 475.444 1395.67 607.591C1606.53 739.738 1776.92 886.653 1881.97 1017.34C1934.49 1082.69 1970.66 1143.96 1987.39 1197.28C2004.12 1250.6 2001.38 1295.9 1976.24 1329.39C1951.11 1362.89 1905.85 1381.54 1845.39 1386.48C1784.93 1391.43 1709.36 1382.67 1623.73 1361.43C1452.48 1318.96 1241.12 1226.63 1030.26 1094.48C819.407 962.331 649.009 815.416 543.965 684.727C491.441 619.38 455.274 558.111 438.546 504.792C421.816 451.467 424.551 406.172 449.689 372.676Z" stroke="url(#paint20_linear_215_2275)"/>
<path d="M457.484 362.518C483.38 329.504 529.141 311.6 589.868 307.586C650.588 303.573 726.184 313.455 811.606 335.927C982.445 380.871 1192.47 476.14 1401.17 611.094C1609.88 746.047 1777.71 895.11 1880.34 1027C1931.66 1092.95 1966.67 1154.59 1982.34 1208C1998.02 1261.42 1994.34 1306.54 1968.45 1339.55C1942.55 1372.56 1896.79 1390.47 1836.07 1394.48C1775.34 1398.5 1699.75 1388.61 1614.33 1366.14C1443.49 1321.2 1233.46 1225.93 1024.76 1090.98C816.056 956.022 648.225 806.958 545.589 675.065C494.27 609.117 459.267 547.483 443.592 494.07C427.915 440.651 431.588 395.532 457.484 362.518Z" stroke="url(#paint21_linear_215_2275)"/>
<path d="M465.51 352.509C492.156 319.987 538.409 302.831 599.382 299.751C660.349 296.672 735.944 307.673 821.133 331.375C991.506 378.779 1200.14 476.952 1406.62 614.67C1613.11 752.389 1778.32 903.554 1878.52 1036.61C1928.62 1103.14 1962.45 1165.12 1977.06 1218.61C1991.68 1272.11 1987.07 1317.04 1960.42 1349.56C1933.78 1382.08 1887.52 1399.24 1826.55 1402.32C1765.58 1405.4 1689.99 1394.4 1604.8 1370.69C1434.43 1323.29 1225.8 1225.12 1019.31 1087.4C812.826 949.68 647.613 798.515 547.416 665.459C497.317 598.929 463.488 536.949 448.87 483.457C434.251 429.96 438.863 385.032 465.51 352.509Z" stroke="url(#paint22_linear_215_2275)"/>
<path d="M473.763 342.652C501.151 310.63 547.882 294.228 609.082 292.084C670.276 289.939 745.849 302.056 830.779 326.981C1000.63 376.83 1207.8 477.877 1412.01 618.318C1616.22 758.76 1778.76 911.981 1876.49 1046.16C1925.35 1113.25 1958 1175.56 1971.55 1229.11C1985.11 1282.67 1979.56 1327.4 1952.17 1359.42C1924.78 1391.44 1878.05 1407.84 1816.85 1409.99C1755.66 1412.13 1680.08 1400.01 1595.15 1375.09C1425.3 1325.24 1218.13 1224.19 1013.92 1083.75C809.717 943.309 647.173 790.088 549.446 655.909C500.581 588.817 467.938 526.509 454.382 472.956C440.825 419.397 446.375 374.673 473.763 342.652Z" stroke="url(#paint23_linear_215_2275)"/>
<path d="M482.241 332.949C510.363 301.439 557.559 285.796 618.967 284.588C680.37 283.379 755.896 296.606 840.541 322.746C1009.83 375.024 1215.47 478.915 1417.34 622.037C1619.2 765.159 1779.03 920.389 1874.26 1055.65C1921.87 1123.28 1953.32 1185.9 1965.81 1239.5C1978.3 1293.1 1971.81 1337.61 1943.69 1369.12C1915.57 1400.63 1868.37 1416.27 1806.97 1417.48C1745.56 1418.69 1670.04 1405.46 1585.39 1379.32C1416.11 1327.04 1210.46 1223.15 1008.6 1080.03C806.731 936.91 646.904 781.679 551.677 646.418C504.062 578.786 472.614 516.169 460.125 462.571C447.634 408.967 454.119 364.46 482.241 332.949Z" stroke="url(#paint24_linear_215_2275)"/>
<path d="M490.942 323.405C519.789 292.415 567.435 277.535 629.033 277.263C690.626 276.99 766.083 291.325 850.417 318.672C1019.08 373.365 1223.14 480.067 1422.6 625.826C1622.06 771.585 1779.12 928.777 1871.82 1065.08C1918.17 1133.23 1948.42 1196.14 1959.84 1249.77C1971.26 1303.4 1963.84 1347.67 1934.99 1378.66C1906.14 1409.65 1858.5 1424.53 1796.9 1424.81C1735.31 1425.08 1659.85 1410.74 1575.51 1383.4C1406.85 1328.7 1202.79 1222 1003.33 1076.24C803.87 930.484 646.808 773.292 554.11 636.99C507.759 568.837 477.516 505.93 466.097 452.303C454.676 398.671 462.094 354.395 490.942 323.405Z" stroke="url(#paint25_linear_215_2275)"/>
<path d="M499.863 314.021C529.427 283.561 577.508 269.45 639.277 270.114C701.041 270.778 776.406 286.216 860.404 314.761C1028.4 371.852 1230.81 481.333 1427.8 629.684C1624.8 778.035 1779.05 937.142 1869.19 1074.44C1914.26 1143.09 1943.29 1206.27 1953.64 1259.91C1963.98 1313.56 1955.63 1357.59 1926.07 1388.05C1896.51 1418.51 1848.42 1432.62 1786.66 1431.96C1724.89 1431.29 1649.53 1415.85 1565.53 1387.31C1397.54 1330.22 1195.12 1220.74 998.128 1072.39C801.132 924.035 646.885 764.929 556.743 627.628C511.671 558.975 482.642 495.797 472.296 442.157C461.949 388.513 470.299 344.481 499.863 314.021Z" stroke="url(#paint26_linear_215_2275)"/>
<path d="M509.001 304.801C539.273 274.879 587.775 261.542 649.697 263.142C711.613 264.741 786.862 281.277 870.499 311.013C1037.77 370.483 1238.47 482.71 1432.94 633.608C1627.41 784.506 1778.8 945.478 1866.36 1083.74C1910.14 1152.87 1937.94 1216.3 1947.21 1269.93C1956.48 1323.57 1947.2 1367.35 1916.93 1397.27C1886.66 1427.19 1838.16 1440.53 1776.24 1438.93C1714.32 1437.33 1639.07 1420.79 1555.43 1391.06C1388.17 1331.59 1187.46 1219.36 992.992 1068.46C798.52 917.562 647.134 756.591 559.577 618.333C515.798 549.202 487.992 485.772 478.722 432.136C469.451 378.495 478.729 334.722 509.001 304.801Z" stroke="url(#paint27_linear_215_2275)"/>
<path d="M518.354 295.747C549.324 266.374 598.232 253.813 660.287 256.348C722.337 258.883 797.448 276.513 880.697 307.43C1047.19 369.262 1246.12 484.2 1438.01 637.6C1629.9 790.999 1778.38 953.787 1863.32 1092.96C1905.8 1162.55 1932.37 1226.21 1940.56 1279.83C1948.75 1333.45 1938.55 1376.95 1907.58 1406.32C1876.61 1435.7 1827.7 1448.26 1765.65 1445.72C1703.6 1443.19 1628.48 1425.56 1545.24 1394.64C1378.74 1332.81 1179.81 1217.87 987.923 1064.47C796.035 911.071 647.555 748.282 562.609 609.109C520.135 539.52 493.56 475.859 485.37 422.242C477.179 368.622 487.383 325.12 518.354 295.747Z" stroke="url(#paint28_linear_215_2275)"/>
<path d="M527.918 286.863C559.578 258.047 608.878 246.267 671.047 249.737C733.211 253.207 808.161 271.924 890.997 304.012C1056.67 368.187 1253.77 485.803 1443.01 641.656C1632.26 797.51 1777.78 962.065 1860.09 1102.11C1901.25 1172.14 1926.58 1236.01 1933.69 1289.59C1940.8 1343.17 1929.68 1386.39 1898.02 1415.21C1866.36 1444.02 1817.06 1455.8 1754.89 1452.33C1692.72 1448.86 1617.77 1430.15 1534.94 1398.06C1369.27 1333.88 1172.17 1216.27 982.921 1060.41C793.675 904.561 648.148 740.005 565.839 599.959C524.684 529.934 499.348 466.06 492.24 412.48C485.131 358.896 496.258 315.679 527.918 286.863Z" stroke="url(#paint29_linear_215_2275)"/>
<path d="M537.691 278.15C570.03 249.9 619.707 238.903 681.971 243.307C744.231 247.711 818.997 267.51 901.396 300.76C1066.19 367.259 1261.4 487.515 1447.94 645.775C1634.49 804.036 1777.02 970.308 1856.67 1111.18C1896.49 1181.62 1920.58 1245.69 1926.6 1299.22C1932.63 1352.75 1920.58 1395.67 1888.24 1423.92C1855.9 1452.17 1806.23 1463.17 1743.96 1458.76C1681.7 1454.36 1606.94 1434.56 1524.54 1401.31C1359.74 1334.81 1164.54 1214.55 977.991 1056.29C791.445 898.034 648.913 731.761 569.267 590.885C529.443 520.445 505.354 456.378 499.329 402.85C493.304 349.32 505.351 306.399 537.691 278.15Z" stroke="url(#paint30_linear_215_2275)"/>
<path d="M547.669 269.612C580.679 241.937 630.716 231.728 693.057 237.064C755.394 242.4 829.954 263.275 911.889 297.677C1075.76 366.479 1269.01 489.338 1452.8 649.957C1636.59 810.576 1776.08 978.514 1853.04 1120.18C1891.52 1191.01 1914.36 1255.25 1919.3 1308.71C1924.23 1362.17 1911.27 1404.78 1878.26 1432.46C1845.25 1460.13 1795.22 1470.34 1732.88 1465C1670.54 1459.67 1595.98 1438.79 1514.04 1404.39C1350.18 1335.59 1156.92 1212.73 973.13 1052.11C789.341 891.492 649.851 723.554 572.891 581.891C534.41 511.057 511.575 446.817 506.636 393.358C501.697 339.897 514.66 297.287 547.669 269.612Z" stroke="url(#paint31_linear_215_2275)"/>
<path d="M557.85 261.251C591.52 234.159 641.903 224.741 704.302 231.007C766.696 237.274 841.027 259.219 922.474 294.762C1085.36 365.846 1276.61 491.273 1457.59 654.202C1638.57 817.13 1774.97 986.684 1849.22 1129.09C1886.35 1200.3 1907.92 1264.69 1911.77 1318.06C1915.63 1371.44 1901.75 1413.73 1868.08 1440.82C1834.41 1467.91 1784.03 1477.33 1721.63 1471.06C1659.24 1464.8 1584.91 1442.85 1503.46 1407.31C1340.57 1336.22 1149.32 1210.8 968.344 1047.87C787.367 884.939 650.959 715.386 576.709 572.979C539.582 501.773 518.009 437.378 514.157 384.005C510.306 330.629 524.181 288.343 557.85 261.251Z" stroke="url(#paint32_linear_215_2275)"/>
<path d="M568.231 253.069C602.551 226.569 653.265 217.944 715.701 225.14C778.135 232.335 852.213 255.343 933.148 292.016C1095.01 365.361 1284.19 493.316 1462.3 658.505C1640.41 823.693 1773.69 994.81 1845.21 1137.92C1880.97 1209.47 1901.28 1274 1904.04 1327.27C1906.8 1380.55 1892.02 1422.5 1857.7 1449C1823.38 1475.5 1772.67 1484.12 1710.23 1476.93C1647.8 1469.73 1573.72 1446.73 1492.78 1410.05C1330.92 1336.71 1141.74 1208.75 963.632 1043.56C785.523 878.375 652.239 707.259 580.72 564.151C544.961 492.595 524.656 428.065 521.893 374.794C519.13 321.52 533.912 279.57 568.231 253.069Z" stroke="url(#paint33_linear_215_2275)"/>
<path d="M578.809 245.07C613.768 219.169 664.798 211.341 727.254 219.463C789.707 227.585 863.51 251.649 943.907 289.441C1104.7 365.024 1291.75 495.468 1466.94 662.867C1642.12 830.265 1772.24 1002.89 1841.01 1146.66C1875.39 1218.54 1894.42 1283.19 1896.1 1336.34C1897.77 1389.5 1882.08 1431.1 1847.12 1457C1812.17 1482.9 1761.14 1490.73 1698.68 1482.61C1636.23 1474.48 1562.42 1450.42 1482.03 1412.63C1321.24 1337.04 1134.18 1206.6 958.996 1039.2C783.809 871.803 653.689 699.175 584.926 555.41C550.543 483.526 531.511 418.882 529.838 365.729C528.165 312.573 543.85 270.972 578.809 245.07Z" stroke="url(#paint34_linear_215_2275)"/>
<path d="M589.579 237.256C625.167 211.962 676.496 204.933 738.952 213.979C801.406 223.025 874.913 248.137 954.748 287.037C1114.41 364.835 1299.28 497.73 1471.5 667.287C1643.71 836.845 1770.62 1010.93 1836.61 1155.31C1869.61 1227.5 1887.36 1292.24 1887.94 1345.26C1888.53 1398.28 1871.94 1439.52 1836.35 1464.81C1800.77 1490.11 1749.44 1497.14 1686.98 1488.09C1624.53 1479.04 1551.02 1453.93 1471.19 1415.03C1311.52 1337.23 1126.65 1204.34 954.437 1034.78C782.225 865.225 655.31 691.139 589.321 546.761C556.326 474.57 538.574 409.83 537.991 356.811C537.407 303.789 553.991 262.55 589.579 237.256Z" stroke="url(#paint35_linear_215_2275)"/>
<path d="M600.539 229.629C636.745 204.951 688.359 198.722 750.797 208.69C813.232 218.657 886.419 244.81 965.667 284.805C1124.16 364.795 1306.79 500.099 1475.98 671.763C1645.16 843.427 1768.83 1018.92 1832.03 1163.87C1863.62 1236.34 1880.09 1301.16 1879.58 1354.03C1879.08 1406.9 1861.6 1447.76 1825.39 1472.44C1789.19 1497.12 1737.57 1503.35 1675.14 1493.38C1612.7 1483.41 1539.51 1457.26 1460.26 1417.26C1301.77 1337.27 1119.14 1201.97 949.956 1030.31C780.772 858.643 657.1 683.151 593.906 538.204C562.309 465.729 545.843 400.914 546.349 348.045C546.856 295.173 564.333 254.308 600.539 229.629Z" stroke="url(#paint36_linear_215_2275)"/>
<path d="M611.686 222.191C648.499 198.135 700.382 192.709 762.782 203.595C825.18 214.481 898.025 241.666 976.663 282.746C1133.94 364.902 1314.27 502.574 1480.38 676.292C1646.48 850.011 1766.87 1026.85 1827.25 1172.33C1857.44 1245.06 1872.62 1309.94 1871.02 1362.64C1869.43 1415.34 1851.06 1455.82 1814.25 1479.88C1777.43 1503.93 1725.55 1509.36 1663.15 1498.47C1600.75 1487.59 1527.91 1460.4 1449.27 1419.32C1292 1337.17 1111.66 1199.5 945.556 1025.78C779.451 852.057 659.06 675.214 598.681 529.742C568.49 457.004 553.315 392.134 554.911 339.43C556.508 286.726 574.873 246.247 611.686 222.191Z" stroke="url(#paint37_linear_215_2275)"/>
<path d="M623.017 214.944C660.426 191.518 712.56 186.898 774.903 198.698C837.245 210.499 909.727 238.71 987.731 280.86C1143.73 365.158 1321.72 505.155 1484.7 680.876C1647.67 856.597 1764.75 1034.74 1822.29 1180.69C1851.07 1253.67 1864.95 1318.58 1862.26 1371.1C1859.57 1423.62 1840.33 1463.7 1802.92 1487.12C1765.51 1510.55 1713.37 1515.17 1651.03 1503.37C1588.69 1491.57 1516.21 1463.36 1438.2 1421.21C1282.2 1336.91 1104.21 1196.91 941.237 1021.19C778.263 845.472 661.189 667.331 603.642 521.378C574.869 448.4 560.987 383.493 563.673 330.972C566.359 278.449 585.608 238.37 623.017 214.944Z" stroke="url(#paint38_linear_215_2275)"/>
<path d="M634.527 207.892C672.521 185.103 724.892 181.288 787.159 194C849.426 206.712 921.522 235.939 998.867 279.148C1153.55 365.562 1329.14 507.843 1488.93 685.512C1648.73 863.181 1762.45 1042.57 1817.14 1188.96C1844.49 1262.15 1857.08 1327.07 1853.3 1379.4C1849.53 1431.72 1829.4 1471.39 1791.41 1494.18C1753.41 1516.97 1701.04 1520.78 1638.77 1508.07C1576.51 1495.36 1504.41 1466.13 1427.07 1422.92C1272.38 1336.51 1096.8 1194.23 937.001 1016.56C777.206 838.888 663.485 659.503 608.789 513.114C581.441 439.918 568.858 374.995 572.633 322.672C576.407 270.348 596.532 230.681 634.527 207.892Z" stroke="url(#paint39_linear_215_2275)"/>
<path d="M646.212 201.035C684.78 178.891 737.372 175.883 799.545 189.503C861.717 203.122 933.404 233.356 1010.07 277.61C1163.39 366.115 1336.52 510.634 1493.08 690.197C1649.65 869.761 1759.98 1050.34 1811.81 1197.12C1837.73 1270.51 1849.01 1335.43 1844.15 1387.54C1839.28 1439.64 1818.29 1478.89 1779.72 1501.03C1741.15 1523.18 1688.56 1526.19 1626.39 1512.57C1564.22 1498.95 1492.53 1468.71 1415.87 1424.46C1262.54 1335.96 1089.42 1191.43 932.849 1011.87C776.282 832.309 665.949 651.734 614.12 504.954C588.205 431.562 576.925 366.643 581.787 314.534C586.649 262.425 607.645 223.18 646.212 201.035Z" stroke="url(#paint40_linear_215_2275)"/>
<path d="M658.071 194.376C697.2 172.883 749.997 170.683 812.056 185.206C874.115 199.729 945.372 230.961 1021.33 276.246C1173.24 366.814 1343.86 513.53 1497.15 694.932C1650.44 876.335 1757.35 1058.04 1806.3 1205.17C1830.77 1278.74 1840.75 1343.63 1834.8 1395.51C1828.85 1447.39 1806.99 1486.2 1767.86 1507.69C1728.73 1529.19 1675.94 1531.39 1613.88 1516.86C1551.82 1502.34 1480.56 1471.11 1404.6 1425.82C1252.69 1335.25 1082.07 1188.54 928.782 1007.14C775.492 825.734 668.58 644.025 619.633 496.898C595.16 423.332 585.186 358.437 591.133 306.558C597.081 254.679 618.942 215.87 658.071 194.376Z" stroke="url(#paint41_linear_215_2275)"/>
<path d="M670.099 187.918C709.777 167.082 762.763 165.692 824.689 181.113C886.616 196.535 957.423 228.755 1032.65 275.058C1183.11 367.661 1351.16 516.528 1501.13 699.715C1651.1 882.901 1754.56 1065.69 1800.61 1213.12C1823.63 1286.83 1832.3 1351.69 1825.26 1403.32C1818.23 1454.95 1795.51 1493.31 1755.84 1514.15C1716.16 1534.99 1663.17 1536.38 1601.24 1520.96C1539.32 1505.53 1468.51 1473.31 1393.28 1427.01C1242.82 1334.41 1074.77 1185.54 924.802 1002.35C774.834 819.167 671.375 636.38 625.326 488.95C602.302 415.234 593.638 350.382 600.67 298.749C607.702 247.116 630.42 208.754 670.099 187.918Z" stroke="url(#paint42_linear_215_2275)"/>
<path d="M682.291 181.661C722.507 161.49 775.665 160.908 837.441 177.224C899.217 193.54 969.55 226.739 1044.03 274.045C1192.98 368.655 1358.43 519.628 1505.03 704.543C1651.62 889.458 1751.6 1073.27 1794.74 1220.96C1816.3 1294.8 1823.66 1359.59 1815.54 1410.96C1807.43 1462.33 1783.86 1500.24 1743.64 1520.41C1703.43 1540.58 1650.27 1541.16 1588.49 1524.84C1526.72 1508.53 1456.38 1475.33 1381.9 1428.02C1232.95 1333.41 1067.51 1182.44 920.909 997.525C774.309 812.61 674.336 628.8 631.199 481.113C609.63 407.268 602.278 342.479 610.392 291.108C618.505 239.737 642.075 201.833 682.291 181.661Z" stroke="url(#paint43_linear_215_2275)"/>
<path d="M694.646 175.609C735.388 156.107 788.702 156.335 850.308 173.54C911.914 190.745 981.752 224.913 1055.46 273.209C1202.86 369.797 1365.64 522.829 1508.83 709.416C1652.02 896.003 1748.47 1080.78 1788.69 1228.68C1808.79 1302.63 1814.83 1367.34 1805.64 1418.43C1796.44 1469.52 1772.03 1506.96 1731.29 1526.46C1690.55 1545.96 1637.23 1545.73 1575.63 1528.53C1514.02 1511.32 1444.18 1477.15 1370.48 1428.86C1223.07 1332.27 1060.29 1179.24 917.105 992.652C773.919 806.065 677.461 621.287 637.249 473.389C617.143 399.438 611.105 334.731 620.298 283.637C629.491 232.543 653.904 195.11 694.646 175.609Z" stroke="url(#paint44_linear_215_2275)"/>
<path d="M707.157 169.763C748.413 150.938 801.867 151.975 863.284 170.064C924.701 188.153 994.023 223.279 1066.93 272.548C1212.75 371.086 1372.81 526.132 1512.54 714.334C1652.27 902.536 1745.18 1088.22 1782.46 1236.29C1801.1 1310.32 1805.82 1374.93 1795.55 1425.73C1785.28 1476.53 1760.03 1513.48 1718.77 1532.31C1677.52 1551.13 1624.07 1550.09 1562.65 1532.01C1501.23 1513.92 1431.91 1478.79 1359 1429.52C1213.19 1330.98 1053.12 1175.94 913.391 987.736C773.661 799.534 680.748 613.845 643.473 465.779C624.835 391.745 620.113 327.141 630.383 276.34C640.653 225.54 665.903 188.588 707.157 169.763Z" stroke="url(#paint45_linear_215_2275)"/>
<path d="M719.824 164.124C761.58 145.981 815.158 147.827 876.368 166.795C937.577 185.762 1006.36 221.836 1078.45 272.065C1222.63 372.521 1379.93 529.532 1516.16 719.292C1652.4 909.052 1741.73 1095.59 1776.06 1243.78C1793.22 1317.88 1796.63 1382.36 1785.29 1432.85C1773.94 1483.34 1747.86 1519.8 1706.11 1537.95C1664.35 1556.09 1610.77 1554.24 1549.57 1535.28C1488.36 1516.31 1419.57 1480.23 1347.48 1430.01C1203.3 1329.55 1046 1172.54 909.768 982.777C773.537 793.018 684.199 606.476 649.872 458.288C632.708 384.193 629.304 319.71 640.647 269.218C651.991 218.726 678.069 182.267 719.824 164.124Z" stroke="url(#paint46_linear_215_2275)"/>
<path d="M732.64 158.694C774.884 141.238 828.57 143.894 889.553 163.734C950.537 183.574 1018.76 220.584 1090.01 271.757C1232.51 374.102 1387 533.03 1519.69 724.29C1652.39 915.55 1738.12 1102.89 1769.49 1251.15C1785.18 1325.29 1787.26 1389.63 1774.85 1439.8C1762.43 1489.97 1735.53 1525.92 1693.29 1543.38C1651.05 1560.83 1597.36 1558.18 1536.38 1538.34C1475.4 1518.5 1407.17 1481.49 1335.92 1430.31C1193.42 1327.97 1038.93 1169.04 906.238 977.779C773.547 786.519 687.81 599.18 656.442 450.915C640.757 376.782 638.671 312.442 651.084 262.273C663.498 212.105 690.397 176.15 732.64 158.694Z" stroke="url(#paint47_linear_215_2275)"/>
<path d="M745.604 153.475C788.323 136.712 842.1 140.175 902.838 160.881C963.578 181.588 1031.23 219.523 1101.61 271.625C1242.39 375.827 1394.02 536.626 1523.13 729.327C1652.24 922.029 1734.35 1110.11 1762.75 1258.4C1776.95 1332.55 1777.72 1396.73 1764.24 1446.56C1750.76 1496.39 1723.05 1531.83 1680.33 1548.59C1637.61 1565.36 1583.83 1561.89 1523.1 1541.19C1462.36 1520.48 1394.71 1482.55 1324.32 1430.44C1183.55 1326.24 1031.91 1165.44 902.802 972.742C773.692 780.04 691.581 591.96 663.181 443.664C648.981 369.515 648.214 305.336 661.694 255.505C675.173 205.677 702.886 170.237 745.604 153.475Z" stroke="url(#paint48_linear_215_2275)"/>
<path d="M758.709 148.469C801.889 132.405 855.742 136.676 916.217 158.242C976.693 179.809 1043.74 218.658 1113.25 271.672C1252.25 377.698 1400.98 540.318 1526.47 734.403C1651.96 928.487 1730.42 1117.25 1755.84 1265.53C1768.56 1339.67 1768.01 1403.67 1753.46 1453.15C1738.92 1502.62 1710.4 1537.54 1667.22 1553.6C1624.04 1569.67 1570.19 1565.4 1509.72 1543.83C1449.24 1522.26 1382.19 1483.41 1312.69 1430.4C1173.68 1324.37 1024.95 1161.75 899.459 967.669C773.97 773.585 695.509 584.821 670.086 436.539C657.375 362.396 657.928 298.399 672.47 248.923C687.011 199.448 715.528 164.534 758.709 148.469Z" stroke="url(#paint49_linear_215_2275)"/>
<path d="M771.952 143.677C815.582 128.315 869.492 133.391 929.686 155.811C989.881 178.232 1056.31 217.983 1124.91 271.894C1262.11 379.713 1407.89 544.104 1529.72 739.512C1651.55 934.92 1726.34 1124.31 1748.77 1272.53C1759.99 1346.65 1758.12 1410.44 1742.52 1459.55C1726.92 1508.66 1697.61 1543.03 1653.98 1558.39C1610.35 1573.75 1556.44 1568.68 1496.25 1546.26C1436.05 1523.84 1369.62 1484.09 1301.02 1430.18C1163.83 1322.36 1018.04 1157.97 896.212 962.558C774.382 767.15 699.598 577.762 677.159 429.538C665.94 355.425 667.811 291.627 683.41 242.52C699.01 193.415 728.323 159.038 771.952 143.677Z" stroke="url(#paint50_linear_215_2275)"/>
<path d="M785.331 139.099C829.396 124.446 883.349 130.327 943.242 153.594C1003.14 176.862 1068.93 217.501 1136.6 272.292C1271.94 381.871 1414.74 547.983 1532.87 744.655C1651.01 941.328 1722.09 1131.28 1741.54 1279.4C1751.26 1353.46 1748.07 1417.04 1731.42 1465.77C1714.77 1514.49 1684.67 1548.32 1640.6 1562.97C1596.54 1577.62 1542.58 1571.74 1482.69 1548.48C1422.8 1525.21 1357.01 1484.57 1289.33 1429.78C1153.99 1320.2 1011.2 1154.09 893.062 957.414C774.927 760.742 703.841 570.785 684.394 422.666C674.671 348.605 677.86 285.027 694.513 236.305C711.166 187.583 741.265 153.753 785.331 139.099Z" stroke="url(#paint51_linear_215_2275)"/>
<path d="M798.839 134.74C843.326 120.799 897.304 127.482 956.879 151.589C1016.46 175.697 1081.59 217.213 1148.31 272.867C1281.77 384.173 1421.52 551.955 1535.92 749.832C1650.33 947.708 1717.69 1138.17 1734.14 1286.15C1742.37 1360.13 1737.86 1423.47 1720.16 1471.79C1702.46 1520.12 1671.58 1553.39 1627.1 1567.33C1582.61 1581.27 1528.63 1574.59 1469.05 1550.48C1409.48 1526.37 1344.35 1484.86 1277.62 1429.2C1144.17 1317.9 1004.41 1150.11 890.009 952.238C775.606 754.361 708.24 563.895 691.791 415.924C683.566 341.938 688.073 278.6 705.773 230.276C723.474 181.954 754.351 148.681 798.839 134.74Z" stroke="url(#paint52_linear_215_2275)"/>
<path d="M812.472 130.598C857.368 117.374 911.355 124.857 970.594 149.796C1029.83 174.736 1094.28 217.118 1160.04 273.618C1291.56 386.617 1428.24 556.018 1538.88 755.039C1649.51 954.06 1713.14 1144.98 1726.59 1292.75C1733.31 1366.64 1727.49 1429.72 1708.74 1477.63C1690 1525.54 1658.36 1558.25 1613.46 1571.47C1568.56 1584.7 1514.58 1577.21 1455.34 1552.27C1396.1 1527.33 1331.65 1484.95 1265.89 1428.45C1134.37 1315.45 997.69 1146.05 887.054 947.031C776.417 748.01 712.791 557.092 699.344 409.315C692.621 335.426 698.444 272.346 717.187 224.436C735.93 176.528 767.575 143.822 812.472 130.598Z" stroke="url(#paint53_linear_215_2275)"/>
<path d="M826.229 126.676C871.52 114.173 925.499 122.454 984.384 148.218C1043.27 173.983 1107.02 217.216 1171.8 274.545C1301.34 389.202 1434.9 560.171 1541.73 760.276C1648.57 960.38 1708.44 1151.69 1718.88 1299.23C1724.1 1373 1716.96 1435.8 1697.18 1483.28C1677.4 1530.76 1645 1562.89 1599.7 1575.39C1554.41 1587.9 1500.43 1579.62 1441.55 1553.85C1382.66 1528.09 1318.91 1484.85 1254.14 1427.52C1124.59 1312.87 991.035 1141.9 884.199 941.795C777.362 741.69 717.496 550.378 707.055 402.841C701.835 329.071 708.973 266.269 728.753 218.788C748.532 171.308 780.937 139.179 826.229 126.676Z" stroke="url(#paint54_linear_215_2275)"/>
<path d="M840.102 122.975C885.775 111.196 939.73 120.273 998.243 146.854C1056.76 173.436 1119.79 217.508 1183.56 275.649C1311.09 391.929 1441.49 564.413 1544.49 765.54C1647.49 966.667 1703.58 1158.31 1711.01 1305.57C1714.73 1379.19 1706.28 1441.7 1685.47 1488.74C1664.66 1535.78 1631.5 1567.32 1585.83 1579.1C1540.16 1590.87 1486.2 1581.8 1427.69 1555.22C1369.18 1528.63 1306.14 1484.56 1242.38 1426.42C1114.84 1310.14 984.447 1137.66 881.444 936.531C778.44 735.404 722.352 543.756 714.921 396.503C711.205 322.876 719.655 260.37 740.466 213.331C761.276 166.294 794.429 134.753 840.102 122.975Z" stroke="url(#paint55_linear_215_2275)"/>
<path d="M854.089 119.495C900.13 108.445 954.045 118.315 1012.17 145.704C1070.29 173.095 1132.59 217.992 1195.33 276.927C1320.81 394.795 1448 568.742 1547.14 770.83C1646.28 972.918 1698.58 1164.84 1703 1311.77C1705.2 1385.23 1695.45 1447.42 1673.61 1494C1651.78 1540.58 1617.88 1571.53 1571.84 1582.58C1525.8 1593.63 1471.89 1583.76 1413.77 1556.37C1355.64 1528.97 1293.35 1484.08 1230.61 1425.14C1105.12 1307.28 977.929 1133.33 878.789 931.24C779.649 729.152 727.356 537.228 722.937 390.304C720.727 316.841 730.487 254.651 752.323 208.069C774.157 161.489 808.049 130.545 854.089 119.495Z" stroke="url(#paint56_linear_215_2275)"/>
<path d="M868.186 116.238C914.58 105.919 968.438 116.579 1026.15 144.769C1083.87 172.961 1145.41 218.669 1207.1 278.379C1330.5 397.8 1454.45 573.157 1549.7 776.145C1644.94 979.132 1693.42 1171.27 1694.83 1317.82C1695.53 1391.1 1684.47 1452.96 1661.61 1499.07C1638.76 1545.18 1604.14 1575.51 1557.75 1585.83C1511.35 1596.15 1457.49 1585.49 1399.78 1557.3C1342.06 1529.11 1280.53 1483.4 1218.83 1423.69C1095.44 1304.27 971.483 1128.91 876.237 925.925C780.992 722.937 732.51 530.794 731.104 384.244C730.401 310.968 741.466 249.113 764.319 203.002C787.171 156.893 821.793 126.556 868.186 116.238Z" stroke="url(#paint57_linear_215_2275)"/>
<path d="M882.387 113.205C929.12 103.622 982.905 115.069 1040.19 144.051C1097.49 173.035 1158.25 219.54 1218.88 280.009C1340.15 400.945 1460.82 577.658 1552.15 781.483C1643.47 985.309 1688.12 1177.61 1686.52 1323.74C1685.71 1396.81 1673.34 1458.31 1649.48 1503.94C1625.62 1549.56 1590.28 1579.28 1543.54 1588.86C1496.81 1598.45 1443.03 1587 1385.74 1558.02C1328.45 1529.04 1267.69 1482.53 1207.05 1422.06C1085.79 1301.13 965.109 1124.41 873.787 920.588C782.464 716.763 737.808 524.46 739.416 378.328C740.219 305.261 752.589 243.759 776.453 198.134C800.316 152.511 835.655 122.788 882.387 113.205Z" stroke="url(#paint58_linear_215_2275)"/>
<path d="M896.69 110.397C943.748 101.552 997.443 113.781 1054.29 143.547C1111.14 173.313 1171.11 220.602 1230.66 281.809C1349.76 404.224 1467.12 582.24 1554.49 786.842C1641.86 991.442 1682.68 1183.85 1678.06 1329.52C1675.75 1402.35 1662.08 1463.48 1637.21 1508.61C1612.35 1553.73 1576.3 1582.83 1529.24 1591.67C1482.18 1600.52 1428.49 1588.29 1371.64 1558.52C1314.79 1528.76 1254.83 1481.47 1195.28 1420.26C1076.18 1297.84 958.811 1119.83 871.44 915.228C784.069 710.627 743.252 518.223 747.872 372.554C750.182 299.718 763.852 238.59 788.719 193.463C813.585 148.339 849.632 119.242 896.69 110.397Z" stroke="url(#paint59_linear_215_2275)"/>
<path d="M911.088 107.815C958.457 99.7104 1012.05 112.719 1068.43 143.258C1124.82 173.799 1183.97 221.857 1242.43 283.786C1359.33 407.642 1473.34 586.906 1556.73 792.22C1640.13 997.535 1677.09 1189.98 1669.46 1335.14C1665.65 1407.73 1650.68 1468.46 1624.82 1513.08C1598.96 1557.69 1562.21 1586.15 1514.84 1594.26C1467.48 1602.36 1413.89 1589.35 1357.5 1558.81C1301.11 1528.27 1241.96 1480.21 1183.51 1418.28C1066.61 1294.43 952.591 1115.16 869.197 909.85C785.804 704.535 748.839 512.089 756.471 366.927C760.287 294.345 775.251 233.607 801.114 188.993C826.976 144.382 863.72 115.919 911.088 107.815Z" stroke="url(#paint60_linear_215_2275)"/>
<path d="M925.579 105.459C973.243 98.0977 1026.71 111.882 1082.62 143.186C1138.53 174.492 1196.85 223.303 1254.19 285.934C1368.85 411.194 1479.48 591.652 1558.87 797.617C1638.26 1003.58 1671.37 1196.01 1660.72 1340.62C1655.4 1412.93 1639.15 1473.26 1612.3 1517.35C1585.45 1561.43 1548.02 1589.25 1500.35 1596.61C1452.69 1603.97 1399.22 1590.19 1343.31 1558.88C1287.4 1527.58 1229.08 1478.77 1171.74 1416.14C1057.08 1290.88 946.45 1110.42 867.059 904.453C787.669 698.488 754.567 506.058 765.208 361.447C770.529 289.141 786.783 228.812 813.635 184.725C840.485 140.641 877.914 112.819 925.579 105.459Z" stroke="url(#paint61_linear_215_2275)"/>
<path d="M940.157 103.329C988.104 96.7142 1041.43 111.269 1096.85 143.329C1152.26 175.39 1209.74 224.941 1265.94 288.254C1378.33 414.879 1485.54 596.476 1560.91 803.03C1636.27 1009.58 1665.5 1201.94 1651.85 1345.95C1645.03 1417.96 1627.49 1477.86 1599.66 1521.41C1571.83 1564.96 1533.72 1592.13 1485.78 1598.74C1437.83 1605.36 1384.5 1590.8 1329.09 1558.74C1273.67 1526.68 1216.19 1477.13 1160 1413.82C1047.6 1287.19 940.391 1105.59 865.027 899.04C789.664 692.487 760.435 500.131 774.082 356.115C780.906 284.107 798.446 224.206 826.278 180.659C854.108 137.115 892.211 109.944 940.157 103.329Z" stroke="url(#paint62_linear_215_2275)"/>
<path d="M954.818 101.429C1003.03 95.5611 1056.2 110.884 1111.11 143.689C1166.01 176.495 1222.62 226.77 1277.67 290.746C1387.76 418.699 1491.52 601.38 1562.83 808.458C1634.15 1015.54 1659.49 1207.76 1642.84 1351.14C1634.52 1422.82 1615.7 1482.28 1586.9 1525.27C1558.09 1568.26 1519.33 1594.77 1471.11 1600.64C1422.9 1606.51 1369.73 1591.19 1314.83 1558.38C1259.92 1525.58 1203.31 1475.3 1148.27 1411.32C1038.18 1283.37 934.415 1100.69 863.101 893.614C791.788 686.535 766.441 494.311 783.09 350.935C791.414 279.247 810.235 219.793 839.038 176.799C867.839 133.808 906.604 107.296 954.818 101.429Z" stroke="url(#paint63_linear_215_2275)"/>
<path d="M969.557 99.7554C1018.02 94.6375 1071.02 110.723 1125.4 144.263C1179.78 177.805 1235.51 228.788 1289.38 293.409C1397.13 422.649 1497.41 606.358 1564.65 813.898C1631.89 1021.44 1653.35 1213.47 1633.71 1356.16C1623.88 1427.51 1603.79 1486.5 1574.02 1528.93C1544.26 1571.35 1504.84 1597.2 1456.38 1602.31C1407.91 1607.43 1354.91 1591.35 1300.53 1557.81C1246.15 1524.27 1190.43 1473.28 1136.55 1408.66C1028.8 1279.42 928.523 1095.71 861.281 888.173C794.04 680.632 772.582 488.6 792.227 345.907C802.05 274.56 822.147 215.57 851.912 173.142C881.676 130.718 921.092 104.873 969.557 99.7554Z" stroke="url(#paint64_linear_215_2275)"/>
<path d="M984.371 98.3113C1081.78 89.5777 1195.66 165.711 1301.07 296.242C1406.45 426.731 1503.22 611.411 1566.36 819.35C1629.51 1027.29 1647.08 1219.07 1624.44 1361.04C1601.8 1503.05 1538.97 1595.03 1441.56 1603.76C1344.15 1612.49 1230.28 1536.36 1124.86 1405.83C1019.48 1275.34 922.718 1090.66 859.569 882.721C796.419 674.782 778.858 483 801.494 341.034C824.137 199.021 886.962 107.045 984.371 98.3113Z" stroke="url(#paint65_linear_215_2275)"/>
<path d="M999.254 97.0963C1097.11 89.8683 1209.72 167.504 1312.73 299.243C1415.71 430.941 1508.93 616.536 1567.97 824.811C1627.01 1033.09 1640.67 1224.56 1615.05 1365.76C1589.42 1507 1524.53 1597.75 1426.68 1604.97C1328.83 1612.2 1216.21 1534.57 1113.2 1402.83C1010.23 1271.13 917.001 1085.53 857.963 877.258C798.925 668.984 785.266 477.511 810.885 336.314C836.513 195.072 901.401 104.325 999.254 97.0963Z" stroke="url(#paint66_linear_215_2275)"/>
<path d="M1014.2 96.111C1112.47 90.3902 1223.79 169.505 1324.36 302.413C1424.9 435.279 1514.56 621.734 1569.47 830.28C1624.37 1038.83 1634.13 1229.93 1605.53 1370.32C1576.93 1510.75 1510 1600.24 1411.73 1605.96C1313.46 1611.68 1202.14 1532.56 1101.57 1399.66C1001.03 1266.79 911.375 1080.33 856.466 871.788C801.558 663.242 791.803 472.136 820.399 331.752C849.003 191.324 915.933 101.832 1014.2 96.111Z" stroke="url(#paint67_linear_215_2275)"/>
<path d="M1029.21 95.3561C1127.86 91.1447 1237.86 171.715 1335.96 305.75C1434.04 439.745 1520.09 627.002 1570.85 835.757C1621.62 1044.51 1627.46 1235.19 1595.9 1374.72C1564.33 1514.29 1495.38 1602.5 1396.72 1606.71C1298.07 1610.93 1188.07 1530.36 1089.97 1396.32C991.895 1262.33 905.84 1075.07 855.078 866.312C804.315 657.557 798.469 466.877 830.032 327.348C861.604 187.777 930.556 99.5676 1029.21 95.3561Z" stroke="url(#paint68_linear_215_2275)"/>
<path d="M1044.27 94.8316C1143.28 92.1309 1251.91 174.132 1347.52 309.254C1443.1 444.336 1525.53 632.338 1572.13 841.239C1618.73 1050.14 1620.67 1240.34 1586.15 1378.97C1551.62 1517.64 1480.67 1604.54 1381.66 1607.24C1282.65 1609.94 1174.02 1527.94 1078.41 1392.82C982.831 1257.73 900.4 1069.73 853.799 860.833C807.198 651.933 805.262 461.735 839.782 323.104C874.313 184.432 945.266 97.5323 1044.27 94.8316Z" stroke="url(#paint69_linear_215_2275)"/>
<path d="M1059.39 94.536C1158.72 93.3472 1265.96 176.754 1359.04 312.922C1452.1 449.05 1530.88 637.74 1573.3 846.721C1615.73 1055.7 1613.75 1245.36 1576.29 1383.05C1538.81 1520.78 1465.88 1606.34 1366.54 1607.53C1267.21 1608.72 1159.97 1525.32 1066.89 1389.15C973.837 1253.02 895.054 1064.33 852.629 855.348C810.204 646.366 812.179 456.71 849.647 319.019C887.125 181.289 960.058 95.725 1059.39 94.536Z" stroke="url(#paint70_linear_215_2275)"/>
<path d="M1074.55 94.4718C1174.18 94.7948 1279.99 179.582 1370.52 316.753C1461.02 453.887 1536.13 643.207 1574.36 852.206C1612.6 1061.2 1606.72 1250.26 1566.31 1386.97C1525.9 1523.72 1451.01 1607.92 1351.38 1607.6C1251.75 1607.27 1145.95 1522.49 1055.42 1385.32C964.915 1248.18 889.806 1058.86 851.57 849.862C813.333 640.863 819.218 451.805 859.621 315.097C900.035 178.35 974.926 94.149 1074.55 94.4718Z" stroke="url(#paint71_linear_215_2275)"/>
<path d="M1089.76 94.6389C1189.65 96.4742 1294 182.615 1381.94 320.749C1469.86 458.846 1541.28 648.739 1575.31 857.692C1609.35 1066.65 1599.56 1255.05 1556.23 1390.73C1512.89 1526.45 1436.07 1609.27 1336.18 1607.43C1236.28 1605.6 1131.94 1519.46 1043.99 1381.32C956.069 1243.23 884.656 1053.33 850.62 844.379C816.583 635.426 826.376 447.024 869.703 311.339C913.041 175.617 989.867 92.8038 1089.76 94.6389Z" stroke="url(#paint72_linear_215_2275)"/>
<path d="M1105 95.0346C1205.12 98.3813 1307.98 185.851 1393.32 324.905C1478.63 463.922 1546.33 654.331 1576.15 863.174C1605.98 1072.02 1592.28 1259.7 1546.04 1394.32C1499.8 1528.98 1421.06 1610.38 1320.93 1607.03C1220.81 1603.69 1117.95 1516.22 1032.62 1377.16C947.301 1238.15 879.606 1047.74 849.78 838.894C819.955 630.051 833.653 442.364 879.889 307.744C926.138 173.088 1004.87 91.6881 1105 95.0346Z" stroke="url(#paint73_linear_215_2275)"/>
<path d="M1120.27 95.6617C1220.6 100.519 1321.93 189.29 1404.64 329.223C1487.32 469.118 1551.28 659.984 1576.88 868.654C1602.49 1077.32 1584.89 1264.24 1535.76 1397.75C1486.61 1531.3 1405.99 1611.26 1305.66 1606.41C1205.33 1601.55 1104 1512.78 1021.3 1372.85C938.615 1232.95 874.658 1042.09 849.052 833.416C823.446 624.746 841.045 437.829 890.177 304.315C939.322 170.766 1019.95 90.8046 1120.27 95.6617Z" stroke="url(#paint74_linear_215_2275)"/>
<path d="M1135.58 96.5189C1236.08 102.886 1335.85 192.931 1415.9 333.699C1495.92 474.431 1556.12 665.695 1577.5 874.128C1598.88 1082.56 1577.38 1268.65 1525.37 1401.02C1473.34 1533.42 1390.86 1611.92 1290.36 1605.55C1189.86 1599.18 1090.08 1509.14 1010.04 1368.37C930.011 1227.64 869.812 1036.38 848.434 827.942C827.055 619.509 848.55 433.42 900.563 301.053C952.59 168.652 1035.08 90.1524 1135.58 96.5189Z" stroke="url(#paint75_linear_215_2275)"/>
<path d="M1150.9 97.6055C1251.55 105.479 1349.74 196.771 1427.1 338.332C1504.44 479.857 1560.86 671.461 1578.01 879.594C1595.15 1087.73 1569.77 1272.93 1514.89 1404.11C1460 1535.33 1375.67 1612.34 1275.03 1604.46C1174.39 1596.59 1076.2 1505.3 998.837 1363.74C921.495 1222.21 865.072 1030.61 847.927 822.475C830.783 614.342 856.167 429.138 911.045 297.958C965.937 166.744 1050.26 89.7315 1150.9 97.6055Z" stroke="url(#paint76_linear_215_2275)"/>
<path d="M1166.25 98.9228C1267 108.302 1363.58 200.813 1438.23 343.123C1512.87 485.398 1565.5 677.285 1578.4 885.054C1591.31 1092.82 1562.04 1277.09 1504.31 1407.04C1446.57 1537.03 1360.44 1612.53 1259.68 1603.15C1158.93 1593.77 1062.36 1501.26 987.701 1358.95C913.066 1216.67 860.436 1024.79 847.531 817.018C834.625 609.249 863.891 424.986 921.617 295.032C979.358 165.047 1065.5 89.5441 1166.25 98.9228Z" stroke="url(#paint77_linear_215_2275)"/>
<path d="M1181.61 100.467C1282.44 111.348 1377.37 205.05 1449.3 348.066C1521.2 491.048 1570.02 683.159 1578.69 890.501C1587.35 1097.84 1554.21 1281.11 1493.65 1409.8C1433.08 1538.51 1345.16 1612.48 1244.32 1601.6C1143.49 1590.72 1048.56 1497.02 976.637 1354C904.73 1211.02 855.91 1018.91 847.247 811.569C838.585 604.227 871.723 420.961 932.28 292.274C992.852 163.556 1080.78 89.586 1181.61 100.467Z" stroke="url(#paint78_linear_215_2275)"/>
<path d="M1196.98 102.242C1297.86 114.622 1391.11 209.486 1460.29 353.165C1529.44 496.809 1574.44 689.085 1578.86 895.937C1583.27 1102.79 1546.27 1285 1482.9 1412.38C1419.52 1539.8 1329.84 1612.21 1228.95 1599.83C1128.07 1587.45 1034.82 1492.59 965.644 1348.91C896.488 1205.26 851.491 1012.99 847.074 806.134C842.657 599.282 879.658 417.069 943.027 289.687C1006.41 162.276 1096.1 89.8616 1196.98 102.242Z" stroke="url(#paint79_linear_215_2275)"/>
<path d="M1227.73 106.473C1328.61 121.839 1418.44 218.94 1482.04 363.813C1545.64 508.652 1582.95 701.083 1578.87 906.766C1574.79 1112.45 1530.1 1292.39 1461.17 1417.05C1392.22 1541.73 1299.1 1610.96 1198.21 1595.6C1097.32 1580.23 1007.5 1483.13 943.888 1338.26C880.295 1193.42 842.986 1000.99 847.063 795.305C851.14 589.622 895.831 409.68 964.766 285.026C1033.72 160.343 1126.84 91.1064 1227.73 106.473Z" stroke="url(#paint80_linear_215_2275)"/>
<path d="M1243.1 108.929C1343.94 125.782 1432.01 223.957 1492.8 369.36C1553.58 514.731 1587.03 707.152 1578.71 912.156C1570.38 1117.16 1521.87 1295.88 1450.18 1419.12C1378.48 1542.38 1283.68 1610 1182.84 1593.14C1081.99 1576.29 993.927 1478.11 933.131 1332.71C872.349 1187.34 838.902 994.919 847.225 789.915C855.548 584.91 904.063 406.187 975.75 282.954C1047.45 159.692 1142.25 92.0761 1243.1 108.929Z" stroke="url(#paint81_linear_215_2275)"/>
<path d="M1258.46 111.61C1359.23 129.945 1445.51 229.164 1503.47 375.054C1561.42 520.912 1591 713.264 1578.43 917.527C1565.87 1121.79 1513.54 1299.24 1439.13 1421.02C1364.69 1542.82 1268.25 1608.79 1167.48 1590.46C1066.71 1572.13 980.425 1472.91 922.46 1327.02C864.507 1181.16 834.932 988.806 847.498 784.543C860.064 580.28 912.389 402.829 986.806 281.053C1061.24 159.251 1157.68 93.2765 1258.46 111.61Z" stroke="url(#paint82_linear_215_2275)"/>
<path d="M1273.8 114.517C1374.47 134.327 1458.94 234.561 1514.06 380.893C1569.16 527.194 1594.86 719.418 1578.05 922.878C1561.24 1126.34 1505.12 1302.46 1428 1422.74C1350.86 1543.05 1252.8 1607.36 1152.13 1587.55C1051.47 1567.74 966.994 1467.51 911.877 1321.18C856.772 1174.88 831.078 982.652 847.883 779.192C864.689 575.732 920.808 399.608 997.932 279.328C1075.07 159.021 1173.13 94.7076 1273.8 114.517Z" stroke="url(#paint83_linear_215_2275)"/>
<path d="M1289.13 117.649C1389.66 138.929 1472.29 240.146 1524.55 386.876C1576.79 533.575 1598.59 725.613 1577.55 928.208C1556.51 1130.8 1496.62 1305.55 1416.81 1424.3C1336.98 1543.07 1237.33 1605.7 1136.8 1584.42C1036.27 1563.14 953.639 1461.93 901.387 1315.2C849.146 1168.5 827.339 976.458 848.379 773.863C869.419 571.268 929.315 396.524 1009.12 277.776C1088.95 159.003 1188.6 96.3699 1289.13 117.649Z" stroke="url(#paint84_linear_215_2275)"/>
<path d="M1304.43 121.003C1404.8 143.746 1485.57 245.916 1534.94 392.999C1584.3 540.052 1602.21 731.845 1576.95 933.513C1551.68 1135.18 1488.02 1308.49 1405.56 1425.67C1323.07 1542.88 1221.86 1603.81 1121.5 1581.07C1021.13 1558.32 940.362 1456.15 890.99 1309.07C841.629 1162.02 823.718 970.225 848.986 768.557C874.253 566.889 937.909 393.578 1020.38 276.398C1102.86 159.194 1204.07 98.2606 1304.43 121.003Z" stroke="url(#paint85_linear_215_2275)"/>
<path d="M1319.71 124.58C1419.88 148.779 1498.76 251.87 1545.24 399.261C1591.71 546.623 1605.72 738.113 1576.23 938.793C1546.74 1139.47 1479.35 1311.3 1394.24 1426.87C1309.13 1542.47 1206.39 1601.69 1106.22 1577.49C1006.06 1553.29 927.169 1450.2 880.693 1302.81C834.227 1155.45 820.217 963.955 849.704 763.275C879.191 562.595 946.586 390.771 1031.69 275.195C1116.81 159.594 1219.54 100.381 1319.71 124.58Z" stroke="url(#paint86_linear_215_2275)"/>
<path d="M1334.95 128.379C1434.89 154.027 1511.87 258.007 1555.44 405.662C1598.99 553.288 1609.1 744.417 1575.4 944.048C1541.7 1143.68 1470.59 1313.96 1382.88 1427.9C1295.15 1541.86 1190.92 1599.34 1090.98 1573.69C991.039 1548.04 914.062 1444.06 870.496 1296.41C826.939 1148.78 816.834 957.653 850.533 758.022C884.231 558.391 955.345 388.106 1043.05 274.168C1130.78 160.207 1235.01 102.731 1334.95 128.379Z" stroke="url(#paint87_linear_215_2275)"/>
<path d="M1350.16 132.397C1449.84 159.487 1524.88 264.325 1565.53 412.199C1606.16 560.043 1612.36 750.753 1574.46 949.273C1536.56 1147.79 1461.75 1316.49 1371.46 1428.75C1281.15 1541.04 1175.45 1596.76 1075.77 1569.67C976.09 1542.58 901.048 1437.75 860.405 1289.87C819.77 1142.03 813.573 951.317 851.472 752.797C889.371 554.276 964.182 385.581 1054.47 273.317C1144.78 161.031 1250.48 105.308 1350.16 132.397Z" stroke="url(#paint88_linear_215_2275)"/>
<path d="M1365.33 136.634C1464.72 165.156 1537.8 270.82 1575.51 418.868C1613.21 566.886 1615.5 757.119 1573.41 954.469C1531.32 1151.82 1452.84 1318.87 1359.99 1429.43C1267.13 1540.01 1160 1593.96 1060.61 1565.44C961.214 1536.91 888.128 1431.25 850.42 1283.2C812.72 1135.18 810.433 944.951 852.521 747.601C894.61 550.25 973.095 383.197 1065.94 272.64C1158.81 162.062 1265.93 108.112 1365.33 136.634Z" stroke="url(#paint89_linear_215_2275)"/>
<path d="M1380.44 141.089C1479.52 171.035 1550.63 277.494 1585.39 425.67C1620.14 573.817 1618.52 763.514 1572.25 959.633C1525.99 1155.75 1443.85 1321.11 1348.48 1429.93C1253.09 1538.77 1144.56 1590.93 1045.49 1560.98C946.414 1531.04 875.307 1424.58 840.546 1276.4C805.792 1128.25 807.415 938.556 853.68 742.437C899.945 546.318 982.081 380.957 1077.45 272.142C1172.84 163.306 1281.37 111.143 1380.44 141.089Z" stroke="url(#paint90_linear_215_2275)"/>
<path d="M1395.51 145.759C1494.24 177.121 1563.34 284.341 1595.15 432.6C1626.94 580.831 1621.41 769.935 1570.98 964.764C1520.56 1159.59 1434.79 1323.21 1336.93 1430.25C1239.04 1537.31 1129.15 1587.67 1030.42 1556.31C931.696 1524.95 862.59 1417.73 830.786 1269.47C798.989 1121.24 804.522 932.134 854.949 737.305C905.376 542.476 991.138 378.858 1089.01 271.817C1186.89 164.756 1296.79 114.397 1395.51 145.759Z" stroke="url(#paint91_linear_215_2275)"/>
<path d="M1410.52 150.645C1508.87 183.412 1575.95 291.361 1604.79 439.659C1633.62 587.928 1624.18 776.381 1569.61 969.86C1515.03 1163.34 1425.67 1325.17 1325.34 1430.4C1224.98 1535.65 1113.76 1584.19 1015.41 1551.42C917.063 1518.66 849.979 1410.71 821.142 1262.41C792.311 1114.14 801.752 925.689 856.327 732.209C910.901 538.73 1000.26 376.904 1100.6 271.671C1200.95 166.418 1312.18 117.878 1410.52 150.645Z" stroke="url(#paint92_linear_215_2275)"/>
<path d="M1425.48 155.745C1523.41 189.907 1588.45 298.552 1614.31 446.843C1640.17 595.106 1626.82 782.851 1568.12 974.922C1509.41 1166.99 1416.48 1326.98 1313.71 1430.37C1210.92 1533.78 1098.39 1580.49 1000.46 1546.33C902.521 1512.16 837.478 1403.52 811.617 1255.23C785.762 1106.97 799.108 919.221 857.812 727.15C916.517 535.079 1009.45 375.096 1112.22 271.702C1215.02 168.288 1327.54 121.582 1425.48 155.745Z" stroke="url(#paint93_linear_215_2275)"/>
<path d="M1440.36 161.056C1537.86 196.603 1600.84 305.91 1623.72 454.15C1646.59 602.361 1629.34 789.341 1566.52 979.945C1503.71 1170.55 1407.23 1328.64 1302.05 1430.16C1196.86 1531.71 1083.07 1576.56 985.571 1541.02C888.073 1505.47 825.092 1396.16 802.215 1247.92C779.342 1099.71 796.59 912.732 859.407 722.128C922.224 531.524 1018.7 373.431 1123.88 271.908C1229.08 170.365 1342.87 125.508 1440.36 161.056Z" stroke="url(#paint94_linear_215_2275)"/>
<path d="M1455.18 166.575C1552.21 203.497 1613.11 313.433 1632.99 461.575C1652.88 609.69 1631.73 795.847 1564.82 984.926C1497.91 1174 1397.92 1330.16 1290.37 1429.78C1182.8 1529.42 1067.78 1572.42 970.752 1535.49C873.724 1498.57 812.825 1388.64 792.938 1240.49C773.055 1092.38 794.2 906.222 861.11 717.143C928.021 528.064 1028.01 371.91 1135.56 272.288C1243.13 172.647 1358.15 129.653 1455.18 166.575Z" stroke="url(#paint95_linear_215_2275)"/>
<path d="M1469.92 172.303C1566.45 210.588 1625.25 321.121 1642.14 469.121C1659.03 617.094 1634 802.373 1563.01 989.868C1492.03 1177.36 1388.55 1331.53 1278.66 1429.22C1168.75 1526.93 1052.54 1568.05 956.009 1529.76C859.48 1491.48 800.68 1380.95 783.79 1232.95C766.903 1084.98 791.937 899.697 862.92 712.201C933.903 524.705 1037.38 370.538 1147.27 272.847C1257.18 175.138 1373.4 134.018 1469.92 172.303Z" stroke="url(#paint96_linear_215_2275)"/>
<path d="M1484.59 178.239C1580.59 217.875 1637.27 328.969 1651.16 476.783C1665.05 624.569 1636.13 808.912 1561.1 994.768C1486.06 1180.62 1379.13 1332.76 1266.94 1428.49C1154.72 1524.23 1037.34 1563.47 941.343 1523.83C845.342 1484.19 788.66 1373.1 774.772 1225.29C760.886 1077.5 789.802 893.156 864.836 707.3C939.871 521.444 1046.8 369.31 1159 273.581C1271.22 177.835 1388.59 138.603 1484.59 178.239Z" stroke="url(#paint97_linear_215_2275)"/>
<path d="M1499.17 184.38C1594.62 225.356 1649.16 336.977 1660.05 484.559C1670.93 632.112 1638.14 815.465 1559.07 999.625C1480.01 1183.78 1369.66 1333.84 1255.19 1427.58C1140.7 1521.33 1022.2 1558.66 926.76 1517.69C831.317 1476.71 776.769 1365.09 765.887 1217.51C755.007 1069.96 787.795 886.605 866.859 702.445C945.922 518.284 1056.27 368.23 1170.74 274.491C1285.23 180.736 1403.73 143.404 1499.17 184.38Z" stroke="url(#paint98_linear_215_2275)"/>
<g opacity="0.75" filter="url(#filter0_f_215_2275)">
<ellipse cx="770.5" cy="528.33" rx="202.777" ry="236.255" transform="rotate(-116.193 770.5 528.33)" fill="url(#paint99_linear_215_2275)"/>
</g>
<defs>
<filter id="filter0_f_215_2275" x="220.326" y="-1.4248" width="1100.35" height="1059.51" filterUnits="userSpaceOnUse" color-interpolation-filters="sRGB">
<feFlood flood-opacity="0" result="BackgroundImageFix"/>
<feBlend mode="normal" in="SourceGraphic" in2="BackgroundImageFix" result="shape"/>
<feGaussianBlur stdDeviation="160" result="effect1_foregroundBlur_215_2275"/>
</filter>
<linearGradient id="paint0_linear_215_2275" x1="281.378" y1="899.083" x2="1107.96" y2="-75.8621" gradientUnits="userSpaceOnUse">
<stop stop-color="white" stop-opacity="0.05"/>
<stop offset="1" stop-color="white" stop-opacity="0.15"/>
</linearGradient>
<linearGradient id="paint1_linear_215_2275" x1="277.882" y1="884.792" x2="1120.58" y2="-80.0852" gradientUnits="userSpaceOnUse">
<stop stop-color="white" stop-opacity="0.05"/>
<stop offset="1" stop-color="white" stop-opacity="0.15"/>
</linearGradient>
<linearGradient id="paint2_linear_215_2275" x1="274.671" y1="870.49" x2="1133.5" y2="-84.0919" gradientUnits="userSpaceOnUse">
<stop stop-color="white" stop-opacity="0.05"/>
<stop offset="1" stop-color="white" stop-opacity="0.15"/>
</linearGradient>
<linearGradient id="paint3_linear_215_2275" x1="271.745" y1="856.183" x2="1146.75" y2="-87.8677" gradientUnits="userSpaceOnUse">
<stop stop-color="white" stop-opacity="0.05"/>
<stop offset="1" stop-color="white" stop-opacity="0.15"/>
</linearGradient>
<linearGradient id="paint4_linear_215_2275" x1="269.106" y1="841.874" x2="1160.31" y2="-91.3992" gradientUnits="userSpaceOnUse">
<stop stop-color="white" stop-opacity="0.05"/>
<stop offset="1" stop-color="white" stop-opacity="0.15"/>
</linearGradient>
<linearGradient id="paint5_linear_215_2275" x1="266.755" y1="827.567" x2="1174.19" y2="-94.6724" gradientUnits="userSpaceOnUse">
<stop stop-color="white" stop-opacity="0.05"/>
<stop offset="1" stop-color="white" stop-opacity="0.15"/>
</linearGradient>
<linearGradient id="paint6_linear_215_2275" x1="264.692" y1="813.267" x2="1188.38" y2="-97.6732" gradientUnits="userSpaceOnUse">
<stop stop-color="white" stop-opacity="0.05"/>
<stop offset="1" stop-color="white" stop-opacity="0.15"/>
</linearGradient>
<linearGradient id="paint7_linear_215_2275" x1="262.917" y1="798.979" x2="1202.89" y2="-100.387" gradientUnits="userSpaceOnUse">
<stop stop-color="white" stop-opacity="0.05"/>
<stop offset="1" stop-color="white" stop-opacity="0.15"/>
</linearGradient>
<linearGradient id="paint8_linear_215_2275" x1="261.433" y1="784.707" x2="1217.71" y2="-102.797" gradientUnits="userSpaceOnUse">
<stop stop-color="white" stop-opacity="0.05"/>
<stop offset="1" stop-color="white" stop-opacity="0.15"/>
</linearGradient>
<linearGradient id="paint9_linear_215_2275" x1="260.237" y1="770.456" x2="1232.85" y2="-104.889" gradientUnits="userSpaceOnUse">
<stop stop-color="white" stop-opacity="0.05"/>
<stop offset="1" stop-color="white" stop-opacity="0.15"/>
</linearGradient>
<linearGradient id="paint10_linear_215_2275" x1="259.332" y1="756.229" x2="1248.28" y2="-106.649" gradientUnits="userSpaceOnUse">
<stop stop-color="white" stop-opacity="0.05"/>
<stop offset="1" stop-color="white" stop-opacity="0.15"/>
</linearGradient>
<linearGradient id="paint11_linear_215_2275" x1="258.718" y1="742.03" x2="1264.02" y2="-108.062" gradientUnits="userSpaceOnUse">
<stop stop-color="white" stop-opacity="0.05"/>
<stop offset="1" stop-color="white" stop-opacity="0.15"/>
</linearGradient>
<linearGradient id="paint12_linear_215_2275" x1="258.395" y1="727.865" x2="1280.06" y2="-109.11" gradientUnits="userSpaceOnUse">
<stop stop-color="white" stop-opacity="0.05"/>
<stop offset="1" stop-color="white" stop-opacity="0.15"/>
</linearGradient>
<linearGradient id="paint13_linear_215_2275" x1="258.362" y1="713.737" x2="1296.39" y2="-109.78" gradientUnits="userSpaceOnUse">
<stop stop-color="white" stop-opacity="0.05"/>
<stop offset="1" stop-color="white" stop-opacity="0.15"/>
</linearGradient>
<linearGradient id="paint14_linear_215_2275" x1="258.619" y1="699.651" x2="1313" y2="-110.053" gradientUnits="userSpaceOnUse">
<stop stop-color="white" stop-opacity="0.05"/>
<stop offset="1" stop-color="white" stop-opacity="0.15"/>
</linearGradient>
<linearGradient id="paint15_linear_215_2275" x1="259.168" y1="685.612" x2="1329.89" y2="-109.916" gradientUnits="userSpaceOnUse">
<stop stop-color="white" stop-opacity="0.05"/>
<stop offset="1" stop-color="white" stop-opacity="0.15"/>
</linearGradient>
<linearGradient id="paint16_linear_215_2275" x1="260.007" y1="671.623" x2="1347.05" y2="-109.352" gradientUnits="userSpaceOnUse">
<stop stop-color="white" stop-opacity="0.05"/>
<stop offset="1" stop-color="white" stop-opacity="0.15"/>
</linearGradient>
<linearGradient id="paint17_linear_215_2275" x1="261.136" y1="657.688" x2="1364.47" y2="-108.345" gradientUnits="userSpaceOnUse">
<stop stop-color="white" stop-opacity="0.05"/>
<stop offset="1" stop-color="white" stop-opacity="0.15"/>
</linearGradient>
<linearGradient id="paint18_linear_215_2275" x1="262.556" y1="643.812" x2="1382.15" y2="-106.881" gradientUnits="userSpaceOnUse">
<stop stop-color="white" stop-opacity="0.05"/>
<stop offset="1" stop-color="white" stop-opacity="0.15"/>
</linearGradient>
<linearGradient id="paint19_linear_215_2275" x1="264.264" y1="630" x2="1400.06" y2="-104.941" gradientUnits="userSpaceOnUse">
<stop stop-color="white" stop-opacity="0.05"/>
<stop offset="1" stop-color="white" stop-opacity="0.15"/>
</linearGradient>
<linearGradient id="paint20_linear_215_2275" x1="266.262" y1="616.255" x2="1418.2" y2="-102.511" gradientUnits="userSpaceOnUse">
<stop stop-color="white" stop-opacity="0.05"/>
<stop offset="1" stop-color="white" stop-opacity="0.15"/>
</linearGradient>
<linearGradient id="paint21_linear_215_2275" x1="268.548" y1="602.581" x2="1436.56" y2="-99.5771" gradientUnits="userSpaceOnUse">
<stop stop-color="white" stop-opacity="0.05"/>
<stop offset="1" stop-color="white" stop-opacity="0.15"/>
</linearGradient>
<linearGradient id="paint22_linear_215_2275" x1="271.122" y1="588.983" x2="1455.12" y2="-96.1214" gradientUnits="userSpaceOnUse">
<stop stop-color="white" stop-opacity="0.05"/>
<stop offset="1" stop-color="white" stop-opacity="0.15"/>
</linearGradient>
<linearGradient id="paint23_linear_215_2275" x1="273.983" y1="575.464" x2="1473.87" y2="-92.1308" gradientUnits="userSpaceOnUse">
<stop stop-color="white" stop-opacity="0.05"/>
<stop offset="1" stop-color="white" stop-opacity="0.15"/>
</linearGradient>
<linearGradient id="paint24_linear_215_2275" x1="277.129" y1="562.03" x2="1492.79" y2="-87.5894" gradientUnits="userSpaceOnUse">
<stop stop-color="white" stop-opacity="0.05"/>
<stop offset="1" stop-color="white" stop-opacity="0.15"/>
</linearGradient>
<linearGradient id="paint25_linear_215_2275" x1="280.561" y1="548.684" x2="1511.86" y2="-82.4836" gradientUnits="userSpaceOnUse">
<stop stop-color="white" stop-opacity="0.05"/>
<stop offset="1" stop-color="white" stop-opacity="0.15"/>
</linearGradient>
<linearGradient id="paint26_linear_215_2275" x1="284.277" y1="535.43" x2="1531.08" y2="-76.7995" gradientUnits="userSpaceOnUse">
<stop stop-color="white" stop-opacity="0.05"/>
<stop offset="1" stop-color="white" stop-opacity="0.15"/>
</linearGradient>
<linearGradient id="paint27_linear_215_2275" x1="288.276" y1="522.271" x2="1550.41" y2="-70.5246" gradientUnits="userSpaceOnUse">
<stop stop-color="white" stop-opacity="0.05"/>
<stop offset="1" stop-color="white" stop-opacity="0.15"/>
</linearGradient>
<linearGradient id="paint28_linear_215_2275" x1="292.556" y1="509.214" x2="1569.84" y2="-63.6449" gradientUnits="userSpaceOnUse">
<stop stop-color="white" stop-opacity="0.05"/>
<stop offset="1" stop-color="white" stop-opacity="0.15"/>
</linearGradient>
<linearGradient id="paint29_linear_215_2275" x1="297.117" y1="496.261" x2="1589.35" y2="-56.1487" gradientUnits="userSpaceOnUse">
<stop stop-color="white" stop-opacity="0.05"/>
<stop offset="1" stop-color="white" stop-opacity="0.15"/>
</linearGradient>
<linearGradient id="paint30_linear_215_2275" x1="301.957" y1="483.414" x2="1608.91" y2="-48.0265" gradientUnits="userSpaceOnUse">
<stop stop-color="white" stop-opacity="0.05"/>
<stop offset="1" stop-color="white" stop-opacity="0.15"/>
</linearGradient>
<linearGradient id="paint31_linear_215_2275" x1="307.074" y1="470.681" x2="1628.51" y2="-39.2659" gradientUnits="userSpaceOnUse">
<stop stop-color="white" stop-opacity="0.05"/>
<stop offset="1" stop-color="white" stop-opacity="0.15"/>
</linearGradient>
<linearGradient id="paint32_linear_215_2275" x1="312.467" y1="458.063" x2="1648.11" y2="-29.8578" gradientUnits="userSpaceOnUse">
<stop stop-color="white" stop-opacity="0.05"/>
<stop offset="1" stop-color="white" stop-opacity="0.15"/>
</linearGradient>
<linearGradient id="paint33_linear_215_2275" x1="318.134" y1="445.564" x2="1667.7" y2="-19.7952" gradientUnits="userSpaceOnUse">
<stop stop-color="white" stop-opacity="0.05"/>
<stop offset="1" stop-color="white" stop-opacity="0.15"/>
</linearGradient>
<linearGradient id="paint34_linear_215_2275" x1="324.075" y1="433.19" x2="1687.25" y2="-9.0693" gradientUnits="userSpaceOnUse">
<stop stop-color="white" stop-opacity="0.05"/>
<stop offset="1" stop-color="white" stop-opacity="0.15"/>
</linearGradient>
<linearGradient id="paint35_linear_215_2275" x1="330.285" y1="420.943" x2="1706.73" y2="2.32617" gradientUnits="userSpaceOnUse">
<stop stop-color="white" stop-opacity="0.05"/>
<stop offset="1" stop-color="white" stop-opacity="0.15"/>
</linearGradient>
<linearGradient id="paint36_linear_215_2275" x1="336.765" y1="408.827" x2="1726.1" y2="14.3952" gradientUnits="userSpaceOnUse">
<stop stop-color="white" stop-opacity="0.05"/>
<stop offset="1" stop-color="white" stop-opacity="0.15"/>
</linearGradient>
<linearGradient id="paint37_linear_215_2275" x1="343.512" y1="396.845" x2="1745.36" y2="27.1408" gradientUnits="userSpaceOnUse">
<stop stop-color="white" stop-opacity="0.05"/>
<stop offset="1" stop-color="white" stop-opacity="0.15"/>
</linearGradient>
<linearGradient id="paint38_linear_215_2275" x1="350.523" y1="385.001" x2="1764.45" y2="40.5657" gradientUnits="userSpaceOnUse">
<stop stop-color="white" stop-opacity="0.05"/>
<stop offset="1" stop-color="white" stop-opacity="0.15"/>
</linearGradient>
<linearGradient id="paint39_linear_215_2275" x1="357.797" y1="373.3" x2="1783.36" y2="54.671" gradientUnits="userSpaceOnUse">
<stop stop-color="white" stop-opacity="0.05"/>
<stop offset="1" stop-color="white" stop-opacity="0.15"/>
</linearGradient>
<linearGradient id="paint40_linear_215_2275" x1="365.332" y1="361.745" x2="1802.05" y2="69.4544" gradientUnits="userSpaceOnUse">
<stop stop-color="white" stop-opacity="0.05"/>
<stop offset="1" stop-color="white" stop-opacity="0.15"/>
</linearGradient>
<linearGradient id="paint41_linear_215_2275" x1="373.125" y1="350.337" x2="1820.49" y2="84.9125" gradientUnits="userSpaceOnUse">
<stop stop-color="white" stop-opacity="0.05"/>
<stop offset="1" stop-color="white" stop-opacity="0.15"/>
</linearGradient>
<linearGradient id="paint42_linear_215_2275" x1="381.174" y1="339.083" x2="1838.66" y2="101.043" gradientUnits="userSpaceOnUse">
<stop stop-color="white" stop-opacity="0.05"/>
<stop offset="1" stop-color="white" stop-opacity="0.15"/>
</linearGradient>
<linearGradient id="paint43_linear_215_2275" x1="389.476" y1="327.985" x2="1856.5" y2="117.836" gradientUnits="userSpaceOnUse">
<stop stop-color="white" stop-opacity="0.05"/>
<stop offset="1" stop-color="white" stop-opacity="0.15"/>
</linearGradient>
<linearGradient id="paint44_linear_215_2275" x1="398.029" y1="317.045" x2="1874.01" y2="135.286" gradientUnits="userSpaceOnUse">
<stop stop-color="white" stop-opacity="0.05"/>
<stop offset="1" stop-color="white" stop-opacity="0.15"/>
</linearGradient>
<linearGradient id="paint45_linear_215_2275" x1="406.829" y1="306.27" x2="1891.13" y2="153.381" gradientUnits="userSpaceOnUse">
<stop stop-color="white" stop-opacity="0.05"/>
<stop offset="1" stop-color="white" stop-opacity="0.15"/>
</linearGradient>
<linearGradient id="paint46_linear_215_2275" x1="415.876" y1="295.66" x2="1907.84" y2="172.109" gradientUnits="userSpaceOnUse">
<stop stop-color="white" stop-opacity="0.05"/>
<stop offset="1" stop-color="white" stop-opacity="0.15"/>
</linearGradient>
<linearGradient id="paint47_linear_215_2275" x1="425.165" y1="285.219" x2="1924.11" y2="191.454" gradientUnits="userSpaceOnUse">
<stop stop-color="white" stop-opacity="0.05"/>
<stop offset="1" stop-color="white" stop-opacity="0.15"/>
</linearGradient>
<linearGradient id="paint48_linear_215_2275" x1="434.695" y1="274.949" x2="1939.91" y2="211.4" gradientUnits="userSpaceOnUse">
<stop stop-color="white" stop-opacity="0.05"/>
<stop offset="1" stop-color="white" stop-opacity="0.15"/>
</linearGradient>
<linearGradient id="paint49_linear_215_2275" x1="444.461" y1="264.857" x2="1955.2" y2="231.93" gradientUnits="userSpaceOnUse">
<stop stop-color="white" stop-opacity="0.05"/>
<stop offset="1" stop-color="white" stop-opacity="0.15"/>
</linearGradient>
<linearGradient id="paint50_linear_215_2275" x1="454.462" y1="254.942" x2="1969.96" y2="253.019" gradientUnits="userSpaceOnUse">
<stop stop-color="white" stop-opacity="0.05"/>
<stop offset="1" stop-color="white" stop-opacity="0.15"/>
</linearGradient>
<linearGradient id="paint51_linear_215_2275" x1="464.694" y1="245.208" x2="1984.14" y2="274.647" gradientUnits="userSpaceOnUse">
<stop stop-color="white" stop-opacity="0.05"/>
<stop offset="1" stop-color="white" stop-opacity="0.15"/>
</linearGradient>
<linearGradient id="paint52_linear_215_2275" x1="475.153" y1="235.66" x2="1997.74" y2="296.788" gradientUnits="userSpaceOnUse">
<stop stop-color="white" stop-opacity="0.05"/>
<stop offset="1" stop-color="white" stop-opacity="0.15"/>
</linearGradient>
<linearGradient id="paint53_linear_215_2275" x1="485.837" y1="226.298" x2="2010.71" y2="319.414" gradientUnits="userSpaceOnUse">
<stop stop-color="white" stop-opacity="0.05"/>
<stop offset="1" stop-color="white" stop-opacity="0.15"/>
</linearGradient>
<linearGradient id="paint54_linear_215_2275" x1="496.743" y1="217.127" x2="2023.03" y2="342.497" gradientUnits="userSpaceOnUse">
<stop stop-color="white" stop-opacity="0.05"/>
<stop offset="1" stop-color="white" stop-opacity="0.15"/>
</linearGradient>
<linearGradient id="paint55_linear_215_2275" x1="507.867" y1="208.15" x2="2034.68" y2="366.005" gradientUnits="userSpaceOnUse">
<stop stop-color="white" stop-opacity="0.05"/>
<stop offset="1" stop-color="white" stop-opacity="0.15"/>
</linearGradient>
<linearGradient id="paint56_linear_215_2275" x1="519.206" y1="199.368" x2="2045.63" y2="389.905" gradientUnits="userSpaceOnUse">
<stop stop-color="white" stop-opacity="0.05"/>
<stop offset="1" stop-color="white" stop-opacity="0.15"/>
</linearGradient>
<linearGradient id="paint57_linear_215_2275" x1="530.756" y1="190.783" x2="2055.87" y2="414.162" gradientUnits="userSpaceOnUse">
<stop stop-color="white" stop-opacity="0.05"/>
<stop offset="1" stop-color="white" stop-opacity="0.15"/>
</linearGradient>
<linearGradient id="paint58_linear_215_2275" x1="542.514" y1="182.402" x2="2065.37" y2="438.742" gradientUnits="userSpaceOnUse">
<stop stop-color="white" stop-opacity="0.05"/>
<stop offset="1" stop-color="white" stop-opacity="0.15"/>
</linearGradient>
<linearGradient id="paint59_linear_215_2275" x1="554.476" y1="174.223" x2="2074.12" y2="463.605" gradientUnits="userSpaceOnUse">
<stop stop-color="white" stop-opacity="0.05"/>
<stop offset="1" stop-color="white" stop-opacity="0.15"/>
</linearGradient>
<linearGradient id="paint60_linear_215_2275" x1="566.639" y1="166.25" x2="2082.1" y2="488.713" gradientUnits="userSpaceOnUse">
<stop stop-color="white" stop-opacity="0.05"/>
<stop offset="1" stop-color="white" stop-opacity="0.15"/>
</linearGradient>
<linearGradient id="paint61_linear_215_2275" x1="578.998" y1="158.487" x2="2089.3" y2="514.026" gradientUnits="userSpaceOnUse">
<stop stop-color="white" stop-opacity="0.05"/>
<stop offset="1" stop-color="white" stop-opacity="0.15"/>
</linearGradient>
<linearGradient id="paint62_linear_215_2275" x1="591.551" y1="150.933" x2="2095.72" y2="539.503" gradientUnits="userSpaceOnUse">
<stop stop-color="white" stop-opacity="0.05"/>
<stop offset="1" stop-color="white" stop-opacity="0.15"/>
</linearGradient>
<linearGradient id="paint63_linear_215_2275" x1="604.293" y1="143.594" x2="2101.34" y2="565.103" gradientUnits="userSpaceOnUse">
<stop stop-color="white" stop-opacity="0.05"/>
<stop offset="1" stop-color="white" stop-opacity="0.15"/>
</linearGradient>
<linearGradient id="paint64_linear_215_2275" x1="617.221" y1="136.469" x2="2106.16" y2="590.783" gradientUnits="userSpaceOnUse">
<stop stop-color="white" stop-opacity="0.05"/>
<stop offset="1" stop-color="white" stop-opacity="0.15"/>
</linearGradient>
<linearGradient id="paint65_linear_215_2275" x1="630.33" y1="129.563" x2="2110.17" y2="616.502" gradientUnits="userSpaceOnUse">
<stop stop-color="white" stop-opacity="0.05"/>
<stop offset="1" stop-color="white" stop-opacity="0.15"/>
</linearGradient>
<linearGradient id="paint66_linear_215_2275" x1="643.616" y1="122.876" x2="2113.39" y2="642.216" gradientUnits="userSpaceOnUse">
<stop stop-color="white" stop-opacity="0.05"/>
<stop offset="1" stop-color="white" stop-opacity="0.15"/>
</linearGradient>
<linearGradient id="paint67_linear_215_2275" x1="657.075" y1="116.41" x2="2115.82" y2="667.884" gradientUnits="userSpaceOnUse">
<stop stop-color="white" stop-opacity="0.05"/>
<stop offset="1" stop-color="white" stop-opacity="0.15"/>
</linearGradient>
<linearGradient id="paint68_linear_215_2275" x1="670.704" y1="110.169" x2="2117.46" y2="693.464" gradientUnits="userSpaceOnUse">
<stop stop-color="white" stop-opacity="0.05"/>
<stop offset="1" stop-color="white" stop-opacity="0.15"/>
</linearGradient>
<linearGradient id="paint69_linear_215_2275" x1="684.499" y1="104.154" x2="2118.31" y2="718.915" gradientUnits="userSpaceOnUse">
<stop stop-color="white" stop-opacity="0.05"/>
<stop offset="1" stop-color="white" stop-opacity="0.15"/>
</linearGradient>
<linearGradient id="paint70_linear_215_2275" x1="698.454" y1="98.3652" x2="2118.4" y2="744.196" gradientUnits="userSpaceOnUse">
<stop stop-color="white" stop-opacity="0.05"/>
<stop offset="1" stop-color="white" stop-opacity="0.15"/>
</linearGradient>
<linearGradient id="paint71_linear_215_2275" x1="712.566" y1="92.8064" x2="2117.75" y2="769.268" gradientUnits="userSpaceOnUse">
<stop stop-color="white" stop-opacity="0.05"/>
<stop offset="1" stop-color="white" stop-opacity="0.15"/>
</linearGradient>
<linearGradient id="paint72_linear_215_2275" x1="726.831" y1="87.4795" x2="2116.35" y2="794.094" gradientUnits="userSpaceOnUse">
<stop stop-color="white" stop-opacity="0.05"/>
<stop offset="1" stop-color="white" stop-opacity="0.15"/>
</linearGradient>
<linearGradient id="paint73_linear_215_2275" x1="741.243" y1="82.3833" x2="2114.24" y2="818.636" gradientUnits="userSpaceOnUse">
<stop stop-color="white" stop-opacity="0.05"/>
<stop offset="1" stop-color="white" stop-opacity="0.15"/>
</linearGradient>
<linearGradient id="paint74_linear_215_2275" x1="755.799" y1="77.5225" x2="2111.44" y2="842.86" gradientUnits="userSpaceOnUse">
<stop stop-color="white" stop-opacity="0.05"/>
<stop offset="1" stop-color="white" stop-opacity="0.15"/>
</linearGradient>
<linearGradient id="paint75_linear_215_2275" x1="770.495" y1="72.8972" x2="2107.97" y2="866.732" gradientUnits="userSpaceOnUse">
<stop stop-color="white" stop-opacity="0.05"/>
<stop offset="1" stop-color="white" stop-opacity="0.15"/>
</linearGradient>
<linearGradient id="paint76_linear_215_2275" x1="785.325" y1="68.5085" x2="2103.86" y2="890.222" gradientUnits="userSpaceOnUse">
<stop stop-color="white" stop-opacity="0.05"/>
<stop offset="1" stop-color="white" stop-opacity="0.15"/>
</linearGradient>
<linearGradient id="paint77_linear_215_2275" x1="800.285" y1="64.3596" x2="2099.13" y2="913.302" gradientUnits="userSpaceOnUse">
<stop stop-color="white" stop-opacity="0.05"/>
<stop offset="1" stop-color="white" stop-opacity="0.15"/>
</linearGradient>
<linearGradient id="paint78_linear_215_2275" x1="815.372" y1="60.4482" x2="2093.82" y2="935.941" gradientUnits="userSpaceOnUse">
<stop stop-color="white" stop-opacity="0.05"/>
<stop offset="1" stop-color="white" stop-opacity="0.15"/>
</linearGradient>
<linearGradient id="paint79_linear_215_2275" x1="830.579" y1="56.7793" x2="2087.95" y2="958.118" gradientUnits="userSpaceOnUse">
<stop stop-color="white" stop-opacity="0.05"/>
<stop offset="1" stop-color="white" stop-opacity="0.15"/>
</linearGradient>
<linearGradient id="paint80_linear_215_2275" x1="861.338" y1="50.1667" x2="2074.68" y2="1001" gradientUnits="userSpaceOnUse">
<stop stop-color="white" stop-opacity="0.05"/>
<stop offset="1" stop-color="white" stop-opacity="0.15"/>
</linearGradient>
<linearGradient id="paint81_linear_215_2275" x1="876.881" y1="47.2261" x2="2067.34" y2="1021.66" gradientUnits="userSpaceOnUse">
<stop stop-color="white" stop-opacity="0.05"/>
<stop offset="1" stop-color="white" stop-opacity="0.15"/>
</linearGradient>
<linearGradient id="paint82_linear_215_2275" x1="892.525" y1="44.5298" x2="2059.57" y2="1041.79" gradientUnits="userSpaceOnUse">
<stop stop-color="white" stop-opacity="0.05"/>
<stop offset="1" stop-color="white" stop-opacity="0.15"/>
</linearGradient>
<linearGradient id="paint83_linear_215_2275" x1="908.269" y1="42.0793" x2="2051.42" y2="1061.37" gradientUnits="userSpaceOnUse">
<stop stop-color="white" stop-opacity="0.05"/>
<stop offset="1" stop-color="white" stop-opacity="0.15"/>
</linearGradient>
<linearGradient id="paint84_linear_215_2275" x1="924.104" y1="39.876" x2="2042.92" y2="1080.38" gradientUnits="userSpaceOnUse">
<stop stop-color="white" stop-opacity="0.05"/>
<stop offset="1" stop-color="white" stop-opacity="0.15"/>
</linearGradient>
<linearGradient id="paint85_linear_215_2275" x1="940.027" y1="37.9185" x2="2034.09" y2="1098.84" gradientUnits="userSpaceOnUse">
<stop stop-color="white" stop-opacity="0.05"/>
<stop offset="1" stop-color="white" stop-opacity="0.15"/>
</linearGradient>
<linearGradient id="paint86_linear_215_2275" x1="956.034" y1="36.2087" x2="2024.98" y2="1116.72" gradientUnits="userSpaceOnUse">
<stop stop-color="white" stop-opacity="0.05"/>
<stop offset="1" stop-color="white" stop-opacity="0.15"/>
</linearGradient>
<linearGradient id="paint87_linear_215_2275" x1="972.119" y1="34.7485" x2="2015.62" y2="1134.02" gradientUnits="userSpaceOnUse">
<stop stop-color="white" stop-opacity="0.05"/>
<stop offset="1" stop-color="white" stop-opacity="0.15"/>
</linearGradient>
<linearGradient id="paint88_linear_215_2275" x1="988.277" y1="33.5366" x2="2006.03" y2="1150.75" gradientUnits="userSpaceOnUse">
<stop stop-color="white" stop-opacity="0.05"/>
<stop offset="1" stop-color="white" stop-opacity="0.15"/>
</linearGradient>
<linearGradient id="paint89_linear_215_2275" x1="1004.5" y1="32.5728" x2="1996.27" y2="1166.91" gradientUnits="userSpaceOnUse">
<stop stop-color="white" stop-opacity="0.05"/>
<stop offset="1" stop-color="white" stop-opacity="0.15"/>
</linearGradient>
<linearGradient id="paint90_linear_215_2275" x1="1020.79" y1="31.8596" x2="1986.34" y2="1182.5" gradientUnits="userSpaceOnUse">
<stop stop-color="white" stop-opacity="0.05"/>
<stop offset="1" stop-color="white" stop-opacity="0.15"/>
</linearGradient>
<linearGradient id="paint91_linear_215_2275" x1="1037.14" y1="31.3943" x2="1976.29" y2="1197.52" gradientUnits="userSpaceOnUse">
<stop stop-color="white" stop-opacity="0.05"/>
<stop offset="1" stop-color="white" stop-opacity="0.15"/>
</linearGradient>
<linearGradient id="paint92_linear_215_2275" x1="1053.55" y1="31.1802" x2="1966.15" y2="1211.99" gradientUnits="userSpaceOnUse">
<stop stop-color="white" stop-opacity="0.05"/>
<stop offset="1" stop-color="white" stop-opacity="0.15"/>
</linearGradient>
<linearGradient id="paint93_linear_215_2275" x1="1070" y1="31.2158" x2="1955.94" y2="1225.91" gradientUnits="userSpaceOnUse">
<stop stop-color="white" stop-opacity="0.05"/>
<stop offset="1" stop-color="white" stop-opacity="0.15"/>
</linearGradient>
<linearGradient id="paint94_linear_215_2275" x1="1086.49" y1="31.501" x2="1945.69" y2="1239.29" gradientUnits="userSpaceOnUse">
<stop stop-color="white" stop-opacity="0.05"/>
<stop offset="1" stop-color="white" stop-opacity="0.15"/>
</linearGradient>
<linearGradient id="paint95_linear_215_2275" x1="1103.02" y1="32.0342" x2="1935.43" y2="1252.15" gradientUnits="userSpaceOnUse">
<stop stop-color="white" stop-opacity="0.05"/>
<stop offset="1" stop-color="white" stop-opacity="0.15"/>
</linearGradient>
<linearGradient id="paint96_linear_215_2275" x1="1119.59" y1="32.8176" x2="1925.18" y2="1264.5" gradientUnits="userSpaceOnUse">
<stop stop-color="white" stop-opacity="0.05"/>
<stop offset="1" stop-color="white" stop-opacity="0.15"/>
</linearGradient>
<linearGradient id="paint97_linear_215_2275" x1="1136.19" y1="33.8506" x2="1914.96" y2="1276.34" gradientUnits="userSpaceOnUse">
<stop stop-color="white" stop-opacity="0.05"/>
<stop offset="1" stop-color="white" stop-opacity="0.15"/>
</linearGradient>
<linearGradient id="paint98_linear_215_2275" x1="1152.8" y1="35.1328" x2="1904.8" y2="1287.71" gradientUnits="userSpaceOnUse">
<stop stop-color="white" stop-opacity="0.05"/>
<stop offset="1" stop-color="white" stop-opacity="0.15"/>
</linearGradient>
<linearGradient id="paint99_linear_215_2275" x1="628.958" y1="226.579" x2="1052.82" y2="289.528" gradientUnits="userSpaceOnUse">
<stop stop-color="#FAB656"/>
<stop offset="1" stop-color="#C766FF"/>
</linearGradient>
</defs>
</svg>
