<svg width="1440" height="2587" viewBox="0 0 1440 2587" fill="none" xmlns="http://www.w3.org/2000/svg">
<g clip-path="url(#clip0_298_597)">
<rect width="1440" height="2587" fill="#1C1D1D"/>
<path d="M948.241 602.032C956.947 561.21 989.425 529.18 1040.88 506.261C1092.32 483.344 1162.66 469.574 1246.92 465.228C1415.44 456.536 1639.53 485.546 1879.24 554.334C2118.95 623.122 2328.86 718.652 2474.45 817.48C2547.24 866.895 2603.93 917.119 2640.24 965.215C2676.54 1013.32 2692.4 1059.22 2683.69 1100.04C2674.99 1140.86 2642.51 1172.89 2591.06 1195.81C2539.61 1218.73 2469.27 1232.5 2385.01 1236.84C2216.49 1245.53 1992.4 1216.52 1752.69 1147.74C1512.98 1078.95 1303.07 983.419 1157.49 884.591C1084.69 835.175 1028 784.952 991.698 736.855C955.393 688.753 939.535 642.853 948.241 602.032Z" stroke="url(#paint0_linear_298_597)"/>
<path d="M951.032 589.6C960.602 549.034 993.827 517.593 1045.89 495.524C1097.95 473.457 1168.76 460.796 1253.34 457.743C1422.49 451.637 1646.58 483.963 1885.52 556.185C2124.46 628.408 2332.97 726.839 2476.91 827.582C2548.88 877.955 2604.7 928.889 2640.1 977.392C2675.52 1025.9 2690.47 1071.91 2680.9 1112.47C2671.33 1153.04 2638.11 1184.48 2586.05 1206.55C2533.99 1228.61 2463.18 1241.28 2378.6 1244.33C2209.45 1250.43 1985.35 1218.11 1746.41 1145.89C1507.47 1073.66 1298.97 975.233 1155.02 874.49C1083.05 824.117 1027.24 773.182 991.831 724.678C956.418 676.169 941.463 630.166 951.032 589.6Z" stroke="url(#paint1_linear_298_597)"/>
<path d="M954.086 577.247C964.517 536.949 998.478 506.107 1051.13 484.895C1103.79 463.685 1175.05 452.137 1259.92 450.377C1429.65 446.858 1653.68 482.49 1891.78 558.125C2129.88 633.759 2336.91 735.062 2479.17 837.69C2550.3 889.005 2605.21 940.634 2639.72 989.531C2674.23 1038.43 2688.28 1084.52 2677.85 1124.82C2667.42 1165.12 2633.46 1195.96 2580.8 1217.18C2528.15 1238.39 2456.88 1249.93 2372.02 1251.69C2202.28 1255.21 1978.25 1219.58 1740.15 1143.95C1502.06 1068.31 1295.02 967.008 1152.76 864.381C1081.63 813.065 1026.72 761.436 992.214 712.54C957.704 663.638 943.656 617.546 954.086 577.247Z" stroke="url(#paint2_linear_298_597)"/>
<path d="M957.403 564.978C968.692 524.96 1003.38 494.726 1056.61 474.376C1109.84 454.03 1181.54 443.598 1266.67 443.133C1436.93 442.202 1660.83 481.131 1898.01 560.154C2135.19 639.178 2340.7 743.322 2481.23 847.802C2551.5 900.044 2605.49 952.352 2639.09 1001.63C2672.68 1050.91 2685.82 1097.07 2674.53 1137.09C2663.24 1177.11 2628.55 1207.34 2575.32 1227.69C2522.09 1248.04 2450.4 1258.47 2365.26 1258.94C2195 1259.87 1971.1 1220.94 1733.92 1141.92C1496.74 1062.89 1291.23 958.749 1150.7 854.269C1080.43 802.027 1026.44 749.718 992.847 700.444C959.252 651.164 946.115 604.997 957.403 564.978Z" stroke="url(#paint3_linear_298_597)"/>
<path d="M960.982 552.797C973.124 513.07 1008.53 483.454 1062.33 463.974C1116.12 444.496 1188.22 435.186 1273.59 436.014C1444.33 437.672 1668.03 479.883 1904.22 562.272C2140.42 644.661 2344.33 751.614 2483.09 857.916C2552.47 911.068 2605.53 964.04 2638.2 1013.68C2670.87 1063.32 2683.09 1109.55 2670.95 1149.27C2658.81 1189 2623.41 1218.62 2569.61 1238.1C2515.82 1257.57 2443.72 1266.89 2358.34 1266.06C2187.6 1264.4 1963.9 1222.19 1727.71 1139.8C1491.52 1057.41 1287.6 950.457 1148.84 844.156C1079.46 791.003 1026.4 738.031 993.733 688.395C961.062 638.752 948.84 592.524 960.982 552.797Z" stroke="url(#paint4_linear_298_597)"/>
<path d="M964.822 540.706C977.814 501.283 1013.92 472.293 1068.26 453.689C1122.6 435.086 1195.09 426.898 1280.67 429.02C1451.84 433.266 1675.28 478.749 1910.41 564.478C2145.54 650.207 2347.8 759.936 2484.74 868.026C2553.21 922.073 2605.33 975.693 2637.07 1025.68C2668.8 1075.67 2680.1 1121.94 2667.11 1161.36C2654.12 1200.79 2618.01 1229.78 2563.67 1248.38C2509.33 1266.99 2436.84 1275.17 2351.26 1273.05C2180.09 1268.8 1956.66 1223.32 1721.53 1137.59C1486.4 1051.86 1284.13 942.135 1147.19 834.044C1078.72 779.998 1026.6 726.379 994.868 676.395C963.131 626.405 951.829 580.129 964.822 540.706Z" stroke="url(#paint5_linear_298_597)"/>
<path d="M968.921 528.71C982.76 489.602 1019.56 461.247 1074.43 443.523C1129.3 425.802 1202.15 418.739 1287.92 422.155C1459.46 428.987 1682.56 477.727 1916.56 566.77C2150.56 655.813 2351.11 768.285 2486.19 878.131C2553.74 933.056 2604.89 987.306 2635.68 1037.62C2666.47 1087.94 2676.85 1134.25 2663.01 1173.36C2649.17 1212.47 2612.37 1240.82 2557.5 1258.55C2502.63 1276.27 2429.78 1283.33 2344.01 1279.91C2172.47 1273.08 1949.37 1224.34 1715.37 1135.3C1481.37 1046.26 1280.83 933.784 1145.74 823.938C1078.2 769.013 1027.04 714.763 996.255 664.447C965.461 614.125 955.082 567.817 968.921 528.71Z" stroke="url(#paint6_linear_298_597)"/>
<path d="M973.276 516.811C987.958 478.031 1025.44 450.32 1080.83 433.483C1136.21 416.648 1209.4 410.713 1295.33 415.421C1467.19 424.837 1689.89 476.819 1922.68 569.149C2155.48 661.479 2354.25 776.66 2487.44 888.229C2554.03 944.015 2604.21 998.879 2634.04 1049.51C2663.88 1100.15 2673.34 1146.48 2658.66 1185.26C2643.97 1224.04 2606.49 1251.75 2551.1 1268.59C2495.73 1285.42 2422.53 1291.36 2336.6 1286.65C2164.74 1277.23 1942.04 1225.25 1709.25 1132.92C1476.45 1040.59 1277.68 925.409 1144.49 813.84C1077.9 758.054 1027.73 703.189 997.89 652.556C968.05 601.917 958.595 555.591 973.276 516.811Z" stroke="url(#paint7_linear_298_597)"/>
<path d="M977.89 505.015C993.41 466.574 1031.56 439.516 1087.45 423.57C1143.32 407.626 1216.83 402.82 1302.9 408.819C1475.03 420.818 1697.26 476.026 1928.78 571.615C2160.3 667.204 2357.23 785.058 2488.48 898.315C2554.1 954.945 2603.28 1010.41 2632.16 1061.34C2661.04 1112.28 2669.56 1158.61 2654.04 1197.05C2638.52 1235.5 2600.37 1262.55 2544.49 1278.5C2488.61 1294.44 2415.1 1299.25 2329.03 1293.25C2156.91 1281.25 1934.68 1226.04 1703.16 1130.45C1471.64 1034.87 1274.7 917.011 1143.45 803.754C1077.83 747.124 1028.65 691.662 999.775 640.728C970.897 589.787 962.371 543.455 977.89 505.015Z" stroke="url(#paint8_linear_298_597)"/>
<path d="M982.759 493.324C999.112 455.234 1037.93 428.837 1094.29 413.788C1150.64 398.74 1224.45 395.064 1310.62 402.353C1482.97 416.929 1704.66 475.348 1934.83 574.166C2165.01 672.984 2360.05 793.476 2489.32 908.387C2553.95 965.844 2602.12 1021.89 2630.03 1073.11C2657.93 1124.33 2665.53 1170.66 2649.17 1208.75C2632.82 1246.83 2594.01 1273.23 2537.65 1288.28C2481.29 1303.33 2407.49 1307.01 2321.31 1299.72C2148.97 1285.14 1927.28 1226.72 1697.1 1127.9C1466.93 1029.09 1271.89 908.594 1142.62 793.684C1077.98 736.226 1029.81 680.183 1001.91 628.963C974.001 577.736 966.407 531.413 982.759 493.324Z" stroke="url(#paint9_linear_298_597)"/>
<path d="M987.881 481.742C1005.06 444.015 1044.52 418.286 1101.35 404.138C1158.16 389.991 1232.24 387.448 1318.5 396.023C1491.01 413.173 1712.09 474.783 1940.85 576.8C2169.61 678.818 2362.7 801.911 2489.95 918.441C2553.57 976.708 2600.72 1033.31 2627.64 1084.8C2654.57 1136.3 2661.23 1182.6 2644.05 1220.33C2626.87 1258.06 2587.41 1283.78 2530.59 1297.93C2473.77 1312.08 2399.69 1314.62 2313.43 1306.05C2140.93 1288.9 1919.84 1227.29 1691.08 1125.27C1462.32 1023.25 1269.24 900.159 1141.99 783.629C1078.36 725.363 1031.21 668.756 1004.29 617.266C977.362 565.769 970.7 519.47 987.881 481.742Z" stroke="url(#paint10_linear_298_597)"/>
<path d="M993.257 470.273C1011.26 432.92 1051.36 407.867 1108.63 394.623C1165.88 381.382 1240.22 379.971 1326.53 389.831C1499.15 409.549 1719.56 474.331 1946.83 579.517C2174.11 684.704 2365.18 810.361 2490.37 928.474C2552.97 987.532 2599.08 1044.68 2625.01 1096.43C2650.95 1148.18 2656.68 1194.44 2638.68 1231.8C2620.67 1269.15 2580.57 1294.2 2523.31 1307.45C2466.05 1320.69 2391.72 1322.1 2305.4 1312.24C2132.79 1292.52 1912.37 1227.74 1685.1 1122.55C1457.82 1017.37 1266.75 891.709 1141.56 773.596C1078.96 714.537 1032.86 657.384 1006.92 605.639C980.98 553.887 975.253 507.626 993.257 470.273Z" stroke="url(#paint11_linear_298_597)"/>
<path d="M998.882 458.919C1017.7 421.951 1058.43 397.581 1116.12 385.248C1173.8 372.916 1248.37 372.638 1334.71 383.779C1507.39 406.059 1727.06 473.995 1952.78 582.318C2178.5 690.64 2367.5 818.822 2490.59 938.482C2552.14 998.315 2597.2 1056 2622.14 1107.98C2647.08 1159.97 2651.87 1206.18 2633.05 1243.15C2614.23 1280.12 2573.51 1304.49 2515.81 1316.82C2458.13 1329.15 2383.57 1329.43 2297.22 1318.29C2124.55 1296.01 1904.88 1228.07 1679.16 1119.75C1453.44 1011.43 1264.44 883.246 1141.34 763.586C1079.79 703.754 1034.73 646.072 1009.79 594.088C984.85 542.097 980.061 495.888 998.882 458.919Z" stroke="url(#paint12_linear_298_597)"/>
<path d="M1004.76 447.685C1024.39 411.113 1065.73 387.435 1123.83 376.014C1181.92 364.595 1256.69 365.451 1343.04 377.869C1515.72 402.705 1734.58 473.774 1958.68 585.199C2182.78 696.625 2369.64 827.293 2490.61 948.465C2551.09 1009.05 2595.08 1067.25 2619.02 1119.45C2642.96 1171.67 2646.81 1217.81 2627.18 1254.38C2607.54 1290.95 2566.21 1314.63 2508.11 1326.05C2450.01 1337.47 2375.24 1336.62 2288.9 1324.2C2116.22 1299.36 1897.35 1228.29 1673.26 1116.87C1449.16 1005.44 1262.29 874.774 1141.33 753.602C1080.84 693.015 1036.85 634.822 1012.91 582.615C988.974 530.401 985.124 484.257 1004.76 447.685Z" stroke="url(#paint13_linear_298_597)"/>
<path d="M1010.88 436.575C1031.32 400.41 1073.25 377.431 1131.74 366.927C1190.23 356.424 1265.18 358.413 1351.5 372.105C1524.14 399.49 1742.13 473.668 1964.54 588.164C2186.94 702.659 2371.62 835.774 2490.42 958.419C2549.82 1019.74 2592.73 1078.43 2615.65 1130.84C2638.58 1183.26 2641.49 1229.33 2621.05 1265.49C2600.62 1301.66 2558.68 1324.64 2500.19 1335.14C2441.7 1345.64 2366.75 1343.66 2280.43 1329.96C2107.79 1302.58 1889.81 1228.4 1667.4 1113.91C1444.99 999.41 1260.31 866.295 1141.51 743.65C1082.11 682.326 1039.21 623.639 1016.28 571.225C993.35 518.804 990.439 472.739 1010.88 436.575Z" stroke="url(#paint14_linear_298_597)"/>
<path d="M1017.25 425.59C1038.49 389.843 1081 367.57 1139.87 357.986C1198.73 348.403 1273.84 351.523 1360.12 366.486C1532.65 396.41 1749.7 473.678 1970.35 591.207C2191 708.737 2373.43 844.257 2490.02 968.339C2548.32 1030.38 2590.14 1089.54 2612.04 1142.15C2633.96 1194.76 2635.93 1240.73 2614.69 1276.48C2593.45 1312.23 2550.93 1334.5 2492.06 1344.08C2433.2 1353.67 2358.09 1350.55 2271.82 1335.58C2099.28 1305.66 1882.23 1228.39 1661.59 1110.86C1440.94 993.332 1258.5 857.812 1141.91 733.73C1083.61 671.687 1041.8 612.524 1019.89 559.919C997.977 507.307 996.006 461.336 1017.25 425.59Z" stroke="url(#paint15_linear_298_597)"/>
<path d="M1023.86 414.735C1045.89 379.417 1088.98 357.857 1148.2 349.196C1207.42 340.535 1282.67 344.787 1368.87 361.015C1541.25 393.469 1757.29 473.801 1976.11 594.33C2194.93 714.858 2375.07 852.743 2489.42 978.224C2546.6 1040.97 2587.31 1100.59 2608.19 1153.37C2629.08 1206.15 2630.11 1252.02 2608.08 1287.33C2586.04 1322.65 2542.95 1344.21 2483.73 1352.87C2424.51 1361.53 2349.26 1357.28 2263.07 1341.05C2090.68 1308.6 1874.64 1228.27 1655.82 1107.74C1437 987.211 1256.86 849.326 1142.51 723.845C1085.34 661.103 1044.63 601.483 1023.74 548.702C1002.85 495.916 1001.82 450.052 1023.86 414.735Z" stroke="url(#paint16_linear_298_597)"/>
<path d="M1030.71 404.013C1053.53 369.136 1097.18 348.294 1156.74 340.557C1216.29 332.822 1291.66 338.205 1377.75 355.693C1549.93 390.668 1764.9 474.04 1981.83 597.531C2198.76 721.021 2376.54 861.229 2488.62 988.07C2544.65 1051.49 2584.25 1111.55 2604.1 1164.49C2623.96 1217.44 2624.05 1263.18 2601.23 1298.06C2578.41 1332.93 2534.75 1353.78 2475.19 1361.51C2415.64 1369.25 2340.27 1363.87 2254.18 1346.38C2082 1311.4 1867.03 1228.03 1650.1 1104.54C1433.18 981.048 1255.39 840.842 1143.32 714C1087.28 650.578 1047.69 590.518 1027.83 537.578C1007.98 484.633 1007.89 438.891 1030.71 404.013Z" stroke="url(#paint17_linear_298_597)"/>
<path d="M1037.8 393.427C1061.4 359 1105.6 338.883 1165.48 332.074C1225.35 325.267 1300.81 331.777 1386.77 350.521C1558.7 388.006 1772.53 474.392 1987.5 600.807C2202.47 727.222 2377.84 869.709 2487.6 997.872C2542.49 1061.96 2580.95 1122.44 2599.77 1175.52C2618.59 1228.61 2617.74 1274.22 2594.14 1308.64C2570.54 1343.07 2526.34 1363.19 2466.46 1369.99C2406.59 1376.8 2331.13 1370.29 2245.16 1351.55C2073.24 1314.06 1859.41 1227.68 1644.44 1101.26C1429.47 974.846 1254.09 832.359 1144.33 704.196C1089.45 640.112 1050.99 579.631 1032.17 526.549C1013.35 473.461 1014.2 427.854 1037.8 393.427Z" stroke="url(#paint18_linear_298_597)"/>
<path d="M1045.13 382.98C1069.5 349.014 1114.23 329.629 1174.41 323.75C1234.59 317.872 1310.11 325.51 1395.92 345.502C1567.54 385.486 1780.16 474.86 1993.11 604.161C2206.06 733.462 2378.97 878.186 2486.39 1007.63C2540.1 1072.36 2577.42 1133.24 2595.2 1186.45C2612.97 1239.66 2611.18 1285.12 2586.81 1319.09C2562.44 1353.05 2517.7 1372.44 2457.52 1378.32C2397.35 1384.2 2321.82 1376.56 2236.01 1356.57C2064.4 1316.58 1851.77 1227.21 1638.82 1097.91C1425.88 968.606 1252.97 823.883 1145.55 694.437C1091.83 629.712 1054.51 568.828 1036.74 515.619C1018.96 462.404 1020.75 416.946 1045.13 382.98Z" stroke="url(#paint19_linear_298_597)"/>
<path d="M1052.69 372.676C1077.83 339.181 1123.08 320.534 1183.54 315.587C1244 310.64 1319.57 319.402 1405.2 340.637C1576.45 383.107 1787.81 475.444 1998.67 607.591C2209.53 739.738 2379.92 886.653 2484.97 1017.34C2537.49 1082.69 2573.66 1143.96 2590.39 1197.28C2607.12 1250.6 2604.38 1295.9 2579.24 1329.39C2554.11 1362.89 2508.85 1381.54 2448.39 1386.48C2387.93 1391.43 2312.36 1382.67 2226.73 1361.43C2055.48 1318.96 1844.12 1226.63 1633.26 1094.48C1422.41 962.331 1252.01 815.416 1146.97 684.727C1094.44 619.38 1058.27 558.111 1041.55 504.792C1024.82 451.467 1027.55 406.172 1052.69 372.676Z" stroke="url(#paint20_linear_298_597)"/>
<path d="M1060.48 362.518C1086.38 329.504 1132.14 311.6 1192.87 307.586C1253.59 303.573 1329.18 313.455 1414.61 335.927C1585.45 380.871 1795.47 476.14 2004.17 611.094C2212.88 746.047 2380.71 895.11 2483.34 1027C2534.66 1092.95 2569.67 1154.59 2585.34 1208C2601.02 1261.42 2597.35 1306.54 2571.45 1339.55C2545.55 1372.56 2499.79 1390.47 2439.07 1394.48C2378.35 1398.5 2302.75 1388.61 2217.33 1366.14C2046.49 1321.2 1836.46 1225.93 1627.76 1090.97C1419.06 956.021 1251.23 806.958 1148.59 675.065C1097.27 609.117 1062.27 547.483 1046.59 494.07C1030.92 440.65 1034.59 395.532 1060.48 362.518Z" stroke="url(#paint21_linear_298_597)"/>
<path d="M1068.51 352.509C1095.16 319.986 1141.41 302.831 1202.38 299.751C1263.35 296.672 1338.95 307.673 1424.13 331.375C1594.51 378.778 1803.14 476.951 2009.62 614.67C2216.11 752.389 2381.32 903.554 2481.52 1036.61C2531.62 1103.14 2565.45 1165.12 2580.06 1218.61C2594.68 1272.11 2590.07 1317.04 2563.43 1349.56C2536.78 1382.08 2490.53 1399.24 2429.55 1402.32C2368.59 1405.4 2292.99 1394.4 2207.8 1370.69C2037.43 1323.29 1828.8 1225.12 1622.31 1087.4C1415.83 949.68 1250.61 798.515 1150.42 665.459C1100.32 598.929 1066.49 536.949 1051.87 483.457C1037.25 429.96 1041.86 385.032 1068.51 352.509Z" stroke="url(#paint22_linear_298_597)"/>
<path d="M1076.76 342.652C1104.15 310.63 1150.88 294.229 1212.08 292.084C1273.28 289.94 1348.85 302.056 1433.78 326.981C1603.63 376.83 1810.8 477.877 2015.01 618.319C2219.22 758.76 2381.76 911.981 2479.49 1046.16C2528.35 1113.25 2561 1175.56 2574.55 1229.11C2588.11 1282.67 2582.56 1327.4 2555.17 1359.42C2527.78 1391.44 2481.05 1407.84 2419.85 1409.99C2358.66 1412.13 2283.08 1400.01 2198.15 1375.09C2028.3 1325.24 1821.13 1224.19 1616.92 1083.75C1412.72 943.309 1250.17 790.088 1152.45 655.909C1103.58 588.818 1070.94 526.509 1057.38 472.956C1043.83 419.398 1049.38 374.673 1076.76 342.652Z" stroke="url(#paint23_linear_298_597)"/>
<path d="M1085.24 332.949C1113.36 301.439 1160.56 285.796 1221.97 284.588C1283.37 283.379 1358.9 296.605 1443.54 322.745C1612.83 375.024 1818.47 478.915 2020.34 622.037C2222.2 765.159 2382.03 920.389 2477.26 1055.65C2524.87 1123.28 2556.32 1185.9 2568.81 1239.5C2581.3 1293.1 2574.81 1337.61 2546.69 1369.12C2518.57 1400.63 2471.37 1416.27 2409.97 1417.48C2348.56 1418.69 2273.04 1405.46 2188.39 1379.32C2019.11 1327.04 1813.46 1223.15 1611.6 1080.03C1409.73 936.909 1249.9 781.679 1154.68 646.418C1107.06 578.786 1075.61 516.169 1063.13 462.57C1050.63 408.967 1057.12 364.46 1085.24 332.949Z" stroke="url(#paint24_linear_298_597)"/>
<path d="M1093.94 323.405C1122.79 292.415 1170.44 277.535 1232.03 277.263C1293.63 276.99 1369.08 291.325 1453.42 318.672C1622.08 373.365 1826.14 480.067 2025.6 625.826C2225.06 771.585 2382.12 928.777 2474.82 1065.08C2521.17 1133.23 2551.42 1196.14 2562.84 1249.77C2574.26 1303.4 2566.84 1347.67 2537.99 1378.66C2509.14 1409.65 2461.5 1424.53 2399.9 1424.81C2338.31 1425.08 2262.85 1410.74 2178.52 1383.4C2009.85 1328.7 1805.79 1222 1606.33 1076.24C1406.87 930.484 1249.81 773.292 1157.11 636.99C1110.76 568.837 1080.52 505.93 1069.1 452.303C1057.68 398.671 1065.09 354.395 1093.94 323.405Z" stroke="url(#paint25_linear_298_597)"/>
<path d="M1102.86 314.021C1132.43 283.561 1180.51 269.45 1242.28 270.114C1304.04 270.778 1379.41 286.216 1463.4 314.761C1631.4 371.852 1833.81 481.333 2030.8 629.684C2227.8 778.035 2382.05 937.142 2472.19 1074.44C2517.26 1143.09 2546.29 1206.27 2556.64 1259.91C2566.98 1313.56 2558.63 1357.59 2529.07 1388.05C2499.51 1418.51 2451.43 1432.62 2389.66 1431.96C2327.89 1431.29 2252.53 1415.85 2168.53 1387.31C2000.54 1330.22 1798.12 1220.74 1601.13 1072.39C1404.13 924.035 1249.89 764.929 1159.74 627.628C1114.67 558.975 1085.64 495.797 1075.3 442.157C1064.95 388.513 1073.3 344.481 1102.86 314.021Z" stroke="url(#paint26_linear_298_597)"/>
<path d="M1112 304.8C1142.27 274.879 1190.78 261.542 1252.7 263.142C1314.61 264.741 1389.86 281.277 1473.5 311.013C1640.77 370.483 1841.47 482.71 2035.94 633.608C2230.41 784.506 2381.8 945.478 2469.36 1083.74C2513.14 1152.87 2540.94 1216.3 2550.21 1269.93C2559.48 1323.57 2550.2 1367.35 2519.93 1397.27C2489.66 1427.19 2441.16 1440.53 2379.24 1438.93C2317.32 1437.33 2242.07 1420.79 2158.43 1391.06C1991.17 1331.59 1790.46 1219.36 1595.99 1068.46C1401.52 917.562 1250.13 756.591 1162.58 618.332C1118.8 549.201 1090.99 485.772 1081.72 432.136C1072.45 378.495 1081.73 334.722 1112 304.8Z" stroke="url(#paint27_linear_298_597)"/>
<path d="M1121.35 295.747C1152.32 266.374 1201.23 253.813 1263.29 256.348C1325.34 258.883 1400.45 276.513 1483.7 307.429C1650.19 369.262 1849.12 484.2 2041.01 637.599C2232.9 790.999 2381.38 953.787 2466.32 1092.96C2508.8 1162.55 2535.37 1226.21 2543.56 1279.83C2551.75 1333.45 2541.55 1376.95 2510.58 1406.32C2479.61 1435.7 2430.7 1448.26 2368.65 1445.72C2306.6 1443.19 2231.48 1425.56 2148.24 1394.64C1981.74 1332.81 1782.81 1217.87 1590.92 1064.47C1399.04 911.07 1250.56 748.282 1165.61 609.109C1123.14 539.52 1096.56 475.859 1088.37 422.242C1080.18 368.622 1090.38 325.12 1121.35 295.747Z" stroke="url(#paint28_linear_298_597)"/>
<path d="M1130.92 286.863C1162.58 258.047 1211.88 246.266 1274.05 249.737C1336.21 253.207 1411.16 271.924 1494 304.012C1659.67 368.187 1856.77 485.803 2046.01 641.656C2235.26 797.51 2380.78 962.065 2463.09 1102.11C2504.25 1172.14 2529.59 1236.01 2536.69 1289.59C2543.8 1343.17 2532.68 1386.39 2501.02 1415.21C2469.36 1444.02 2420.06 1455.8 2357.89 1452.33C2295.72 1448.86 2220.77 1430.15 2137.94 1398.06C1972.27 1333.88 1775.17 1216.27 1585.92 1060.41C1396.68 904.561 1251.15 740.005 1168.84 599.959C1127.68 529.934 1102.35 466.06 1095.24 412.48C1088.13 358.896 1099.26 315.678 1130.92 286.863Z" stroke="url(#paint29_linear_298_597)"/>
<path d="M1140.69 278.15C1173.03 249.9 1222.71 238.903 1284.97 243.307C1347.23 247.711 1422 267.51 1504.4 300.76C1669.19 367.259 1864.4 487.515 2050.94 645.775C2237.49 804.036 2380.02 970.308 2459.67 1111.18C2499.49 1181.62 2523.58 1245.69 2529.6 1299.22C2535.63 1352.75 2523.58 1395.67 2491.24 1423.92C2458.9 1452.17 2409.23 1463.17 2346.96 1458.76C2284.7 1454.36 2209.94 1434.56 2127.54 1401.31C1962.75 1334.81 1767.54 1214.55 1580.99 1056.29C1394.44 898.034 1251.91 731.761 1172.27 590.885C1132.44 520.445 1108.35 456.378 1102.33 402.85C1096.3 349.32 1108.35 306.399 1140.69 278.15Z" stroke="url(#paint30_linear_298_597)"/>
<path d="M1150.67 269.612C1183.68 241.937 1233.72 231.728 1296.06 237.064C1358.39 242.4 1432.95 263.275 1514.89 297.677C1678.76 366.479 1872.01 489.338 2055.8 649.957C2239.59 810.576 2379.08 978.514 2456.04 1120.18C2494.52 1191.01 2517.36 1255.25 2522.3 1308.71C2527.24 1362.17 2514.27 1404.78 2481.26 1432.46C2448.25 1460.13 2398.22 1470.34 2335.88 1465C2273.54 1459.67 2198.98 1438.79 2117.04 1404.39C1953.18 1335.59 1759.92 1212.73 1576.13 1052.11C1392.34 891.492 1252.85 723.554 1175.89 581.891C1137.41 511.057 1114.58 446.817 1109.64 393.358C1104.7 339.897 1117.66 297.287 1150.67 269.612Z" stroke="url(#paint31_linear_298_597)"/>
<path d="M1160.85 261.251C1194.52 234.159 1244.9 224.74 1307.3 231.007C1369.7 237.274 1444.03 259.219 1525.47 294.762C1688.37 365.846 1879.61 491.273 2060.59 654.202C2241.57 817.13 2377.97 986.683 2452.23 1129.09C2489.35 1200.3 2510.92 1264.69 2514.78 1318.06C2518.63 1371.44 2504.75 1413.73 2471.08 1440.82C2437.41 1467.91 2387.03 1477.33 2324.63 1471.06C2262.24 1464.8 2187.91 1442.85 2106.46 1407.31C1943.57 1336.22 1752.32 1210.8 1571.34 1047.87C1390.37 884.939 1253.96 715.386 1179.71 572.979C1142.58 501.773 1121.01 437.378 1117.16 384.005C1113.31 330.629 1127.18 288.343 1160.85 261.251Z" stroke="url(#paint32_linear_298_597)"/>
<path d="M1171.23 253.069C1205.55 226.569 1256.27 217.944 1318.7 225.14C1381.14 232.335 1455.21 255.343 1536.15 292.016C1698.01 365.361 1887.19 493.316 2065.3 658.505C2243.41 823.693 2376.69 994.81 2448.21 1137.92C2483.97 1209.47 2504.28 1274 2507.04 1327.27C2509.8 1380.55 2495.02 1422.5 2460.7 1449C2426.38 1475.5 2375.67 1484.12 2313.23 1476.93C2250.8 1469.73 2176.72 1446.73 2095.79 1410.05C1933.92 1336.71 1744.74 1208.75 1566.63 1043.56C1388.52 878.375 1255.24 707.259 1183.72 564.151C1147.96 492.595 1127.66 428.065 1124.89 374.794C1122.13 321.52 1136.91 279.57 1171.23 253.069Z" stroke="url(#paint33_linear_298_597)"/>
<path d="M1181.81 245.07C1216.77 219.169 1267.8 211.341 1330.25 219.463C1392.71 227.585 1466.51 251.648 1546.91 289.441C1707.7 365.024 1894.75 495.468 2069.94 662.867C2245.13 830.265 2375.24 1002.89 2444.01 1146.66C2478.39 1218.54 2497.42 1283.19 2499.1 1336.34C2500.77 1389.5 2485.08 1431.1 2450.12 1457C2415.17 1482.9 2364.14 1490.73 2301.68 1482.61C2239.23 1474.48 2165.42 1450.42 2085.03 1412.63C1924.24 1337.04 1737.18 1206.6 1562 1039.2C1386.81 871.803 1256.69 699.175 1187.93 555.41C1153.54 483.526 1134.51 418.882 1132.84 365.729C1131.17 312.573 1146.85 270.972 1181.81 245.07Z" stroke="url(#paint34_linear_298_597)"/>
<path d="M1192.58 237.256C1228.17 211.963 1279.5 204.933 1341.95 213.979C1404.41 223.025 1477.91 248.137 1557.75 287.037C1717.41 364.835 1902.29 497.73 2074.5 667.288C2246.71 836.845 2373.62 1010.93 2439.61 1155.31C2472.61 1227.5 2490.36 1292.24 2490.94 1345.26C2491.53 1398.28 2474.94 1439.52 2439.35 1464.81C2403.77 1490.11 2352.44 1497.14 2289.98 1488.09C2227.53 1479.04 2154.02 1453.93 2074.19 1415.03C1914.52 1337.23 1729.65 1204.34 1557.44 1034.78C1385.23 865.226 1258.31 691.139 1192.32 546.761C1159.33 474.57 1141.58 409.83 1140.99 356.811C1140.41 303.789 1156.99 262.55 1192.58 237.256Z" stroke="url(#paint35_linear_298_597)"/>
<path d="M1203.54 229.629C1239.75 204.951 1291.36 198.722 1353.8 208.69C1416.23 218.657 1489.42 244.81 1568.67 284.805C1727.16 364.795 1909.79 500.099 2078.98 671.763C2248.16 843.427 2371.83 1018.92 2435.03 1163.87C2466.62 1236.34 2483.09 1301.16 2482.58 1354.03C2482.08 1406.9 2464.6 1447.76 2428.39 1472.44C2392.19 1497.12 2340.57 1503.35 2278.14 1493.38C2215.7 1483.41 2142.51 1457.26 2063.26 1417.26C1904.77 1337.27 1722.14 1201.97 1552.96 1030.31C1383.77 858.643 1260.1 683.151 1196.91 538.204C1165.31 465.729 1148.84 400.914 1149.35 348.045C1149.86 295.173 1167.33 254.308 1203.54 229.629Z" stroke="url(#paint36_linear_298_597)"/>
<path d="M1214.69 222.191C1251.5 198.135 1303.38 192.709 1365.78 203.595C1428.18 214.481 1501.03 241.666 1579.66 282.746C1736.94 364.902 1917.27 502.573 2083.38 676.292C2249.48 850.011 2369.87 1026.85 2430.25 1172.33C2460.44 1245.06 2475.62 1309.94 2474.02 1362.64C2472.43 1415.34 2454.06 1455.82 2417.25 1479.88C2380.43 1503.93 2328.55 1509.36 2266.15 1498.47C2203.75 1487.59 2130.91 1460.4 2052.27 1419.32C1895 1337.17 1714.66 1199.5 1548.56 1025.78C1382.45 852.057 1262.06 675.214 1201.68 529.742C1171.49 457.004 1156.32 392.134 1157.91 339.43C1159.51 286.725 1177.87 246.247 1214.69 222.191Z" stroke="url(#paint37_linear_298_597)"/>
<path d="M1226.02 214.944C1263.43 191.518 1315.56 186.897 1377.9 198.698C1440.25 210.499 1512.73 238.709 1590.73 280.86C1746.73 365.158 1924.72 505.155 2087.7 680.876C2250.67 856.597 2367.75 1034.74 2425.29 1180.69C2454.07 1253.67 2467.95 1318.58 2465.26 1371.1C2462.57 1423.62 2443.33 1463.7 2405.92 1487.12C2368.51 1510.55 2316.37 1515.17 2254.03 1503.37C2191.69 1491.57 2119.21 1463.36 2041.2 1421.21C1885.2 1336.91 1707.21 1196.91 1544.24 1021.19C1381.26 845.472 1264.19 667.331 1206.64 521.378C1177.87 448.4 1163.99 383.493 1166.67 330.971C1169.36 278.449 1188.61 238.37 1226.02 214.944Z" stroke="url(#paint38_linear_298_597)"/>
<path d="M1237.53 207.892C1275.52 185.103 1327.89 181.288 1390.16 194C1452.43 206.712 1524.52 235.939 1601.87 279.148C1756.55 365.563 1932.14 507.843 2091.93 685.512C2251.73 863.181 2365.45 1042.57 2420.15 1188.96C2447.49 1262.15 2460.08 1327.07 2456.3 1379.4C2452.53 1431.72 2432.4 1471.39 2394.41 1494.18C2356.41 1516.97 2304.04 1520.78 2241.78 1508.07C2179.51 1495.36 2107.41 1466.13 2030.07 1422.92C1875.38 1336.51 1699.8 1194.23 1540 1016.56C1380.21 838.888 1266.49 659.503 1211.79 513.114C1184.44 439.918 1171.86 374.995 1175.63 322.672C1179.41 270.349 1199.53 230.681 1237.53 207.892Z" stroke="url(#paint39_linear_298_597)"/>
<path d="M1249.21 201.035C1287.78 178.891 1340.37 175.883 1402.55 189.503C1464.72 203.122 1536.41 233.356 1613.07 277.61C1766.39 366.115 1939.52 510.634 2096.09 690.197C2252.65 869.761 2362.99 1050.34 2414.81 1197.12C2440.73 1270.51 2452.01 1335.43 2447.15 1387.54C2442.29 1439.64 2421.29 1478.89 2382.72 1501.03C2344.15 1523.18 2291.56 1526.19 2229.39 1512.57C2167.22 1498.95 2095.53 1468.71 2018.87 1424.46C1865.54 1335.96 1692.42 1191.43 1535.85 1011.87C1379.28 832.309 1268.95 651.734 1217.12 504.954C1191.21 431.562 1179.93 366.643 1184.79 314.534C1189.65 262.425 1210.65 223.18 1249.21 201.035Z" stroke="url(#paint40_linear_298_597)"/>
<path d="M1261.07 194.376C1300.2 172.883 1353 170.683 1415.06 185.206C1477.12 199.728 1548.37 230.961 1624.33 276.246C1776.25 366.814 1946.86 513.53 2100.15 694.932C2253.44 876.335 2360.36 1058.04 2409.3 1205.17C2433.78 1278.74 2443.75 1343.63 2437.8 1395.51C2431.85 1447.39 2409.99 1486.2 2370.86 1507.69C2331.74 1529.19 2278.94 1531.39 2216.88 1516.86C2154.82 1502.34 2083.56 1471.11 2007.6 1425.82C1855.69 1335.25 1685.07 1188.54 1531.78 1007.14C1378.49 825.734 1271.58 644.025 1222.63 496.898C1198.16 423.332 1188.19 358.437 1194.13 306.558C1200.08 254.679 1221.94 215.869 1261.07 194.376Z" stroke="url(#paint41_linear_298_597)"/>
<path d="M1273.1 187.918C1312.78 167.082 1365.76 165.692 1427.69 181.113C1489.62 196.535 1560.42 228.755 1635.65 275.058C1786.11 367.661 1954.16 516.528 2104.13 699.715C2254.1 882.901 2357.56 1065.69 2403.61 1213.12C2426.63 1286.83 2435.3 1351.69 2428.26 1403.32C2421.23 1454.95 2398.51 1493.31 2358.84 1514.15C2319.16 1534.99 2266.17 1536.38 2204.24 1520.96C2142.32 1505.53 2071.51 1473.31 1996.28 1427.01C1845.82 1334.41 1677.77 1185.54 1527.8 1002.35C1377.83 819.167 1274.38 636.38 1228.33 488.95C1205.3 415.234 1196.64 350.382 1203.67 298.749C1210.7 247.116 1233.42 208.754 1273.1 187.918Z" stroke="url(#paint42_linear_298_597)"/>
<path d="M1285.29 181.661C1325.51 161.49 1378.67 160.908 1440.44 177.224C1502.22 193.54 1572.55 226.739 1647.03 274.045C1795.98 368.655 1961.43 519.628 2108.03 704.543C2254.63 889.458 2354.6 1073.27 2397.74 1220.96C2419.31 1294.8 2426.66 1359.59 2418.54 1410.96C2410.43 1462.33 2386.86 1500.24 2346.64 1520.41C2306.43 1540.58 2253.27 1541.16 2191.49 1524.84C2129.72 1508.53 2059.38 1475.33 1984.91 1428.02C1835.95 1333.41 1670.51 1182.44 1523.91 997.525C1377.31 812.61 1277.34 628.799 1234.2 481.113C1212.63 407.268 1205.28 342.479 1213.39 291.108C1221.51 239.737 1245.08 201.833 1285.29 181.661Z" stroke="url(#paint43_linear_298_597)"/>
<path d="M1297.65 175.609C1338.39 156.107 1391.7 156.335 1453.31 173.54C1514.91 190.745 1584.75 224.913 1658.46 273.209C1805.86 369.797 1968.64 522.829 2111.83 709.416C2255.02 896.003 2351.47 1080.78 2391.69 1228.68C2411.79 1302.63 2417.83 1367.34 2408.64 1418.43C2399.44 1469.52 2375.03 1506.96 2334.29 1526.46C2293.55 1545.96 2240.23 1545.73 2178.63 1528.53C2117.02 1511.32 2047.18 1477.15 1973.48 1428.86C1826.07 1332.27 1663.29 1179.24 1520.11 992.652C1376.92 806.065 1280.46 621.287 1240.25 473.389C1220.14 399.438 1214.11 334.731 1223.3 283.637C1232.49 232.544 1256.9 195.11 1297.65 175.609Z" stroke="url(#paint44_linear_298_597)"/>
<path d="M1310.16 169.763C1351.41 150.938 1404.87 151.975 1466.29 170.064C1527.7 188.153 1597.02 223.279 1669.93 272.548C1815.75 371.086 1975.81 526.132 2115.54 714.334C2255.27 902.536 2348.18 1088.22 2385.46 1236.29C2404.1 1310.32 2408.82 1374.93 2398.55 1425.73C2388.28 1476.53 2363.03 1513.48 2321.78 1532.31C2280.52 1551.13 2227.07 1550.09 2165.65 1532.01C2104.23 1513.92 2034.91 1478.79 1962 1429.52C1816.19 1330.98 1656.12 1175.94 1516.39 987.736C1376.66 799.534 1283.75 613.845 1246.47 465.779C1227.84 391.745 1223.11 327.141 1233.38 276.34C1243.65 225.54 1268.9 188.588 1310.16 169.763Z" stroke="url(#paint45_linear_298_597)"/>
<path d="M1322.82 164.124C1364.58 145.98 1418.16 147.827 1479.37 166.794C1540.58 185.762 1609.36 221.836 1681.45 272.065C1825.63 372.521 1982.93 529.532 2119.16 719.292C2255.4 909.052 2344.73 1095.59 2379.06 1243.78C2396.22 1317.88 2399.63 1382.36 2388.29 1432.85C2376.94 1483.34 2350.86 1519.8 2309.11 1537.95C2267.35 1556.09 2213.77 1554.24 2152.57 1535.28C2091.36 1516.31 2022.57 1480.23 1950.48 1430.01C1806.3 1329.55 1649 1172.54 1512.77 982.777C1376.54 793.018 1287.2 606.476 1252.87 458.288C1235.71 384.193 1232.3 319.71 1243.65 269.217C1254.99 218.726 1281.07 182.267 1322.82 164.124Z" stroke="url(#paint46_linear_298_597)"/>
<path d="M1335.64 158.694C1377.88 141.238 1431.57 143.894 1492.55 163.734C1553.54 183.574 1621.77 220.584 1693.02 271.757C1835.51 374.101 1990.01 533.03 2122.7 724.29C2255.39 915.55 2341.12 1102.89 2372.49 1251.15C2388.18 1325.29 2390.26 1389.63 2377.85 1439.8C2365.44 1489.97 2338.54 1525.92 2296.29 1543.38C2254.05 1560.83 2200.36 1558.18 2139.38 1538.34C2078.4 1518.5 2010.17 1481.49 1938.92 1430.31C1796.42 1327.97 1641.93 1169.04 1509.24 977.779C1376.55 786.519 1290.81 599.18 1259.44 450.915C1243.76 376.782 1241.67 312.442 1254.09 262.273C1266.5 212.104 1293.4 176.15 1335.64 158.694Z" stroke="url(#paint47_linear_298_597)"/>
<path d="M1348.61 153.474C1391.32 136.712 1445.1 140.175 1505.84 160.881C1566.58 181.588 1634.23 219.523 1704.62 271.625C1845.39 375.827 1997.02 536.626 2126.13 729.327C2255.24 922.028 2337.35 1110.11 2365.75 1258.4C2379.95 1332.55 2380.72 1396.73 2367.24 1446.56C2353.76 1496.39 2326.05 1531.83 2283.33 1548.59C2240.61 1565.36 2186.83 1561.89 2126.1 1541.19C2065.36 1520.48 1997.71 1482.55 1927.32 1430.44C1786.55 1326.24 1634.91 1165.44 1505.8 972.742C1376.69 780.04 1294.58 591.96 1266.18 443.664C1251.98 369.515 1251.21 305.336 1264.69 255.505C1278.17 205.676 1305.89 170.237 1348.61 153.474Z" stroke="url(#paint48_linear_298_597)"/>
<path d="M1361.71 148.469C1404.89 132.405 1458.74 136.676 1519.22 158.242C1579.69 179.809 1646.74 218.658 1716.25 271.672C1855.25 377.698 2003.99 540.318 2129.47 734.403C2254.96 928.487 2333.42 1117.25 2358.85 1265.53C2371.56 1339.67 2371.01 1403.67 2356.46 1453.15C2341.92 1502.62 2313.41 1537.54 2270.22 1553.6C2227.04 1569.67 2173.19 1565.4 2112.72 1543.83C2052.24 1522.26 1985.19 1483.41 1915.69 1430.4C1776.68 1324.37 1627.95 1161.75 1502.46 967.669C1376.97 773.584 1298.51 584.821 1273.09 436.539C1260.38 362.396 1260.93 298.399 1275.47 248.923C1290.01 199.448 1318.53 164.534 1361.71 148.469Z" stroke="url(#paint49_linear_298_597)"/>
<path d="M1374.95 143.677C1418.58 128.315 1472.49 133.391 1532.69 155.812C1592.88 178.232 1659.31 217.983 1727.91 271.894C1865.11 379.713 2010.89 544.104 2132.72 739.512C2254.55 934.92 2329.34 1124.31 2351.77 1272.53C2362.99 1346.65 2361.12 1410.44 2345.52 1459.55C2329.92 1508.66 2300.61 1543.03 2256.98 1558.39C2213.35 1573.75 2159.44 1568.68 2099.25 1546.26C2039.05 1523.84 1972.62 1484.09 1904.02 1430.18C1766.83 1322.36 1621.04 1157.97 1499.21 962.559C1377.38 767.15 1302.6 577.762 1280.16 429.538C1268.94 355.425 1270.81 291.627 1286.41 242.52C1302.01 193.415 1331.32 159.038 1374.95 143.677Z" stroke="url(#paint50_linear_298_597)"/>
<path d="M1388.33 139.1C1432.4 124.446 1486.35 130.327 1546.24 153.594C1606.14 176.862 1671.93 217.501 1739.6 272.292C1874.94 381.871 2017.74 547.983 2135.87 744.655C2254.01 941.328 2325.09 1131.28 2344.54 1279.4C2354.26 1353.47 2351.07 1417.04 2334.42 1465.77C2317.77 1514.49 2287.67 1548.32 2243.6 1562.97C2199.54 1577.62 2145.59 1571.74 2085.69 1548.48C2025.8 1525.21 1960.01 1484.57 1892.33 1429.78C1756.99 1320.2 1614.2 1154.09 1496.06 957.414C1377.93 760.742 1306.84 570.785 1287.39 422.666C1277.67 348.605 1280.86 285.027 1297.51 236.305C1314.17 187.584 1344.27 153.753 1388.33 139.1Z" stroke="url(#paint51_linear_298_597)"/>
<path d="M1401.84 134.74C1446.33 120.799 1500.3 127.482 1559.88 151.589C1619.46 175.697 1684.59 217.213 1751.31 272.867C1884.77 384.173 2024.52 551.955 2138.92 749.832C2253.33 947.708 2320.69 1138.18 2337.14 1286.15C2345.37 1360.13 2340.86 1423.47 2323.16 1471.79C2305.46 1520.12 2274.58 1553.39 2230.1 1567.33C2185.61 1581.27 2131.63 1574.59 2072.05 1550.48C2012.48 1526.37 1947.35 1484.86 1880.62 1429.2C1747.17 1317.9 1607.41 1150.11 1493.01 952.238C1378.61 754.361 1311.24 563.895 1294.79 415.924C1286.57 341.938 1291.07 278.6 1308.77 230.276C1326.47 181.954 1357.35 148.681 1401.84 134.74Z" stroke="url(#paint52_linear_298_597)"/>
<path d="M1415.47 130.598C1460.37 117.374 1514.36 124.857 1573.59 149.796C1632.84 174.736 1697.29 217.118 1763.05 273.618C1894.57 386.617 2031.24 556.018 2141.88 755.039C2252.52 954.06 2316.14 1144.98 2329.59 1292.75C2336.31 1366.64 2330.49 1429.72 2311.75 1477.63C2293 1525.54 2261.36 1558.25 2216.46 1571.47C2171.56 1584.7 2117.58 1577.21 2058.34 1552.27C1999.1 1527.33 1934.65 1484.95 1868.89 1428.45C1737.37 1315.45 1600.69 1146.05 1490.05 947.031C1379.42 748.01 1315.79 557.092 1302.35 409.315C1295.62 335.426 1301.45 272.346 1320.19 224.436C1338.93 176.528 1370.58 143.822 1415.47 130.598Z" stroke="url(#paint53_linear_298_597)"/>
<path d="M1429.23 126.676C1474.52 114.173 1528.5 122.454 1587.38 148.218C1646.27 173.983 1710.02 217.216 1774.8 274.545C1904.34 389.202 2037.9 560.171 2144.74 760.276C2251.57 960.38 2311.44 1151.69 2321.88 1299.23C2327.1 1373 2319.96 1435.8 2300.18 1483.28C2280.4 1530.76 2248 1562.89 2202.71 1575.39C2157.41 1587.9 2103.43 1579.62 2044.55 1553.85C1985.66 1528.09 1921.91 1484.85 1857.14 1427.52C1727.59 1312.87 1594.04 1141.9 1487.2 941.795C1380.36 741.69 1320.5 550.378 1310.06 402.841C1304.84 329.071 1311.97 266.269 1331.75 218.788C1351.53 171.308 1383.94 139.179 1429.23 126.676Z" stroke="url(#paint54_linear_298_597)"/>
<path d="M1443.1 122.975C1488.77 111.196 1542.73 120.273 1601.24 146.854C1659.76 173.436 1722.79 217.507 1786.56 275.648C1914.09 391.929 2044.49 564.413 2147.49 765.54C2250.49 966.667 2306.58 1158.31 2314.01 1305.57C2317.73 1379.19 2309.28 1441.7 2288.47 1488.74C2267.66 1535.78 2234.5 1567.32 2188.83 1579.1C2143.16 1590.87 2089.2 1581.8 2030.69 1555.22C1972.18 1528.63 1909.14 1484.56 1845.38 1426.42C1717.84 1310.14 1587.45 1137.66 1484.44 936.53C1381.44 735.404 1325.35 543.756 1317.92 396.503C1314.21 322.875 1322.66 260.37 1343.47 213.331C1364.28 166.294 1397.43 134.753 1443.1 122.975Z" stroke="url(#paint55_linear_298_597)"/>
<path d="M1457.09 119.495C1503.13 108.445 1557.05 118.315 1615.17 145.705C1673.29 173.096 1735.59 217.992 1798.33 276.927C1923.81 394.795 2051.01 568.742 2150.15 770.83C2249.28 972.918 2301.58 1164.84 2306 1311.77C2308.21 1385.23 2298.45 1447.42 2276.61 1494C2254.78 1540.58 2220.88 1571.53 2174.84 1582.58C2128.8 1593.63 2074.89 1583.76 2016.77 1556.37C1958.64 1528.97 1896.35 1484.08 1833.61 1425.14C1708.12 1307.28 1580.93 1133.33 1481.79 931.24C1382.65 729.152 1330.36 537.228 1325.94 390.304C1323.73 316.841 1333.49 254.651 1355.32 208.069C1377.16 161.489 1411.05 130.545 1457.09 119.495Z" stroke="url(#paint56_linear_298_597)"/>
<path d="M1471.19 116.238C1517.58 105.919 1571.44 116.579 1629.15 144.769C1686.87 172.961 1748.41 218.669 1810.1 278.379C1933.5 397.8 2057.45 573.157 2152.7 776.145C2247.94 979.132 2296.42 1171.27 2297.83 1317.82C2298.53 1391.1 2287.47 1452.96 2264.61 1499.07C2241.76 1545.18 2207.14 1575.51 2160.75 1585.83C2114.35 1596.15 2060.5 1585.49 2002.78 1557.3C1945.06 1529.11 1883.53 1483.4 1821.83 1423.69C1698.44 1304.27 1574.48 1128.91 1479.24 925.925C1383.99 722.937 1335.51 530.794 1334.1 384.244C1333.4 310.968 1344.47 249.113 1367.32 203.002C1390.17 156.893 1424.79 126.556 1471.19 116.238Z" stroke="url(#paint57_linear_298_597)"/>
<path d="M1485.39 113.205C1532.12 103.622 1585.91 115.069 1643.19 144.051C1700.49 173.035 1761.25 219.54 1821.88 280.008C1943.15 400.945 2063.82 577.658 2155.15 781.483C2246.47 985.309 2291.12 1177.61 2289.52 1323.74C2288.71 1396.81 2276.34 1458.31 2252.48 1503.94C2228.62 1549.56 2193.28 1579.28 2146.55 1588.86C2099.81 1598.45 2046.03 1587 1988.74 1558.02C1931.45 1529.04 1870.69 1482.53 1810.05 1422.06C1688.79 1301.13 1568.11 1124.41 1476.79 920.588C1385.47 716.762 1340.81 524.46 1342.42 378.328C1343.22 305.261 1355.59 243.759 1379.45 198.134C1403.32 152.511 1438.66 122.788 1485.39 113.205Z" stroke="url(#paint58_linear_298_597)"/>
<path d="M1499.69 110.397C1546.75 101.552 1600.44 113.781 1657.29 143.546C1714.14 173.313 1774.11 220.601 1833.66 281.809C1952.76 404.224 2070.12 582.24 2157.49 786.841C2244.86 991.442 2285.68 1183.85 2281.06 1329.52C2278.75 1402.35 2265.08 1463.48 2240.21 1508.61C2215.35 1553.73 2179.3 1582.83 2132.24 1591.67C2085.19 1600.52 2031.49 1588.29 1974.64 1558.52C1917.79 1528.76 1857.83 1481.47 1798.28 1420.26C1679.18 1297.84 1561.81 1119.83 1474.44 915.228C1387.07 710.627 1346.25 518.223 1350.87 372.554C1353.18 299.718 1366.85 238.589 1391.72 193.463C1416.59 148.339 1452.63 119.242 1499.69 110.397Z" stroke="url(#paint59_linear_298_597)"/>
<path d="M1514.09 107.815C1561.46 99.7104 1615.05 112.719 1671.43 143.258C1727.82 173.799 1786.97 221.857 1845.43 283.786C1962.33 407.642 2076.34 586.906 2159.73 792.22C2243.13 997.535 2280.09 1189.98 2272.46 1335.14C2268.65 1407.73 2253.68 1468.46 2227.82 1513.08C2201.96 1557.69 2165.21 1586.15 2117.84 1594.26C2070.48 1602.36 2016.89 1589.35 1960.5 1558.81C1904.11 1528.27 1844.96 1480.21 1786.51 1418.28C1669.61 1294.43 1555.59 1115.16 1472.2 909.85C1388.8 704.535 1351.84 512.089 1359.47 366.927C1363.29 294.345 1378.25 233.607 1404.11 188.993C1429.98 144.382 1466.72 115.919 1514.09 107.815Z" stroke="url(#paint60_linear_298_597)"/>
<path d="M1528.58 105.458C1576.24 98.0976 1629.71 111.882 1685.62 143.186C1741.53 174.492 1799.86 223.303 1857.19 285.934C1971.85 411.194 2082.48 591.652 2161.87 797.617C2241.26 1003.58 2274.37 1196.01 2263.72 1340.62C2258.4 1412.93 2242.15 1473.26 2215.3 1517.35C2188.45 1561.43 2151.02 1589.25 2103.35 1596.61C2055.69 1603.97 2002.22 1590.19 1946.31 1558.88C1890.4 1527.58 1832.08 1478.77 1774.75 1416.14C1660.08 1290.88 1549.45 1110.42 1470.06 904.453C1390.67 698.488 1357.57 506.058 1368.21 361.447C1373.53 289.141 1389.78 228.812 1416.64 184.725C1443.49 140.641 1480.91 112.819 1528.58 105.458Z" stroke="url(#paint61_linear_298_597)"/>
<path d="M1543.16 103.329C1591.1 96.7143 1644.43 111.269 1699.85 143.329C1755.26 175.39 1812.74 224.941 1868.94 288.254C1981.33 414.879 2088.54 596.476 2163.91 803.03C2239.27 1009.58 2268.5 1201.94 2254.85 1345.95C2248.03 1417.96 2230.49 1477.86 2202.66 1521.41C2174.83 1564.96 2136.72 1592.13 2088.78 1598.74C2040.83 1605.36 1987.5 1590.8 1932.09 1558.74C1876.67 1526.68 1819.19 1477.13 1763 1413.82C1650.6 1287.19 1543.39 1105.59 1468.03 899.04C1392.66 692.487 1363.44 500.131 1377.08 356.115C1383.91 284.107 1401.45 224.206 1429.28 180.659C1457.11 137.115 1495.21 109.945 1543.16 103.329Z" stroke="url(#paint62_linear_298_597)"/>
<path d="M1557.82 101.429C1606.03 95.561 1659.2 110.884 1714.11 143.688C1769.02 176.495 1825.62 226.77 1880.67 290.746C1990.76 418.699 2094.52 601.38 2165.83 808.458C2237.15 1015.54 2262.49 1207.76 2245.84 1351.14C2237.52 1422.82 2218.7 1482.28 2189.9 1525.27C2161.1 1568.26 2122.33 1594.77 2074.12 1600.64C2025.9 1606.51 1972.73 1591.19 1917.83 1558.38C1862.92 1525.58 1806.31 1475.3 1751.27 1411.32C1641.18 1283.37 1537.42 1100.69 1466.1 893.614C1394.79 686.535 1369.44 494.311 1386.09 350.935C1394.41 279.247 1413.24 219.793 1442.04 176.799C1470.84 133.808 1509.6 107.296 1557.82 101.429Z" stroke="url(#paint63_linear_298_597)"/>
<path d="M1572.56 99.7554C1621.02 94.6375 1674.02 110.723 1728.4 144.263C1782.78 177.805 1838.51 228.788 1892.38 293.409C2000.13 422.649 2100.41 606.358 2167.65 813.898C2234.89 1021.44 2256.35 1213.47 2236.71 1356.16C2226.88 1427.51 2206.79 1486.5 2177.02 1528.93C2147.26 1571.35 2107.84 1597.2 2059.38 1602.31C2010.91 1607.43 1957.91 1591.35 1903.53 1557.81C1849.15 1524.27 1793.43 1473.28 1739.55 1408.66C1631.8 1279.42 1531.52 1095.71 1464.28 888.173C1397.04 680.632 1375.58 488.6 1395.23 345.907C1405.05 274.56 1425.15 215.57 1454.91 173.142C1484.68 130.717 1524.09 104.873 1572.56 99.7554Z" stroke="url(#paint64_linear_298_597)"/>
<path d="M1587.37 98.3112C1684.78 89.5777 1798.66 165.711 1904.07 296.242C2009.45 426.731 2106.22 611.411 2169.37 819.35C2232.51 1027.29 2250.08 1219.07 2227.44 1361.04C2204.8 1503.05 2141.97 1595.03 2044.56 1603.76C1947.15 1612.49 1833.28 1536.36 1727.86 1405.83C1622.49 1275.34 1525.72 1090.66 1462.57 882.721C1399.42 674.782 1381.86 483 1404.49 341.034C1427.14 199.021 1489.96 107.045 1587.37 98.3112Z" stroke="url(#paint65_linear_298_597)"/>
<path d="M1602.25 97.0962C1700.11 89.8682 1812.72 167.504 1915.73 299.243C2018.71 430.941 2111.93 616.536 2170.97 824.811C2230.01 1033.09 2243.67 1224.56 2218.05 1365.76C2192.42 1507 2127.53 1597.74 2029.68 1604.97C1931.83 1612.2 1819.21 1534.57 1716.2 1402.83C1613.23 1271.13 1520 1085.53 1460.96 877.258C1401.93 668.983 1388.27 477.511 1413.89 336.314C1439.51 195.072 1504.4 104.324 1602.25 97.0962Z" stroke="url(#paint66_linear_298_597)"/>
<path d="M1617.2 96.111C1715.47 90.3903 1826.79 169.505 1927.36 302.413C2027.91 435.279 2117.56 621.734 2172.47 830.281C2227.38 1038.83 2237.13 1229.93 2208.53 1370.32C2179.93 1510.75 2113 1600.24 2014.73 1605.96C1916.46 1611.68 1805.14 1532.56 1704.57 1399.66C1604.03 1266.79 1514.38 1080.34 1459.47 871.788C1404.56 663.242 1394.8 472.136 1423.4 331.752C1452 191.324 1518.93 101.832 1617.2 96.111Z" stroke="url(#paint67_linear_298_597)"/>
<path d="M1632.21 95.356C1730.86 91.1446 1840.86 171.715 1938.96 305.75C2037.04 439.745 2123.09 627.002 2173.85 835.757C2224.62 1044.51 2230.46 1235.19 2198.9 1374.72C2167.33 1514.29 2098.38 1602.5 1999.72 1606.71C1901.07 1610.93 1791.08 1530.35 1692.97 1396.32C1594.9 1262.33 1508.84 1075.07 1458.08 866.312C1407.32 657.557 1401.47 466.877 1433.03 327.348C1464.61 187.777 1533.56 99.5675 1632.21 95.356Z" stroke="url(#paint68_linear_298_597)"/>
<path d="M1647.27 94.8317C1746.28 92.131 1854.91 174.132 1950.52 309.254C2046.1 444.336 2128.53 632.339 2175.13 841.239C2221.73 1050.14 2223.67 1240.34 2189.15 1378.97C2154.62 1517.64 2083.67 1604.54 1984.66 1607.24C1885.65 1609.94 1777.02 1527.94 1681.41 1392.82C1585.83 1257.73 1503.4 1069.73 1456.8 860.833C1410.2 651.933 1408.26 461.735 1442.78 323.104C1477.31 184.432 1548.27 97.5324 1647.27 94.8317Z" stroke="url(#paint69_linear_298_597)"/>
<path d="M1662.39 94.5359C1761.72 93.3472 1868.96 176.754 1962.04 312.922C2055.1 449.05 2133.88 637.74 2176.3 846.721C2218.73 1055.7 2216.75 1245.36 2179.29 1383.05C2141.81 1520.78 2068.88 1606.34 1969.54 1607.53C1870.21 1608.72 1762.97 1525.31 1669.89 1389.15C1576.84 1253.02 1498.06 1064.33 1455.63 855.348C1413.21 646.366 1415.18 456.71 1452.65 319.019C1490.13 181.288 1563.06 95.725 1662.39 94.5359Z" stroke="url(#paint70_linear_298_597)"/>
<path d="M1677.55 94.4717C1777.18 94.7948 1882.99 179.582 1973.52 316.753C2064.02 453.886 2139.13 643.207 2177.36 852.206C2215.6 1061.2 2209.72 1250.26 2169.31 1386.97C2128.9 1523.72 2054.01 1607.92 1954.38 1607.6C1854.75 1607.27 1748.95 1522.49 1658.42 1385.32C1567.92 1248.18 1492.81 1058.86 1454.57 849.862C1416.33 640.863 1422.22 451.805 1462.62 315.097C1503.04 178.35 1577.93 94.1489 1677.55 94.4717Z" stroke="url(#paint71_linear_298_597)"/>
<path d="M1692.76 94.6388C1792.65 96.4741 1897 182.615 1984.94 320.749C2072.86 458.845 2144.28 648.739 2178.31 857.692C2212.35 1066.64 2202.56 1255.05 2159.23 1390.73C2115.89 1526.45 2039.07 1609.27 1939.18 1607.43C1839.28 1605.6 1734.94 1519.46 1646.99 1381.32C1559.07 1243.22 1487.66 1053.33 1453.62 844.378C1419.58 635.425 1429.38 447.024 1472.7 311.339C1516.04 175.616 1592.87 92.8037 1692.76 94.6388Z" stroke="url(#paint72_linear_298_597)"/>
<path d="M1708 95.0347C1808.12 98.3814 1910.98 185.851 1996.32 324.905C2081.63 463.922 2149.33 654.331 2179.15 863.174C2208.98 1072.02 2195.28 1259.7 2149.04 1394.32C2102.8 1528.98 2024.06 1610.38 1923.93 1607.03C1823.81 1603.69 1720.95 1516.22 1635.62 1377.16C1550.3 1238.15 1482.61 1047.74 1452.78 838.894C1422.95 630.051 1436.65 442.364 1482.89 307.744C1529.14 173.088 1607.87 91.6882 1708 95.0347Z" stroke="url(#paint73_linear_298_597)"/>
<path d="M1723.27 95.6616C1823.6 100.519 1924.93 189.29 2007.64 329.223C2090.32 469.118 2154.28 659.984 2179.88 868.654C2205.49 1077.32 2187.89 1264.24 2138.76 1397.75C2089.61 1531.3 2008.99 1611.26 1908.66 1606.41C1808.33 1601.55 1707 1512.78 1624.3 1372.85C1541.62 1232.95 1477.66 1042.09 1452.05 833.416C1426.45 624.746 1444.05 437.829 1493.18 304.315C1542.32 170.766 1622.95 90.8045 1723.27 95.6616Z" stroke="url(#paint74_linear_298_597)"/>
<path d="M1738.58 96.519C1839.08 102.886 1938.85 192.931 2018.9 333.699C2098.92 474.431 2159.12 665.695 2180.5 874.128C2201.88 1082.56 2180.38 1268.65 2128.37 1401.02C2076.34 1533.42 1993.86 1611.92 1893.36 1605.55C1792.86 1599.18 1693.08 1509.14 1613.04 1368.37C1533.01 1227.64 1472.81 1036.38 1451.43 827.943C1430.06 619.509 1451.55 433.42 1503.56 301.053C1555.59 168.652 1638.08 90.1524 1738.58 96.519Z" stroke="url(#paint75_linear_298_597)"/>
<path d="M1753.9 97.6055C1854.55 105.479 1952.74 196.771 2030.1 338.332C2107.44 479.857 2163.86 671.461 2181.01 879.594C2198.15 1087.73 2172.77 1272.93 2117.89 1404.11C2063 1535.33 1978.67 1612.34 1878.03 1604.46C1777.39 1596.59 1679.2 1505.3 1601.84 1363.74C1524.49 1222.21 1468.07 1030.61 1450.93 822.475C1433.78 614.342 1459.17 429.138 1514.05 297.958C1568.94 166.744 1653.26 89.7315 1753.9 97.6055Z" stroke="url(#paint76_linear_298_597)"/>
<path d="M1769.25 98.9228C1870 108.302 1966.58 200.813 2041.23 343.123C2115.87 485.398 2168.5 677.285 2181.4 885.054C2194.31 1092.82 2165.04 1277.09 2107.32 1407.04C2049.57 1537.03 1963.44 1612.53 1862.68 1603.15C1761.93 1593.77 1665.36 1501.26 1590.7 1358.95C1516.07 1216.67 1463.44 1024.79 1450.53 817.018C1437.63 609.249 1466.89 424.986 1524.62 295.032C1582.36 165.047 1668.5 89.5442 1769.25 98.9228Z" stroke="url(#paint77_linear_298_597)"/>
<path d="M1784.61 100.467C1885.44 111.348 1980.37 205.05 2052.3 348.066C2124.2 491.048 2173.02 683.159 2181.69 890.501C2190.35 1097.84 2157.21 1281.11 2096.65 1409.8C2036.08 1538.51 1948.16 1612.48 1847.32 1601.6C1746.49 1590.72 1651.56 1497.02 1579.64 1354C1507.73 1211.02 1458.91 1018.91 1450.25 811.57C1441.59 604.227 1474.72 420.961 1535.28 292.274C1595.85 163.556 1683.78 89.5861 1784.61 100.467Z" stroke="url(#paint78_linear_298_597)"/>
<path d="M1799.98 102.242C1900.86 114.622 1994.12 209.486 2063.29 353.165C2132.44 496.809 2177.44 689.085 2181.86 895.937C2186.28 1102.79 2149.27 1285 2085.91 1412.38C2022.52 1539.8 1932.84 1612.21 1831.96 1599.83C1731.07 1587.45 1637.82 1492.59 1568.64 1348.91C1499.49 1205.26 1454.49 1012.99 1450.07 806.134C1445.66 599.282 1482.66 417.069 1546.03 289.687C1609.41 162.276 1699.1 89.8616 1799.98 102.242Z" stroke="url(#paint79_linear_298_597)"/>
<path d="M1830.73 106.473C1931.61 121.839 2021.44 218.94 2085.04 363.812C2148.64 508.652 2185.95 701.083 2181.87 906.766C2177.79 1112.45 2133.1 1292.39 2064.17 1417.05C1995.22 1541.73 1902.1 1610.96 1801.21 1595.6C1700.32 1580.23 1610.5 1483.13 1546.89 1338.26C1483.3 1193.42 1445.99 1000.99 1450.06 795.305C1454.14 589.622 1498.83 409.68 1567.77 285.026C1636.72 160.343 1729.84 91.1063 1830.73 106.473Z" stroke="url(#paint80_linear_298_597)"/>
<path d="M1846.1 108.929C1946.94 125.782 2035.01 223.957 2095.8 369.36C2156.58 514.731 2190.03 707.152 2181.71 912.156C2173.38 1117.16 2124.87 1295.88 2053.18 1419.12C1981.48 1542.38 1886.68 1610 1785.84 1593.14C1684.99 1576.29 1596.93 1478.11 1536.13 1332.71C1475.35 1187.34 1441.9 994.919 1450.23 789.915C1458.55 584.91 1507.06 406.187 1578.75 282.954C1650.45 159.692 1745.25 92.0761 1846.1 108.929Z" stroke="url(#paint81_linear_298_597)"/>
<path d="M1861.46 111.61C1962.23 129.945 2048.51 229.164 2106.47 375.054C2164.43 520.912 2194 713.264 2181.43 917.527C2168.87 1121.79 2116.54 1299.24 2042.13 1421.02C1967.69 1542.82 1871.25 1608.79 1770.48 1590.46C1669.71 1572.13 1583.43 1472.91 1525.46 1327.02C1467.51 1181.16 1437.93 988.806 1450.5 784.543C1463.07 580.28 1515.39 402.829 1589.81 281.053C1664.24 159.251 1760.68 93.2764 1861.46 111.61Z" stroke="url(#paint82_linear_298_597)"/>
<path d="M1876.8 114.517C1977.47 134.327 2061.94 234.561 2117.06 380.893C2172.16 527.194 2197.86 719.418 2181.05 922.878C2164.24 1126.34 2108.12 1302.46 2031 1422.74C1953.86 1543.05 1855.8 1607.36 1755.13 1587.55C1654.47 1567.74 1569.99 1467.51 1514.88 1321.18C1459.77 1174.88 1434.08 982.652 1450.88 779.192C1467.69 575.731 1523.81 399.608 1600.93 279.327C1678.07 159.021 1776.13 94.7076 1876.8 114.517Z" stroke="url(#paint83_linear_298_597)"/>
<path d="M1892.13 117.649C1992.66 138.928 2075.29 240.145 2127.55 386.876C2179.79 533.575 2201.59 725.613 2180.55 928.208C2159.51 1130.8 2099.62 1305.55 2019.81 1424.3C1939.99 1543.07 1840.33 1605.7 1739.8 1584.42C1639.27 1563.14 1556.64 1461.93 1504.39 1315.2C1452.15 1168.5 1430.34 976.458 1451.38 773.863C1472.42 571.268 1532.32 396.524 1612.12 277.776C1691.95 159.003 1791.6 96.3698 1892.13 117.649Z" stroke="url(#paint84_linear_298_597)"/>
<path d="M1907.43 121.003C2007.8 143.746 2088.57 245.916 2137.94 392.999C2187.3 540.052 2205.21 731.845 2179.95 933.513C2154.68 1135.18 2091.02 1308.49 2008.56 1425.67C1926.07 1542.88 1824.86 1603.81 1724.5 1581.07C1624.13 1558.32 1543.36 1456.15 1493.99 1309.07C1444.63 1162.02 1426.72 970.225 1451.99 768.557C1477.25 566.889 1540.91 393.579 1623.38 276.398C1705.86 159.194 1807.07 98.2607 1907.43 121.003Z" stroke="url(#paint85_linear_298_597)"/>
<path d="M1922.71 124.58C2022.88 148.779 2101.76 251.87 2148.24 399.261C2194.71 546.623 2208.72 738.113 2179.23 938.793C2149.74 1139.47 2082.35 1311.3 1997.25 1426.87C1912.13 1542.47 1809.39 1601.69 1709.22 1577.49C1609.06 1553.29 1530.17 1450.2 1483.69 1302.81C1437.23 1155.45 1423.22 963.956 1452.7 763.275C1482.19 562.595 1549.59 390.771 1634.69 275.195C1719.81 159.594 1822.54 100.381 1922.71 124.58Z" stroke="url(#paint86_linear_298_597)"/>
<path d="M1937.96 128.379C2037.9 154.027 2114.87 258.007 2158.44 405.662C2201.99 553.288 2212.1 744.417 2178.4 944.047C2144.7 1143.68 2073.59 1313.96 1985.88 1427.9C1898.15 1541.86 1793.92 1599.34 1693.98 1573.69C1594.04 1548.04 1517.06 1444.06 1473.5 1296.41C1429.94 1148.78 1419.84 957.653 1453.53 758.022C1487.23 558.391 1558.35 388.106 1646.06 274.168C1733.78 160.207 1838.01 102.731 1937.96 128.379Z" stroke="url(#paint87_linear_298_597)"/>
<path d="M1953.16 132.397C2052.84 159.487 2127.88 264.325 2168.53 412.199C2209.16 560.043 2215.36 750.753 2177.46 949.273C2139.56 1147.79 2064.75 1316.49 1974.46 1428.75C1884.15 1541.04 1778.45 1596.76 1678.77 1569.67C1579.09 1542.58 1504.05 1437.75 1463.4 1289.87C1422.77 1142.03 1416.57 951.317 1454.47 752.797C1492.37 554.276 1567.18 385.581 1657.47 273.317C1747.78 161.031 1853.48 105.308 1953.16 132.397Z" stroke="url(#paint88_linear_298_597)"/>
<path d="M1968.33 136.633C2067.72 165.156 2140.81 270.82 2178.51 418.868C2216.21 566.886 2218.5 757.118 2176.41 954.468C2134.32 1151.82 2055.84 1318.87 1962.99 1429.43C1870.13 1540.01 1763 1593.96 1663.61 1565.44C1564.21 1536.91 1491.13 1431.25 1453.42 1283.2C1415.72 1135.18 1413.43 944.951 1455.52 747.6C1497.61 550.25 1576.1 383.197 1668.94 272.64C1761.81 162.062 1868.93 108.111 1968.33 136.633Z" stroke="url(#paint89_linear_298_597)"/>
<path d="M1983.44 141.089C2082.52 171.035 2153.63 277.494 2188.39 425.67C2223.14 573.817 2221.52 763.514 2175.25 959.633C2128.99 1155.75 2046.85 1321.11 1951.48 1429.93C1856.09 1538.76 1747.56 1590.93 1648.49 1560.98C1549.41 1531.04 1478.31 1424.58 1443.55 1276.4C1408.79 1128.25 1410.42 938.556 1456.68 742.437C1502.95 546.318 1585.08 380.957 1680.45 272.142C1775.84 163.306 1884.37 111.143 1983.44 141.089Z" stroke="url(#paint90_linear_298_597)"/>
<path d="M1998.51 145.759C2097.24 177.121 2166.34 284.341 2198.15 432.6C2229.94 580.831 2224.41 769.935 2173.98 964.764C2123.56 1159.59 2037.8 1323.21 1939.93 1430.25C1842.04 1537.31 1732.15 1587.67 1633.42 1556.31C1534.7 1524.95 1465.59 1417.73 1433.79 1269.47C1401.99 1121.24 1407.52 932.134 1457.95 737.305C1508.38 542.476 1594.14 378.858 1692.01 271.818C1789.89 164.756 1899.79 114.398 1998.51 145.759Z" stroke="url(#paint91_linear_298_597)"/>
<path d="M2013.52 150.645C2111.87 183.412 2178.95 291.361 2207.79 439.659C2236.62 587.928 2227.18 776.381 2172.61 969.861C2118.03 1163.34 2028.67 1325.17 1928.34 1430.4C1827.98 1535.65 1716.76 1584.19 1618.41 1551.42C1520.06 1518.66 1452.98 1410.71 1424.14 1262.41C1395.31 1114.14 1404.75 925.689 1459.33 732.209C1513.9 538.73 1603.26 376.905 1703.6 271.671C1803.95 166.418 1915.18 117.878 2013.52 150.645Z" stroke="url(#paint92_linear_298_597)"/>
<path d="M2028.48 155.745C2126.41 189.907 2191.45 298.552 2217.32 446.843C2243.17 595.106 2229.82 782.851 2171.12 974.922C2112.41 1166.99 2019.48 1326.98 1916.71 1430.37C1813.92 1533.78 1701.39 1580.49 1603.46 1546.33C1505.52 1512.16 1440.48 1403.52 1414.62 1255.23C1388.76 1106.97 1402.11 919.221 1460.81 727.15C1519.52 535.079 1612.45 375.096 1715.22 271.702C1818.02 168.288 1930.54 121.582 2028.48 155.745Z" stroke="url(#paint93_linear_298_597)"/>
<path d="M2043.36 161.056C2140.86 196.604 2203.84 305.91 2226.72 454.15C2249.59 602.361 2232.34 789.341 2169.53 979.945C2106.71 1170.55 2010.23 1328.64 1905.05 1430.16C1799.86 1531.71 1686.07 1576.56 1588.57 1541.02C1491.07 1505.47 1428.09 1396.16 1405.22 1247.92C1382.34 1099.71 1399.59 912.732 1462.41 722.128C1525.23 531.524 1621.7 373.431 1726.88 271.908C1832.08 170.365 1945.87 125.508 2043.36 161.056Z" stroke="url(#paint94_linear_298_597)"/>
<path d="M2058.18 166.575C2155.21 203.497 2216.11 313.433 2235.99 461.575C2255.88 609.69 2234.73 795.847 2167.82 984.926C2100.91 1174 2000.92 1330.16 1893.37 1429.78C1785.8 1529.42 1670.78 1572.42 1573.75 1535.49C1476.73 1498.57 1415.83 1388.64 1395.94 1240.49C1376.06 1092.38 1397.2 906.222 1464.11 717.143C1531.02 528.064 1631.01 371.91 1738.56 272.288C1846.13 172.647 1961.15 129.653 2058.18 166.575Z" stroke="url(#paint95_linear_298_597)"/>
<path d="M2072.93 172.304C2169.45 210.589 2228.25 321.121 2245.14 469.122C2262.03 617.094 2237 802.373 2166.01 989.869C2095.03 1177.36 1991.56 1331.53 1881.66 1429.22C1771.75 1526.93 1655.54 1568.05 1559.01 1529.76C1462.48 1491.48 1403.68 1380.95 1386.79 1232.95C1369.9 1084.98 1394.94 899.697 1465.92 712.201C1536.9 524.705 1640.38 370.538 1750.27 272.847C1860.18 175.138 1976.4 134.018 2072.93 172.304Z" stroke="url(#paint96_linear_298_597)"/>
<path d="M2087.59 178.239C2183.59 217.875 2240.27 328.969 2254.16 476.783C2268.05 624.569 2239.13 808.912 2164.1 994.768C2089.06 1180.62 1982.13 1332.76 1869.94 1428.49C1757.72 1524.23 1640.34 1563.47 1544.34 1523.83C1448.34 1484.19 1391.66 1373.1 1377.77 1225.29C1363.89 1077.5 1392.8 893.157 1467.84 707.3C1542.87 521.444 1649.8 369.31 1762 273.581C1874.22 177.835 1991.59 138.603 2087.59 178.239Z" stroke="url(#paint97_linear_298_597)"/>
<path d="M2102.17 184.38C2197.62 225.356 2252.16 336.977 2263.05 484.559C2273.93 632.113 2241.14 815.465 2162.07 999.625C2083.01 1183.78 1972.66 1333.84 1858.19 1427.58C1743.7 1521.33 1625.2 1558.66 1529.76 1517.69C1434.32 1476.71 1379.77 1365.09 1368.89 1217.51C1358.01 1069.96 1390.8 886.605 1469.86 702.445C1548.92 518.285 1659.27 368.23 1773.74 274.492C1888.23 180.736 2006.73 143.404 2102.17 184.38Z" stroke="url(#paint98_linear_298_597)"/>
<g opacity="0.75" filter="url(#filter0_f_298_597)">
<ellipse cx="1373.5" cy="528.33" rx="202.777" ry="236.255" transform="rotate(-116.193 1373.5 528.33)" fill="url(#paint99_linear_298_597)"/>
</g>
</g>
<defs>
<filter id="filter0_f_298_597" x="823.326" y="-1.42474" width="1100.35" height="1059.51" filterUnits="userSpaceOnUse" color-interpolation-filters="sRGB">
<feFlood flood-opacity="0" result="BackgroundImageFix"/>
<feBlend mode="normal" in="SourceGraphic" in2="BackgroundImageFix" result="shape"/>
<feGaussianBlur stdDeviation="160" result="effect1_foregroundBlur_298_597"/>
</filter>
<linearGradient id="paint0_linear_298_597" x1="884.379" y1="899.083" x2="1710.96" y2="-75.8621" gradientUnits="userSpaceOnUse">
<stop stop-color="white" stop-opacity="0.05"/>
<stop offset="1" stop-color="white" stop-opacity="0.15"/>
</linearGradient>
<linearGradient id="paint1_linear_298_597" x1="880.883" y1="884.792" x2="1723.58" y2="-80.0852" gradientUnits="userSpaceOnUse">
<stop stop-color="white" stop-opacity="0.05"/>
<stop offset="1" stop-color="white" stop-opacity="0.15"/>
</linearGradient>
<linearGradient id="paint2_linear_298_597" x1="877.671" y1="870.49" x2="1736.5" y2="-84.0919" gradientUnits="userSpaceOnUse">
<stop stop-color="white" stop-opacity="0.05"/>
<stop offset="1" stop-color="white" stop-opacity="0.15"/>
</linearGradient>
<linearGradient id="paint3_linear_298_597" x1="874.745" y1="856.183" x2="1749.75" y2="-87.8677" gradientUnits="userSpaceOnUse">
<stop stop-color="white" stop-opacity="0.05"/>
<stop offset="1" stop-color="white" stop-opacity="0.15"/>
</linearGradient>
<linearGradient id="paint4_linear_298_597" x1="872.106" y1="841.874" x2="1763.31" y2="-91.3992" gradientUnits="userSpaceOnUse">
<stop stop-color="white" stop-opacity="0.05"/>
<stop offset="1" stop-color="white" stop-opacity="0.15"/>
</linearGradient>
<linearGradient id="paint5_linear_298_597" x1="869.755" y1="827.567" x2="1777.19" y2="-94.6724" gradientUnits="userSpaceOnUse">
<stop stop-color="white" stop-opacity="0.05"/>
<stop offset="1" stop-color="white" stop-opacity="0.15"/>
</linearGradient>
<linearGradient id="paint6_linear_298_597" x1="867.692" y1="813.267" x2="1791.38" y2="-97.6732" gradientUnits="userSpaceOnUse">
<stop stop-color="white" stop-opacity="0.05"/>
<stop offset="1" stop-color="white" stop-opacity="0.15"/>
</linearGradient>
<linearGradient id="paint7_linear_298_597" x1="865.917" y1="798.979" x2="1805.89" y2="-100.387" gradientUnits="userSpaceOnUse">
<stop stop-color="white" stop-opacity="0.05"/>
<stop offset="1" stop-color="white" stop-opacity="0.15"/>
</linearGradient>
<linearGradient id="paint8_linear_298_597" x1="864.433" y1="784.707" x2="1820.71" y2="-102.797" gradientUnits="userSpaceOnUse">
<stop stop-color="white" stop-opacity="0.05"/>
<stop offset="1" stop-color="white" stop-opacity="0.15"/>
</linearGradient>
<linearGradient id="paint9_linear_298_597" x1="863.237" y1="770.456" x2="1835.85" y2="-104.889" gradientUnits="userSpaceOnUse">
<stop stop-color="white" stop-opacity="0.05"/>
<stop offset="1" stop-color="white" stop-opacity="0.15"/>
</linearGradient>
<linearGradient id="paint10_linear_298_597" x1="862.332" y1="756.229" x2="1851.28" y2="-106.649" gradientUnits="userSpaceOnUse">
<stop stop-color="white" stop-opacity="0.05"/>
<stop offset="1" stop-color="white" stop-opacity="0.15"/>
</linearGradient>
<linearGradient id="paint11_linear_298_597" x1="861.719" y1="742.03" x2="1867.02" y2="-108.062" gradientUnits="userSpaceOnUse">
<stop stop-color="white" stop-opacity="0.05"/>
<stop offset="1" stop-color="white" stop-opacity="0.15"/>
</linearGradient>
<linearGradient id="paint12_linear_298_597" x1="861.395" y1="727.865" x2="1883.06" y2="-109.11" gradientUnits="userSpaceOnUse">
<stop stop-color="white" stop-opacity="0.05"/>
<stop offset="1" stop-color="white" stop-opacity="0.15"/>
</linearGradient>
<linearGradient id="paint13_linear_298_597" x1="861.362" y1="713.737" x2="1899.39" y2="-109.78" gradientUnits="userSpaceOnUse">
<stop stop-color="white" stop-opacity="0.05"/>
<stop offset="1" stop-color="white" stop-opacity="0.15"/>
</linearGradient>
<linearGradient id="paint14_linear_298_597" x1="861.619" y1="699.651" x2="1916" y2="-110.053" gradientUnits="userSpaceOnUse">
<stop stop-color="white" stop-opacity="0.05"/>
<stop offset="1" stop-color="white" stop-opacity="0.15"/>
</linearGradient>
<linearGradient id="paint15_linear_298_597" x1="862.168" y1="685.612" x2="1932.89" y2="-109.916" gradientUnits="userSpaceOnUse">
<stop stop-color="white" stop-opacity="0.05"/>
<stop offset="1" stop-color="white" stop-opacity="0.15"/>
</linearGradient>
<linearGradient id="paint16_linear_298_597" x1="863.007" y1="671.623" x2="1950.05" y2="-109.352" gradientUnits="userSpaceOnUse">
<stop stop-color="white" stop-opacity="0.05"/>
<stop offset="1" stop-color="white" stop-opacity="0.15"/>
</linearGradient>
<linearGradient id="paint17_linear_298_597" x1="864.137" y1="657.688" x2="1967.47" y2="-108.345" gradientUnits="userSpaceOnUse">
<stop stop-color="white" stop-opacity="0.05"/>
<stop offset="1" stop-color="white" stop-opacity="0.15"/>
</linearGradient>
<linearGradient id="paint18_linear_298_597" x1="865.557" y1="643.812" x2="1985.15" y2="-106.881" gradientUnits="userSpaceOnUse">
<stop stop-color="white" stop-opacity="0.05"/>
<stop offset="1" stop-color="white" stop-opacity="0.15"/>
</linearGradient>
<linearGradient id="paint19_linear_298_597" x1="867.265" y1="630" x2="2003.06" y2="-104.941" gradientUnits="userSpaceOnUse">
<stop stop-color="white" stop-opacity="0.05"/>
<stop offset="1" stop-color="white" stop-opacity="0.15"/>
</linearGradient>
<linearGradient id="paint20_linear_298_597" x1="869.262" y1="616.255" x2="2021.2" y2="-102.511" gradientUnits="userSpaceOnUse">
<stop stop-color="white" stop-opacity="0.05"/>
<stop offset="1" stop-color="white" stop-opacity="0.15"/>
</linearGradient>
<linearGradient id="paint21_linear_298_597" x1="871.549" y1="602.58" x2="2039.56" y2="-99.5772" gradientUnits="userSpaceOnUse">
<stop stop-color="white" stop-opacity="0.05"/>
<stop offset="1" stop-color="white" stop-opacity="0.15"/>
</linearGradient>
<linearGradient id="paint22_linear_298_597" x1="874.123" y1="588.983" x2="2058.12" y2="-96.1215" gradientUnits="userSpaceOnUse">
<stop stop-color="white" stop-opacity="0.05"/>
<stop offset="1" stop-color="white" stop-opacity="0.15"/>
</linearGradient>
<linearGradient id="paint23_linear_298_597" x1="876.983" y1="575.464" x2="2076.87" y2="-92.1306" gradientUnits="userSpaceOnUse">
<stop stop-color="white" stop-opacity="0.05"/>
<stop offset="1" stop-color="white" stop-opacity="0.15"/>
</linearGradient>
<linearGradient id="paint24_linear_298_597" x1="880.13" y1="562.03" x2="2095.79" y2="-87.5895" gradientUnits="userSpaceOnUse">
<stop stop-color="white" stop-opacity="0.05"/>
<stop offset="1" stop-color="white" stop-opacity="0.15"/>
</linearGradient>
<linearGradient id="paint25_linear_298_597" x1="883.562" y1="548.684" x2="2114.86" y2="-82.4836" gradientUnits="userSpaceOnUse">
<stop stop-color="white" stop-opacity="0.05"/>
<stop offset="1" stop-color="white" stop-opacity="0.15"/>
</linearGradient>
<linearGradient id="paint26_linear_298_597" x1="887.277" y1="535.43" x2="2134.08" y2="-76.7995" gradientUnits="userSpaceOnUse">
<stop stop-color="white" stop-opacity="0.05"/>
<stop offset="1" stop-color="white" stop-opacity="0.15"/>
</linearGradient>
<linearGradient id="paint27_linear_298_597" x1="891.276" y1="522.271" x2="2153.41" y2="-70.5247" gradientUnits="userSpaceOnUse">
<stop stop-color="white" stop-opacity="0.05"/>
<stop offset="1" stop-color="white" stop-opacity="0.15"/>
</linearGradient>
<linearGradient id="paint28_linear_298_597" x1="895.557" y1="509.214" x2="2172.84" y2="-63.645" gradientUnits="userSpaceOnUse">
<stop stop-color="white" stop-opacity="0.05"/>
<stop offset="1" stop-color="white" stop-opacity="0.15"/>
</linearGradient>
<linearGradient id="paint29_linear_298_597" x1="900.117" y1="496.261" x2="2192.35" y2="-56.1488" gradientUnits="userSpaceOnUse">
<stop stop-color="white" stop-opacity="0.05"/>
<stop offset="1" stop-color="white" stop-opacity="0.15"/>
</linearGradient>
<linearGradient id="paint30_linear_298_597" x1="904.957" y1="483.414" x2="2211.91" y2="-48.0265" gradientUnits="userSpaceOnUse">
<stop stop-color="white" stop-opacity="0.05"/>
<stop offset="1" stop-color="white" stop-opacity="0.15"/>
</linearGradient>
<linearGradient id="paint31_linear_298_597" x1="910.074" y1="470.681" x2="2231.51" y2="-39.2659" gradientUnits="userSpaceOnUse">
<stop stop-color="white" stop-opacity="0.05"/>
<stop offset="1" stop-color="white" stop-opacity="0.15"/>
</linearGradient>
<linearGradient id="paint32_linear_298_597" x1="915.468" y1="458.063" x2="2251.12" y2="-29.8579" gradientUnits="userSpaceOnUse">
<stop stop-color="white" stop-opacity="0.05"/>
<stop offset="1" stop-color="white" stop-opacity="0.15"/>
</linearGradient>
<linearGradient id="paint33_linear_298_597" x1="921.135" y1="445.565" x2="2270.7" y2="-19.7951" gradientUnits="userSpaceOnUse">
<stop stop-color="white" stop-opacity="0.05"/>
<stop offset="1" stop-color="white" stop-opacity="0.15"/>
</linearGradient>
<linearGradient id="paint34_linear_298_597" x1="927.075" y1="433.19" x2="2290.25" y2="-9.06937" gradientUnits="userSpaceOnUse">
<stop stop-color="white" stop-opacity="0.05"/>
<stop offset="1" stop-color="white" stop-opacity="0.15"/>
</linearGradient>
<linearGradient id="paint35_linear_298_597" x1="933.286" y1="420.943" x2="2309.73" y2="2.32623" gradientUnits="userSpaceOnUse">
<stop stop-color="white" stop-opacity="0.05"/>
<stop offset="1" stop-color="white" stop-opacity="0.15"/>
</linearGradient>
<linearGradient id="paint36_linear_298_597" x1="939.765" y1="408.827" x2="2329.1" y2="14.3952" gradientUnits="userSpaceOnUse">
<stop stop-color="white" stop-opacity="0.05"/>
<stop offset="1" stop-color="white" stop-opacity="0.15"/>
</linearGradient>
<linearGradient id="paint37_linear_298_597" x1="946.513" y1="396.845" x2="2348.36" y2="27.1407" gradientUnits="userSpaceOnUse">
<stop stop-color="white" stop-opacity="0.05"/>
<stop offset="1" stop-color="white" stop-opacity="0.15"/>
</linearGradient>
<linearGradient id="paint38_linear_298_597" x1="953.523" y1="385.001" x2="2367.45" y2="40.5656" gradientUnits="userSpaceOnUse">
<stop stop-color="white" stop-opacity="0.05"/>
<stop offset="1" stop-color="white" stop-opacity="0.15"/>
</linearGradient>
<linearGradient id="paint39_linear_298_597" x1="960.798" y1="373.3" x2="2386.36" y2="54.6711" gradientUnits="userSpaceOnUse">
<stop stop-color="white" stop-opacity="0.05"/>
<stop offset="1" stop-color="white" stop-opacity="0.15"/>
</linearGradient>
<linearGradient id="paint40_linear_298_597" x1="968.333" y1="361.745" x2="2405.05" y2="69.4544" gradientUnits="userSpaceOnUse">
<stop stop-color="white" stop-opacity="0.05"/>
<stop offset="1" stop-color="white" stop-opacity="0.15"/>
</linearGradient>
<linearGradient id="paint41_linear_298_597" x1="976.126" y1="350.337" x2="2423.5" y2="84.9124" gradientUnits="userSpaceOnUse">
<stop stop-color="white" stop-opacity="0.05"/>
<stop offset="1" stop-color="white" stop-opacity="0.15"/>
</linearGradient>
<linearGradient id="paint42_linear_298_597" x1="984.174" y1="339.083" x2="2441.66" y2="101.043" gradientUnits="userSpaceOnUse">
<stop stop-color="white" stop-opacity="0.05"/>
<stop offset="1" stop-color="white" stop-opacity="0.15"/>
</linearGradient>
<linearGradient id="paint43_linear_298_597" x1="992.477" y1="327.984" x2="2459.5" y2="117.836" gradientUnits="userSpaceOnUse">
<stop stop-color="white" stop-opacity="0.05"/>
<stop offset="1" stop-color="white" stop-opacity="0.15"/>
</linearGradient>
<linearGradient id="paint44_linear_298_597" x1="1001.03" y1="317.045" x2="2477.01" y2="135.286" gradientUnits="userSpaceOnUse">
<stop stop-color="white" stop-opacity="0.05"/>
<stop offset="1" stop-color="white" stop-opacity="0.15"/>
</linearGradient>
<linearGradient id="paint45_linear_298_597" x1="1009.83" y1="306.27" x2="2494.13" y2="153.381" gradientUnits="userSpaceOnUse">
<stop stop-color="white" stop-opacity="0.05"/>
<stop offset="1" stop-color="white" stop-opacity="0.15"/>
</linearGradient>
<linearGradient id="paint46_linear_298_597" x1="1018.88" y1="295.66" x2="2510.84" y2="172.109" gradientUnits="userSpaceOnUse">
<stop stop-color="white" stop-opacity="0.05"/>
<stop offset="1" stop-color="white" stop-opacity="0.15"/>
</linearGradient>
<linearGradient id="paint47_linear_298_597" x1="1028.17" y1="285.218" x2="2527.12" y2="191.454" gradientUnits="userSpaceOnUse">
<stop stop-color="white" stop-opacity="0.05"/>
<stop offset="1" stop-color="white" stop-opacity="0.15"/>
</linearGradient>
<linearGradient id="paint48_linear_298_597" x1="1037.7" y1="274.949" x2="2542.91" y2="211.4" gradientUnits="userSpaceOnUse">
<stop stop-color="white" stop-opacity="0.05"/>
<stop offset="1" stop-color="white" stop-opacity="0.15"/>
</linearGradient>
<linearGradient id="paint49_linear_298_597" x1="1047.46" y1="264.857" x2="2558.2" y2="231.93" gradientUnits="userSpaceOnUse">
<stop stop-color="white" stop-opacity="0.05"/>
<stop offset="1" stop-color="white" stop-opacity="0.15"/>
</linearGradient>
<linearGradient id="paint50_linear_298_597" x1="1057.46" y1="254.942" x2="2572.96" y2="253.019" gradientUnits="userSpaceOnUse">
<stop stop-color="white" stop-opacity="0.05"/>
<stop offset="1" stop-color="white" stop-opacity="0.15"/>
</linearGradient>
<linearGradient id="paint51_linear_298_597" x1="1067.69" y1="245.208" x2="2587.14" y2="274.647" gradientUnits="userSpaceOnUse">
<stop stop-color="white" stop-opacity="0.05"/>
<stop offset="1" stop-color="white" stop-opacity="0.15"/>
</linearGradient>
<linearGradient id="paint52_linear_298_597" x1="1078.15" y1="235.66" x2="2600.74" y2="296.788" gradientUnits="userSpaceOnUse">
<stop stop-color="white" stop-opacity="0.05"/>
<stop offset="1" stop-color="white" stop-opacity="0.15"/>
</linearGradient>
<linearGradient id="paint53_linear_298_597" x1="1088.84" y1="226.298" x2="2613.71" y2="319.414" gradientUnits="userSpaceOnUse">
<stop stop-color="white" stop-opacity="0.05"/>
<stop offset="1" stop-color="white" stop-opacity="0.15"/>
</linearGradient>
<linearGradient id="paint54_linear_298_597" x1="1099.74" y1="217.128" x2="2626.03" y2="342.497" gradientUnits="userSpaceOnUse">
<stop stop-color="white" stop-opacity="0.05"/>
<stop offset="1" stop-color="white" stop-opacity="0.15"/>
</linearGradient>
<linearGradient id="paint55_linear_298_597" x1="1110.87" y1="208.15" x2="2637.68" y2="366.005" gradientUnits="userSpaceOnUse">
<stop stop-color="white" stop-opacity="0.05"/>
<stop offset="1" stop-color="white" stop-opacity="0.15"/>
</linearGradient>
<linearGradient id="paint56_linear_298_597" x1="1122.21" y1="199.368" x2="2648.63" y2="389.905" gradientUnits="userSpaceOnUse">
<stop stop-color="white" stop-opacity="0.05"/>
<stop offset="1" stop-color="white" stop-opacity="0.15"/>
</linearGradient>
<linearGradient id="paint57_linear_298_597" x1="1133.76" y1="190.783" x2="2658.87" y2="414.162" gradientUnits="userSpaceOnUse">
<stop stop-color="white" stop-opacity="0.05"/>
<stop offset="1" stop-color="white" stop-opacity="0.15"/>
</linearGradient>
<linearGradient id="paint58_linear_298_597" x1="1145.51" y1="182.402" x2="2668.37" y2="438.742" gradientUnits="userSpaceOnUse">
<stop stop-color="white" stop-opacity="0.05"/>
<stop offset="1" stop-color="white" stop-opacity="0.15"/>
</linearGradient>
<linearGradient id="paint59_linear_298_597" x1="1157.48" y1="174.223" x2="2677.12" y2="463.605" gradientUnits="userSpaceOnUse">
<stop stop-color="white" stop-opacity="0.05"/>
<stop offset="1" stop-color="white" stop-opacity="0.15"/>
</linearGradient>
<linearGradient id="paint60_linear_298_597" x1="1169.64" y1="166.25" x2="2685.1" y2="488.713" gradientUnits="userSpaceOnUse">
<stop stop-color="white" stop-opacity="0.05"/>
<stop offset="1" stop-color="white" stop-opacity="0.15"/>
</linearGradient>
<linearGradient id="paint61_linear_298_597" x1="1182" y1="158.487" x2="2692.3" y2="514.026" gradientUnits="userSpaceOnUse">
<stop stop-color="white" stop-opacity="0.05"/>
<stop offset="1" stop-color="white" stop-opacity="0.15"/>
</linearGradient>
<linearGradient id="paint62_linear_298_597" x1="1194.55" y1="150.933" x2="2698.72" y2="539.503" gradientUnits="userSpaceOnUse">
<stop stop-color="white" stop-opacity="0.05"/>
<stop offset="1" stop-color="white" stop-opacity="0.15"/>
</linearGradient>
<linearGradient id="paint63_linear_298_597" x1="1207.29" y1="143.594" x2="2704.34" y2="565.103" gradientUnits="userSpaceOnUse">
<stop stop-color="white" stop-opacity="0.05"/>
<stop offset="1" stop-color="white" stop-opacity="0.15"/>
</linearGradient>
<linearGradient id="paint64_linear_298_597" x1="1220.22" y1="136.469" x2="2709.16" y2="590.783" gradientUnits="userSpaceOnUse">
<stop stop-color="white" stop-opacity="0.05"/>
<stop offset="1" stop-color="white" stop-opacity="0.15"/>
</linearGradient>
<linearGradient id="paint65_linear_298_597" x1="1233.33" y1="129.563" x2="2713.18" y2="616.502" gradientUnits="userSpaceOnUse">
<stop stop-color="white" stop-opacity="0.05"/>
<stop offset="1" stop-color="white" stop-opacity="0.15"/>
</linearGradient>
<linearGradient id="paint66_linear_298_597" x1="1246.62" y1="122.876" x2="2716.39" y2="642.216" gradientUnits="userSpaceOnUse">
<stop stop-color="white" stop-opacity="0.05"/>
<stop offset="1" stop-color="white" stop-opacity="0.15"/>
</linearGradient>
<linearGradient id="paint67_linear_298_597" x1="1260.08" y1="116.41" x2="2718.82" y2="667.884" gradientUnits="userSpaceOnUse">
<stop stop-color="white" stop-opacity="0.05"/>
<stop offset="1" stop-color="white" stop-opacity="0.15"/>
</linearGradient>
<linearGradient id="paint68_linear_298_597" x1="1273.71" y1="110.169" x2="2720.46" y2="693.464" gradientUnits="userSpaceOnUse">
<stop stop-color="white" stop-opacity="0.05"/>
<stop offset="1" stop-color="white" stop-opacity="0.15"/>
</linearGradient>
<linearGradient id="paint69_linear_298_597" x1="1287.5" y1="104.154" x2="2721.31" y2="718.915" gradientUnits="userSpaceOnUse">
<stop stop-color="white" stop-opacity="0.05"/>
<stop offset="1" stop-color="white" stop-opacity="0.15"/>
</linearGradient>
<linearGradient id="paint70_linear_298_597" x1="1301.46" y1="98.3652" x2="2721.41" y2="744.195" gradientUnits="userSpaceOnUse">
<stop stop-color="white" stop-opacity="0.05"/>
<stop offset="1" stop-color="white" stop-opacity="0.15"/>
</linearGradient>
<linearGradient id="paint71_linear_298_597" x1="1315.57" y1="92.8063" x2="2720.75" y2="769.268" gradientUnits="userSpaceOnUse">
<stop stop-color="white" stop-opacity="0.05"/>
<stop offset="1" stop-color="white" stop-opacity="0.15"/>
</linearGradient>
<linearGradient id="paint72_linear_298_597" x1="1329.83" y1="87.4794" x2="2719.35" y2="794.094" gradientUnits="userSpaceOnUse">
<stop stop-color="white" stop-opacity="0.05"/>
<stop offset="1" stop-color="white" stop-opacity="0.15"/>
</linearGradient>
<linearGradient id="paint73_linear_298_597" x1="1344.24" y1="82.3834" x2="2717.24" y2="818.636" gradientUnits="userSpaceOnUse">
<stop stop-color="white" stop-opacity="0.05"/>
<stop offset="1" stop-color="white" stop-opacity="0.15"/>
</linearGradient>
<linearGradient id="paint74_linear_298_597" x1="1358.8" y1="77.5223" x2="2714.44" y2="842.86" gradientUnits="userSpaceOnUse">
<stop stop-color="white" stop-opacity="0.05"/>
<stop offset="1" stop-color="white" stop-opacity="0.15"/>
</linearGradient>
<linearGradient id="paint75_linear_298_597" x1="1373.5" y1="72.8973" x2="2710.97" y2="866.733" gradientUnits="userSpaceOnUse">
<stop stop-color="white" stop-opacity="0.05"/>
<stop offset="1" stop-color="white" stop-opacity="0.15"/>
</linearGradient>
<linearGradient id="paint76_linear_298_597" x1="1388.33" y1="68.5085" x2="2706.86" y2="890.222" gradientUnits="userSpaceOnUse">
<stop stop-color="white" stop-opacity="0.05"/>
<stop offset="1" stop-color="white" stop-opacity="0.15"/>
</linearGradient>
<linearGradient id="paint77_linear_298_597" x1="1403.29" y1="64.3597" x2="2702.13" y2="913.302" gradientUnits="userSpaceOnUse">
<stop stop-color="white" stop-opacity="0.05"/>
<stop offset="1" stop-color="white" stop-opacity="0.15"/>
</linearGradient>
<linearGradient id="paint78_linear_298_597" x1="1418.37" y1="60.4483" x2="2696.82" y2="935.941" gradientUnits="userSpaceOnUse">
<stop stop-color="white" stop-opacity="0.05"/>
<stop offset="1" stop-color="white" stop-opacity="0.15"/>
</linearGradient>
<linearGradient id="paint79_linear_298_597" x1="1433.58" y1="56.7792" x2="2690.95" y2="958.118" gradientUnits="userSpaceOnUse">
<stop stop-color="white" stop-opacity="0.05"/>
<stop offset="1" stop-color="white" stop-opacity="0.15"/>
</linearGradient>
<linearGradient id="paint80_linear_298_597" x1="1464.34" y1="50.1667" x2="2677.68" y2="1001" gradientUnits="userSpaceOnUse">
<stop stop-color="white" stop-opacity="0.05"/>
<stop offset="1" stop-color="white" stop-opacity="0.15"/>
</linearGradient>
<linearGradient id="paint81_linear_298_597" x1="1479.88" y1="47.226" x2="2670.34" y2="1021.66" gradientUnits="userSpaceOnUse">
<stop stop-color="white" stop-opacity="0.05"/>
<stop offset="1" stop-color="white" stop-opacity="0.15"/>
</linearGradient>
<linearGradient id="paint82_linear_298_597" x1="1495.53" y1="44.5297" x2="2662.58" y2="1041.79" gradientUnits="userSpaceOnUse">
<stop stop-color="white" stop-opacity="0.05"/>
<stop offset="1" stop-color="white" stop-opacity="0.15"/>
</linearGradient>
<linearGradient id="paint83_linear_298_597" x1="1511.27" y1="42.0793" x2="2654.42" y2="1061.37" gradientUnits="userSpaceOnUse">
<stop stop-color="white" stop-opacity="0.05"/>
<stop offset="1" stop-color="white" stop-opacity="0.15"/>
</linearGradient>
<linearGradient id="paint84_linear_298_597" x1="1527.1" y1="39.8759" x2="2645.92" y2="1080.38" gradientUnits="userSpaceOnUse">
<stop stop-color="white" stop-opacity="0.05"/>
<stop offset="1" stop-color="white" stop-opacity="0.15"/>
</linearGradient>
<linearGradient id="paint85_linear_298_597" x1="1543.03" y1="37.9186" x2="2637.09" y2="1098.84" gradientUnits="userSpaceOnUse">
<stop stop-color="white" stop-opacity="0.05"/>
<stop offset="1" stop-color="white" stop-opacity="0.15"/>
</linearGradient>
<linearGradient id="paint86_linear_298_597" x1="1559.04" y1="36.2088" x2="2627.98" y2="1116.72" gradientUnits="userSpaceOnUse">
<stop stop-color="white" stop-opacity="0.05"/>
<stop offset="1" stop-color="white" stop-opacity="0.15"/>
</linearGradient>
<linearGradient id="paint87_linear_298_597" x1="1575.12" y1="34.7485" x2="2618.62" y2="1134.02" gradientUnits="userSpaceOnUse">
<stop stop-color="white" stop-opacity="0.05"/>
<stop offset="1" stop-color="white" stop-opacity="0.15"/>
</linearGradient>
<linearGradient id="paint88_linear_298_597" x1="1591.28" y1="33.5366" x2="2609.03" y2="1150.75" gradientUnits="userSpaceOnUse">
<stop stop-color="white" stop-opacity="0.05"/>
<stop offset="1" stop-color="white" stop-opacity="0.15"/>
</linearGradient>
<linearGradient id="paint89_linear_298_597" x1="1607.5" y1="32.5726" x2="2599.27" y2="1166.91" gradientUnits="userSpaceOnUse">
<stop stop-color="white" stop-opacity="0.05"/>
<stop offset="1" stop-color="white" stop-opacity="0.15"/>
</linearGradient>
<linearGradient id="paint90_linear_298_597" x1="1623.79" y1="31.8595" x2="2589.34" y2="1182.5" gradientUnits="userSpaceOnUse">
<stop stop-color="white" stop-opacity="0.05"/>
<stop offset="1" stop-color="white" stop-opacity="0.15"/>
</linearGradient>
<linearGradient id="paint91_linear_298_597" x1="1640.14" y1="31.3944" x2="2579.29" y2="1197.52" gradientUnits="userSpaceOnUse">
<stop stop-color="white" stop-opacity="0.05"/>
<stop offset="1" stop-color="white" stop-opacity="0.15"/>
</linearGradient>
<linearGradient id="paint92_linear_298_597" x1="1656.55" y1="31.1802" x2="2569.15" y2="1211.99" gradientUnits="userSpaceOnUse">
<stop stop-color="white" stop-opacity="0.05"/>
<stop offset="1" stop-color="white" stop-opacity="0.15"/>
</linearGradient>
<linearGradient id="paint93_linear_298_597" x1="1673" y1="31.2159" x2="2558.94" y2="1225.91" gradientUnits="userSpaceOnUse">
<stop stop-color="white" stop-opacity="0.05"/>
<stop offset="1" stop-color="white" stop-opacity="0.15"/>
</linearGradient>
<linearGradient id="paint94_linear_298_597" x1="1689.49" y1="31.501" x2="2548.69" y2="1239.29" gradientUnits="userSpaceOnUse">
<stop stop-color="white" stop-opacity="0.05"/>
<stop offset="1" stop-color="white" stop-opacity="0.15"/>
</linearGradient>
<linearGradient id="paint95_linear_298_597" x1="1706.02" y1="32.0342" x2="2538.43" y2="1252.15" gradientUnits="userSpaceOnUse">
<stop stop-color="white" stop-opacity="0.05"/>
<stop offset="1" stop-color="white" stop-opacity="0.15"/>
</linearGradient>
<linearGradient id="paint96_linear_298_597" x1="1722.59" y1="32.8177" x2="2528.18" y2="1264.5" gradientUnits="userSpaceOnUse">
<stop stop-color="white" stop-opacity="0.05"/>
<stop offset="1" stop-color="white" stop-opacity="0.15"/>
</linearGradient>
<linearGradient id="paint97_linear_298_597" x1="1739.19" y1="33.8506" x2="2517.96" y2="1276.34" gradientUnits="userSpaceOnUse">
<stop stop-color="white" stop-opacity="0.05"/>
<stop offset="1" stop-color="white" stop-opacity="0.15"/>
</linearGradient>
<linearGradient id="paint98_linear_298_597" x1="1755.8" y1="35.1329" x2="2507.8" y2="1287.71" gradientUnits="userSpaceOnUse">
<stop stop-color="white" stop-opacity="0.05"/>
<stop offset="1" stop-color="white" stop-opacity="0.15"/>
</linearGradient>
<linearGradient id="paint99_linear_298_597" x1="1231.96" y1="226.579" x2="1655.82" y2="289.528" gradientUnits="userSpaceOnUse">
<stop stop-color="#FAB656"/>
<stop offset="1" stop-color="#C766FF"/>
</linearGradient>
<clipPath id="clip0_298_597">
<rect width="1440" height="2587" fill="white"/>
</clipPath>
</defs>
</svg>
